<svg width="16" height="16" viewBox="0 0 16 16" fill="none" xmlns="http://www.w3.org/2000/svg">
<path fill-rule="evenodd" clip-rule="evenodd" d="M1.82698 4.13803C1.5 4.77976 1.5 5.61984 1.5 7.3V8.7C1.5 10.3802 1.5 11.2202 1.82698 11.862C2.1146 12.4265 2.57354 12.8854 3.13803 13.173C3.77976 13.5 4.61984 13.5 6.3 13.5H9.7C11.3802 13.5 12.2202 13.5 12.862 13.173C13.4265 12.8854 13.8854 12.4265 14.173 11.862C14.5 11.2202 14.5 10.3802 14.5 8.7V7.3C14.5 5.61984 14.5 4.77976 14.173 4.13803C13.8854 3.57354 13.4265 3.1146 12.862 2.82698C12.2202 2.5 11.3802 2.5 9.7 2.5H6.3C4.61984 2.5 3.77976 2.5 3.13803 2.82698C2.57354 3.1146 2.1146 3.57354 1.82698 4.13803ZM3.64081 8.62416V9.42282H6.13745V10.5H7.10725V9.42282H7.76161V8.62081H7.10725V5.5H5.84215L3.64081 8.62416ZM6.13745 6.48658V8.62081H4.63745V8.61409L6.13074 6.48658H6.13745ZM8.06054 5.5V10.5H9.09409V9.12416L9.75517 8.3557L11.1679 10.5H12.3592L10.4364 7.66107L12.3089 5.5H11.0706L9.8357 6.94295C9.71043 7.09284 9.58626 7.24161 9.46322 7.38926L9.09409 7.83221V5.5H8.06054Z" fill="black"/>
</svg>
