<svg width="16" height="16" viewBox="0 0 16 16" fill="none" xmlns="http://www.w3.org/2000/svg">
<path fill-rule="evenodd" clip-rule="evenodd" d="M1.82698 4.13803C1.5 4.77976 1.5 5.61984 1.5 7.3V8.7C1.5 10.3802 1.5 11.2202 1.82698 11.862C2.1146 12.4265 2.57354 12.8854 3.13803 13.173C3.77976 13.5 4.61984 13.5 6.3 13.5H9.7C11.3802 13.5 12.2202 13.5 12.862 13.173C13.4265 12.8854 13.8854 12.4265 14.173 11.862C14.5 11.2202 14.5 10.3802 14.5 8.7V7.3C14.5 5.61984 14.5 4.77976 14.173 4.13803C13.8854 3.57354 13.4265 3.1146 12.862 2.82698C12.2202 2.5 11.3802 2.5 9.7 2.5H6.3C4.61984 2.5 3.77976 2.5 3.13803 2.82698C2.57354 3.1146 2.1146 3.57354 1.82698 4.13803ZM12.2674 6.08914C12.4547 5.88623 12.4421 5.5699 12.2392 5.3826C12.0363 5.1953 11.7199 5.20795 11.5326 5.41086L9.40002 7.72118V5.75C9.40002 5.47386 9.17617 5.25 8.90002 5.25C8.62388 5.25 8.40002 5.47386 8.40002 5.75V9V10.25C8.40002 10.5261 8.62388 10.75 8.90002 10.75C9.17617 10.75 9.40002 10.5261 9.40002 10.25V9.19549L9.89881 8.65514L11.518 10.5726C11.6962 10.7836 12.0116 10.8102 12.2226 10.632C12.4336 10.4538 12.4602 10.1384 12.282 9.92741L10.5823 7.91464L12.2674 6.08914ZM6 5.25C5.83684 5.25 5.68395 5.32961 5.59038 5.46327L3.49041 8.46327C3.43158 8.54731 3.40002 8.64742 3.40002 8.75V9C3.40002 9.27614 3.62388 9.5 3.90002 9.5H5.90002V10.25C5.90002 10.5261 6.12388 10.75 6.40002 10.75C6.67617 10.75 6.90002 10.5261 6.90002 10.25V9.5H7.40002C7.67617 9.5 7.90002 9.27614 7.90002 9C7.90002 8.72386 7.67617 8.5 7.40002 8.5H6.90002V5.75C6.90002 5.47386 6.67617 5.25 6.40002 5.25H6ZM5.90002 6.76473V8.5H4.68535L5.90002 6.76473Z" fill="black"/>
</svg>
