<svg width="16" height="16" viewBox="0 0 16 16" fill="none" xmlns="http://www.w3.org/2000/svg">
<path d="M7 6.8H8.25L9.25 7.5L10.75 5.25L9 4.25L7 6.8Z" fill="black"/>
<path d="M11.5 11.5L12.5 7.5H9.25M9.25 7.5L8.25 6.8H7L9 4.25M9.25 7.5L10.75 5.25L9 4.25M9 4.25L7 4L5.5 5" stroke="black" stroke-width="1.2" stroke-linecap="round" stroke-linejoin="round"/>
<circle cx="10.75" cy="2.5" r="1.25" fill="black"/>
<path d="M8 13.6311C7.32732 14.0195 6.54456 14.173 5.775 14.0676C5.00544 13.9622 4.29281 13.6038 3.74935 13.0488C3.20588 12.4939 2.86247 11.7739 2.7732 11.0023C2.68392 10.2307 2.85385 9.45131 3.25622 8.7869" stroke="black" stroke-linecap="round"/>
<path d="M4.5 7.56891C5.17268 7.18054 5.95545 7.02696 6.72501 7.13238C7.49457 7.2378 8.20719 7.59621 8.75066 8.15118C9.29412 8.70614 9.63753 9.42612 9.7268 10.1977C9.81608 10.9693 9.64615 11.7487 9.24377 12.4131" stroke="black" stroke-linecap="round"/>
</svg>
