<svg width="16" height="16" viewBox="0 0 16 16" fill="none" xmlns="http://www.w3.org/2000/svg">
<circle cx="6.25" cy="2.75" r="1.25" fill="black"/>
<path d="M6 3L6.5 9H11.5L12.5 13L13.5 12.75M9.5 7H6.5" stroke="black" stroke-linecap="round" stroke-linejoin="round"/>
<path d="M4.57364 6.91994C4.1018 7.27995 3.71599 7.74044 3.44418 8.26803C3.17236 8.79562 3.02135 9.37708 3.0021 9.97026C2.98286 10.5634 3.09585 11.1535 3.33288 11.6976C3.56992 12.2417 3.92507 12.7262 4.37257 13.1161C4.82007 13.5059 5.34872 13.7913 5.92018 13.9515C6.49164 14.1117 7.09159 14.1428 7.67653 14.0424C8.26147 13.942 8.81675 13.7127 9.3021 13.3711C9.78745 13.0296 10.1907 12.5843 10.4826 12.0675" stroke="black" stroke-linecap="round"/>
</svg>
