<svg width="16" height="16" viewBox="0 0 16 16" fill="none" xmlns="http://www.w3.org/2000/svg">
<path fill-rule="evenodd" clip-rule="evenodd" d="M2 4C2 3.53501 2 3.30252 2.05111 3.11177C2.18981 2.59413 2.59413 2.18981 3.11177 2.05111C3.30252 2 3.53501 2 4 2H12C12.465 2 12.6975 2 12.8882 2.05111C13.4059 2.18981 13.8102 2.59413 13.9489 3.11177C14 3.30252 14 3.53501 14 4C14 4.46499 14 4.69748 13.9489 4.88823C13.8102 5.40587 13.4059 5.81019 12.8882 5.94889C12.6975 6 12.465 6 12 6H4C3.53501 6 3.30252 6 3.11177 5.94889C2.59413 5.81019 2.18981 5.40587 2.05111 4.88823C2 4.69748 2 4.46499 2 4ZM2 9.4C2 8.55992 2 8.13988 2.16349 7.81901C2.3073 7.53677 2.53677 7.3073 2.81901 7.16349C3.13988 7 3.55992 7 4.4 7H11.6C12.4401 7 12.8601 7 13.181 7.16349C13.4632 7.3073 13.6927 7.53677 13.8365 7.81901C14 8.13988 14 8.55992 14 9.4V11.6C14 12.4401 14 12.8601 13.8365 13.181C13.6927 13.4632 13.4632 13.6927 13.181 13.8365C12.8601 14 12.4401 14 11.6 14H4.4C3.55992 14 3.13988 14 2.81901 13.8365C2.53677 13.6927 2.3073 13.4632 2.16349 13.181C2 12.8601 2 12.4401 2 11.6V9.4ZM10.8536 3.14645C10.6583 2.95118 10.3417 2.95118 10.1464 3.14645C9.95118 3.34171 9.95118 3.65829 10.1464 3.85355L11.1464 4.85355C11.3417 5.04882 11.6583 5.04882 11.8536 4.85355L12.8536 3.85355C13.0488 3.65829 13.0488 3.34171 12.8536 3.14645C12.6583 2.95118 12.3417 2.95118 12.1464 3.14645L11.5 3.79289L10.8536 3.14645ZM3.5 3.5C3.22386 3.5 3 3.72386 3 4C3 4.27614 3.22386 4.5 3.5 4.5H8.5C8.77614 4.5 9 4.27614 9 4C9 3.72386 8.77614 3.5 8.5 3.5H3.5Z" fill="black"/>
</svg>
