<svg width="16" height="16" viewBox="0 0 16 16" fill="none" xmlns="http://www.w3.org/2000/svg">
<path d="M9.92295 9.25H13.4C14.0904 9.25 14.65 8.69036 14.65 8C14.65 7.30964 14.0904 6.75 13.4 6.75H9.92295C9.66042 6.75 9.417 6.61272 9.28116 6.38806L6.37327 1.57888C5.91197 0.815944 4.74231 1.35138 5.01832 2.19913L6.30596 6.15401C6.40533 6.45922 6.19546 6.77769 5.87579 6.80675L4.20941 6.95824C3.92765 6.98385 3.65546 6.84873 3.50551 6.60882L2.689 5.3024C2.57143 5.11428 2.36524 5 2.1434 5C1.78806 5 1.5 5.28806 1.5 5.6434V10.3566C1.5 10.7119 1.78806 11 2.1434 11C2.36524 11 2.57142 10.8857 2.689 10.6976L3.50551 9.39118C3.65546 9.15127 3.92765 9.01615 4.20941 9.04176L5.87579 9.19325C6.19546 9.22231 6.40533 9.54077 6.30596 9.84599L5.01832 13.8009C4.74231 14.6486 5.91197 15.1841 6.37327 14.4211L9.28116 9.61194C9.417 9.38728 9.66042 9.25 9.92295 9.25Z" fill="black"/>
</svg>
