<svg width="16" height="16" viewBox="0 0 16 16" fill="none" xmlns="http://www.w3.org/2000/svg">
<path fill-rule="evenodd" clip-rule="evenodd" d="M4 2.07649C3.75397 2.11682 3.54965 2.17841 3.36502 2.27248C2.89462 2.51217 2.51217 2.89462 2.27248 3.36502C2 3.8998 2 4.59987 2 6V10C2 11.4001 2 12.1002 2.27248 12.635C2.51217 13.1054 2.89462 13.4878 3.36502 13.7275C3.54965 13.8216 3.75397 13.8832 4 13.9235V2.07649ZM5 13.9945C5.28851 14 5.61823 14 6 14H10C11.4001 14 12.1002 14 12.635 13.7275C13.1054 13.4878 13.4878 13.1054 13.7275 12.635C14 12.1002 14 11.4001 14 10V6C14 4.59987 14 3.8998 13.7275 3.36502C13.4878 2.89462 13.1054 2.51217 12.635 2.27248C12.1002 2 11.4001 2 10 2H6C5.61823 2 5.28851 2 5 2.00552V13.9945ZM8 4L7.95346 3.99995C7.7691 3.99964 7.5879 3.99934 7.42648 4.04259C6.99511 4.15818 6.65818 4.49511 6.54259 4.92648C6.49934 5.08789 6.49964 5.2691 6.49995 5.45346V5.45346L6.5 5.5L6.49995 5.54654V5.54654C6.49964 5.7309 6.49934 5.91211 6.54259 6.07352C6.65818 6.50489 6.99511 6.84182 7.42648 6.95741C7.5879 7.00066 7.7691 7.00036 7.95346 7.00005L8 7H11L11.0465 7.00005C11.2309 7.00036 11.4121 7.00066 11.5735 6.95741C12.0049 6.84182 12.3418 6.50489 12.4574 6.07352C12.5007 5.9121 12.5004 5.7309 12.5001 5.54654L12.5 5.5L12.5001 5.45346C12.5004 5.2691 12.5007 5.0879 12.4574 4.92648C12.3418 4.49511 12.0049 4.15818 11.5735 4.04259C11.4121 3.99934 11.2309 3.99964 11.0465 3.99995L11 4H8ZM7.6853 5.00852C7.68343 5.00902 7.69598 5.00511 7.7493 5.00268C7.80532 5.00012 7.87922 5 8 5H11C11.1208 5 11.1947 5.00012 11.2507 5.00268C11.3009 5.00497 11.315 5.00857 11.3149 5.00856C11.3149 5.00856 11.3148 5.00855 11.3147 5.00852C11.401 5.03164 11.4684 5.09902 11.4915 5.1853C11.491 5.18343 11.4949 5.19598 11.4973 5.2493C11.4999 5.30532 11.5 5.37922 11.5 5.5C11.5 5.62078 11.4999 5.69468 11.4973 5.7507C11.4949 5.80402 11.491 5.81657 11.4915 5.8147C11.4684 5.90098 11.401 5.96836 11.3147 5.99148C11.3166 5.99098 11.304 5.99489 11.2507 5.99732C11.1947 5.99988 11.1208 6 11 6H8C7.87922 6 7.80532 5.99988 7.7493 5.99732C7.69598 5.99489 7.68343 5.99098 7.6853 5.99148C7.59902 5.96836 7.53164 5.90098 7.50852 5.8147C7.50902 5.81657 7.50511 5.80402 7.50268 5.7507C7.50012 5.69468 7.5 5.62078 7.5 5.5C7.5 5.37922 7.50012 5.30532 7.50268 5.2493C7.50511 5.19598 7.50902 5.18343 7.50852 5.1853C7.53164 5.09902 7.59902 5.03164 7.6853 5.00852Z" fill="black"/>
</svg>
