<svg width="16" height="16" viewBox="0 0 16 16" fill="none" xmlns="http://www.w3.org/2000/svg">
<path fill-rule="evenodd" clip-rule="evenodd" d="M2.32698 3.63803C2 4.27976 2 5.11984 2 6.8V9.2C2 10.8802 2 11.7202 2.32698 12.362C2.6146 12.9265 3.07354 13.3854 3.63803 13.673C4.27976 14 5.11984 14 6.8 14H9.2C10.8802 14 11.7202 14 12.362 13.673C12.9265 13.3854 13.3854 12.9265 13.673 12.362C14 11.7202 14 10.8802 14 9.2V6.8C14 5.11984 14 4.27976 13.673 3.63803C13.3854 3.07354 12.9265 2.6146 12.362 2.32698C11.7202 2 10.8802 2 9.2 2H6.8C5.11984 2 4.27976 2 3.63803 2.32698C3.07354 2.6146 2.6146 3.07354 2.32698 3.63803ZM7.47434 4.84189C7.41074 4.65107 7.23899 4.51695 7.03845 4.50148C6.83791 4.48601 6.64762 4.59222 6.55551 4.77102L5.14968 7.5H3.5C3.22386 7.5 3 7.72386 3 8C3 8.27614 3.22386 8.5 3.5 8.5H5.45455C5.64176 8.5 5.8133 8.39541 5.89903 8.22898L6.90097 6.28404L8.52566 11.1581C8.58926 11.3489 8.76101 11.4831 8.96155 11.4985C9.16209 11.514 9.35238 11.4078 9.44449 11.229L10.8503 8.5H12.5C12.7761 8.5 13 8.27614 13 8C13 7.72386 12.7761 7.5 12.5 7.5H10.5455C10.3582 7.5 10.1867 7.60459 10.101 7.77102L9.09903 9.71596L7.47434 4.84189Z" fill="black"/>
</svg>
