<svg width="16" height="16" viewBox="0 0 16 16" fill="none" xmlns="http://www.w3.org/2000/svg">
<path fill-rule="evenodd" clip-rule="evenodd" d="M11 3.24994C12 2.74994 11.9701 1.49249 11 1.24997C10.1653 1.04131 8.54621 1.37728 8.11036 4.27648C7.78098 3.39257 7.22156 2.51445 6.35355 1.64645C6.15829 1.45118 5.84171 1.45118 5.64645 1.64645C5.45118 1.84171 5.45118 2.15829 5.64645 2.35355C6.51799 3.22509 7.02093 4.08357 7.27756 4.93533C6.64893 4.54729 5.65831 4.15793 4.49997 4.4986C2.70818 5.02555 2 6.49859 2 8.4986C2 11.2113 3.28732 14 5.99999 14C6.71003 14 7.42008 13.748 7.77215 13.6018C7.91749 13.5414 8.0825 13.5414 8.22785 13.6018C8.57992 13.748 9.28995 14 9.99999 14C12.7127 14 14 11.2113 14 8.4986C14 6.49859 13.0339 4.88211 11.5 4.4986C10.2643 4.18965 9.21948 4.6442 8.60138 5.03672C9.4009 4.04949 10.2004 3.64971 11 3.24994Z" fill="black"/>
</svg>
