<svg width="16" height="16" viewBox="0 0 16 16" fill="none" xmlns="http://www.w3.org/2000/svg">
<path fill-rule="evenodd" clip-rule="evenodd" d="M11 1.24997C11.9701 1.49249 12 2.74994 11 3.24994C10.2004 3.64971 9.4009 4.04949 8.60138 5.03672C9.21948 4.6442 10.2643 4.18965 11.5 4.4986C12.3085 4.70073 12.9592 5.24539 13.3939 6.00819C13.3467 6.00278 13.2987 6 13.25 6C12.5596 6 12 6.55964 12 7.25C12 7.5314 12.093 7.79109 12.2499 8C11.8357 8.00005 11.5 8.33581 11.5 8.75C11.5 9.16421 11.8358 9.5 12.25 9.5C12.2984 9.5 12.3458 9.49541 12.3916 9.48664C12.3017 9.63671 12.25 9.81231 12.25 10C12.25 10.5523 12.6977 11 13.25 11C13.3869 11 13.5173 10.9725 13.6361 10.9227C13.0812 12.6541 11.8845 14 9.99999 14C9.28995 14 8.57992 13.748 8.22785 13.6018C8.0825 13.5414 7.91749 13.5414 7.77215 13.6018C7.42008 13.748 6.71003 14 5.99999 14C3.28732 14 2 11.2113 2 8.4986C2 6.49859 2.70818 5.02555 4.49997 4.4986C5.65831 4.15793 6.64893 4.54729 7.27756 4.93533C7.02093 4.08357 6.51799 3.22509 5.64645 2.35355C5.45118 2.15829 5.45118 1.84171 5.64645 1.64645C5.84171 1.45118 6.15829 1.45118 6.35355 1.64645C7.22156 2.51445 7.78098 3.39257 8.11036 4.27648C8.54621 1.37728 10.1653 1.04131 11 1.24997Z" fill="black"/>
</svg>
