<svg width="16" height="16" viewBox="0 0 16 16" fill="none" xmlns="http://www.w3.org/2000/svg">
<path fill-rule="evenodd" clip-rule="evenodd" d="M11 1.24997C11.9701 1.49249 12 2.74994 11 3.24994C10.2004 3.64971 9.4009 4.04949 8.60138 5.03672C9.21948 4.6442 10.2643 4.18965 11.5 4.4986C13.0339 4.88211 14 6.49859 14 8.4986C14 11.2113 12.7127 14 9.99999 14C9.28995 14 8.57992 13.748 8.22785 13.6018C8.0825 13.5414 7.91749 13.5414 7.77215 13.6018C7.42008 13.748 6.71003 14 5.99999 14C3.28732 14 2 11.2113 2 8.4986C2 6.49859 2.70818 5.02555 4.49997 4.4986C5.65831 4.15793 6.64893 4.54729 7.27756 4.93533C7.02093 4.08357 6.51799 3.22509 5.64645 2.35355C5.45118 2.15829 5.45118 1.84171 5.64645 1.64645C5.84171 1.45118 6.15829 1.45118 6.35355 1.64645C7.22156 2.51445 7.78098 3.39257 8.11036 4.27648C8.54621 1.37728 10.1653 1.04131 11 1.24997ZM6.56026 7.80053C6.25815 8.0136 6 8.37773 6 9C6 9.62227 6.25815 9.9864 6.56026 10.1995C7.01159 10.5178 7.5 10.0523 7.5 9.5V8.5C7.5 7.94772 7.01159 7.48223 6.56026 7.80053ZM9.43974 7.80053C8.98841 7.48223 8.5 7.94772 8.5 8.5V9.5C8.5 10.0523 8.98841 10.5178 9.43974 10.1995C9.74185 9.9864 10 9.62227 10 9C10 8.37773 9.74185 8.0136 9.43974 7.80053Z" fill="black"/>
</svg>
