<svg width="16" height="16" viewBox="0 0 16 16" fill="none" xmlns="http://www.w3.org/2000/svg">
<g clip-path="url(#clip0_4637_1140)">
<path d="M2.25 13.25C2.25 13.8023 2.69849 14.2543 3.24885 14.2084C4.48248 14.1053 5.6948 13.8118 6.8422 13.3366C8.29811 12.7335 9.62098 11.8496 10.7353 10.7353C11.8496 9.62098 12.7335 8.29811 13.3366 6.8422C13.8118 5.6948 14.1053 4.48248 14.2084 3.24885C14.2543 2.69848 13.8023 2.25 13.25 2.25L9.25 2.25C8.69772 2.25 8.25848 2.70075 8.16686 3.24538C8.09196 3.69061 7.96687 4.12702 7.79328 4.5461C7.49175 5.27405 7.04979 5.93549 6.49264 6.49264C5.93549 7.04979 5.27405 7.49175 4.5461 7.79328C4.12702 7.96687 3.69061 8.09196 3.24538 8.16686C2.70075 8.25848 2.25 8.69772 2.25 9.25V13.25Z" fill="black"/>
</g>
<defs>
<clipPath id="clip0_4637_1140">
<rect width="16" height="16" fill="white"/>
</clipPath>
</defs>
</svg>
