<svg width="16" height="16" viewBox="0 0 16 16" fill="none" xmlns="http://www.w3.org/2000/svg">
<g clip-path="url(#clip0_4637_1138)">
<path d="M2.75 2.25C2.19772 2.25 1.74567 2.69849 1.79164 3.24885C1.89468 4.48248 2.18818 5.6948 2.66345 6.8422C3.2665 8.29811 4.15042 9.62098 5.26472 10.7353C6.37902 11.8496 7.70189 12.7335 9.1578 13.3366C10.3052 13.8118 11.5175 14.1053 12.7511 14.2084C13.3015 14.2543 13.75 13.8023 13.75 13.25L13.75 9.25C13.75 8.69772 13.2992 8.25848 12.7546 8.16686C12.3094 8.09196 11.873 7.96687 11.4539 7.79328C10.7259 7.49175 10.0645 7.04979 9.50736 6.49264C8.95021 5.93549 8.50825 5.27405 8.20672 4.5461C8.03313 4.12702 7.90804 3.69061 7.83314 3.24538C7.74152 2.70075 7.30228 2.25 6.75 2.25H2.75Z" fill="black"/>
</g>
<defs>
<clipPath id="clip0_4637_1138">
<rect width="16" height="16" fill="white"/>
</clipPath>
</defs>
</svg>
