<svg width="16" height="16" viewBox="0 0 16 16" fill="none" xmlns="http://www.w3.org/2000/svg">
<g clip-path="url(#clip0_4637_1134)">
<path d="M13.75 2.75C13.75 2.19772 13.3015 1.74567 12.7511 1.79164C11.5175 1.89468 10.3052 2.18818 9.1578 2.66345C7.70189 3.2665 6.37902 4.15042 5.26472 5.26472C4.15041 6.37902 3.2665 7.70189 2.66345 9.1578C2.18818 10.3052 1.89468 11.5175 1.79164 12.7511C1.74567 13.3015 2.19772 13.75 2.75 13.75L6.75 13.75C7.30228 13.75 7.74152 13.2992 7.83314 12.7546C7.90804 12.3094 8.03313 11.873 8.20672 11.4539C8.50825 10.7259 8.95021 10.0645 9.50736 9.50736C10.0645 8.95021 10.7259 8.50825 11.4539 8.20672C11.873 8.03313 12.3094 7.90804 12.7546 7.83314C13.2992 7.74152 13.75 7.30228 13.75 6.75V2.75Z" fill="black"/>
</g>
<defs>
<clipPath id="clip0_4637_1134">
<rect width="16" height="16" fill="white"/>
</clipPath>
</defs>
</svg>
