<svg width="16" height="16" viewBox="0 0 16 16" fill="none" xmlns="http://www.w3.org/2000/svg">
<g clip-path="url(#clip0_4637_1136)">
<path d="M13.25 13.75C13.8023 13.75 14.2543 13.3015 14.2084 12.7511C14.1053 11.5175 13.8118 10.3052 13.3366 9.1578C12.7335 7.70189 11.8496 6.37902 10.7353 5.26472C9.62098 4.15041 8.29811 3.2665 6.8422 2.66345C5.6948 2.18818 4.48248 1.89468 3.24885 1.79164C2.69848 1.74567 2.25 2.19772 2.25 2.75L2.25 6.75C2.25 7.30228 2.70075 7.74152 3.24538 7.83314C3.69061 7.90804 4.12702 8.03313 4.5461 8.20672C5.27405 8.50825 5.93549 8.95021 6.49264 9.50736C7.04979 10.0645 7.49175 10.7259 7.79328 11.4539C7.96687 11.873 8.09196 12.3094 8.16686 12.7546C8.25848 13.2992 8.69772 13.75 9.25 13.75L13.25 13.75Z" fill="black"/>
</g>
<defs>
<clipPath id="clip0_4637_1136">
<rect width="16" height="16" fill="white"/>
</clipPath>
</defs>
</svg>
