<svg width="16" height="16" viewBox="0 0 16 16" fill="none" xmlns="http://www.w3.org/2000/svg">
<path fill-rule="evenodd" clip-rule="evenodd" d="M3.625 2H12.375C12.7235 2 12.8977 2 13.0426 2.02882C13.6377 2.14718 14.1028 2.61233 14.2212 3.20736C14.25 3.35226 14.25 3.52651 14.25 3.875C14.25 3.99116 14.25 4.04925 14.2404 4.09755C14.2009 4.29589 14.0459 4.45094 13.8475 4.49039C13.7992 4.5 13.7412 4.5 13.625 4.5H2.375C2.25884 4.5 2.20075 4.5 2.15245 4.49039C1.95411 4.45094 1.79906 4.29589 1.75961 4.09755C1.75 4.04925 1.75 3.99116 1.75 3.875C1.75 3.52651 1.75 3.35226 1.77882 3.20736C1.89718 2.61233 2.36233 2.14718 2.95736 2.02882C3.10226 2 3.27651 2 3.625 2ZM3.05 5.5H12.95C13.23 5.5 13.37 5.5 13.477 5.5545C13.5711 5.60243 13.6476 5.67892 13.6955 5.773C13.75 5.87996 13.75 6.01997 13.75 6.3V8.95C13.75 10.6302 13.75 11.4702 13.423 12.112C13.1354 12.6765 12.6765 13.1354 12.112 13.423C11.4702 13.75 10.6302 13.75 8.95 13.75H7.05C5.36984 13.75 4.52976 13.75 3.88803 13.423C3.32354 13.1354 2.8646 12.6765 2.57698 12.112C2.25 11.4702 2.25 10.6302 2.25 8.95V6.3C2.25 6.01997 2.25 5.87996 2.3045 5.773C2.35243 5.67892 2.42892 5.60243 2.523 5.5545C2.62996 5.5 2.76997 5.5 3.05 5.5ZM6 7C5.72386 7 5.5 7.22386 5.5 7.5C5.5 7.77614 5.72386 8 6 8H10C10.2761 8 10.5 7.77614 10.5 7.5C10.5 7.22386 10.2761 7 10 7H6Z" fill="black"/>
</svg>
