<svg width="16" height="16" viewBox="0 0 16 16" fill="none" xmlns="http://www.w3.org/2000/svg">
<path fill-rule="evenodd" clip-rule="evenodd" d="M8 14.25C11.4518 14.25 14.25 11.4518 14.25 8C14.25 4.54822 11.4518 1.75 8 1.75C4.54822 1.75 1.75 4.54822 1.75 8C1.75 11.4518 4.54822 14.25 8 14.25ZM8.35355 11.3536L11.3536 8.35355C11.5488 8.15829 11.5488 7.84171 11.3536 7.64645L8.35355 4.64645C8.15829 4.45118 7.84171 4.45118 7.64645 4.64645C7.45118 4.84171 7.45118 5.15829 7.64645 5.35355L9.79289 7.5H5C4.72386 7.5 4.5 7.72386 4.5 8C4.5 8.27614 4.72386 8.5 5 8.5H9.79289L7.64645 10.6464C7.45118 10.8417 7.45118 11.1583 7.64645 11.3536C7.84171 11.5488 8.15829 11.5488 8.35355 11.3536Z" fill="black"/>
</svg>
