<svg width="16" height="16" viewBox="0 0 16 16" fill="none" xmlns="http://www.w3.org/2000/svg">
<mask id="path-1-inside-1_5592_1143" fill="white">
<path fill-rule="evenodd" clip-rule="evenodd" d="M7.50347 13.7808L2.26127 9.12111C1.58999 8.52442 1.58999 7.47557 2.26127 6.87888L7.50347 2.21915C8.47082 1.35928 10 2.04599 10 3.34026V4.99999H11C11.9319 4.99999 12.3978 4.99999 12.7654 5.15223C13.2554 5.35522 13.6448 5.74457 13.8478 6.23463C14 6.60217 14 7.06811 14 7.99999C14 8.93188 14 9.39782 13.8478 9.76536C13.6448 10.2554 13.2554 10.6448 12.7654 10.8478C12.3978 11 11.9319 11 11 11H10V12.6597C10 13.954 8.47082 14.6407 7.50347 13.7808Z"/>
</mask>
<path d="M2.26127 9.12111L2.92563 8.3737V8.3737L2.26127 9.12111ZM7.50347 13.7808L8.16783 13.0334H8.16783L7.50347 13.7808ZM2.26127 6.87888L2.92563 7.62629H2.92563L2.26127 6.87888ZM7.50347 2.21915L8.16783 2.96656L8.16783 2.96655L7.50347 2.21915ZM10 4.99999H9.00001V5.99999H10V4.99999ZM12.7654 5.15223L13.1481 4.22835L13.1481 4.22835L12.7654 5.15223ZM13.8478 6.23463L12.9239 6.61731L12.9239 6.61731L13.8478 6.23463ZM13.8478 9.76536L14.7717 10.148L14.7717 10.148L13.8478 9.76536ZM12.7654 10.8478L12.3827 9.92387L12.3827 9.92387L12.7654 10.8478ZM10 11V9.99999H9.00001V11H10ZM10 12.6597H9.00001V12.6597L10 12.6597ZM1.5969 9.86852L6.8391 14.5283L8.16783 13.0334L2.92563 8.3737L1.5969 9.86852ZM1.5969 6.13147C0.478116 7.12595 0.478115 8.87404 1.5969 9.86852L2.92563 8.3737C2.70187 8.1748 2.70187 7.82518 2.92563 7.62629L1.5969 6.13147ZM6.8391 1.47174L1.5969 6.13147L2.92563 7.62629L8.16783 2.96656L6.8391 1.47174ZM11 3.34026C11 1.18314 8.45136 0.0386213 6.8391 1.47174L8.16783 2.96655C8.49028 2.67993 9.00001 2.90883 9.00001 3.34026H11ZM11 4.99999V3.34026H9.00001V4.99999H11ZM10 5.99999H11V3.99999H10V5.99999ZM11 5.99999C11.4796 5.99999 11.7893 6.00054 12.0263 6.0167C12.2543 6.03226 12.3411 6.05888 12.3827 6.07611L13.1481 4.22835C12.8221 4.09335 12.4922 4.04385 12.1624 4.02134C11.8415 3.99945 11.4523 3.99999 11 3.99999V5.99999ZM12.3827 6.07611C12.6277 6.17761 12.8224 6.37228 12.9239 6.61731L14.7717 5.85194C14.4672 5.11686 13.8831 4.53284 13.1481 4.22835L12.3827 6.07611ZM12.9239 6.61731C12.9411 6.65893 12.9677 6.74576 12.9833 6.97375C12.9995 7.21073 13 7.52037 13 7.99999H15C15 7.54773 15.0006 7.15846 14.9787 6.83761C14.9562 6.50778 14.9067 6.17787 14.7717 5.85194L12.9239 6.61731ZM13 7.99999C13 8.47962 12.9995 8.78925 12.9833 9.02623C12.9677 9.25423 12.9411 9.34106 12.9239 9.38268L14.7717 10.148C14.9067 9.82211 14.9562 9.4922 14.9787 9.16238C15.0006 8.84153 15 8.45225 15 7.99999H13ZM12.9239 9.38268C12.8224 9.6277 12.6277 9.82238 12.3827 9.92387L13.1481 11.7716C13.8831 11.4671 14.4672 10.8831 14.7717 10.148L12.9239 9.38268ZM12.3827 9.92387C12.3411 9.94111 12.2543 9.96773 12.0263 9.98328C11.7893 9.99945 11.4796 9.99999 11 9.99999V12C11.4523 12 11.8415 12.0005 12.1624 11.9786C12.4922 11.9561 12.8221 11.9066 13.1481 11.7716L12.3827 9.92387ZM11 9.99999H10V12H11V9.99999ZM11 12.6597V11H9.00001V12.6597H11ZM6.8391 14.5282C8.45136 15.9614 11 14.8168 11 12.6597L9.00001 12.6597C9.00001 13.0912 8.49028 13.3201 8.16783 13.0334L6.8391 14.5282Z" fill="black" mask="url(#path-1-inside-1_5592_1143)"/>
</svg>
