<svg width="16" height="16" viewBox="0 0 16 16" fill="none" xmlns="http://www.w3.org/2000/svg">
<mask id="path-1-inside-1_5592_1135" fill="white">
<path fill-rule="evenodd" clip-rule="evenodd" d="M2.21915 7.50345L6.87888 2.26125C7.47557 1.58998 8.52442 1.58998 9.12111 2.26125L13.7808 7.50345C14.6407 8.4708 13.954 10 12.6597 10H11V11C11 11.9319 11 12.3978 10.8478 12.7654C10.6448 13.2554 10.2554 13.6448 9.76536 13.8478C9.39782 14 8.93188 14 7.99999 14C7.06811 14 6.60217 14 6.23463 13.8478C5.74457 13.6448 5.35522 13.2554 5.15223 12.7654C4.99999 12.3978 4.99999 11.9319 4.99999 11V10H3.34026C2.04599 10 1.35928 8.4708 2.21915 7.50345Z"/>
</mask>
<path d="M6.87888 2.26125L7.62629 2.92562V2.92562L6.87888 2.26125ZM2.21915 7.50345L2.96655 8.16782H2.96655L2.21915 7.50345ZM9.12111 2.26125L8.3737 2.92562L9.12111 2.26125ZM13.7808 7.50345L13.0334 8.16782H13.0334L13.7808 7.50345ZM11 10V9H9.99999V10H11ZM10.8478 12.7654L9.92387 12.3827L9.92387 12.3827L10.8478 12.7654ZM9.76536 13.8478L10.148 14.7716L9.76536 13.8478ZM6.23463 13.8478L5.85194 14.7716H5.85194L6.23463 13.8478ZM5.15223 12.7654L4.22836 13.148L5.15223 12.7654ZM4.99999 10H5.99999V9H4.99999V10ZM6.13147 1.59689L1.47174 6.83909L2.96655 8.16782L7.62629 2.92562L6.13147 1.59689ZM9.86852 1.59689C8.87404 0.478101 7.12595 0.4781 6.13147 1.59689L7.62629 2.92562C7.82518 2.70186 8.1748 2.70186 8.3737 2.92562L9.86852 1.59689ZM14.5283 6.83909L9.86852 1.59689L8.3737 2.92562L13.0334 8.16782L14.5283 6.83909ZM12.6597 11C14.8168 11 15.9614 8.45134 14.5282 6.83909L13.0334 8.16782C13.3201 8.49027 13.0912 9 12.6597 9V11ZM11 11H12.6597V9H11V11ZM9.99999 10V11H12V10H9.99999ZM9.99999 11C9.99999 11.4796 9.99945 11.7893 9.98328 12.0262C9.96773 12.2542 9.94111 12.3411 9.92387 12.3827L11.7716 13.1481C11.9066 12.8221 11.9561 12.4922 11.9786 12.1624C12.0005 11.8415 12 11.4523 12 11H9.99999ZM9.92387 12.3827C9.82238 12.6277 9.62771 12.8224 9.38268 12.9239L10.148 14.7716C10.8831 14.4672 11.4672 13.8831 11.7716 13.148L9.92387 12.3827ZM9.38268 12.9239C9.34106 12.9411 9.25423 12.9677 9.02623 12.9833C8.78925 12.9995 8.47962 13 7.99999 13V15C8.45225 15 8.84153 15.0005 9.16238 14.9786C9.49221 14.9561 9.82212 14.9066 10.148 14.7716L9.38268 12.9239ZM7.99999 13C7.52037 13 7.21073 12.9995 6.97375 12.9833C6.74576 12.9677 6.65892 12.9411 6.61731 12.9239L5.85194 14.7716C6.17787 14.9066 6.50778 14.9561 6.83761 14.9786C7.15846 15.0005 7.54773 15 7.99999 15V13ZM6.61731 12.9239C6.37228 12.8224 6.17761 12.6277 6.07611 12.3827L4.22836 13.148C4.53284 13.8831 5.11686 14.4672 5.85194 14.7716L6.61731 12.9239ZM6.07611 12.3827C6.05888 12.3411 6.03226 12.2542 6.0167 12.0262C6.00054 11.7893 5.99999 11.4796 5.99999 11H3.99999C3.99999 11.4523 3.99945 11.8415 4.02134 12.1624C4.04385 12.4922 4.09335 12.8221 4.22836 13.148L6.07611 12.3827ZM5.99999 11V10H3.99999V11H5.99999ZM3.34026 11H4.99999V9H3.34026V11ZM1.47174 6.83909C0.0386221 8.45134 1.18314 11 3.34026 11V9C2.90883 9 2.67993 8.49027 2.96655 8.16782L1.47174 6.83909Z" fill="black" mask="url(#path-1-inside-1_5592_1135)"/>
</svg>
