<svg width="16" height="16" viewBox="0 0 16 16" fill="none" xmlns="http://www.w3.org/2000/svg">
<path fill-rule="evenodd" clip-rule="evenodd" d="M8.49655 13.7808L13.7387 9.12111C14.41 8.52442 14.41 7.47557 13.7387 6.87888L8.49655 2.21915C7.52919 1.35928 6 2.04599 6 3.34026V4.99999H5C4.06812 4.99999 3.60218 4.99999 3.23463 5.15223C2.74458 5.35522 2.35523 5.74457 2.15224 6.23463C2 6.60217 2 7.06811 2 7.99999C2 8.93188 2 9.39782 2.15224 9.76536C2.35523 10.2554 2.74458 10.6448 3.23463 10.8478C3.60218 11 4.06812 11 5 11H6V12.6597C6 13.954 7.52919 14.6407 8.49655 13.7808Z" fill="black"/>
</svg>
