<svg width="16" height="16" viewBox="0 0 16 16" fill="none" xmlns="http://www.w3.org/2000/svg">
<path d="M0.75 9.5L2.11364 7.5L4.25 9" stroke="black" stroke-linecap="round" stroke-linejoin="round"/>
<path d="M11.75 7L13.8864 8.5L15.25 6.5" stroke="black" stroke-linecap="round" stroke-linejoin="round"/>
<path d="M13.75 8C13.75 6.78572 13.3656 5.60261 12.6518 4.62023C11.9381 3.63786 10.9317 2.90666 9.77685 2.53142C8.622 2.15619 7.378 2.15619 6.22315 2.53143C5.0683 2.90666 4.06189 3.63786 3.34815 4.62024" stroke="black" stroke-linecap="round"/>
<path d="M2.25 8C2.25 9.21428 2.63442 10.3974 3.34815 11.3798C4.06189 12.3621 5.0683 13.0933 6.22315 13.4686C7.378 13.8438 8.622 13.8438 9.77685 13.4686C10.9317 13.0933 11.9381 12.3621 12.6518 11.3798" stroke="black" stroke-linecap="round"/>
</svg>
