<svg width="16" height="16" viewBox="0 0 16 16" fill="none" xmlns="http://www.w3.org/2000/svg">
<path fill-rule="evenodd" clip-rule="evenodd" d="M8 14.25C11.4518 14.25 14.25 11.4518 14.25 8C14.25 4.54822 11.4518 1.75 8 1.75C4.54822 1.75 1.75 4.54822 1.75 8C1.75 11.4518 4.54822 14.25 8 14.25ZM7.64645 4.64645L4.64645 7.64645C4.45118 7.84171 4.45118 8.15829 4.64645 8.35355L7.64645 11.3536C7.84171 11.5488 8.15829 11.5488 8.35355 11.3536C8.54882 11.1583 8.54882 10.8417 8.35355 10.6464L6.20711 8.5H11C11.2761 8.5 11.5 8.27614 11.5 8C11.5 7.72386 11.2761 7.5 11 7.5H6.20711L8.35355 5.35355C8.54882 5.15829 8.54882 4.84171 8.35355 4.64645C8.15829 4.45118 7.84171 4.45118 7.64645 4.64645Z" fill="black"/>
</svg>
