<svg width="16" height="16" viewBox="0 0 16 16" fill="none" xmlns="http://www.w3.org/2000/svg">
<path fill-rule="evenodd" clip-rule="evenodd" d="M8 14.25C11.4518 14.25 14.25 11.4518 14.25 8C14.25 4.54822 11.4518 1.75 8 1.75C4.54822 1.75 1.75 4.54822 1.75 8C1.75 11.4518 4.54822 14.25 8 14.25ZM4.64645 8.35355L7.64645 11.3536C7.84171 11.5488 8.15829 11.5488 8.35355 11.3536L11.3536 8.35355C11.5488 8.15829 11.5488 7.84171 11.3536 7.64645C11.1583 7.45118 10.8417 7.45118 10.6464 7.64645L8.5 9.79289V5C8.5 4.72386 8.27614 4.5 8 4.5C7.72386 4.5 7.5 4.72386 7.5 5V9.79289L5.35355 7.64645C5.15829 7.45118 4.84171 7.45118 4.64645 7.64645C4.45118 7.84171 4.45118 8.15829 4.64645 8.35355Z" fill="black"/>
</svg>
