<svg width="16" height="16" viewBox="0 0 16 16" fill="none" xmlns="http://www.w3.org/2000/svg">
<path fill-rule="evenodd" clip-rule="evenodd" d="M5.00001 6H3.34027C2.046 6 1.35929 7.52919 2.21916 8.49655L6.8789 13.7387C7.47558 14.41 8.52444 14.41 9.12112 13.7387L13.7809 8.49655C14.6407 7.52919 13.954 6 12.6597 6H11V5C11 4.06812 11 3.60218 10.8478 3.23463C10.6448 2.74458 10.2554 2.35523 9.76538 2.15224C9.39783 2 8.93189 2 8.00001 2C7.06813 2 6.60218 2 6.23464 2.15224C5.74459 2.35523 5.35524 2.74458 5.15225 3.23463C5.00001 3.60218 5.00001 4.06812 5.00001 5V6Z" fill="black"/>
</svg>
