<svg width="16" height="16" viewBox="0 0 16 16" fill="none" xmlns="http://www.w3.org/2000/svg">
<mask id="path-1-inside-1_5592_1147" fill="white">
<path fill-rule="evenodd" clip-rule="evenodd" d="M8.49655 13.7808L13.7387 9.12111C14.41 8.52442 14.41 7.47557 13.7387 6.87888L8.49655 2.21915C7.52919 1.35928 6 2.04599 6 3.34026V4.99999H5C4.06812 4.99999 3.60218 4.99999 3.23463 5.15223C2.74458 5.35522 2.35523 5.74457 2.15224 6.23463C2 6.60217 2 7.06811 2 7.99999C2 8.93188 2 9.39782 2.15224 9.76536C2.35523 10.2554 2.74458 10.6448 3.23463 10.8478C3.60218 11 4.06812 11 5 11H6V12.6597C6 13.954 7.52919 14.6407 8.49655 13.7808Z"/>
</mask>
<path d="M13.7387 9.12111L14.4031 9.86852L13.7387 9.12111ZM8.49655 13.7808L7.83218 13.0334H7.83218L8.49655 13.7808ZM13.7387 6.87888L13.0744 7.62629L13.0744 7.62629L13.7387 6.87888ZM8.49655 2.21915L7.83218 2.96655L7.83218 2.96656L8.49655 2.21915ZM6 4.99999V5.99999H7V4.99999H6ZM3.23463 5.15223L2.85195 4.22835L2.85195 4.22835L3.23463 5.15223ZM2.15224 6.23463L3.07612 6.61731L3.07612 6.61731L2.15224 6.23463ZM2.15224 9.76536L1.22836 10.148L2.15224 9.76536ZM3.23463 10.8478L3.61732 9.92387L3.61732 9.92387L3.23463 10.8478ZM6 11H7V9.99999H6V11ZM13.0744 8.3737L7.83218 13.0334L9.16091 14.5283L14.4031 9.86852L13.0744 8.3737ZM13.0744 7.62629C13.2981 7.82519 13.2981 8.1748 13.0744 8.3737L14.4031 9.86852C15.5219 8.87404 15.5219 7.12595 14.4031 6.13147L13.0744 7.62629ZM7.83218 2.96656L13.0744 7.62629L14.4031 6.13147L9.16091 1.47174L7.83218 2.96656ZM7 3.34026C7 2.90883 7.50973 2.67993 7.83218 2.96655L9.16091 1.47174C7.54866 0.0386213 5 1.18314 5 3.34026H7ZM7 4.99999V3.34026H5V4.99999H7ZM6 3.99999H5V5.99999H6V3.99999ZM5 3.99999C4.54774 3.99999 4.15846 3.99945 3.83762 4.02134C3.50779 4.04385 3.17788 4.09335 2.85195 4.22835L3.61732 6.07611C3.65893 6.05888 3.74576 6.03226 3.97376 6.0167C4.21074 6.00054 4.52038 5.99999 5 5.99999V3.99999ZM2.85195 4.22835C2.11687 4.53284 1.53284 5.11686 1.22836 5.85194L3.07612 6.61731C3.17761 6.37228 3.37229 6.17761 3.61732 6.07611L2.85195 4.22835ZM1.22836 5.85194C1.09336 6.17787 1.04385 6.50778 1.02135 6.83761C0.999458 7.15846 1 7.54773 1 7.99999H3C3 7.52037 3.00054 7.21073 3.01671 6.97375C3.03227 6.74576 3.05888 6.65892 3.07612 6.61731L1.22836 5.85194ZM1 7.99999C1 8.45225 0.999458 8.84153 1.02135 9.16238C1.04385 9.4922 1.09336 9.82212 1.22836 10.148L3.07612 9.38268C3.05888 9.34106 3.03227 9.25423 3.01671 9.02623C3.00054 8.78925 3 8.47962 3 7.99999H1ZM1.22836 10.148C1.53284 10.8831 2.11687 11.4671 2.85195 11.7716L3.61732 9.92387C3.37229 9.82238 3.17761 9.6277 3.07612 9.38268L1.22836 10.148ZM2.85195 11.7716C3.17788 11.9066 3.50779 11.9561 3.83762 11.9786C4.15846 12.0005 4.54774 12 5 12V9.99999C4.52038 9.99999 4.21074 9.99945 3.97376 9.98328C3.74576 9.96773 3.65893 9.94111 3.61732 9.92387L2.85195 11.7716ZM5 12H6V9.99999H5V12ZM7 12.6597V11H5V12.6597H7ZM7.83218 13.0334C7.50973 13.3201 7 13.0912 7 12.6597H5C5 14.8168 7.54866 15.9614 9.16091 14.5282L7.83218 13.0334Z" fill="black" mask="url(#path-1-inside-1_5592_1147)"/>
</svg>
