<svg width="16" height="16" viewBox="0 0 16 16" fill="none" xmlns="http://www.w3.org/2000/svg">
<mask id="path-1-inside-1_5592_1139" fill="white">
<path fill-rule="evenodd" clip-rule="evenodd" d="M5.00001 6H3.34027C2.046 6 1.35929 7.52919 2.21916 8.49655L6.8789 13.7387C7.47558 14.41 8.52444 14.41 9.12112 13.7387L13.7809 8.49655C14.6407 7.52919 13.954 6 12.6597 6H11V5C11 4.06812 11 3.60218 10.8478 3.23463C10.6448 2.74458 10.2554 2.35523 9.76538 2.15224C9.39783 2 8.93189 2 8.00001 2C7.06813 2 6.60218 2 6.23464 2.15224C5.74459 2.35523 5.35524 2.74458 5.15225 3.23463C5.00001 3.60218 5.00001 4.06812 5.00001 5V6Z"/>
</mask>
<path d="M5.00001 6V7H6.00001V6H5.00001ZM2.21916 8.49655L2.96657 7.83218H2.96657L2.21916 8.49655ZM6.8789 13.7387L7.6263 13.0744L6.8789 13.7387ZM9.12112 13.7387L8.37371 13.0744L9.12112 13.7387ZM13.7809 8.49655L13.0334 7.83218L13.0334 7.83218L13.7809 8.49655ZM11 6H10V7H11V6ZM10.8478 3.23463L9.92389 3.61732L9.92389 3.61732L10.8478 3.23463ZM9.76538 2.15224L10.1481 1.22836V1.22836L9.76538 2.15224ZM6.23464 2.15224L5.85196 1.22836V1.22836L6.23464 2.15224ZM5.15225 3.23463L6.07613 3.61732L5.15225 3.23463ZM3.34027 7H5.00001V5H3.34027V7ZM2.96657 7.83218C2.67995 7.50973 2.90885 7 3.34027 7V5C1.18315 5 0.0386375 7.54866 1.47175 9.16091L2.96657 7.83218ZM7.6263 13.0744L2.96657 7.83218L1.47175 9.16091L6.13149 14.4031L7.6263 13.0744ZM8.37371 13.0744C8.17482 13.2981 7.8252 13.2981 7.6263 13.0744L6.13149 14.4031C7.12596 15.5219 8.87405 15.5219 9.86853 14.4031L8.37371 13.0744ZM13.0334 7.83218L8.37371 13.0744L9.86853 14.4031L14.5283 9.16091L13.0334 7.83218ZM12.6597 7C13.0912 7 13.3201 7.50973 13.0334 7.83218L14.5283 9.16091C15.9614 7.54866 14.8169 5 12.6597 5V7ZM11 7H12.6597V5H11V7ZM12 6V5H10V6H12ZM12 5C12 4.54774 12.0006 4.15846 11.9787 3.83762C11.9562 3.50779 11.9067 3.17788 11.7716 2.85195L9.92389 3.61732C9.94113 3.65893 9.96774 3.74576 9.9833 3.97376C9.99947 4.21074 10 4.52038 10 5H12ZM11.7716 2.85195C11.4672 2.11687 10.8831 1.53284 10.1481 1.22836L9.38269 3.07612C9.62772 3.17761 9.82239 3.37229 9.92389 3.61732L11.7716 2.85195ZM10.1481 1.22836C9.82213 1.09336 9.49222 1.04385 9.16239 1.02135C8.84154 0.999458 8.45227 1 8.00001 1V3C8.47963 3 8.78927 3.00054 9.02625 3.01671C9.25425 3.03227 9.34108 3.05888 9.38269 3.07612L10.1481 1.22836ZM8.00001 1C7.54775 1 7.15847 0.999458 6.83763 1.02135C6.5078 1.04385 6.17789 1.09336 5.85196 1.22836L6.61733 3.07612C6.65894 3.05888 6.74577 3.03227 6.97377 3.01671C7.21075 3.00054 7.52039 3 8.00001 3V1ZM5.85196 1.22836C5.11687 1.53284 4.53285 2.11687 4.22837 2.85195L6.07613 3.61732C6.17762 3.37229 6.3723 3.17761 6.61733 3.07612L5.85196 1.22836ZM4.22837 2.85195C4.09337 3.17788 4.04386 3.50779 4.02136 3.83762C3.99947 4.15846 4.00001 4.54774 4.00001 5H6.00001C6.00001 4.52038 6.00055 4.21074 6.01672 3.97376C6.03228 3.74576 6.05889 3.65893 6.07613 3.61732L4.22837 2.85195ZM4.00001 5V6H6.00001V5H4.00001Z" fill="black" mask="url(#path-1-inside-1_5592_1139)"/>
</svg>
