<svg width="16" height="16" viewBox="0 0 16 16" fill="none" xmlns="http://www.w3.org/2000/svg">
<path fill-rule="evenodd" clip-rule="evenodd" d="M7.50345 13.7808L2.26125 9.12111C1.58998 8.52442 1.58998 7.47557 2.26125 6.87888L7.50345 2.21915C8.4708 1.35928 10 2.04599 10 3.34026V4.99999H11C11.9319 4.99999 12.3978 4.99999 12.7654 5.15223C13.2554 5.35522 13.6448 5.74457 13.8478 6.23463C14 6.60217 14 7.06811 14 7.99999C14 8.93188 14 9.39782 13.8478 9.76536C13.6448 10.2554 13.2554 10.6448 12.7654 10.8478C12.3978 11 11.9319 11 11 11H10V12.6597C10 13.954 8.4708 14.6407 7.50345 13.7808Z" fill="black"/>
</svg>
