<svg width="16" height="16" viewBox="0 0 16 16" fill="none" xmlns="http://www.w3.org/2000/svg">
<path fill-rule="evenodd" clip-rule="evenodd" d="M2.32698 3.63803C2 4.27976 2 5.11984 2 6.8V9.2C2 10.8802 2 11.7202 2.32698 12.362C2.6146 12.9265 3.07354 13.3854 3.63803 13.673C4.27976 14 5.11984 14 6.8 14H9.2C10.8802 14 11.7202 14 12.362 13.673C12.9265 13.3854 13.3854 12.9265 13.673 12.362C14 11.7202 14 10.8802 14 9.2V6.8C14 5.11984 14 4.27976 13.673 3.63803C13.3854 3.07354 12.9265 2.6146 12.362 2.32698C11.7202 2 10.8802 2 9.2 2H6.8C5.11984 2 4.27976 2 3.63803 2.32698C3.07354 2.6146 2.6146 3.07354 2.32698 3.63803ZM7.5 5H5.70711L11 10.2929V8.5C11 8.22386 11.2239 8 11.5 8C11.7761 8 12 8.22386 12 8.5V10.5C12 11.3284 11.3284 12 10.5 12H8.5C8.22386 12 8 11.7761 8 11.5C8 11.2239 8.22386 11 8.5 11H10.2929L5 5.70711V7.5C5 7.77614 4.77614 8 4.5 8C4.22386 8 4 7.77614 4 7.5V5.5C4 4.67157 4.67157 4 5.5 4H7.5C7.77614 4 8 4.22386 8 4.5C8 4.77614 7.77614 5 7.5 5Z" fill="black"/>
</svg>
