<svg width="16" height="16" viewBox="0 0 16 16" fill="none" xmlns="http://www.w3.org/2000/svg">
<path d="M10.5 13.1781C9.84365 13.495 9.12775 13.6868 8.38884 13.7368C7.00143 13.8309 5.62695 13.4189 4.51996 12.5773C3.41297 11.7357 2.64849 10.5214 2.36811 9.15938C2.08772 7.79734 2.31043 6.37985 2.99498 5.16942C3.67954 3.95899 4.77955 3.03765 6.0913 2.57604C7.40304 2.11444 8.83762 2.14384 10.1294 2.6588C11.4211 3.17376 12.4824 4.1394 13.1168 5.37686C13.6387 6.39497 13.9285 7.51141 13.757 8.65051C13.6817 9.1511 13.4946 9.64275 13.156 10.0191C12.0459 11.2529 10.475 10.32 10.292 9M10.292 9C10.4258 8.69377 10.5 8.35555 10.5 8C10.5 6.61929 9.38072 5.5 8.00001 5.5C6.6193 5.5 5.50001 6.61929 5.50001 8C5.50001 9.38071 6.6193 10.5 8.00001 10.5C9.02517 10.5 9.90621 9.88295 10.292 9Z" stroke="black" stroke-linecap="round"/>
</svg>
