<svg width="16" height="16" viewBox="0 0 16 16" fill="none" xmlns="http://www.w3.org/2000/svg">
<path fill-rule="evenodd" clip-rule="evenodd" d="M11 4.75C11 5.66793 11.1923 6.69871 11.712 7.45535C12.2091 8.17913 12.5 9.05559 12.5 10C12.5 12.4853 10.4853 14.5 8 14.5C5.51472 14.5 3.5 12.4853 3.5 10C3.5 9.05559 3.79093 8.17913 4.28805 7.45535C4.80775 6.69871 5 5.66793 5 4.75C5 3.09315 6.34315 1.75 8 1.75C9.65685 1.75 11 3.09315 11 4.75ZM8 12C9.10457 12 10 11.1046 10 10C10 8.89543 9.10457 8 8 8C6.89543 8 6 8.89543 6 10C6 11.1046 6.89543 12 8 12Z" fill="black"/>
</svg>
