<svg width="16" height="16" viewBox="0 0 16 16" fill="none" xmlns="http://www.w3.org/2000/svg">
<path fill-rule="evenodd" clip-rule="evenodd" d="M6.55707 3.08878C6.73584 2.46028 7.31417 2 8 2C8.68583 2 9.26416 2.46028 9.44293 3.08878C9.13757 3.03051 8.82234 3 8.5 3H7.5C7.17766 3 6.86243 3.03051 6.55707 3.08878ZM5.5014 3.41543C5.546 2.07387 6.64759 1 8 1C9.35241 1 10.454 2.07387 10.4986 3.41543C12.2653 4.18667 13.5 5.94914 13.5 8V9.5H6H2.5V8C2.5 5.94914 3.73475 4.18667 5.5014 3.41543ZM2.5 10.5V12C2.5 13.1046 3.39543 14 4.5 14H11.5C12.6046 14 13.5 13.1046 13.5 12V10.5H6.5V11C6.5 11.2761 6.27614 11.5 6 11.5C5.72386 11.5 5.5 11.2761 5.5 11V10.5H2.5ZM7 5.89999C6.72386 5.89999 6.5 6.12385 6.5 6.39999V6.89999C6.5 7.17614 6.72386 7.39999 7 7.39999H9C9.27614 7.39999 9.5 7.17614 9.5 6.89999V6.39999C9.5 6.12385 9.27614 5.89999 9 5.89999H7ZM5.5 6.39999C5.5 5.57157 6.17157 4.89999 7 4.89999H9C9.82843 4.89999 10.5 5.57157 10.5 6.39999V6.89999C10.5 7.72842 9.82843 8.39999 9 8.39999H7C6.17157 8.39999 5.5 7.72842 5.5 6.89999V6.39999Z" fill="black"/>
</svg>
