<svg width="16" height="16" viewBox="0 0 16 16" fill="none" xmlns="http://www.w3.org/2000/svg">
<g clip-path="url(#clip0_4637_1927)">
<path d="M1.88333 9.6C1.1596 9.0572 0.797739 8.7858 0.66834 8.45309C0.554998 8.16166 0.554998 7.83834 0.66834 7.54691C0.797739 7.2142 1.1596 6.9428 1.88333 6.4L4.55 4.4C5.57995 3.62754 6.09492 3.24131 6.52598 3.25027C6.9011 3.25807 7.25288 3.43396 7.48419 3.72938C7.75 4.06885 7.75 4.71256 7.75 6V10C7.75 11.2874 7.75 11.9312 7.48419 12.2706C7.25288 12.566 6.9011 12.7419 6.52598 12.7497C6.09492 12.7587 5.57995 12.3725 4.55 11.6L1.88333 9.6Z" fill="black"/>
<path d="M9.13333 9.6C8.4096 9.0572 8.04774 8.7858 7.91834 8.45309C7.805 8.16166 7.805 7.83834 7.91834 7.54691C8.04774 7.2142 8.4096 6.9428 9.13333 6.4L11.8 4.4C12.8299 3.62754 13.3449 3.24131 13.776 3.25027C14.1511 3.25807 14.5029 3.43396 14.7342 3.72938C15 4.06885 15 4.71256 15 6V10C15 11.2874 15 11.9312 14.7342 12.2706C14.5029 12.566 14.1511 12.7419 13.776 12.7497C13.3449 12.7587 12.8299 12.3725 11.8 11.6L9.13333 9.6Z" fill="black"/>
</g>
<defs>
<clipPath id="clip0_4637_1927">
<rect width="16" height="16" fill="white"/>
</clipPath>
</defs>
</svg>
