<svg width="16" height="16" viewBox="0 0 16 16" fill="none" xmlns="http://www.w3.org/2000/svg">
<path fill-rule="evenodd" clip-rule="evenodd" d="M6.58522 3.50039C6.79102 2.91759 7.34675 2.5 8 2.5C8.65325 2.5 9.20898 2.91759 9.41478 3.50039C9.25907 3.5 9.09477 3.5 8.9211 3.5H7.07895C6.90526 3.5 6.74095 3.5 6.58522 3.50039ZM5.54655 3.51737C5.77142 2.36761 6.78439 1.5 8 1.5C9.21561 1.5 10.2286 2.36761 10.4535 3.51737C11.1222 3.54529 11.5762 3.61811 11.9622 3.80799C12.5134 4.07908 12.9681 4.51281 13.2648 5.05059C13.602 5.66158 13.6399 6.46567 13.7158 8.07384L13.7629 9.07384C13.8455 10.825 13.8868 11.7005 13.5717 12.3731C13.2946 12.9642 12.8323 13.4489 12.2548 13.7535C11.5979 14.1 10.7213 14.1 8.96827 14.1H7.03178C5.2787 14.1 4.40216 14.1 3.74524 13.7535C3.16777 13.4489 2.70543 12.9642 2.42838 12.3731C2.11321 11.7005 2.15451 10.825 2.23711 9.07384L2.28428 8.07384C2.36013 6.46567 2.39806 5.66158 2.73522 5.05059C3.03197 4.51281 3.48664 4.07908 4.03781 3.80799C4.42386 3.61811 4.87787 3.5453 5.54655 3.51737ZM6 4.5C6.27614 4.5 6.5 4.72386 6.5 5C6.5 5.82843 7.17157 6.5 8 6.5C8.82843 6.5 9.5 5.82843 9.5 5C9.5 4.72386 9.72386 4.5 10 4.5C10.2761 4.5 10.5 4.72386 10.5 5C10.5 6.38071 9.38071 7.5 8 7.5C6.61929 7.5 5.5 6.38071 5.5 5C5.5 4.72386 5.72386 4.5 6 4.5Z" fill="black"/>
</svg>
