<svg width="16" height="16" viewBox="0 0 16 16" fill="none" xmlns="http://www.w3.org/2000/svg">
<path fill-rule="evenodd" clip-rule="evenodd" d="M2.69668 8.35356C1.32984 9.72039 1.32984 11.9365 2.69668 13.3033C4.06351 14.6701 6.27959 14.6701 7.64642 13.3033L13.3033 7.64645C14.6701 6.27961 14.6701 4.06354 13.3033 2.6967C11.9364 1.32987 9.72036 1.32987 8.35353 2.6967L2.69668 8.35356ZM6.86861 8.56569C7.18102 8.25327 7.18102 7.74674 6.86861 7.43432C6.55619 7.1219 6.04965 7.1219 5.73723 7.43432C5.42482 7.74674 5.42482 8.25327 5.73723 8.56569C6.04965 8.87811 6.55619 8.87811 6.86861 8.56569ZM8.56566 6.86863C8.87808 6.55621 8.87808 6.04968 8.56566 5.73726C8.25324 5.42484 7.74671 5.42484 7.43429 5.73726C7.12187 6.04968 7.12187 6.55621 7.43429 6.86863C7.74671 7.18105 8.25324 7.18105 8.56566 6.86863ZM8.56566 9.13137C8.87808 9.44379 8.87808 9.95033 8.56566 10.2627C8.25324 10.5752 7.74671 10.5752 7.43429 10.2627C7.12187 9.95033 7.12187 9.44379 7.43429 9.13137C7.74671 8.81895 8.25324 8.81895 8.56566 9.13137ZM10.2627 8.56569C10.5751 8.25327 10.5751 7.74674 10.2627 7.43432C9.9503 7.1219 9.44377 7.1219 9.13135 7.43432C8.81893 7.74674 8.81893 8.25327 9.13135 8.56569C9.44377 8.87811 9.9503 8.87811 10.2627 8.56569Z" fill="black"/>
</svg>
