<svg width="16" height="16" viewBox="0 0 16 16" fill="none" xmlns="http://www.w3.org/2000/svg">
<path fill-rule="evenodd" clip-rule="evenodd" d="M14.25 8C14.25 11.4518 11.4518 14.25 8 14.25C4.54822 14.25 1.75 11.4518 1.75 8C1.75 4.54822 4.54822 1.75 8 1.75C11.4518 1.75 14.25 4.54822 14.25 8ZM8 4.25C8.27614 4.25 8.5 4.47386 8.5 4.75V8.75C8.5 9.02614 8.27614 9.25 8 9.25C7.72386 9.25 7.5 9.02614 7.5 8.75V4.75C7.5 4.47386 7.72386 4.25 8 4.25ZM8 11.75C8.41421 11.75 8.75 11.4142 8.75 11C8.75 10.5858 8.41421 10.25 8 10.25C7.58579 10.25 7.25 10.5858 7.25 11C7.25 11.4142 7.58579 11.75 8 11.75Z" fill="black"/>
</svg>
