<svg width="16" height="16" viewBox="0 0 16 16" fill="none" xmlns="http://www.w3.org/2000/svg">
<path fill-rule="evenodd" clip-rule="evenodd" d="M6.26793 3.25C7.03773 1.91667 8.96223 1.91667 9.73203 3.25L14.0622 10.75C14.832 12.0833 13.8697 13.75 12.3301 13.75H3.66985C2.13025 13.75 1.168 12.0833 1.9378 10.75L6.26793 3.25ZM8 4.75C8.27614 4.75 8.5 4.97386 8.5 5.25V9.25C8.5 9.52614 8.27614 9.75 8 9.75C7.72385 9.75 7.5 9.52614 7.5 9.25V5.25C7.5 4.97386 7.72385 4.75 8 4.75ZM8 12.25C8.41421 12.25 8.75 11.9142 8.75 11.5C8.75 11.0858 8.41421 10.75 8 10.75C7.58578 10.75 7.25 11.0858 7.25 11.5C7.25 11.9142 7.58578 12.25 8 12.25Z" fill="black"/>
</svg>
