<svg width="16" height="16" viewBox="0 0 16 16" fill="none" xmlns="http://www.w3.org/2000/svg">
<path fill-rule="evenodd" clip-rule="evenodd" d="M4.88753 2.48578C5.26261 2.11071 5.77132 1.89999 6.30175 1.89999H9.6983C10.2287 1.89999 10.7374 2.11071 11.1125 2.48578L13.5142 4.8875C13.8893 5.26258 14.1 5.77129 14.1 6.30172V9.69827C14.1 10.2287 13.8893 10.7374 13.5142 11.1125L11.1125 13.5142C10.7374 13.8893 10.2287 14.1 9.6983 14.1H6.30175C5.77132 14.1 5.26261 13.8893 4.88754 13.5142L2.48581 11.1125C2.11074 10.7374 1.90002 10.2287 1.90002 9.69827V6.30172C1.90002 5.77128 2.11074 5.26258 2.48581 4.8875L4.88753 2.48578ZM8.00002 4.25C8.27617 4.25 8.50002 4.47386 8.50002 4.75V8.75C8.50002 9.02614 8.27617 9.25 8.00002 9.25C7.72388 9.25 7.50002 9.02614 7.50002 8.75V4.75C7.50002 4.47386 7.72388 4.25 8.00002 4.25ZM8.00002 11.75C8.41424 11.75 8.75002 11.4142 8.75002 11C8.75002 10.5858 8.41424 10.25 8.00002 10.25C7.58581 10.25 7.25002 10.5858 7.25002 11C7.25002 11.4142 7.58581 11.75 8.00002 11.75Z" fill="black"/>
</svg>
