<svg width="16" height="16" viewBox="0 0 16 16" fill="none" xmlns="http://www.w3.org/2000/svg">
<path d="M8.19395 9.94563C7.28419 9.28858 6.82931 8.96006 6.66792 8.55377C6.52663 8.19811 6.52663 7.80189 6.66792 7.44623C6.82931 7.03994 7.28419 6.71142 8.19395 6.05437L10.6948 4.24818C11.9233 3.36096 12.5375 2.91734 13.0501 2.93447C13.4963 2.94938 13.9127 3.16228 14.186 3.51528C14.5 3.92078 14.5 4.67846 14.5 6.19381V9.80619C14.5 11.3215 14.5 12.0792 14.186 12.4847C13.9127 12.8377 13.4963 13.0506 13.0501 13.0655C12.5375 13.0827 11.9233 12.639 10.6948 11.7518L8.19395 9.94563Z" fill="black"/>
<path d="M5.5 11V5C5.5 4.53501 5.5 4.30252 5.44889 4.11177C5.31019 3.59413 4.90587 3.18981 4.38823 3.05111C4.19748 3 3.96499 3 3.5 3C3.03501 3 2.80252 3 2.61177 3.05111C2.09413 3.18981 1.68981 3.59413 1.55111 4.11177C1.5 4.30252 1.5 4.53501 1.5 5V11C1.5 11.465 1.5 11.6975 1.55111 11.8882C1.68981 12.4059 2.09413 12.8102 2.61177 12.9489C2.80252 13 3.03501 13 3.5 13C3.96499 13 4.19748 13 4.38823 12.9489C4.90587 12.8102 5.31019 12.4059 5.44889 11.8882C5.5 11.6975 5.5 11.465 5.5 11Z" fill="black"/>
</svg>
