<svg width="16" height="16" viewBox="0 0 16 16" fill="none" xmlns="http://www.w3.org/2000/svg">
<path fill-rule="evenodd" clip-rule="evenodd" d="M8.99986 2.11713L9 2.10001C9 1.54772 8.55228 1.10001 8 1.10001C7.44772 1.10001 7 1.54772 7 2.10001L7.00014 2.11712C5.01466 2.58825 3.48946 4.41995 3.27568 6.50001H3.25003V6.97846L3.24998 7.00001H3.25003V7.47068C3.25003 8.13781 3.02766 8.78591 2.61809 9.3125L2.51432 9.44592C2.05294 10.0391 2.38684 10.9041 3.12984 11.0169C4.54968 11.2324 6.59549 11.5 7.99997 11.5C9.40446 11.5 11.4503 11.2324 12.8702 11.0169C13.6132 10.9041 13.9471 10.0391 13.4857 9.44591L13.382 9.3125C12.9724 8.78591 12.75 8.13781 12.75 7.47068V6.50001H12.7243C12.5105 4.41996 10.9853 2.58827 8.99986 2.11713ZM8.00003 14.25C6.93957 14.25 6.07188 13.4247 6.00427 12.3813C6.69321 12.4524 7.38414 12.5 7.99997 12.5C8.61585 12.5 9.30682 12.4524 9.99579 12.3813C9.92819 13.4246 9.0605 14.25 8.00003 14.25Z" fill="black"/>
</svg>
