<svg width="16" height="16" viewBox="0 0 16 16" fill="none" xmlns="http://www.w3.org/2000/svg">
<g clip-path="url(#clip0_4637_3094)">
<path fill-rule="evenodd" clip-rule="evenodd" d="M3.50375 11.3507L3.50187 9.465L3.5 7.57933H3.50025L3.50036 4.52455C3.50046 1.93955 3.50185 1.46328 3.50944 1.42749C3.5582 1.19746 3.74579 1.02827 3.98013 1.00296C4.06053 0.99428 4.14509 1.00477 4.22489 1.03331C4.28625 1.05527 4.30213 1.065 4.50509 1.20494L4.92055 1.49128L5.39398 1.81751L5.81911 2.1103C6.02913 2.25483 6.09963 2.30932 6.18215 2.39091C6.451 2.65676 6.61089 3.00822 6.63691 3.39054C6.64104 3.45137 6.64343 4.22685 6.6435 5.53262L6.64359 7.57933V9.81663V12.0518C6.64534 12.0506 6.64644 12.0498 6.64684 12.0495C6.65393 12.0434 6.70465 12.0109 6.75957 11.9772C6.81447 11.9435 6.93331 11.8703 7.02366 11.8144C7.11399 11.7585 7.25023 11.6744 7.32639 11.6276C7.40256 11.5808 7.51995 11.5083 7.58726 11.4666C7.65458 11.4248 7.72269 11.3829 7.73863 11.3734C7.75457 11.3639 7.81109 11.3291 7.86424 11.2961C8.01309 11.2038 8.03048 11.193 8.14765 11.1206C8.32594 11.0106 8.53342 10.8827 8.61143 10.8349C8.63268 10.8218 8.66021 10.8047 8.67262 10.7968C8.68502 10.7889 8.70931 10.7741 8.72662 10.7639L8.97696 10.6086C9.0062 10.591 9.05185 10.5631 9.07842 10.5466L9.92223 10.0244C10.3598 9.75364 10.7225 9.5319 10.7284 9.53159C10.7313 9.53144 10.7395 9.53399 10.7518 9.53866C10.524 9.44182 10.242 9.34669 9.80946 9.21862C9.23063 9.04723 9.15681 9.01977 9.00806 8.92042C8.92342 8.86389 8.87338 8.82195 8.7975 8.74397C8.69862 8.64234 8.61948 8.52911 8.56319 8.40875C8.53996 8.35905 8.40183 8.00593 7.83167 6.53871C7.58107 5.89383 7.57866 5.88633 7.58632 5.77577C7.60408 5.51918 7.79515 5.31571 8.04569 5.2866C8.06987 5.28378 8.09399 5.28113 8.0993 5.28069C8.12449 5.27862 8.22491 5.29406 8.26444 5.30608C8.30213 5.31755 8.43433 5.38365 8.74665 5.54715L9.03973 5.70016L9.33924 5.85633L9.6452 6.01573L9.79013 6.09139L9.93506 6.16706C10.2502 6.33093 10.4827 6.45279 10.5438 6.48613C11.5152 7.01668 12.205 7.9596 12.4209 9.05219C12.5317 9.61326 12.5115 10.2061 12.3626 10.7581C12.2395 11.2142 11.9984 11.7172 11.7617 12.0115C11.6781 12.1155 11.658 12.1298 11.7156 12.0445L11.7287 12.0246L11.7169 12.0424C11.6907 12.0812 11.6682 12.1159 11.6669 12.1195C11.6606 12.1373 11.534 12.2778 11.45 12.36C11.2485 12.5574 11.1192 12.6531 10.6855 12.9256L10.3452 13.1406L10.2467 13.2028L10.2397 13.2072L10.2249 13.2165L10.2201 13.2195L10.0864 13.304L9.69678 13.5501C9.59936 13.6114 9.50081 13.6737 9.47778 13.6886C9.45475 13.7035 9.42286 13.7236 9.40692 13.7332C9.39098 13.7427 9.3504 13.7683 9.31675 13.7899C9.28308 13.8115 9.20483 13.8611 9.14283 13.9001L8.94316 14.026C8.40618 14.3654 7.88275 14.5423 7.28159 14.5879C7.15051 14.5978 6.79498 14.5923 6.66938 14.5782C6.33512 14.541 6.02791 14.4652 5.72348 14.345C4.66625 13.9271 3.88529 13.0489 3.61084 11.9691C3.57538 11.8295 3.54245 11.6664 3.527 11.5536C3.51348 11.455 3.50545 11.3774 3.50753 11.3677L3.50375 11.3507ZM3.56131 11.5907C3.57477 11.6385 3.59024 11.6852 3.60778 11.7309C3.59076 11.6859 3.57532 11.6393 3.56131 11.5907ZM3.77444 12.0505C3.78924 12.0725 3.80465 12.0943 3.82069 12.116C3.84154 12.1441 3.87376 12.1812 3.9106 12.2204C3.86015 12.1654 3.81495 12.1091 3.77444 12.0505ZM4.05439 12.3617C4.08249 12.387 4.1086 12.4091 4.13 12.4251C4.1978 12.4757 4.26912 12.5205 4.34352 12.5595C4.32036 12.5472 4.29737 12.5343 4.27454 12.5208C4.19084 12.4713 4.12474 12.424 4.05439 12.3617ZM4.78216 12.7129C4.81507 12.7194 4.84834 12.7249 4.88193 12.7294C4.92713 12.7355 4.99027 12.7389 5.05552 12.7396C4.96185 12.7383 4.8708 12.7294 4.78216 12.7129ZM5.10718 12.7396C5.17246 12.7389 5.23569 12.7355 5.28103 12.7293C5.31055 12.7253 5.33998 12.7205 5.36926 12.7149C5.28457 12.7302 5.19765 12.7383 5.10718 12.7396ZM5.70939 12.6103C5.77649 12.5813 5.84128 12.5479 5.90287 12.5103C6.04005 12.4268 6.2535 12.2952 6.41667 12.1939L6.32636 12.2496C6.15188 12.3573 5.97144 12.4684 5.92539 12.4965C5.85313 12.5407 5.78143 12.5785 5.70939 12.6103ZM11.5321 10.0364C11.4309 9.93208 11.3053 9.83384 11.1572 9.74347C11.3065 9.83406 11.4308 9.93118 11.5321 10.0364ZM11.9234 10.9413C11.9007 10.7998 11.8635 10.6497 11.8199 10.5201C11.8639 10.648 11.9001 10.7937 11.9234 10.9413Z" fill="black"/>
</g>
<defs>
<clipPath id="clip0_4637_3094">
<rect width="9" height="13.5929" fill="white" transform="translate(3.5 1)"/>
</clipPath>
</defs>
</svg>
