<svg width="16" height="16" viewBox="0 0 16 16" fill="none" xmlns="http://www.w3.org/2000/svg">
<g clip-path="url(#clip0_4637_1128)">
<path d="M5.90984 2.55699C6.78527 0.85779 9.21473 0.85779 10.0902 2.55699C10.1428 2.65909 10.2614 2.70825 10.3708 2.67324C12.1914 2.09075 13.9093 3.80864 13.3268 5.62917C13.2918 5.73857 13.3409 5.85724 13.443 5.90984C15.1422 6.78527 15.1422 9.21473 13.443 10.0902C13.3409 10.1428 13.2918 10.2614 13.3268 10.3708C13.9093 12.1914 12.1914 13.9093 10.3708 13.3268C10.2614 13.2918 10.1428 13.3409 10.0902 13.443C9.21473 15.1422 6.78527 15.1422 5.90984 13.443C5.85724 13.3409 5.73857 13.2918 5.62917 13.3268C3.80864 13.9093 2.09075 12.1914 2.67324 10.3708C2.70825 10.2614 2.65909 10.1428 2.55699 10.0902C0.85779 9.21473 0.85779 6.78527 2.55699 5.90984C2.65909 5.85724 2.70825 5.73857 2.67324 5.62917C2.09075 3.80864 3.80864 2.09075 5.62917 2.67324C5.73857 2.70825 5.85724 2.65909 5.90984 2.55699Z" fill="black"/>
</g>
<defs>
<clipPath id="clip0_4637_1128">
<rect width="16" height="16" fill="white"/>
</clipPath>
</defs>
</svg>
