<svg width="16" height="16" viewBox="0 0 16 16" fill="none" xmlns="http://www.w3.org/2000/svg">
<path d="M5 8V2L8.5 4.7L5 8ZM5 8V14L8.5 11.3L5 8ZM5 8L1.5 11.3M5 8L1.5 4.7" stroke="black" stroke-linecap="round" stroke-linejoin="round"/>
<path d="M9.76777 6.23223C10.2366 6.70107 10.5 7.33696 10.5 8C10.5 8.66304 10.2366 9.29893 9.76777 9.76777" stroke="black" stroke-linecap="round"/>
<path d="M11.3284 5.17157C12.0786 5.92172 12.5 6.93913 12.5 8C12.5 9.06087 12.0786 10.0783 11.3284 10.8284" stroke="black" stroke-linecap="round"/>
<path d="M12.8891 4.11091C13.9205 5.14236 14.5 6.54131 14.5 8C14.5 9.45869 13.9205 10.8576 12.8891 11.8891" stroke="black" stroke-linecap="round"/>
</svg>
