<svg width="16" height="16" viewBox="0 0 16 16" fill="none" xmlns="http://www.w3.org/2000/svg">
<path fill-rule="evenodd" clip-rule="evenodd" d="M14 6C14 7.40387 13.1864 8.63883 11.9554 9.35261C11.6022 6.8163 9.19903 5 6.5 5C6.01999 5 5.54934 5.05745 5.09791 5.16618C5.52944 3.35726 7.3364 2 9.5 2C11.9853 2 14 3.79086 14 6ZM6.5 6C8.90018 6 10.8615 7.67032 10.993 9.77459C10.9976 9.8492 11 9.92436 11 10C11 12.2091 8.98528 14 6.5 14C4.01472 14 2 12.2091 2 10C2 8.25604 3.25557 6.77276 5.00702 6.22541C5.47421 6.07941 5.97667 6 6.5 6ZM6.5 6.625C6.70711 6.625 6.875 6.79289 6.875 7V7.39324L7.33229 7.16459C7.51754 7.07197 7.74279 7.14705 7.83541 7.33229C7.92803 7.51754 7.85295 7.74279 7.66771 7.83541L7.24568 8.04642L7.45801 8.18798C7.63034 8.30286 7.6769 8.53569 7.56202 8.70801C7.44714 8.88034 7.21431 8.9269 7.04199 8.81202L6.5 8.45069L5.95801 8.81202C5.78569 8.9269 5.55286 8.88034 5.43798 8.70801C5.3231 8.53569 5.36966 8.30286 5.54199 8.18798L5.75432 8.04642L5.33229 7.83541C5.14705 7.74279 5.07197 7.51754 5.16459 7.33229C5.25721 7.14705 5.48246 7.07197 5.66771 7.16459L6.125 7.39324V7C6.125 6.79289 6.29289 6.625 6.5 6.625ZM9.875 3C9.875 2.79289 9.70711 2.625 9.5 2.625C9.29289 2.625 9.125 2.79289 9.125 3V3.39324L8.66771 3.16459C8.48246 3.07197 8.25721 3.14705 8.16459 3.33229C8.07197 3.51754 8.14705 3.74279 8.33229 3.83541L8.75432 4.04642L8.54199 4.18798C8.36966 4.30286 8.3231 4.53569 8.43798 4.70801C8.55286 4.88034 8.78569 4.9269 8.95801 4.81202L9.5 4.45069L10.042 4.81202C10.2143 4.9269 10.4471 4.88034 10.562 4.70801C10.6769 4.53569 10.6303 4.30286 10.458 4.18798L10.2457 4.04642L10.6677 3.83541C10.8529 3.74279 10.928 3.51754 10.8354 3.33229C10.7428 3.14705 10.5175 3.07197 10.3323 3.16459L9.875 3.39324V3Z" fill="black"/>
</svg>
