<svg width="16" height="16" viewBox="0 0 16 16" fill="none" xmlns="http://www.w3.org/2000/svg">
<path d="M6.5 9.5H4.21979C3.04696 9.5 2.46055 9.5 2.18161 9.26565C1.93943 9.06218 1.8078 8.75614 1.82665 8.44041C1.84836 8.07674 2.25166 7.65103 3.05827 6.79961L6.73848 2.91494C7.60012 2.00543 8.03094 1.55067 8.4027 1.51433C8.72508 1.48281 9.04276 1.6094 9.25512 1.85399C9.5 2.13605 9.5 2.76248 9.5 4.01533V6.5H11.7802C12.953 6.5 13.5395 6.5 13.8184 6.73435C14.0606 6.93782 14.1922 7.24385 14.1734 7.55959C14.1516 7.92326 13.7483 8.34897 12.9417 9.20039L9.26152 13.0851C8.39988 13.9946 7.96906 14.4493 7.5973 14.4857C7.27492 14.5172 6.95724 14.3906 6.74488 14.146C6.5 13.8639 6.5 13.2375 6.5 11.9847V9.5Z" fill="black"/>
</svg>
