<svg width="16" height="16" viewBox="0 0 16 16" fill="none" xmlns="http://www.w3.org/2000/svg">
<path d="M2.5 10.3624V6.8C2.5 5.11984 2.5 4.27976 2.82698 3.63803C3.1146 3.07354 3.57354 2.6146 4.13803 2.32698C4.77976 2 5.61984 2 7.3 2H8.7C10.3802 2 11.2202 2 11.862 2.32698C12.4265 2.6146 12.8854 3.07354 13.173 3.63803C13.5 4.27976 13.5 5.11984 13.5 6.8V10.3624C13.5 11.9316 13.5 12.7163 13.177 13.1251C12.8961 13.4808 12.4693 13.6903 12.0161 13.6952C11.4951 13.7008 10.8742 13.221 9.63254 12.2615L9.63252 12.2615L8.73374 11.567L8.73373 11.567C8.47118 11.3641 8.33991 11.2627 8.1951 11.2236C8.06731 11.1892 7.93269 11.1892 7.8049 11.2236C7.66009 11.2627 7.52881 11.3641 7.26626 11.567L6.36747 12.2615L6.36747 12.2615C5.12576 13.221 4.5049 13.7008 3.98392 13.6952C3.53068 13.6903 3.10395 13.4808 2.82297 13.1251C2.5 12.7163 2.5 11.9317 2.5 10.3624Z" fill="black"/>
</svg>
