<svg width="16" height="16" viewBox="0 0 16 16" fill="none" xmlns="http://www.w3.org/2000/svg">
<path fill-rule="evenodd" clip-rule="evenodd" d="M2.5 4.95V11.05C2.5 12.1701 2.5 12.7302 2.71799 13.158C2.90973 13.5343 3.21569 13.8403 3.59202 14.032C4.01984 14.25 4.5799 14.25 5.7 14.25H12.875C13.2202 14.25 13.5 13.9702 13.5 13.625C13.5 13.2798 13.2202 13 12.875 13H4.5C4.22386 13 4 12.7761 4 12.5C4 12.2239 4.22386 12 4.5 12H11.1C11.9401 12 12.3601 12 12.681 11.8365C12.9632 11.6927 13.1927 11.4632 13.3365 11.181C13.5 10.8601 13.5 10.4401 13.5 9.6V4.15C13.5 3.30992 13.5 2.88988 13.3365 2.56901C13.1927 2.28677 12.9632 2.0573 12.681 1.91349C12.3601 1.75 11.9401 1.75 11.1 1.75H5.7C4.57989 1.75 4.01984 1.75 3.59202 1.96799C3.21569 2.15973 2.90973 2.46569 2.71799 2.84202C2.5 3.26984 2.5 3.8299 2.5 4.95ZM5.10899 4.54601C5 4.75992 5 5.03995 5 5.6V6.4C5 6.96005 5 7.24008 5.10899 7.45399C5.20487 7.64215 5.35785 7.79513 5.54601 7.89101C5.75992 8 6.03995 8 6.6 8H9.65C10.2101 8 10.4901 8 10.704 7.89101C10.8922 7.79513 11.0451 7.64215 11.141 7.45399C11.25 7.24008 11.25 6.96005 11.25 6.4V5.6C11.25 5.03995 11.25 4.75992 11.141 4.54601C11.0451 4.35785 10.8922 4.20487 10.704 4.10899C10.4901 4 10.2101 4 9.65 4H6.6C6.03995 4 5.75992 4 5.54601 4.10899C5.35785 4.20487 5.20487 4.35785 5.10899 4.54601Z" fill="black"/>
</svg>
