<svg width="16" height="16" viewBox="0 0 16 16" fill="none" xmlns="http://www.w3.org/2000/svg">
<path d="M9.93825 11.8659L9.93829 11.8658L9.9354 11.8637L9.04612 11.1765L9.03946 11.1713L9.03945 11.1713C9.02238 11.1581 9.00532 11.1449 8.98826 11.1316C8.77931 10.9693 8.57008 10.8068 8.32516 10.7409C8.11218 10.6835 7.88782 10.6835 7.67484 10.7409C7.42992 10.8068 7.22068 10.9694 7.01174 11.1316C6.99467 11.1449 6.97761 11.1581 6.96054 11.1713L6.06752 11.8614L6.0675 11.8614L6.06175 11.8659L6.06174 11.8659C5.433 12.3517 4.98858 12.6945 4.63683 12.9185C4.27803 13.147 4.09708 13.1964 3.98928 13.1952C3.68712 13.192 3.40263 13.0523 3.21531 12.8152C3.14849 12.7306 3.07688 12.5572 3.03831 12.1336C3.0005 11.7183 3 11.157 3 10.3624V6.8C3 5.95167 3.00039 5.34549 3.03921 4.87032C3.07756 4.40099 3.15089 4.10366 3.27248 3.86502C3.51217 3.39462 3.89462 3.01217 4.36502 2.77248C4.60366 2.65089 4.90099 2.57756 5.37032 2.53921C5.84549 2.50039 6.45167 2.5 7.3 2.5H8.7C9.54833 2.5 10.1545 2.50039 10.6297 2.53921C11.099 2.57756 11.3963 2.65089 11.635 2.77248C12.1054 3.01217 12.4878 3.39462 12.7275 3.86502C12.8491 4.10366 12.9224 4.40099 12.9608 4.87032C12.9996 5.34549 13 5.95167 13 6.8V10.3624C13 11.157 12.9995 11.7183 12.9617 12.1336C12.9231 12.5572 12.8515 12.7306 12.7847 12.8152C12.5974 13.0523 12.3129 13.192 12.0107 13.1952C11.9029 13.1964 11.722 13.147 11.3632 12.9185C11.0114 12.6945 10.567 12.3517 9.93825 11.8659Z" stroke="black"/>
</svg>
