<svg width="16" height="16" viewBox="0 0 16 16" fill="none" xmlns="http://www.w3.org/2000/svg">
<path fill-rule="evenodd" clip-rule="evenodd" d="M8 1.5C7.02918 1.5 6.21992 2.1917 6.03817 3.10916C5.79653 3.1367 5.56631 3.16844 5.34781 3.20318C4.71019 3.30454 4.39138 3.35523 3.85192 3.7099C3.48035 3.95419 2.9485 4.57727 2.76558 4.98259C2.5 5.57104 2.5 6.03622 2.5 6.96656V7.0635C2.15699 7.15208 1.84056 7.33102 1.58579 7.58579C1.21071 7.96086 1 8.46957 1 9C1 9.53043 1.21071 10.0391 1.58579 10.4142C1.84439 10.6728 2.16652 10.8533 2.5155 10.9404C2.53996 11.3432 2.60302 11.6572 2.76558 12.0174C2.9485 12.4227 3.48035 13.0458 3.85192 13.2901C4.39138 13.6448 4.71019 13.6955 5.34781 13.7968C6.09786 13.9161 6.98597 14 8 14C9.01403 14 9.90214 13.9161 10.6522 13.7968C11.2898 13.6955 11.6086 13.6448 12.1481 13.2901C12.5196 13.0458 13.0515 12.4227 13.2344 12.0174C13.397 11.6572 13.46 11.3432 13.4845 10.9404C13.8335 10.8533 14.1556 10.6728 14.4142 10.4142C14.7893 10.0391 15 9.53043 15 9C15 8.46957 14.7893 7.96086 14.4142 7.58579C14.1594 7.33102 13.843 7.15208 13.5 7.0635V6.96656C13.5 6.03622 13.5 5.57104 13.2344 4.98259C13.0515 4.57727 12.5196 3.95419 12.1481 3.7099C11.6086 3.35523 11.2898 3.30454 10.6522 3.20318C10.4337 3.16844 10.2035 3.1367 9.96183 3.10916C9.78008 2.1917 8.97082 1.5 8 1.5ZM5.77639 10.0528C6.02144 9.93026 6.319 10.0278 6.44427 10.2706C6.44519 10.2723 6.44768 10.2767 6.45181 10.2835C6.46071 10.2981 6.47704 10.3235 6.50156 10.3562C6.55078 10.4219 6.63156 10.5149 6.74985 10.6096C6.98008 10.7938 7.37146 11 8 11C8.62854 11 9.01992 10.7938 9.25015 10.6096C9.36844 10.5149 9.44922 10.4219 9.49844 10.3562C9.52296 10.3235 9.53929 10.2981 9.54819 10.2835C9.55232 10.2767 9.55481 10.2723 9.55573 10.2706C9.681 10.0278 9.97856 9.93026 10.2236 10.0528C10.4706 10.1763 10.5707 10.4766 10.4472 10.7236L10 10.5C10.4472 10.7236 10.4471 10.7239 10.4469 10.7241L10.4467 10.7247L10.4461 10.7259L10.4447 10.7286L10.4414 10.735L10.4321 10.7522C10.4248 10.7655 10.4151 10.7824 10.403 10.8025C10.3787 10.8425 10.3442 10.8952 10.2984 10.9563C10.207 11.0781 10.0691 11.2351 9.87485 11.3904C9.48008 11.7062 8.87146 12 8 12C7.12854 12 6.51992 11.7062 6.12515 11.3904C5.93094 11.2351 5.79297 11.0781 5.70156 10.9563C5.65578 10.8952 5.62133 10.8425 5.59702 10.8025C5.58485 10.7824 5.57519 10.7655 5.56787 10.7522L5.55863 10.735L5.55529 10.7286L5.55394 10.7259L5.55334 10.7247L5.55305 10.7241C5.55292 10.7239 5.55279 10.7236 6 10.5L5.55279 10.7236C5.42929 10.4766 5.5294 10.1763 5.77639 10.0528ZM6.25 8.25C6.25 8.94036 5.69036 9.5 5 9.5C4.30964 9.5 3.75 8.94036 3.75 8.25C3.75 7.55964 4.30964 7 5 7C5.69036 7 6.25 7.55964 6.25 8.25ZM11 9.5C11.6904 9.5 12.25 8.94036 12.25 8.25C12.25 7.55964 11.6904 7 11 7C10.3096 7 9.75 7.55964 9.75 8.25C9.75 8.94036 10.3096 9.5 11 9.5Z" fill="black"/>
</svg>
