<svg width="16" height="16" viewBox="0 0 16 16" fill="none" xmlns="http://www.w3.org/2000/svg">
<path d="M2 8H2.5C3.05228 8 3.5 7.55228 3.5 7V4.25C3.5 3.42157 4.17157 2.75 5 2.75H6M14 8H13.5C12.9477 8 12.5 7.55228 12.5 7V4.25C12.5 3.42157 11.8284 2.75 11 2.75H10" stroke="black" stroke-linecap="round" stroke-linejoin="round"/>
<path d="M2 8H2.5C3.05228 8 3.5 8.44772 3.5 9V11.75C3.5 12.5784 4.17157 13.25 5 13.25H6M14 8H13.5C12.9477 8 12.5 8.44772 12.5 9V11.75C12.5 12.5784 11.8284 13.25 11 13.25H10" stroke="black" stroke-linecap="round" stroke-linejoin="round"/>
</svg>
