<svg width="16" height="16" viewBox="0 0 16 16" fill="none" xmlns="http://www.w3.org/2000/svg">
<path fill-rule="evenodd" clip-rule="evenodd" d="M4.39608 2H11.6038C12.9213 2 14.0001 3.07866 14.0001 4.39629V11.6038C14.0001 12.9214 12.9213 14 11.6038 14H4.39608C3.07845 14 1.99988 12.9214 1.99988 11.6038V4.39629C1.99988 3.07866 3.07845 2 4.39608 2ZM8.8022 11.7374H10.0668V10.2483H9.39879C8.92806 10.2483 8.63242 10.0458 8.63242 9.45997V7.50565H10.0119V6.09332H8.63242V4.16626H7.45002C7.39517 5.01483 6.91889 5.99471 5.78016 6.29044V7.50565H6.81491V9.75006C6.81491 11.1515 7.66347 11.7374 8.8022 11.7374Z" fill="black"/>
</svg>
