<svg width="16" height="16" viewBox="0 0 16 16" fill="none" xmlns="http://www.w3.org/2000/svg">
<path fill-rule="evenodd" clip-rule="evenodd" d="M14.05 8C14.05 11.025 14.05 12.5375 13.2937 13.2937C12.5375 14.05 11.025 14.05 7.99995 14.05C4.97495 14.05 3.46245 14.05 2.7062 13.2937C1.94995 12.5375 1.94995 11.025 1.94995 8C1.94995 4.975 1.94995 3.4625 2.7062 2.70625C3.46245 1.95 4.97495 1.95 7.99995 1.95C11.025 1.95 12.5375 1.95 13.2937 2.70625C14.05 3.4625 14.05 4.975 14.05 8ZM7.99995 8.14652C9.2915 8.14652 10.342 7.09604 10.342 5.80568C10.342 4.51298 9.2915 3.4625 7.99995 3.4625C6.70842 3.4625 5.65795 4.51298 5.65795 5.80451C5.65795 7.09604 6.70842 8.14652 7.99995 8.14652ZM8.97009 5.80569C8.97009 5.27041 8.53525 4.83556 7.99995 4.83556C7.46586 4.83556 7.02982 5.27041 7.02982 5.80569C7.02982 6.33979 7.46586 6.77464 7.99995 6.77464C8.53525 6.77464 8.97009 6.33979 8.97009 5.80569ZM10.3077 9.49359C9.88467 9.75946 9.42501 9.94852 8.94763 10.0572L10.2569 11.3665C10.5251 11.6335 10.5251 12.0684 10.2569 12.3366C9.98865 12.6049 9.55499 12.6049 9.28676 12.3366L7.99995 11.0498L6.71316 12.3366C6.57844 12.4701 6.40355 12.5375 6.22749 12.5375C6.05261 12.5375 5.87772 12.4701 5.74302 12.3366C5.4748 12.0684 5.4748 11.6347 5.74302 11.3665L7.05109 10.0572C6.57371 9.94852 6.11405 9.75946 5.69103 9.49359C5.3708 9.29153 5.27391 8.86732 5.47597 8.5471C5.67803 8.22569 6.10107 8.1288 6.42246 8.33086C7.38195 8.93349 8.61677 8.93467 9.57626 8.33086C9.89768 8.1288 10.3207 8.22569 10.5228 8.5471C10.7248 8.86851 10.6279 9.29153 10.3077 9.49359Z" fill="black"/>
</svg>
