<svg width="16" height="16" viewBox="0 0 16 16" fill="none" xmlns="http://www.w3.org/2000/svg">
<path d="M4.31265 2.89905C5.80515 4.02335 7.41074 6.30268 8.00005 7.52584V10.7566C8.00005 10.6878 7.97361 10.7655 7.91665 10.9329C7.60908 11.8394 6.40768 15.3771 3.66049 12.5489C2.21396 11.0599 2.88362 9.57083 5.5167 9.12127C4.01037 9.37839 2.31689 8.95345 1.85228 7.28743C1.71843 6.80818 1.4906 3.85614 1.4906 3.45744C1.4906 1.46026 3.23574 2.08801 4.31265 2.89905ZM11.6875 2.89905C10.195 4.02335 8.58936 6.30268 8.00005 7.52584V10.7566C8.00005 10.6878 8.0265 10.7655 8.08345 10.9329C8.39103 11.8394 9.59243 15.3771 12.3396 12.5489C13.7861 11.0599 13.1165 9.57083 10.4834 9.12127C11.9897 9.37839 13.6832 8.95345 14.1478 7.28743C14.2817 6.80818 14.5095 3.85614 14.5095 3.45744C14.5095 1.46026 12.7646 2.08801 11.6875 2.89905Z" fill="black"/>
</svg>
