<svg width="16" height="16" viewBox="0 0 16 16" fill="none" xmlns="http://www.w3.org/2000/svg">
<path d="M11.6697 4.40549C11.2689 4.14496 10.9394 3.78851 10.7111 3.36847C10.4829 2.94842 10.3631 2.47805 10.3626 2H8.29888L8.29527 10.2679C8.28226 10.6077 8.1696 10.9361 7.97133 11.2123C7.77305 11.4885 7.49792 11.7003 7.18018 11.8213C6.86244 11.9423 6.51613 11.9671 6.18436 11.8927C5.8526 11.8184 5.55004 11.6481 5.31435 11.403C5.07866 11.158 4.92025 10.849 4.85885 10.5146C4.79745 10.1802 4.83577 9.83512 4.96904 9.52233C5.1023 9.20954 5.32462 8.94285 5.60833 8.75548C5.89203 8.5681 6.22459 8.46831 6.56458 8.46854C6.73824 8.4691 6.91079 8.49612 7.0763 8.54868V6.44252C6.90676 6.4186 6.7358 6.40622 6.56458 6.40546C4.47065 6.40546 2.76721 8.10849 2.76721 10.2026C2.76875 11.2094 3.16943 12.1745 3.88142 12.8864C4.5934 13.5982 5.55859 13.9987 6.56538 14C8.65912 14 10.3626 12.297 10.3626 10.2026V6.01015C11.1986 6.61169 12.2027 6.93484 13.2327 6.9338V4.87012C12.6776 4.87058 12.1344 4.70911 11.6697 4.40549Z" fill="black"/>
</svg>
