<svg width="16" height="16" viewBox="0 0 16 16" fill="none" xmlns="http://www.w3.org/2000/svg">
<path d="M8 1.625C4.47941 1.625 1.625 4.47941 1.625 8C1.625 11.5206 4.47941 14.375 8 14.375C11.5206 14.375 14.375 11.5206 14.375 8C14.375 4.47941 11.5206 1.625 8 1.625ZM8 2.60569C10.9723 2.60941 13.3805 5.02022 13.3805 7.99309C13.3805 10.9686 10.9686 13.3805 7.99309 13.3805C5.01756 13.3805 2.60569 10.9686 2.60569 7.99309C2.60569 6.50559 3.20866 5.15887 4.1835 4.18403C5.15941 3.20919 6.50719 2.60622 7.99575 2.60622H7.99947L8 2.60569ZM8 4.07725C5.66675 4.48844 3.58637 6.64 3.58637 8.98069C4.72803 6.96512 5.49037 6.82009 5.70128 6.82009C5.91219 6.82009 6.02322 6.92953 6.02322 7.17231V10.176C6.02322 10.5495 5.29753 10.4884 5.05741 10.4517C5.94459 11.7719 8 11.9233 8 11.9233L8.98069 10.9426L9.96137 11.4329C11.5094 10.7242 12.4131 9.207 12.4131 8.98122C12.0407 9.44234 11.5387 9.78606 10.9622 9.95659L10.9415 9.96191C10.8114 9.96191 10.4512 9.89497 10.4512 9.71647V6.16081C10.4512 5.85216 11.1641 4.91025 11.4319 4.56706C9.66175 5.03084 9.14856 5.83887 9.14856 5.83887C9.14856 5.83887 9.01416 5.54775 8.48981 5.54775C8.75597 5.79903 8.935 6.13956 8.97962 6.521L8.98016 6.52844V9.53212C8.70125 9.73028 8.37241 9.87903 8.017 9.95766L7.99894 9.96084C7.65894 9.96084 7.49319 9.82272 7.49319 9.56241C7.49319 9.30209 7.50859 6.03809 7.50859 6.03809C7.50859 6.03809 7.01825 6.21819 7.01825 5.21041C7.01825 4.70625 7.99894 4.07619 7.99894 4.07619L8 4.07725Z" fill="black"/>
</svg>
