<svg width="16" height="16" viewBox="0 0 16 16" fill="none" xmlns="http://www.w3.org/2000/svg">
<path fill-rule="evenodd" clip-rule="evenodd" d="M10.0988 5.20647C9.30349 4.63619 7.923 4.78627 7.1276 5.25145C5.55193 6.13681 4.56157 7.77249 4.41149 9.40805C4.86163 8.23755 5.94206 6.97708 7.15754 6.60199C8.17796 6.25683 9.24336 6.55689 9.82879 7.3072C11.2993 9.04787 9.96384 11.5689 9.96384 11.5689C10.9992 10.6084 11.6143 9.18293 11.5245 7.65235L15.2008 14H9.0483C10.6689 13.1746 11.6294 11.464 11.7495 9.78327C11.1792 11.2239 9.73871 12.7393 8.07297 12.7245C7.18761 12.7245 6.39231 12.2744 5.95709 11.479C5.32691 10.3686 5.642 8.80783 6.16719 7.75746C5.01183 8.79291 4.45658 10.3985 4.65165 12.0793C4.83179 12.7994 5.17683 13.5948 5.88216 14H0.75L7.96787 1.5L10.0988 5.20647Z" fill="black"/>
</svg>
