<svg width="16" height="16" viewBox="0 0 16 16" fill="none" xmlns="http://www.w3.org/2000/svg">
<path fill-rule="evenodd" clip-rule="evenodd" d="M2.83197 7.99999C2.25243 7.35247 1.90002 6.49739 1.90002 5.55999C1.90002 3.53863 3.53866 1.89999 5.56002 1.89999C6.49742 1.89999 7.3525 2.2524 8.00003 2.83194C8.64755 2.2524 9.50263 1.89999 10.44 1.89999C12.4614 1.89999 14.1 3.53863 14.1 5.55999C14.1 6.49739 13.7476 7.35247 13.1681 7.99999C13.7476 8.64752 14.1 9.5026 14.1 10.44C14.1 12.4614 12.4614 14.1 10.44 14.1C9.50263 14.1 8.64755 13.7476 8.00002 13.168C7.3525 13.7476 6.49742 14.1 5.56002 14.1C3.53866 14.1 1.90002 12.4614 1.90002 10.44C1.90002 9.5026 2.25243 8.64752 2.83197 7.99999ZM9.1689 6.30636L8.86654 5.53972C8.55643 4.75342 7.44362 4.75342 7.13351 5.53972L6.83115 6.30636C6.73647 6.54642 6.54645 6.73644 6.30639 6.83112L5.53975 7.13348C4.75345 7.44359 4.75345 8.5564 5.53975 8.86651L6.30639 9.16887C6.54645 9.26354 6.73647 9.45357 6.83115 9.69363L7.13351 10.4603C7.44362 11.2466 8.55643 11.2466 8.86654 10.4603L9.1689 9.69363C9.26358 9.45357 9.4536 9.26354 9.69366 9.16887L10.4603 8.86651C11.2466 8.5564 11.2466 7.44359 10.4603 7.13348L9.69366 6.83112C9.4536 6.73644 9.26358 6.54642 9.1689 6.30636Z" fill="black"/>
</svg>
