<svg width="16" height="16" viewBox="0 0 16 16" fill="none" xmlns="http://www.w3.org/2000/svg">
<g clip-path="url(#clip0_6345_349)">
<path d="M1.28697 10.4704C0.756542 10.8233 0.933353 11.4851 2.05315 11.7939C3.20242 12.1762 4.46957 12.2791 5.69251 12.0733C5.76618 12.0733 5.82512 12.0439 5.86932 12.0439V10.8528L4.67585 11.2351C4.21909 11.3674 3.76232 11.4115 3.30556 11.3086C2.95194 11.2057 3.02561 10.9998 3.43817 10.8233L5.86932 9.98516V8.69113L2.50991 9.83811C2.09736 9.98516 1.67006 10.191 1.28697 10.4704ZM9.40553 5.23547V8.61761C10.8348 9.30874 11.9546 8.61761 11.9546 6.8089C11.9546 4.95608 11.2915 4.1179 9.36133 3.45618C8.34467 3.10326 7.29854 2.79445 6.25241 2.58858V12.6762L8.69829 13.4114V4.92667C8.69829 4.54434 8.69829 4.26495 8.97824 4.36788C9.36133 4.47082 9.40553 4.85314 9.40553 5.23547ZM13.9437 9.67636C12.927 9.32344 11.8514 9.1911 10.7906 9.29403C10.2306 9.32344 9.70022 9.47049 9.21399 9.64695L9.11085 9.67636V11.0439L11.3799 10.2057C11.8367 10.0734 12.2934 10.0293 12.7502 10.1322C13.1038 10.2351 13.0302 10.441 12.6176 10.6175L9.12558 11.9115V13.235L13.9437 11.4557C14.2973 11.3233 14.6067 11.1469 14.8867 10.8675C15.1371 10.5145 15.034 10.0146 13.9437 9.67636Z" fill="black"/>
</g>
<defs>
<clipPath id="clip0_6345_349">
<rect width="16" height="16" fill="white"/>
</clipPath>
</defs>
</svg>
