<svg width="16" height="16" viewBox="0 0 16 16" fill="none" xmlns="http://www.w3.org/2000/svg">
<path d="M13.8724 8.135C13.8724 7.74 13.8374 7.365 13.7774 7H8.12744V9.255H11.3624C11.2174 9.995 10.7924 10.62 10.1624 11.045C9.62244 11.405 8.93744 11.625 8.12744 11.625C6.56244 11.625 5.23744 10.57 4.76244 9.145C4.63744 8.785 4.57244 8.4 4.57244 8C4.57244 7.6 4.64244 7.215 4.76244 6.855C5.23744 5.43 6.56244 4.375 8.12744 4.375C9.01244 4.375 9.80244 4.68 10.4274 5.275L12.1374 3.565C11.1024 2.595 9.74744 2 8.12744 2C5.78244 2 3.75744 3.35 2.77244 5.31C2.36244 6.12 2.12744 7.03 2.12744 8C2.12744 8.97 2.36244 9.88 2.77244 10.69C3.75744 12.65 5.78244 14 8.12744 14C9.74744 14 11.1024 13.46 12.0924 12.545C13.2224 11.5 13.8724 9.96 13.8724 8.135Z" fill="black"/>
</svg>
