<svg width="16" height="16" viewBox="0 0 16 16" fill="none" xmlns="http://www.w3.org/2000/svg">
<path d="M9.90204 11.015L9.83514 11.0525C9.81575 11.0648 9.79572 11.0762 9.77514 11.0864C9.70143 11.1226 9.62129 11.1438 9.53934 11.1488L11.24 13.16L14.2067 13.8749C14.288 13.8135 14.3527 13.7327 14.3948 13.64L10.0245 11.0865L9.90204 11.015Z" fill="black"/>
<path d="M10.205 10.8446L9.83514 11.0525C9.81575 11.0648 9.79572 11.0762 9.77514 11.0864C9.70143 11.1226 9.62129 11.1438 9.53934 11.1488L9.59171 11.2932L10.3361 13.3457L14.2076 13.874C14.3273 13.7841 14.4079 13.6542 14.4373 13.5103C14.4455 13.4708 14.4499 13.4303 14.45 13.3892L14.45 13.3235L10.205 10.8446Z" fill="black"/>
<path d="M11.15 3.8H13.85V6.5H11.15L11.15 3.8Z" fill="black"/>
<path d="M9.29034 11.0027C9.2697 10.9923 9.24967 10.9808 9.23034 10.9682L8.45004 10.5229V10.6491L9.16673 11.0522C9.18616 11.0644 9.20618 11.0756 9.22674 11.0858C9.32473 11.1337 9.4321 11.1544 9.53826 11.1482L9.29034 11.0027Z" fill="black"/>
<path d="M9.16704 11.1974C9.18641 11.2103 9.20644 11.2222 9.22705 11.2331C9.34071 11.2917 9.46844 11.3118 9.59171 11.2932L9.53934 11.1488C9.43308 11.1551 9.32483 11.1337 9.22674 11.0858C9.20618 11.0756 9.18616 11.0644 9.16673 11.0522L8.45004 10.6491V10.7501L8.44974 10.7728L9.16704 11.1974Z" fill="black"/>
<path d="M8.15004 3.8H5.15005L7.40006 4.4H7.60014C7.80834 4.4 7.99906 4.47486 8.14684 4.59914L8.15004 4.6V3.8Z" fill="black"/>
<path fill-rule="evenodd" clip-rule="evenodd" d="M6.12084 6.5333C6.10943 6.52202 6.09784 6.51092 6.08609 6.5C6.00468 6.42432 5.91515 6.35706 5.81876 6.29958C5.61245 6.18019 5.3849 6.1042 5.15005 6.07519C5.06578 6.06479 4.98057 6.06043 4.89506 6.06228C4.54567 6.05224 4.2003 6.13882 3.89696 6.31249C3.62305 6.47597 3.40429 6.71762 3.26876 7.00638C3.12221 7.3238 3.04929 7.67022 3.05546 8.01977C3.04965 8.35356 3.12392 8.68389 3.27206 8.98307C3.41045 9.25931 3.6254 9.48988 3.89126 9.64727C4.09503 9.76448 4.31888 9.84033 4.55004 9.87155C4.64423 9.88427 4.73962 9.88959 4.83536 9.88728C4.96375 9.89028 5.09151 9.87981 5.21664 9.85637C5.41865 9.81854 5.61378 9.74692 5.79356 9.64367C5.91195 9.5732 6.02024 9.48832 6.11622 9.39147L6.11742 9.39025C6.12862 9.37893 6.13964 9.36745 6.1505 9.35581C6.17974 9.32445 6.20773 9.29193 6.23441 9.25833C6.24387 9.24642 6.25316 9.23437 6.26228 9.22219C6.31265 9.15496 6.3579 9.08369 6.3975 9.00894C6.40648 8.992 6.41517 8.97487 6.42356 8.95757C6.57568 8.63946 6.6512 8.29013 6.64406 7.93758C6.65019 7.61762 6.58448 7.30059 6.45203 7.00974C6.44484 6.99394 6.43745 6.97822 6.42986 6.96258C6.35122 6.80238 6.24653 6.65745 6.12084 6.5333ZM5.61948 8.90737C5.59717 8.93525 5.57335 8.96193 5.54812 8.98729C5.54178 8.99367 5.53535 8.99996 5.52883 9.00617C5.52068 9.01393 5.51239 9.02156 5.50396 9.02905C5.48125 9.04924 5.45756 9.06845 5.43296 9.08658C5.36547 9.13338 5.29274 9.17109 5.21664 9.19916C5.09816 9.24287 4.97151 9.26323 4.84375 9.25818C4.74369 9.26069 4.64455 9.24691 4.55004 9.21794C4.45847 9.18987 4.37125 9.14754 4.29176 9.09198C4.13316 8.97625 4.01062 8.81793 3.93836 8.63538C3.77608 8.21174 3.77722 7.74352 3.94106 7.32048C4.01491 7.13592 4.13977 6.9762 4.30106 6.85998C4.4669 6.74578 4.66466 6.68707 4.86595 6.69228C4.98613 6.68718 5.1052 6.7059 5.21664 6.74642C5.29957 6.77658 5.37827 6.81881 5.45005 6.87228C5.60459 6.99534 5.72007 7.16063 5.78245 7.34808C5.78795 7.36423 5.79323 7.38045 5.79829 7.39673C5.85829 7.58964 5.8878 7.79085 5.88565 7.99308C5.88849 8.21029 5.85137 8.42618 5.77615 8.62998L5.76849 8.65007C5.73184 8.74324 5.68149 8.8299 5.61948 8.90737ZM8.15004 10.0087L8.15004 9.22219L8.15004 9.19999L8.15004 6.5333L8.15004 6.5V6.00461V5.2499C8.15004 4.9462 7.90385 4.7 7.60014 4.7H5.15005H2.09995C1.79625 4.7 1.55005 4.9462 1.55005 5.2499V10.7501C1.55005 11.0538 1.79624 11.3 2.09995 11.3L4.55004 11.3H5.21664L7.60014 11.3C7.87832 11.3 8.10825 11.0934 8.14493 10.8253L8.15004 10.829L8.15004 10.7501L8.15004 10.5954L8.15004 10.4804V10.3516V10.0087ZM8.45004 9.19999V6.77V6.5V5.82703V5.2499C8.45004 4.99022 8.33358 4.75774 8.15004 4.60185L8.14684 4.59914L8.15004 4.6V3.8H5.15005V2.57C5.143 2.26247 5.38642 2.00737 5.69395 2H13.3061C13.6137 2.00737 13.8571 2.26247 13.85 2.57V3.8L11.75 4.4L13.85 6.5V7.77975V8.45074L12.5184 9.19999L11.15 9.96991C10.3228 10.4354 9.64751 10.8156 9.64403 10.8179C9.62603 10.8239 9.61103 10.8299 9.59603 10.8359L9.42204 10.7339C9.41847 10.7321 9.0153 10.5022 8.45004 10.1798V9.19999ZM5.15005 4.4V3.8L7.40006 4.4H5.15005ZM4.55004 11.6V13.3892C4.55235 13.7287 4.8294 14.0021 5.16894 14H13.8314H13.8378H13.8394H13.8407C13.9384 13.999 14.0317 13.9752 14.1134 13.9336C14.1439 13.9183 14.1732 13.9004 14.201 13.88C14.3203 13.7917 14.4062 13.661 14.4373 13.5103C14.4455 13.4708 14.4499 13.4303 14.45 13.3892L14.45 8.30571C14.4479 8.40084 14.3958 8.48802 14.3126 8.5349L14.3069 8.5379L14.2061 8.59461L13.85 8.79486L13.1297 9.19999L11.15 10.3134L10.205 10.8446L9.83514 11.0525L9.90204 11.015L9.83694 11.0519C9.81744 11.0639 9.79764 11.0753 9.77694 11.0855C9.70101 11.1216 9.61856 11.1421 9.53454 11.1455L9.29034 11.0027L9.53826 11.1482L9.53934 11.1488L9.59171 11.2932C9.46844 11.3118 9.34071 11.2917 9.22705 11.2331C9.20644 11.2222 9.18641 11.2103 9.16704 11.1974L8.44974 10.7728C8.44756 10.8561 8.43338 10.9365 8.40887 11.0122C8.3597 11.164 8.26894 11.2972 8.15004 11.3981C8.00182 11.524 7.80985 11.6 7.60014 11.6H5.21664H4.55004Z" fill="black"/>
</svg>
