<svg width="16" height="16" viewBox="0 0 16 16" fill="none" xmlns="http://www.w3.org/2000/svg">
<path d="M4.14263 3.66091H6.07161C6.19943 3.6609 6.32201 3.61012 6.41239 3.51974C6.50277 3.42936 6.55355 3.30678 6.55355 3.17896V1.73195C6.55356 1.60413 6.60434 1.48155 6.69472 1.39117C6.7851 1.30079 6.90768 1.25001 7.03548 1.25H8.48195C8.60981 1.25001 8.73238 1.30079 8.82277 1.39117C8.91311 1.48155 8.9639 1.60413 8.9639 1.73195V3.17896C8.9639 3.30678 8.91311 3.42936 8.82277 3.51974C8.73238 3.61013 8.60981 3.6609 8.48195 3.66091H7.03548C6.90768 3.66092 6.7851 3.7117 6.69472 3.80209C6.60434 3.89247 6.55356 4.01505 6.55355 4.14286V6.07184C6.55355 6.19966 6.50277 6.32225 6.41239 6.41264C6.32201 6.50302 6.19943 6.55381 6.07161 6.55382H4.14263C4.01482 6.55381 3.89224 6.50303 3.80185 6.41265C3.71147 6.32227 3.66068 6.19969 3.66067 6.07187V4.14286C3.66068 4.01505 3.71147 3.89246 3.80185 3.80209C3.89223 3.7117 4.01482 3.66092 4.14263 3.66091Z" fill="black"/>
<path d="M3.66092 11.857V9.92797C3.66091 9.80017 3.61013 9.67755 3.51974 9.58721C3.42936 9.49682 3.30678 9.44602 3.17896 9.44602H1.73194C1.60413 9.44602 1.48155 9.39523 1.39117 9.30484C1.30079 9.21444 1.25001 9.09187 1.25 8.96407V7.51766C1.25001 7.3898 1.30079 7.26724 1.39117 7.17684C1.48155 7.08645 1.60412 7.03571 1.73194 7.03566H3.17896C3.30679 7.03571 3.42937 7.08645 3.51975 7.17684C3.61013 7.26724 3.66091 7.3898 3.66092 7.51766V8.96407C3.66092 9.09187 3.71171 9.21444 3.80209 9.30484C3.89247 9.39523 4.01505 9.44602 4.14287 9.44602H6.07184C6.19965 9.44602 6.32223 9.49682 6.41261 9.58721C6.50299 9.67755 6.55378 9.80017 6.55379 9.92797V11.857C6.55378 11.9848 6.50301 12.1073 6.41262 12.1977C6.32224 12.2881 6.19965 12.3389 6.07184 12.3389H4.14287C4.01505 12.3389 3.89247 12.2881 3.80209 12.1977C3.71171 12.1073 3.66092 11.9848 3.66092 11.857Z" fill="black"/>
<path d="M11.8571 12.3387H9.92814C9.80028 12.3387 9.67771 12.3895 9.58732 12.4799C9.49698 12.5703 9.44619 12.6928 9.44619 12.8206V14.2677C9.44619 14.3955 9.3954 14.5181 9.305 14.6084C9.21461 14.6988 9.09204 14.7496 8.96424 14.7496H7.51777C7.38997 14.7496 7.2674 14.6988 7.17701 14.6084C7.08662 14.5181 7.03582 14.3955 7.03582 14.2677V12.8206C7.03582 12.6928 7.08662 12.5703 7.17701 12.4799C7.2674 12.3895 7.38997 12.3387 7.51777 12.3387H8.96424C9.09204 12.3387 9.21461 12.2879 9.305 12.1975C9.3954 12.1072 9.44619 11.9846 9.44619 11.8567V9.92775C9.44619 9.79995 9.49698 9.67738 9.58732 9.58699C9.67771 9.49659 9.80028 9.4458 9.92814 9.4458H11.8571C11.9849 9.4458 12.1075 9.49659 12.1979 9.58699C12.2883 9.67732 12.339 9.79995 12.3391 9.92775V11.8567C12.3391 11.9845 12.2883 12.1072 12.1979 12.1975C12.1075 12.2879 11.9849 12.3387 11.8571 12.3387Z" fill="black"/>
<path d="M12.3391 4.14264V6.07161C12.3391 6.19943 12.3899 6.32201 12.4803 6.41238C12.5707 6.50277 12.6932 6.55354 12.821 6.55355H14.2681C14.3959 6.55356 14.5185 6.60433 14.6088 6.69472C14.6992 6.78512 14.75 6.90769 14.75 7.03549V8.48195C14.75 8.60975 14.6992 8.73232 14.6088 8.82272C14.5185 8.91311 14.3959 8.9639 14.2681 8.9639H12.821C12.6932 8.9639 12.5707 8.91311 12.4803 8.82272C12.3899 8.73232 12.3391 8.60975 12.3391 8.48195V7.03549C12.3391 6.90769 12.2883 6.78512 12.1979 6.69472C12.1075 6.60433 11.9849 6.55356 11.8571 6.55355H9.92814C9.80034 6.55355 9.67777 6.50277 9.58738 6.41239C9.49698 6.32201 9.44619 6.19943 9.44619 6.07161V4.14264C9.44619 4.01482 9.49698 3.89224 9.58732 3.80185C9.67771 3.71147 9.80028 3.66069 9.92814 3.66067H11.8571C11.985 3.66068 12.1075 3.71147 12.1979 3.80185C12.2883 3.89223 12.3391 4.01482 12.3391 4.14264Z" fill="black"/>
</svg>
