<svg width="16" height="16" viewBox="0 0 16 16" fill="none" xmlns="http://www.w3.org/2000/svg">
<path fill-rule="evenodd" clip-rule="evenodd" d="M10.4874 14.0052C9.69883 14.3319 8.85359 14.5 8 14.5C6.27609 14.5 4.62279 13.8152 3.40381 12.5962C2.18482 11.3772 1.5 9.72391 1.5 8C1.5 6.27609 2.18482 4.62279 3.40381 3.40381C4.62279 2.18482 6.27609 1.5 8 1.5C8.85359 1.5 9.69883 1.66813 10.4874 1.99478C11.2761 2.32144 11.9926 2.80023 12.5962 3.40381C13.1998 4.00739 13.6786 4.72394 14.0052 5.51256C14.3319 6.30117 14.5 7.14641 14.5 8C14.5 8.85359 14.3319 9.69883 14.0052 10.4874C13.6786 11.2761 13.1998 11.9926 12.5962 12.5962C11.9926 13.1998 11.2761 13.6786 10.4874 14.0052ZM10.436 12.064H9.02143L9.01833 12.0609H9.01524V5.03476H8.38071C7.22 5.03476 6.61024 5.61976 6.61024 6.48333C6.61024 7.46762 7.03429 7.91952 7.90095 8.50761L8.61905 8.98428L6.55762 12.0609H5.01928L6.87333 9.31238C5.80857 8.55404 5.21119 7.80809 5.21119 6.56381C5.21119 4.99761 6.30071 3.93285 8.37452 3.93285H10.436V12.064Z" fill="black"/>
</svg>
