<svg width="16" height="16" viewBox="0 0 16 16" fill="none" xmlns="http://www.w3.org/2000/svg">
<path d="M14.4998 8.26147C14.4898 7.98676 14.4005 7.72083 14.2427 7.49573C14.0849 7.27062 13.8654 7.09596 13.6106 6.99281C13.3558 6.88965 13.0766 6.8624 12.8067 6.91434C12.5368 6.96628 12.2876 7.0952 12.0893 7.28554C10.9791 6.53087 9.67406 6.11394 8.33196 6.08515L8.96632 3.04025L11.0548 3.47942C11.0796 3.71021 11.1859 3.92459 11.3546 4.08409C11.5232 4.24359 11.7432 4.33775 11.975 4.34967C12.2068 4.3616 12.4353 4.29051 12.6194 4.14917C12.8035 4.00782 12.9312 3.80548 12.9796 3.57845C13.028 3.35143 12.9939 3.11459 12.8834 2.91046C12.7729 2.70633 12.5933 2.54826 12.3767 2.46464C12.1602 2.38101 11.9209 2.37731 11.7019 2.45419C11.4829 2.53106 11.2984 2.68349 11.1817 2.8841L8.79065 2.4059C8.75154 2.39732 8.71113 2.39659 8.67174 2.40375C8.63235 2.4109 8.59477 2.42581 8.56118 2.44759C8.52759 2.46938 8.49866 2.49762 8.47607 2.53066C8.45348 2.56371 8.43766 2.60092 8.42955 2.64012L7.70737 6.02659C6.34876 6.04708 5.02578 6.46432 3.90125 7.22699C3.7508 7.08543 3.57137 6.97828 3.3754 6.91296C3.17942 6.84764 2.97159 6.82572 2.76629 6.8487C2.561 6.87169 2.36317 6.93904 2.18649 7.04609C2.00982 7.15314 1.85853 7.29732 1.74312 7.46865C1.62771 7.63997 1.55093 7.83435 1.5181 8.03829C1.48528 8.24224 1.49719 8.45089 1.55302 8.64978C1.60885 8.84867 1.70725 9.03304 1.84141 9.19011C1.97558 9.34719 2.14229 9.47321 2.33 9.55945C2.31901 9.70238 2.31901 9.84594 2.33 9.98886C2.33 12.1749 4.87718 13.9511 8.01966 13.9511C11.1622 13.9511 13.7093 12.1749 13.7093 9.98886C13.7203 9.84594 13.7203 9.70238 13.7093 9.55945C13.9502 9.43976 14.1522 9.25434 14.2921 9.02465C14.432 8.79496 14.504 8.53037 14.4998 8.26147ZM4.74055 9.2374C4.74055 9.04438 4.79778 8.85569 4.90502 8.6952C5.01226 8.53471 5.16468 8.40962 5.343 8.33576C5.52133 8.26189 5.71756 8.24257 5.90687 8.28022C6.09618 8.31788 6.27007 8.41083 6.40656 8.54731C6.54305 8.6838 6.63599 8.85769 6.67365 9.047C6.71131 9.23632 6.69198 9.43254 6.61811 9.61087C6.54425 9.7892 6.41916 9.94162 6.25867 10.0489C6.09818 10.1561 5.90949 10.2133 5.71647 10.2133C5.58831 10.2133 5.46141 10.1881 5.343 10.139C5.2246 10.09 5.11701 10.0181 5.02639 9.92748C4.93577 9.83686 4.86388 9.72928 4.81483 9.61087C4.76579 9.49247 4.74055 9.36556 4.74055 9.2374ZM10.4107 11.9212C9.71829 12.443 8.8664 12.7086 8.00015 12.6727C7.1339 12.7086 6.282 12.443 5.5896 11.9212C5.5481 11.8706 5.5269 11.8064 5.5301 11.7411C5.53331 11.6758 5.56071 11.614 5.60696 11.5677C5.65322 11.5215 5.71503 11.4941 5.78036 11.4909C5.8457 11.4876 5.90989 11.5088 5.96046 11.5503C6.54721 11.9807 7.26344 12.1977 7.99039 12.1652C8.71823 12.2048 9.43779 11.9948 10.0301 11.5699C10.0818 11.5194 10.1515 11.4916 10.2238 11.4925C10.2596 11.4929 10.295 11.5004 10.3279 11.5145C10.3608 11.5287 10.3906 11.5491 10.4156 11.5747C10.4406 11.6004 10.4603 11.6307 10.4735 11.6639C10.4868 11.6972 10.4934 11.7327 10.493 11.7685C10.4925 11.8043 10.485 11.8397 10.4709 11.8726C10.4568 11.9055 10.4363 11.9352 10.4107 11.9602V11.9212ZM10.235 10.2524C10.042 10.2524 9.85332 10.1951 9.69283 10.0879C9.53233 9.98065 9.40725 9.82824 9.33338 9.64991C9.25952 9.47158 9.24019 9.27535 9.27785 9.08604C9.3155 8.89673 9.40845 8.72284 9.54494 8.58635C9.68142 8.44986 9.85532 8.35692 10.0446 8.31926C10.2339 8.2816 10.4302 8.30093 10.6085 8.37479C10.7868 8.44866 10.9392 8.57375 11.0465 8.73424C11.1537 8.89473 11.211 9.08342 11.211 9.27644C11.2163 9.40867 11.1946 9.5406 11.1473 9.6642C11.1 9.78781 11.0281 9.90051 10.9359 9.99544C10.8437 10.0904 10.7332 10.1656 10.611 10.2165C10.4888 10.2673 10.3576 10.2928 10.2253 10.2914L10.235 10.2524Z" fill="black"/>
</svg>
