<svg width="16" height="16" viewBox="0 0 16 16" fill="none" xmlns="http://www.w3.org/2000/svg">
<path d="M1.90002 5.73124V10.2688C1.90002 10.5455 1.92999 10.8152 1.98689 11.075L5.37062 8.27839L1.93031 5.25236C1.91032 5.4092 1.90002 5.56903 1.90002 5.73124Z" fill="black"/>
<path fill-rule="evenodd" clip-rule="evenodd" d="M8.94779 9.75541L10.1662 8.67935L13.8184 11.6978C13.2512 13.0749 11.8889 14.046 10.2974 14.05L10.2875 14.05H5.71252L5.70269 14.05C4.07131 14.0459 2.68075 13.0256 2.14057 11.5935L5.74898 8.61119L7.052 9.7573C7.5931 10.2332 8.40765 10.2324 8.94779 9.75541ZM13.9859 11.1908C14.0605 10.8957 14.1 10.5868 14.1 10.2688V5.73124C14.1 5.56272 14.0889 5.39677 14.0674 5.23408L10.5438 8.3459L13.9859 11.1908ZM8.82989 6.92936L10.1554 8.0249L13.9492 4.67448C13.4881 3.10045 12.0233 1.95 10.2875 1.95H5.71252C3.97058 1.95 2.5015 3.10866 2.04602 4.69132L5.75912 7.95729L7.00282 6.92938C7.53199 6.49198 8.30072 6.49196 8.82989 6.92936Z" fill="black"/>
<path d="M8.5098 7.31032C8.16605 7.02618 7.66668 7.02618 7.32293 7.31032L6.13749 8.29009L7.38374 9.38628C7.73526 9.69545 8.2644 9.69492 8.61528 9.38505L9.77784 8.35835L8.5098 7.31032Z" fill="black"/>
<path d="M7.32293 7.31032C7.66668 7.02618 8.16605 7.02618 8.5098 7.31032L9.77784 8.35835L10.1554 8.0249L8.82989 6.92936C8.30072 6.49196 7.53199 6.49198 7.00282 6.92938L5.75912 7.95729L6.13749 8.29009L7.32293 7.31032Z" fill="black"/>
</svg>
