<svg width="16" height="16" viewBox="0 0 16 16" fill="none" xmlns="http://www.w3.org/2000/svg">
<path d="M9.87991 8C9.87991 9.03661 9.03661 9.87991 8 9.87991C6.96339 9.87991 6.12009 9.03661 6.12009 8C6.12009 6.96339 6.96339 6.12009 8 6.12009C9.03661 6.12009 9.87991 6.96339 9.87991 8ZM8 1.75C4.55357 1.75 1.75 4.55357 1.75 8C1.75 11.4464 4.55357 14.25 8 14.25C9.2625 14.25 10.4799 13.8741 11.5205 13.1629L11.5384 13.1504L10.6964 12.1719L10.6821 12.1808C9.88125 12.6964 8.95357 12.9688 8 12.9688C5.26027 12.9688 3.03125 10.7397 3.03125 8C3.03125 5.26027 5.26027 3.03125 8 3.03125C10.7397 3.03125 12.9688 5.26027 12.9688 8C12.9688 8.35491 12.929 8.71429 12.8518 9.06786C12.6946 9.71295 12.2429 9.91027 11.904 9.88438C11.5629 9.8567 11.1638 9.61384 11.1612 9.0192V8.56607V8C11.1612 6.2567 9.7433 4.83884 8 4.83884C6.2567 4.83884 4.83884 6.2567 4.83884 8C4.83884 9.7433 6.2567 11.1612 8 11.1612C8.84687 11.1612 9.64107 10.8304 10.2397 10.2281C10.5879 10.7701 11.1554 11.1098 11.8013 11.1616C11.8567 11.1661 11.9134 11.1683 11.9692 11.1683C12.4241 11.1683 12.8746 11.0161 13.2379 10.7406C13.6125 10.4558 13.8924 10.0446 14.0469 9.55045C14.0714 9.47054 14.117 9.28795 14.117 9.28661L14.1183 9.27991C14.2094 8.88348 14.25 8.48839 14.25 8C14.25 4.55357 11.4464 1.75 8 1.75Z" fill="black"/>
</svg>
