<svg width="16" height="16" viewBox="0 0 16 16" fill="none" xmlns="http://www.w3.org/2000/svg">
<path fill-rule="evenodd" clip-rule="evenodd" d="M8.00002 2.86875C7.32933 2.24495 6.447 1.89875 5.53105 1.9C3.52568 1.9 1.90003 3.52565 1.90003 5.53102C1.89878 6.44697 2.24498 7.3293 2.86878 7.99999C2.24498 8.67069 1.89878 9.55302 1.90003 10.469C1.90003 12.4743 3.52568 14.1 5.53105 14.1C6.44697 14.1013 7.3293 13.7552 8.00002 13.1314C8.67075 13.7552 9.55308 14.1013 10.469 14.1C12.4744 14.1 14.1 12.4743 14.1 10.469C14.1013 9.55305 13.7552 8.67072 13.1315 7.99999C13.7552 7.32927 14.1013 6.44694 14.1 5.53102C14.1 3.52565 12.4744 1.9 10.469 1.9C9.55305 1.89875 8.67072 2.24495 8.00002 2.86875ZM7.99049 5.17627C7.69929 5.17627 7.42 5.29195 7.21409 5.49786C7.00817 5.70378 6.89249 5.98306 6.89249 6.27427V9.56826C6.89249 9.85947 7.00817 10.1388 7.21409 10.3447C7.42 10.5506 7.69929 10.6663 7.99049 10.6663C8.2817 10.6663 8.56098 10.5506 8.7669 10.3447C8.97281 10.1388 9.08849 9.85947 9.08849 9.56826V6.27427C9.08849 5.98306 8.97281 5.70378 8.7669 5.49786C8.56098 5.29195 8.2817 5.17627 7.99049 5.17627Z" fill="black"/>
</svg>
