<svg width="16" height="16" viewBox="0 0 16 16" fill="none" xmlns="http://www.w3.org/2000/svg">
<path d="M7.402 13.9753C6.47816 13.8868 5.54283 13.5551 4.73934 13.0308C4.06605 12.5916 3.914 12.411 3.914 12.0506C3.914 11.3267 4.70993 10.0588 6.07173 8.61344C6.84513 7.79256 7.92243 6.83038 8.03894 6.85643C8.26539 6.90707 10.0761 8.67333 10.754 9.50478C11.8259 10.8196 12.3187 11.8961 12.0684 12.3761C11.8781 12.7409 10.6972 13.454 9.82963 13.7279C9.1146 13.9537 8.17555 14.0494 7.402 13.9753ZM3.00464 11.2979C2.44514 10.4396 2.16247 9.59458 2.02599 8.37239C1.98092 7.96882 1.99707 7.73798 2.12832 6.90964C2.2919 5.87723 2.87984 4.68286 3.58631 3.94783C3.88719 3.63477 3.91407 3.62714 4.28083 3.75069C4.72622 3.90074 5.20186 4.22923 5.93951 4.89624L6.3699 5.28541L6.13488 5.57414C5.0439 6.91442 3.89221 8.81422 3.45818 9.98957C3.22222 10.6285 3.12705 11.27 3.22857 11.537C3.29712 11.7173 3.23416 11.6501 3.00464 11.2979ZM12.8255 11.4439C12.8808 11.1741 12.8109 10.6786 12.647 10.1788C12.2922 9.09639 11.1062 7.08277 10.0171 5.71371L9.67427 5.28273L10.0452 4.94216C10.5295 4.49746 10.8657 4.23119 11.2285 4.00507C11.5148 3.82663 11.9239 3.66866 12.0998 3.66866C12.2082 3.66866 12.5899 4.06479 12.8981 4.49708C13.3753 5.16662 13.7264 5.97825 13.9043 6.82317C14.0192 7.3691 14.0288 8.53767 13.9228 9.08225C13.8358 9.52917 13.6521 10.1089 13.473 10.5021C13.3387 10.7967 13.0048 11.3688 12.8585 11.555C12.7832 11.6507 12.7832 11.6505 12.8255 11.4439H12.8255ZM7.50091 3.46427C6.99841 3.20909 6.22321 2.93518 5.79499 2.86148C5.64487 2.83565 5.38878 2.82124 5.22591 2.82946C4.87259 2.8473 4.88837 2.82883 5.45516 2.56105C5.92638 2.33842 6.31944 2.20751 6.85302 2.09547C7.45327 1.96943 8.58151 1.96795 9.1722 2.09243C9.81019 2.22687 10.5614 2.50644 10.9848 2.76695L11.1106 2.84438L10.8219 2.8298C10.2483 2.80083 9.41229 3.03258 8.51474 3.46938C8.24401 3.60113 8.00849 3.70635 7.99135 3.70321C7.97421 3.70007 7.75351 3.59255 7.50091 3.46427V3.46427Z" fill="black"/>
</svg>
