<svg width="16" height="16" viewBox="0 0 16 16" fill="none" xmlns="http://www.w3.org/2000/svg">
<path fill-rule="evenodd" clip-rule="evenodd" d="M8.2555 14.05H7.75166C5.01609 14.05 3.64879 14.05 2.79937 13.2006C1.94995 12.3512 1.94995 10.9839 1.94995 8.25555V7.74444C1.94995 5.01565 1.94995 3.64884 2.79937 2.79942C3.64879 1.95 5.01609 1.95 7.75166 1.95H8.2555C10.9906 1.95 12.3656 1.95 13.2078 2.79942C14.05 3.64884 14.05 5.01662 14.05 7.74444V8.25555L14.05 8.32432C14.05 11.0069 14.05 12.3583 13.2078 13.2006C12.3584 14.05 10.9906 14.05 8.2555 14.05ZM3.99434 5.63554C4.05871 8.78105 5.71447 10.674 8.44278 10.674H8.60105V8.87446C9.59422 8.97514 10.3357 9.71662 10.6382 10.674H12.0704C11.6817 9.24182 10.674 8.45 10.0477 8.1475C10.674 7.77336 11.5593 6.86635 11.7679 5.63554H10.4654C10.1915 6.63596 9.37835 7.54298 8.60105 7.62913V5.63554H7.27634V9.12663C6.47048 8.92674 5.41923 7.94615 5.37616 5.63554H3.99434Z" fill="black"/>
</svg>
