<svg width="16" height="16" viewBox="0 0 16 16" fill="none" xmlns="http://www.w3.org/2000/svg">
<path fill-rule="evenodd" clip-rule="evenodd" d="M8.00003 1.875C4.60118 1.875 1.84827 4.62792 1.84827 8.02676C1.84827 10.7489 3.60921 13.0481 6.05453 13.8632C6.36212 13.9171 6.47747 13.7325 6.47747 13.571C6.47747 13.4249 6.46978 12.9405 6.46978 12.4253C4.92415 12.7098 4.52428 12.0485 4.40125 11.7024C4.33204 11.5256 4.03214 10.9796 3.77069 10.8335C3.55538 10.7182 3.24779 10.4336 3.763 10.426C4.24745 10.4183 4.59349 10.872 4.70884 11.0565C5.26249 11.987 6.14681 11.7255 6.50054 11.564C6.55437 11.1642 6.71585 10.895 6.89271 10.7412C5.52394 10.5874 4.09366 10.0568 4.09366 7.7038C4.09366 7.03479 4.33204 6.48113 4.72422 6.05051C4.6627 5.89672 4.44739 5.26616 4.78573 4.42029C4.78573 4.42029 5.30094 4.25881 6.47747 5.05085C6.96961 4.91244 7.49251 4.84323 8.01541 4.84323C8.53831 4.84323 9.06121 4.91244 9.55335 5.05085C10.7299 4.25112 11.2451 4.42029 11.2451 4.42029C11.5834 5.26616 11.3681 5.89672 11.3066 6.05051C11.6988 6.48113 11.9372 7.0271 11.9372 7.7038C11.9372 10.0645 10.4992 10.5874 9.13042 10.7412C9.35342 10.9335 9.54566 11.3026 9.54566 11.8793C9.54566 12.7021 9.53797 13.3634 9.53797 13.571C9.53797 13.7325 9.65332 13.9248 9.9609 13.8632C11.1821 13.451 12.2433 12.6661 12.9951 11.6191C13.7469 10.5721 14.1515 9.31571 14.1518 8.02676C14.1518 4.62792 11.3989 1.875 8.00003 1.875Z" fill="black"/>
</svg>
