<svg width="16" height="16" viewBox="0 0 16 16" fill="none" xmlns="http://www.w3.org/2000/svg">
<path fill-rule="evenodd" clip-rule="evenodd" d="M1.90002 3.24065C1.90002 2.50023 2.47499 1.89999 3.18424 1.89999H12.8159C13.525 1.89999 14.1 2.50023 14.1 3.24065V12.7593C14.1 13.4997 13.525 14.1 12.8159 14.1H3.18424C2.47499 14.1 1.90002 13.4997 1.90002 12.7593V3.24065ZM9.10231 5.3892C9.10231 5.68403 9.00155 5.9342 8.80008 6.1397C8.59848 6.34519 8.35311 6.44794 8.06393 6.44794C7.766 6.44794 7.51625 6.34519 7.31471 6.1397C7.11316 5.9342 7.01238 5.68403 7.01238 5.3892C7.01238 5.09436 7.11316 4.84419 7.31471 4.6387C7.51625 4.4332 7.766 4.33046 8.06393 4.33046C8.35311 4.33046 8.59848 4.4332 8.80008 4.6387C9.00155 4.84419 9.10231 5.09436 9.10231 5.3892ZM6.99924 9.0996C6.99924 8.80481 7.10001 8.55464 7.30156 8.34912C7.51187 8.13469 7.766 8.02748 8.06393 8.02748C8.34435 8.02748 8.58971 8.13469 8.80008 8.34912C9.01032 8.55464 9.13304 8.7869 9.16806 9.04602C9.23816 9.52845 9.15052 10.0064 8.90513 10.48C8.66858 10.9535 8.32683 11.3153 7.87992 11.5655C7.63455 11.7085 7.43301 11.704 7.27528 11.5521C7.12631 11.4092 7.17012 11.2394 7.40672 11.0428C7.53816 10.9446 7.6477 10.8195 7.73533 10.6676C7.82296 10.5157 7.87992 10.3594 7.9062 10.1986C7.91497 10.1271 7.8843 10.0914 7.8142 10.0914C7.63894 10.0824 7.45929 9.98416 7.27528 9.79652C7.09126 9.60888 6.99924 9.37661 6.99924 9.0996Z" fill="black"/>
</svg>
