<svg width="16" height="16" viewBox="0 0 16 16" fill="none" xmlns="http://www.w3.org/2000/svg">
<path d="M10.813 7.53256C10.7579 7.50613 10.7019 7.4807 10.6452 7.45635C10.5464 5.63589 9.55163 4.59367 7.88136 4.58301C7.87379 4.58296 7.86626 4.58296 7.8587 4.58296C6.85966 4.58296 6.02877 5.0094 5.51736 5.78539L6.43596 6.41553C6.818 5.83589 7.41758 5.71233 7.85914 5.71233C7.86424 5.71233 7.86936 5.71233 7.8744 5.71237C8.42436 5.71588 8.83936 5.87578 9.10796 6.18761C9.30343 6.41463 9.43416 6.72834 9.4989 7.12426C9.0113 7.04139 8.48396 7.01591 7.92023 7.04823C6.33221 7.1397 5.3113 8.06587 5.37987 9.35281C5.41466 10.0056 5.73988 10.5672 6.29556 10.9341C6.76539 11.2442 7.3705 11.3959 7.99938 11.3615C8.8299 11.316 9.48143 10.9991 9.93596 10.4197C10.2812 9.97974 10.4995 9.40954 10.5959 8.69107C10.9917 8.92994 11.285 9.24427 11.447 9.62214C11.7225 10.2645 11.7386 11.32 10.8773 12.1805C10.1227 12.9344 9.21563 13.2605 7.8448 13.2706C6.32418 13.2593 5.17415 12.7717 4.42644 11.8211C3.72626 10.9311 3.36441 9.64547 3.35091 8.00001C3.36441 6.35453 3.72626 5.06891 4.42644 4.17885C5.17415 3.22833 6.32416 2.74067 7.84478 2.72937C9.37643 2.74076 10.5465 3.23077 11.3228 4.18587C11.7035 4.65425 11.9905 5.24326 12.1797 5.93003L13.2562 5.64282C13.0268 4.79749 12.666 4.06905 12.1749 3.46494C11.1796 2.24045 9.72403 1.61302 7.84853 1.60001H7.84102C5.96934 1.61297 4.53004 2.24279 3.56312 3.47196C2.70269 4.56577 2.25886 6.08772 2.24394 7.99551L2.2439 8.00001L2.24394 8.00451C2.25886 9.91227 2.70269 11.4343 3.56312 12.5281C4.53004 13.7572 5.96934 14.3871 7.84102 14.4H7.84853C9.51256 14.3885 10.6855 13.9528 11.6518 12.9874C12.916 11.7244 12.8779 10.1413 12.4612 9.16941C12.1623 8.47247 11.5924 7.90642 10.813 7.53256ZM7.93993 10.2338C7.24393 10.273 6.52086 9.96061 6.4852 9.29147C6.45878 8.79534 6.83828 8.24174 7.98264 8.17579C8.1137 8.16823 8.2423 8.16454 8.36863 8.16454C8.7843 8.16454 9.17316 8.20492 9.5267 8.28221C9.39483 9.92901 8.62136 10.1964 7.93993 10.2338Z" fill="black"/>
</svg>
