<svg width="16" height="16" viewBox="0 0 16 16" fill="none" xmlns="http://www.w3.org/2000/svg">
<path d="M15.06 3.47361C12.3142 4.61353 10.9829 3.97285 9.80141 3.17407L8.47012 7.86687C9.65996 8.67397 11.0911 9.33961 13.7287 8.15809L15.085 3.47361H15.06Z" fill="black"/>
<path d="M6.157 12.9175C4.96716 12.1187 3.66083 11.453 0.915039 12.593L2.26297 7.88351C5.00876 6.75191 6.34005 7.3926 7.52989 8.19969L6.157 12.9175Z" fill="black"/>
<path d="M7.75455 7.351C7.01418 6.77566 6.11211 6.44684 5.17517 6.41077C4.45128 6.40245 3.58594 6.61047 2.49595 7.05978L3.84388 2.36698C6.59799 1.22706 7.92096 1.86774 9.1108 2.67484L7.75455 7.351Z" fill="black"/>
<path d="M8.23714 8.65732C9.4353 9.4561 10.7583 10.0968 13.5041 8.95687L12.1478 13.633C9.40202 14.7729 8.07905 14.1323 6.88921 13.3252L8.24546 8.65732H8.23714Z" fill="black"/>
</svg>
