<svg width="16" height="16" viewBox="0 0 16 16" fill="none" xmlns="http://www.w3.org/2000/svg">
<path fill-rule="evenodd" clip-rule="evenodd" d="M7.99292 1.75C4.69451 1.75 2.00481 4.27825 1.75 7.49859L5.10504 8.88277C5.38817 8.68503 5.72792 8.57203 6.09598 8.57203H6.19507L7.69564 6.42514V6.39689C7.69564 5.09746 8.75736 4.03814 10.0597 4.03814C11.3621 4.03814 12.4238 5.09746 12.4238 6.39689C12.4238 7.69633 11.3621 8.75565 10.0597 8.75565H10.0031L7.87967 10.2669V10.3517C7.87967 11.3263 7.08692 12.1172 6.11014 12.1172C5.2466 12.1172 4.53879 11.5099 4.36891 10.6907L1.96234 9.70198C2.69847 12.3291 5.1192 14.25 7.99292 14.25C11.4471 14.25 14.25 11.4534 14.25 8.00706C14.25 4.54661 11.4471 1.75 7.99292 1.75ZM5.67123 11.2274L4.90679 10.9167C5.04835 11.1992 5.27485 11.4393 5.58629 11.5664C6.26579 11.8489 7.04439 11.524 7.32751 10.846C7.46908 10.5212 7.46908 10.154 7.32751 9.8291C7.18595 9.50424 6.93114 9.25 6.60554 9.10876C6.27995 8.96751 5.92604 8.98164 5.62876 9.09463L6.42151 9.41949C6.91698 9.63136 7.15764 10.1963 6.94529 10.6907C6.74711 11.1992 6.1667 11.4393 5.67123 11.2274ZM10.0598 4.81497C10.9233 4.81497 11.6311 5.52118 11.6311 6.38276C11.6311 7.25847 10.9233 7.95056 10.0598 7.95056C9.19622 7.95056 8.48841 7.24434 8.48841 6.38276C8.48841 5.52118 9.19622 4.81497 10.0598 4.81497ZM10.0598 5.21045C9.39441 5.21045 8.87063 5.73305 8.87063 6.38276C8.87063 7.03248 9.39441 7.55508 10.0598 7.55508C10.7251 7.55508 11.2489 7.03248 11.2489 6.38276C11.2489 5.73305 10.7251 5.21045 10.0598 5.21045Z" fill="black"/>
</svg>
