<svg width="16" height="16" viewBox="0 0 16 16" fill="none" xmlns="http://www.w3.org/2000/svg">
<path d="M14.2544 10.8966C14.1675 10.6585 14.0002 10.5298 13.8104 10.4269C13.775 10.4076 13.7428 10.3883 13.7139 10.3754C13.6559 10.3464 13.598 10.3175 13.5401 10.2885C12.9481 9.9732 12.4848 9.58066 12.1662 9.11091C12.0761 8.97899 11.9957 8.83742 11.9314 8.69263C11.9024 8.61541 11.9056 8.57037 11.9249 8.52854C11.9442 8.49636 11.97 8.47062 12.0021 8.4481C12.1051 8.38053 12.2081 8.31297 12.2788 8.26792C12.4043 8.18427 12.5073 8.11992 12.5716 8.07487C12.813 7.90434 12.9835 7.72416 13.0897 7.52146C13.2409 7.23832 13.2602 6.90691 13.1444 6.60769C12.9835 6.18297 12.5845 5.92236 12.0987 5.92236C11.9957 5.92236 11.896 5.93201 11.793 5.95453C11.7673 5.96097 11.7383 5.9674 11.7126 5.97384C11.7158 5.68426 11.7093 5.3786 11.6836 5.07615C11.5935 4.01759 11.2203 3.46418 10.8342 3.02338C10.5864 2.74667 10.2969 2.5118 9.9719 2.3284C9.38631 1.99378 8.72028 1.82325 7.99634 1.82325C7.2724 1.82325 6.6096 1.99378 6.02401 2.3284C5.69904 2.5118 5.40947 2.74667 5.16172 3.02338C4.77562 3.46418 4.4056 4.02081 4.3123 5.07615C4.28656 5.3786 4.28012 5.68426 4.28334 5.97384C4.2576 5.9674 4.23186 5.96097 4.2029 5.95453C4.10316 5.93201 4.0002 5.92236 3.90046 5.92236C3.41461 5.92236 3.01564 6.18619 2.85476 6.60769C2.73893 6.90691 2.75824 7.23832 2.90946 7.52146C3.01564 7.72416 3.18617 7.90434 3.42748 8.07487C3.49183 8.11992 3.59157 8.18427 3.72027 8.26792C3.78784 8.31297 3.88758 8.37732 3.98733 8.44167C4.02272 8.46419 4.05168 8.49315 4.0742 8.52854C4.09351 8.57037 4.09672 8.61541 4.06455 8.69907C4.0002 8.84064 3.92298 8.97899 3.83289 9.10769C3.52079 9.56458 3.07034 9.9539 2.49762 10.266C2.19518 10.4269 1.87986 10.533 1.74472 10.8966C1.64498 11.1701 1.70933 11.479 1.96351 11.7428C2.05682 11.8394 2.16622 11.923 2.28527 11.9874C2.53301 12.1225 2.79685 12.2287 3.07356 12.3027C3.13147 12.3188 3.18295 12.3413 3.23121 12.3735C3.32452 12.4539 3.31165 12.5762 3.43392 12.7563C3.49505 12.8497 3.57549 12.9301 3.66558 12.9944C3.9262 13.1746 4.21899 13.1843 4.52787 13.1971C4.80779 13.2068 5.12311 13.2197 5.48669 13.3387C5.63791 13.387 5.79235 13.4835 5.97253 13.5961C6.40689 13.8632 6.99892 14.2267 7.99313 14.2267C8.98734 14.2267 9.58258 13.86 10.0202 13.5929C10.2003 13.4835 10.3548 13.387 10.4996 13.3387C10.8599 13.2197 11.1785 13.2068 11.4584 13.1971C11.7673 13.1843 12.0601 13.1746 12.3207 12.9944C12.4301 12.9172 12.5202 12.8207 12.5845 12.7049C12.6746 12.5536 12.6714 12.4475 12.755 12.3735C12.8001 12.3413 12.8516 12.3188 12.903 12.3059C13.1798 12.2319 13.45 12.1257 13.701 11.9874C13.8265 11.9198 13.9423 11.8297 14.0388 11.7235L14.042 11.7203C14.293 11.4629 14.3541 11.1605 14.2544 10.8966ZM13.3728 11.3696C12.8355 11.6656 12.4751 11.6334 12.1984 11.8136C11.9603 11.9648 12.1019 12.293 11.9314 12.4121C11.719 12.5569 11.0948 12.4024 10.2904 12.6695C9.6244 12.8883 9.20291 13.5221 8.006 13.5221C6.80908 13.5221 6.39724 12.8915 5.72157 12.6695C4.91719 12.4024 4.29299 12.5601 4.08064 12.4121C3.91011 12.293 4.04846 11.9648 3.81358 11.8136C3.53366 11.6334 3.17652 11.6656 2.63919 11.3696C2.29492 11.1798 2.49119 11.0639 2.6038 11.0092C4.55361 10.0665 4.86571 8.60898 4.87858 8.49958C4.89467 8.36766 4.91397 8.2647 4.76918 8.13278C4.63083 8.00408 4.01307 7.6212 3.83932 7.50215C3.55618 7.30267 3.4307 7.1064 3.52401 6.86187C3.58836 6.69456 3.74601 6.63021 3.91011 6.63021C3.96159 6.63021 4.01307 6.63664 4.06455 6.6463C4.37665 6.71386 4.67909 6.8683 4.85284 6.91335C4.87536 6.91978 4.89467 6.923 4.91719 6.923C5.0105 6.923 5.04267 6.87474 5.03624 6.76856C5.01693 6.42751 4.96867 5.7647 5.02337 5.14372C5.09737 4.29108 5.37086 3.86637 5.69904 3.49314C5.8567 3.31296 6.59351 2.53432 8.006 2.53432C9.41848 2.53432 10.1553 3.30974 10.313 3.48992C10.6411 3.86315 10.9146 4.28786 10.9886 5.1405C11.0433 5.76148 10.9951 6.42429 10.9725 6.76534C10.9661 6.87796 10.9983 6.91978 11.0916 6.91978C11.1141 6.91978 11.1334 6.91657 11.1559 6.91013C11.3297 6.8683 11.6321 6.71065 11.9442 6.64308C11.9957 6.63021 12.0472 6.62699 12.0987 6.62699C12.2628 6.62699 12.4204 6.69134 12.4848 6.85865C12.5781 7.10318 12.4526 7.29945 12.1695 7.49894C11.9989 7.61798 11.3812 8.00087 11.2396 8.12957C11.0948 8.26149 11.1141 8.36445 11.1302 8.49636C11.1431 8.60576 11.4552 10.0633 13.405 11.006C13.5208 11.0607 13.7139 11.1798 13.3728 11.3696Z" fill="black"/>
</svg>
