<svg width="16" height="16" viewBox="0 0 16 16" fill="none" xmlns="http://www.w3.org/2000/svg">
<g clip-path="url(#clip0_6894_316)">
<path fill-rule="evenodd" clip-rule="evenodd" d="M6.52339 4.0587C6.46128 4.04204 6.39649 4.03777 6.33273 4.04615C6.26897 4.05452 6.20749 4.07537 6.15178 4.10751C6.09608 4.13965 6.04726 4.18244 6.00809 4.23344C5.96893 4.28445 5.9402 4.34267 5.92353 4.40478C5.90687 4.46689 5.9026 4.53168 5.91098 4.59544C5.91935 4.6592 5.9402 4.72068 5.97234 4.77639C6.00448 4.83209 6.04727 4.88091 6.09828 4.92008C6.14928 4.95924 6.2075 4.98797 6.26961 5.00464L10.996 6.27024C11.059 6.28975 11.1252 6.29636 11.1907 6.28966C11.2563 6.28297 11.3198 6.2631 11.3775 6.23126C11.4351 6.19942 11.4858 6.15625 11.5264 6.10436C11.567 6.05246 11.5967 5.9929 11.6137 5.92925C11.6307 5.8656 11.6347 5.79918 11.6254 5.73395C11.6161 5.66872 11.5937 5.60605 11.5596 5.54967C11.5255 5.4933 11.4804 5.4444 11.4269 5.40589C11.3735 5.36739 11.3128 5.34008 11.2485 5.3256L6.52273 4.06001L6.52339 4.0587ZM5.97474 6.10714C5.85092 6.07778 5.72053 6.09782 5.61124 6.163C5.50195 6.22818 5.42235 6.33338 5.38933 6.45628C5.35632 6.57917 5.37248 6.7101 5.4344 6.82128C5.49631 6.93245 5.59911 7.01513 5.72097 7.05177L10.4474 8.31868C10.5728 8.35224 10.7065 8.3346 10.8189 8.26964C10.9313 8.20468 11.0134 8.09771 11.0469 7.97227C11.0805 7.84683 11.0628 7.71319 10.9979 7.60076C10.9329 7.48833 10.826 7.40631 10.7005 7.37274L5.97474 6.10714ZM4.82657 8.50069C4.86021 8.37547 4.94217 8.26872 5.05446 8.20389C5.16675 8.13906 5.30019 8.12145 5.42545 8.15493L8.5764 8.9991C8.63846 9.01572 8.69665 9.0444 8.74763 9.08351C8.79862 9.12262 8.8414 9.17138 8.87354 9.22702C8.90567 9.28267 8.92653 9.34409 8.93493 9.40779C8.94333 9.4715 8.9391 9.53623 8.92248 9.5983C8.90586 9.66037 8.87718 9.71856 8.83807 9.76954C8.79896 9.82052 8.75019 9.8633 8.69455 9.89544C8.63891 9.92758 8.57749 9.94844 8.51378 9.95684C8.45008 9.96524 8.38534 9.961 8.32328 9.94438L5.17233 9.10022C5.11025 9.08357 5.05207 9.05485 5.00109 9.0157C4.95012 8.97656 4.90736 8.92776 4.87525 8.87208C4.84314 8.81641 4.82232 8.75495 4.81396 8.69123C4.80561 8.6275 4.8099 8.56276 4.82657 8.50069Z" fill="black"/>
<path fill-rule="evenodd" clip-rule="evenodd" d="M9.6306 14.5155L3.32936 12.8279C2.86984 12.7046 2.47808 12.4039 2.24025 11.9919C2.00243 11.5799 1.938 11.0902 2.06115 10.6307L4.17157 2.75331C4.29479 2.29379 4.59549 1.90203 5.00753 1.6642C5.41957 1.42638 5.90921 1.36195 6.36875 1.4851L12.6706 3.17278C13.1302 3.29601 13.5219 3.59671 13.7597 4.00875C13.9976 4.42079 14.062 4.91043 13.9389 5.36996L11.8278 13.2467C11.7046 13.7062 11.4039 14.098 10.9918 14.3358C10.5798 14.5736 10.0901 14.6387 9.6306 14.5155ZM3.00578 10.8838C2.97806 10.9872 2.97099 11.0951 2.98497 11.2013C2.99895 11.3075 3.0337 11.4099 3.08726 11.5026C3.14081 11.5954 3.21211 11.6767 3.29708 11.7419C3.38205 11.807 3.47903 11.8549 3.58248 11.8826L9.88437 13.5709C10.0931 13.6267 10.3155 13.5974 10.5026 13.4894C10.6898 13.3814 10.8264 13.2035 10.8825 12.9949L12.9936 5.11684C13.0213 5.0134 13.0284 4.9055 13.0144 4.79932C13.0004 4.69314 12.9656 4.59075 12.9121 4.49801C12.8585 4.40526 12.7872 4.32397 12.7023 4.25878C12.6173 4.19359 12.5203 4.14577 12.4169 4.11807L6.11432 2.42908C5.90549 2.37329 5.68306 2.40269 5.4959 2.51083C5.30874 2.61897 5.17216 2.79699 5.1162 3.00577L3.00578 10.8838Z" fill="black"/>
</g>
<defs>
<clipPath id="clip0_6894_316">
<rect width="16" height="16" fill="white"/>
</clipPath>
</defs>
</svg>
