<svg width="16" height="16" viewBox="0 0 16 16" fill="none" xmlns="http://www.w3.org/2000/svg">
<path d="M2.41879 12.1453L2.99876 13.1471C3.11927 13.358 3.29251 13.5237 3.49587 13.6442L5.56719 10.059H1.42456C1.42456 10.2925 1.48482 10.526 1.60533 10.7369L2.41879 12.1453Z" fill="black"/>
<path d="M8.00004 5.84102L5.92873 2.25577C5.72536 2.37628 5.55212 2.54198 5.43161 2.75288L1.60533 9.38109C1.48703 9.58744 1.42472 9.82112 1.42456 10.059H5.56719L8.00004 5.84102Z" fill="black"/>
<path d="M12.5042 13.6442C12.7076 13.5237 12.8808 13.358 13.0013 13.1471L13.2423 12.7328L14.3948 10.7369C14.5153 10.526 14.5755 10.2925 14.5755 10.059H10.4326L11.3141 11.7913L12.5042 13.6442Z" fill="black"/>
<path d="M8.00004 5.84102L10.0714 2.25577C9.86799 2.13525 9.6345 2.075 9.39347 2.075H6.60661C6.36559 2.075 6.13209 2.14279 5.92873 2.25577L8.00004 5.84102Z" fill="black"/>
<path d="M10.4326 10.059H5.56719L3.49587 13.6442C3.69924 13.7647 3.93273 13.825 4.17376 13.825H11.8263C12.0673 13.825 12.3008 13.7572 12.5042 13.6442L10.4326 10.059Z" fill="black"/>
<path d="M12.4816 6.06698L10.5685 2.75288C10.448 2.54198 10.2747 2.37628 10.0714 2.25577L8.00004 5.84102L10.4326 10.059H14.568C14.568 9.82548 14.5077 9.59198 14.3872 9.38109L12.4816 6.06698Z" fill="black"/>
</svg>
