<svg width="16" height="16" viewBox="0 0 16 16" fill="none" xmlns="http://www.w3.org/2000/svg">
<path fill-rule="evenodd" clip-rule="evenodd" d="M1.90002 7.99999C1.90002 4.6327 4.63273 1.89999 8.00002 1.89999C11.3673 1.89999 14.1 4.6327 14.1 7.99999C14.1 11.3673 11.3673 14.1 8.00002 14.1C4.63273 14.1 1.90002 11.3673 1.90002 7.99999ZM11.5838 7.29161C11.6945 7.35556 11.7732 7.38753 11.9011 7.38753C12.2012 7.38753 12.4717 7.14895 12.4717 6.81443C12.4717 6.52173 12.3463 6.36923 12.1544 6.25854C10.7795 5.45669 8.89781 5.08282 7.10224 5.08282C6.04704 5.08282 5.07793 5.20334 4.21212 5.45669C3.99075 5.52064 3.78414 5.71003 3.78414 6.04455C3.78414 6.37169 4.03257 6.62503 4.35724 6.62503C4.45571 6.62503 4.54904 6.59766 4.62867 6.57431C4.64453 6.56966 4.65984 6.56517 4.67454 6.56108C6.70132 5.99536 9.83249 6.24624 11.5838 7.29161ZM11.1386 9.26181C11.0265 9.26181 10.9465 9.21835 10.8688 9.17615C10.8579 9.1702 10.847 9.16427 10.836 9.1585C9.29874 8.24842 7.00632 7.88193 4.96724 8.43536C4.93602 8.44381 4.90858 8.45227 4.88306 8.46014C4.81208 8.48201 4.75595 8.49931 4.67454 8.49931C4.41136 8.49931 4.19737 8.28532 4.19737 8.02213C4.19737 7.75894 4.32527 7.58431 4.57862 7.51298C5.26241 7.32112 5.96095 7.17846 6.98418 7.17846C8.58051 7.17846 10.1227 7.57447 11.3378 8.29761C11.537 8.41568 11.6158 8.56818 11.6158 8.78217C11.6133 9.04782 11.4067 9.26181 11.1386 9.26181ZM10.2137 10.7868C10.3097 10.8434 10.3736 10.8754 10.4769 10.8754C10.6762 10.8754 10.8508 10.7204 10.8508 10.4966C10.8508 10.2727 10.7622 10.1866 10.6122 10.0907C8.85599 9.04044 6.79724 9.00108 4.78277 9.44628C4.59829 9.48564 4.44825 9.60616 4.44825 9.85951C4.44825 10.0587 4.59829 10.2481 4.83688 10.2481C4.89289 10.2481 4.98228 10.2239 5.06453 10.2015C5.08702 10.1954 5.10898 10.1895 5.12958 10.1842C6.89317 9.82261 8.6789 9.86197 10.2137 10.7868Z" fill="black"/>
</svg>
