<svg width="16" height="16" viewBox="0 0 16 16" fill="none" xmlns="http://www.w3.org/2000/svg">
<path d="M11.4615 2H4.53846C3.13651 2 2 3.13651 2 4.53846V7.85333C2.84409 7.79041 3.5146 7.6944 3.93713 7.56014C5.25998 7.13979 6.22574 6.18594 6.87069 5.30441C7.19096 4.86665 7.42545 4.45569 7.5794 4.15504C7.65623 4.00499 7.7126 3.8832 7.74923 3.80028C7.76754 3.75884 7.78089 3.72718 7.78937 3.70663L7.79843 3.68433L7.80025 3.67976C7.88046 3.4726 8.09699 3.3517 8.31539 3.39245C8.53388 3.43321 8.69229 3.6239 8.69229 3.84616V6.41396C8.7998 6.32856 8.90585 6.24862 9.0112 6.17402C9.99462 5.4777 10.9308 5.23077 12.3846 5.23077H14V4.53846C14 3.13651 12.8635 2 11.4615 2Z" fill="black"/>
<path d="M4.53846 14H11.4615C12.8635 14 14 12.8635 14 11.4615V6.15385H12.3846C11.0692 6.15385 10.334 6.36847 9.54462 6.92737C9.27292 7.11975 8.99634 7.35128 8.69229 7.63072V10.7692C8.69229 11.0728 8.61741 11.3718 8.47429 11.6395C8.33118 11.9073 8.12424 12.1356 7.8718 12.3043C7.61936 12.4729 7.32923 12.5767 7.02709 12.6065C6.72495 12.6363 6.42013 12.591 6.13964 12.4749C5.85915 12.3587 5.61164 12.1751 5.41904 11.9404C5.22643 11.7057 5.09468 11.4272 5.03545 11.1294C4.97622 10.8316 4.99134 10.5239 5.07947 10.2333C5.1676 9.9428 5.32602 9.67849 5.5407 9.46381C5.8741 9.13041 6.18115 8.81922 6.46698 8.52955C6.95437 8.03559 7.38002 7.60421 7.76921 7.23204V5.63316C7.72017 5.70436 7.669 5.77655 7.61567 5.84945C6.90994 6.81407 5.79877 7.93714 4.21667 8.43987C3.6916 8.60672 2.91441 8.71337 2 8.77904V11.4615C2 12.8635 3.13651 14 4.53846 14Z" fill="black"/>
<path d="M7.16577 9.13629C7.38105 8.91825 7.58124 8.7155 7.76921 8.52693V10.7692C7.76921 10.921 7.73177 11.0705 7.66021 11.2044C7.58866 11.3382 7.48519 11.4524 7.35897 11.5367C7.23275 11.6211 7.08768 11.673 6.93661 11.6879C6.78554 11.7027 6.63313 11.6801 6.49289 11.622C6.35264 11.564 6.22889 11.4722 6.13259 11.3548C6.03628 11.2375 5.97041 11.0982 5.94079 10.9493C5.91118 10.8004 5.91874 10.6465 5.9628 10.5013C6.00687 10.356 6.08608 10.2239 6.19342 10.1165C6.55049 9.75945 6.87217 9.43365 7.16577 9.13629Z" fill="black"/>
</svg>
