<svg width="16" height="16" viewBox="0 0 16 16" fill="none" xmlns="http://www.w3.org/2000/svg">
<path d="M2.38636 12.8763H4.45455V7.85355L1.5 5.63765V11.9899C1.5 12.4804 1.89739 12.8763 2.38636 12.8763Z" fill="black"/>
<path d="M11.5455 12.8763H13.6136C14.1041 12.8763 14.5 12.4789 14.5 11.9899V5.63765L11.5455 7.85355" fill="black"/>
<path d="M11.5455 4.01265V7.85355L14.5 5.63765V4.45583C14.5 3.35969 13.2488 2.7348 12.3727 3.39219" fill="black"/>
<path d="M4.45455 7.85355V4.01265L8 6.67174L11.5455 4.01265V7.85355L8 10.5126" fill="black"/>
<path d="M1.5 4.45576V5.63765L4.45455 7.85355V4.01265L3.62727 3.39213C2.74977 2.73474 1.5 3.35963 1.5 4.45576Z" fill="black"/>
</svg>
