<svg width="16" height="16" viewBox="0 0 16 16" fill="none" xmlns="http://www.w3.org/2000/svg">
<path d="M13.9782 5.47328C13.6492 4.70133 13.1841 4.00884 12.5829 3.40717C11.9817 2.8055 11.301 2.34006 10.5297 2.01085C9.72426 1.67028 8.87349 1.5 8 1.5C7.11518 1.5 6.2644 1.67028 5.47033 2.01085C4.69895 2.34006 4.00698 2.8055 3.40576 3.40717C2.80454 4.00884 2.33944 4.70133 2.01047 5.47328C1.67016 6.26794 1.5 7.11937 1.5 8.00483C1.5 8.87893 1.67016 9.73036 2.01047 10.5364C2.33944 11.3083 2.80454 12.0008 3.40576 12.6025C4.00698 13.2042 4.69895 13.6696 5.47033 13.9875C6.27574 14.328 7.12651 14.4983 8 14.4983C8.87349 14.4983 9.72426 14.328 10.5297 13.9875C11.301 13.6582 11.993 13.1928 12.5942 12.5911C13.1955 11.9895 13.6606 11.297 13.9895 10.525C14.3298 9.71902 14.5 8.8676 14.5 7.99346C14.5 7.11937 14.3185 6.26794 13.9782 5.47328ZM5.84468 7.3918C6.10558 6.34739 7.05848 5.58679 8.18149 5.58679H12.6963C12.9913 6.14307 13.1728 6.75606 13.2408 7.3918H5.84468ZM13.2408 8.61783C13.1728 9.25356 12.9799 9.8666 12.6963 10.4228H8.18149C7.05848 10.4228 6.11691 9.6509 5.84468 8.61783H13.2408ZM4.26788 4.26994C5.26614 3.27095 6.59338 2.72604 8 2.72604C9.40662 2.72604 10.7339 3.27095 11.7321 4.26994C11.7661 4.304 11.7888 4.3267 11.8228 4.36076H8.18149C7.20593 4.36076 6.29844 4.73539 5.60645 5.42787C5.06195 5.97279 4.71029 6.6539 4.59686 7.3918H2.75916C2.89529 6.21119 3.4171 5.12136 4.26788 4.26994ZM8 13.2836C6.59338 13.2836 5.26614 12.7387 4.26788 11.7397C3.4171 10.8883 2.89529 9.7871 2.75916 8.61783H4.59686C4.72164 9.35572 5.0733 10.0369 5.60645 10.5818C6.29844 11.2743 7.20593 11.6489 8.18149 11.6489H11.8228C11.7888 11.6829 11.7661 11.7057 11.7321 11.7397C10.7339 12.7387 9.40662 13.2836 8 13.2836Z" fill="black"/>
</svg>
