<svg width="16" height="16" viewBox="0 0 16 16" fill="none" xmlns="http://www.w3.org/2000/svg">
<path d="M4.43802 1.95C4.11108 1.94927 3.78721 2.01313 3.48501 2.13791C3.18282 2.26268 2.90825 2.44593 2.67706 2.67711C2.44588 2.90829 2.26264 3.18286 2.13786 3.48506C2.01308 3.78725 1.94923 4.11112 1.94996 4.43806V11.5619C1.94923 11.8889 2.01308 12.2127 2.13786 12.5149C2.26264 12.8171 2.44588 13.0917 2.67706 13.3229C2.90825 13.5541 3.18282 13.7373 3.48501 13.8621C3.78721 13.9869 4.11108 14.0507 4.43802 14.05H11.5619C11.8888 14.0507 12.2127 13.9869 12.5149 13.8621C12.8171 13.7373 13.0917 13.5541 13.3228 13.3229C13.554 13.0917 13.7373 12.8171 13.862 12.5149C13.9868 12.2127 14.0507 11.8889 14.0499 11.5619V4.43806C14.0507 4.11112 13.9868 3.78725 13.862 3.48506C13.7373 3.18286 13.554 2.90829 13.3228 2.67711C13.0917 2.44593 12.8171 2.26268 12.5149 2.13791C12.2127 2.01313 11.8888 1.94927 11.5619 1.95H4.43802ZM8.37556 4.24245C9.47514 4.24245 10.4215 4.58326 11.0975 5.17364C11.4345 5.465 11.7043 5.82587 11.8884 6.23144C12.0726 6.637 12.1667 7.07764 12.1644 7.52306C12.1669 8.45778 11.7207 9.27554 11.0265 9.82357C10.3332 10.3741 9.40053 10.6791 8.37556 10.6791C7.20891 10.6791 6.12697 10.2546 6.12697 10.2546V11.625C6.32713 11.6834 6.65534 11.809 6.44712 12.0177H4.86908C4.66237 11.811 4.96487 11.69 5.19376 11.625V5.81494C4.66288 6.22332 4.39063 6.57623 4.25198 6.8389C4.41331 7.35315 4.1088 7.32744 4.1088 7.32744L3.55926 6.45523C3.55926 6.45523 5.50937 4.24194 8.37556 4.24194V4.24245ZM8.27976 4.73199C7.56234 4.73048 6.6745 4.97046 6.12697 5.35917V9.7182C6.62509 9.96373 7.37932 10.1377 8.27472 10.1377H8.27976C9.08441 10.1377 9.78218 9.83869 10.2611 9.36478C10.7411 8.88683 11.0103 8.26418 11.0134 7.50793C11.0108 6.73152 10.7593 6.064 10.2974 5.56185C9.83461 5.06172 9.15096 4.7325 8.27976 4.73199Z" fill="black"/>
</svg>
