<svg width="16" height="16" viewBox="0 0 16 16" fill="none" xmlns="http://www.w3.org/2000/svg">
<path d="M13.3679 5.24605C13.3761 5.36506 13.3761 5.48408 13.3761 5.60419C13.3761 9.26397 10.59 13.4848 5.49552 13.4848V13.4826C3.99059 13.4848 2.51691 13.0537 1.25 12.2409C1.46883 12.2673 1.68876 12.2804 1.90923 12.281C3.1564 12.2821 4.36792 11.8636 5.34909 11.093C4.16389 11.0705 3.12459 10.2978 2.76152 9.16963C3.17669 9.24971 3.60448 9.23325 4.01197 9.12192C2.71984 8.86086 1.79022 7.72558 1.79022 6.40711C1.79022 6.39505 1.79022 6.38353 1.79022 6.37201C2.17523 6.58645 2.60631 6.70547 3.04726 6.71863C1.83026 5.90528 1.45512 4.28627 2.19004 3.02046C3.59625 4.7508 5.67102 5.80272 7.89826 5.91406C7.67505 4.95208 7.97998 3.94404 8.69954 3.26781C9.81508 2.21918 11.5696 2.27292 12.6182 3.38792C13.2385 3.26561 13.833 3.03801 14.3771 2.71552C14.1703 3.35665 13.7376 3.90126 13.1595 4.24733C13.7085 4.18261 14.2449 4.03563 14.75 3.81132C14.3782 4.36854 13.9098 4.85391 13.3679 5.24605Z" fill="black"/>
</svg>
