<svg width="16" height="16" viewBox="0 0 16 16" fill="none" xmlns="http://www.w3.org/2000/svg">
<path d="M12.9555 5.93529C12.0893 6.47059 11.5542 7.38824 11.5542 8.40784C11.5542 9.5549 12.2421 10.6 13.2867 11.0333C13.0829 11.6961 12.7772 12.3078 12.395 12.8686C11.8345 13.6588 11.2485 14.4745 10.3822 14.4745C9.51598 14.4745 9.2612 13.9647 8.24209 13.9647C7.24845 13.9647 6.89176 14.5 6.07646 14.5C5.26117 14.5 4.70066 13.7608 4.06371 12.8431C3.22294 11.5686 2.73886 10.0902 2.71338 8.53529C2.71338 6.01177 4.34397 4.66078 5.97455 4.66078C6.8408 4.66078 7.55418 5.22157 8.08922 5.22157C8.59878 5.22157 9.41407 4.63529 10.3822 4.63529C11.4013 4.6098 12.3695 5.09412 12.9555 5.93529ZM9.92363 3.56471C10.3568 3.0549 10.5861 2.41765 10.6115 1.7549C10.6115 1.67843 10.6115 1.57647 10.5861 1.5C9.84719 1.57647 9.15929 1.93333 8.67521 2.49412C8.24209 2.97843 7.98731 3.5902 7.96183 4.25294C7.96183 4.32941 7.96183 4.40588 7.98731 4.48235C8.03826 4.48235 8.1147 4.50784 8.16565 4.50784C8.85356 4.45686 9.4905 4.1 9.92363 3.56471Z" fill="black"/>
</svg>
