<svg width="16" height="16" viewBox="0 0 16 16" fill="none" xmlns="http://www.w3.org/2000/svg">
<path fill-rule="evenodd" clip-rule="evenodd" d="M6.48658 14.0664L3.32929 13.2203C2.86979 13.0971 2.47806 12.7964 2.24024 12.3844C2.00243 11.9724 1.938 11.4827 2.06115 11.0232L4.1721 3.14694C4.29532 2.68745 4.596 2.29571 5.00802 2.0579C5.42004 1.82008 5.90965 1.75566 6.36916 1.8788L12.6707 3.56639C13.1302 3.68961 13.5219 3.9903 13.7598 4.40231C13.9976 4.81433 14.062 5.30394 13.9389 5.76346L12.6707 10.4948C12.5543 10.9293 12.3535 11.3365 12.0797 11.6934C11.806 12.0502 11.4646 12.3496 11.0751 12.5745L9.08548 13.7232C8.696 13.9482 8.26602 14.0942 7.8201 14.153C7.37418 14.2117 6.92105 14.1827 6.48658 14.0664ZM3.00638 11.2763C2.97866 11.3798 2.97159 11.4877 2.98557 11.5938C2.99954 11.7 3.0343 11.8024 3.08785 11.8951C3.1414 11.9879 3.21269 12.0692 3.29766 12.1344C3.38262 12.1995 3.4796 12.2474 3.58304 12.2751L6.57595 13.0774L7.20937 10.7147C7.27031 10.4871 7.37548 10.2738 7.51888 10.0868C7.66228 9.89989 7.84109 9.74304 8.04511 9.62522C8.24913 9.5074 8.47436 9.43092 8.70793 9.40015C8.94151 9.36938 9.17886 9.38492 9.40643 9.44588L11.7692 10.0786L12.9936 5.511C13.0213 5.40756 13.0284 5.29967 13.0144 5.1935C13.0005 5.08732 12.9657 4.98494 12.9122 4.8922C12.8586 4.79946 12.7873 4.71817 12.7023 4.65298C12.6174 4.5878 12.5204 4.53999 12.417 4.51228L6.11475 2.82273C5.90593 2.76695 5.68351 2.79635 5.49636 2.90448C5.30921 3.01261 5.17264 3.19062 5.11668 3.3994L3.00638 11.2763ZM11.383 10.9887L9.15333 10.3911C9.04988 10.3634 8.942 10.3563 8.83582 10.3703C8.72965 10.3843 8.62726 10.419 8.53452 10.4726C8.44178 10.5261 8.3605 10.5974 8.29531 10.6824C8.23012 10.7674 8.18231 10.8643 8.1546 10.9678L7.55706 13.1975C7.92292 13.1697 8.27786 13.06 8.59558 12.8765L10.5859 11.7278C10.9036 11.5443 11.1761 11.2917 11.383 10.9887Z" fill="black"/>
</svg>
