<svg width="16" height="16" viewBox="0 0 16 16" fill="none" xmlns="http://www.w3.org/2000/svg">
<path d="M14 4.02113C13.9998 3.48913 13.7885 2.97896 13.4123 2.60278C13.0361 2.22659 12.5259 2.01519 11.994 2.01504C11.0209 2.00517 10.2172 2.70038 10.0177 3.61388H9.96806C9.87555 3.1616 9.63 2.75502 9.2727 2.46267C8.91542 2.17032 8.46828 2.01007 8.00663 2.00891C7.54498 2.00775 7.09704 2.16576 6.73829 2.45631C6.37954 2.74686 6.13191 3.15219 6.03712 3.60401H5.98748C5.91366 3.24749 5.74447 2.91769 5.49796 2.64976C5.25146 2.38182 4.93688 2.18579 4.58774 2.08257C4.2386 1.97934 3.86799 1.97278 3.51542 2.06359C3.16285 2.1544 2.84152 2.33918 2.58569 2.59823C2.32986 2.85728 2.14912 3.18089 2.06272 3.53457C1.97632 3.88825 1.98751 4.25875 2.0951 4.60656C2.20268 4.95439 2.40263 5.2665 2.67363 5.50963C2.94462 5.75277 3.27651 5.91782 3.63392 5.98719V6.02695C3.17545 6.11636 2.76232 6.3624 2.46531 6.72293C2.1683 7.08346 2.00589 7.53604 2.00589 8.00315C2.00589 8.47027 2.1683 8.92285 2.46531 9.28338C2.76232 9.64394 3.17545 9.88995 3.63392 9.97937V10.0189C3.27615 10.0868 2.94358 10.2508 2.6718 10.4932C2.40001 10.7356 2.19922 11.0473 2.09091 11.3949C1.9826 11.7426 1.97084 12.1133 2.05688 12.4671C2.14293 12.821 2.32355 13.1448 2.57942 13.4039C2.8353 13.6631 3.1568 13.8478 3.50954 13.9383C3.86229 14.0288 4.23301 14.0218 4.58204 13.9179C4.93109 13.814 5.24532 13.6171 5.49114 13.3485C5.73696 13.0798 5.90511 12.7493 5.97762 12.3924H6.02725C6.21593 13.3059 7.03016 14 7.99358 14C8.45701 14.0021 8.90672 13.8428 9.26548 13.5495C9.62428 13.2561 9.86969 12.8471 9.95964 12.3924H10.0093C10.198 13.3059 11.0122 14 11.9756 14C12.4749 13.9988 12.9559 13.8118 13.3249 13.4754C13.6938 13.139 13.9243 12.6772 13.9714 12.1801C14.0185 11.683 13.8788 11.1862 13.5797 10.7864C13.2805 10.3867 12.8431 10.1126 12.3529 10.0177V9.97824C12.8115 9.88882 13.2246 9.64281 13.5216 9.28225C13.8186 8.92172 13.981 8.46914 13.981 8.00203C13.981 7.53491 13.8186 7.08233 13.5216 6.7218C13.2246 6.36127 12.8115 6.11524 12.3529 6.02582V5.98606C12.8148 5.90464 13.2331 5.66298 13.5344 5.30358C13.8357 4.94419 14.0005 4.49009 14 4.02113ZM11.2293 10.7637C11.2295 10.825 11.2174 10.8858 11.194 10.9424C11.1706 10.9991 11.1363 11.0506 11.0929 11.094C11.0495 11.1374 10.998 11.1717 10.9413 11.1951C10.8846 11.2186 10.8239 11.2305 10.7626 11.2305H5.25138C5.19005 11.2305 5.12931 11.2186 5.07263 11.1951C5.01594 11.1717 4.96445 11.1374 4.92108 11.094C4.87772 11.0506 4.84334 10.9991 4.81992 10.9424C4.7965 10.8858 4.78451 10.825 4.78462 10.7637V5.25249C4.78451 5.19116 4.7965 5.13042 4.81992 5.07373C4.84334 5.01705 4.87772 4.96555 4.92108 4.92219C4.96445 4.87882 5.01594 4.84445 5.07263 4.82103C5.12931 4.79761 5.19005 4.78561 5.25138 4.78573H10.7626C10.8239 4.78561 10.8846 4.79761 10.9413 4.82103C10.998 4.84445 11.0495 4.87882 11.0929 4.92219C11.1363 4.96555 11.1706 5.01705 11.194 5.07373C11.2174 5.13042 11.2295 5.19116 11.2293 5.25249V10.7637Z" fill="black"/>
</svg>
