<svg width="16" height="16" viewBox="0 0 16 16" fill="none" xmlns="http://www.w3.org/2000/svg">
<path d="M13.9516 4.49359C13.7667 3.14134 12.5693 2.07568 11.1498 1.86919C10.9104 1.83429 10.003 1.70731 7.9011 1.70731H7.8854C5.78293 1.70731 5.33186 1.83429 5.09238 1.86919C3.71243 2.06996 2.45223 3.02751 2.14648 4.39578C1.99942 5.06961 1.98373 5.81666 2.01105 6.50192C2.04999 7.48464 2.05755 8.46564 2.14823 9.44437C2.21091 10.0945 2.32027 10.7394 2.47548 11.3743C2.76612 12.547 3.94262 13.5228 5.09529 13.9209C6.32939 14.3361 7.65656 14.4051 8.92821 14.12C9.0681 14.088 9.20645 14.0508 9.34324 14.0085C9.6519 13.9118 10.014 13.8037 10.2803 13.6138C10.2839 13.6111 10.2869 13.6077 10.289 13.6037C10.2911 13.5997 10.2923 13.5954 10.2925 13.5909V12.6425C10.2924 12.6383 10.2914 12.6342 10.2895 12.6304C10.2876 12.6267 10.2849 12.6234 10.2815 12.6208C10.2782 12.6183 10.2743 12.6165 10.2702 12.6156C10.266 12.6147 10.2617 12.6147 10.2576 12.6156C9.44285 12.8071 8.60796 12.9031 7.77031 12.9016C6.32876 12.9016 5.94104 12.2284 5.83001 11.9481C5.74077 11.7058 5.6841 11.4531 5.66144 11.1964C5.66122 11.1921 5.66203 11.1878 5.66379 11.1839C5.66556 11.1799 5.66827 11.1765 5.67166 11.1737C5.67506 11.171 5.67907 11.1691 5.68335 11.1682C5.68763 11.1672 5.69208 11.1673 5.69632 11.1684C6.49749 11.3586 7.31876 11.4546 8.14291 11.4544C8.34112 11.4544 8.53875 11.4544 8.73698 11.4493C9.56587 11.4264 10.4395 11.3846 11.255 11.2279C11.2754 11.2239 11.2957 11.2205 11.3132 11.2153C12.5995 10.9722 13.8237 10.2091 13.9481 8.27688C13.9527 8.20081 13.9644 7.48007 13.9644 7.40113C13.965 7.13286 14.0521 5.49804 13.9516 4.49359ZM11.9718 9.31509H10.6191V6.05461C10.6191 5.3682 10.3285 5.01812 9.73734 5.01812C9.08747 5.01812 8.76197 5.43225 8.76197 6.25025V8.03492H7.41748V6.25025C7.41748 5.43225 7.09139 5.01812 6.44152 5.01812C5.85385 5.01812 5.5603 5.3682 5.55972 6.05461V9.31509H4.20826V5.95565C4.20826 5.26923 4.38633 4.72391 4.74245 4.31969C5.10982 3.91642 5.5917 3.70936 6.18983 3.70936C6.88212 3.70936 7.40527 3.97133 7.75403 4.49473L8.0906 5.05073L8.42773 4.49473C8.7765 3.97133 9.29965 3.70936 9.99078 3.70936C10.5883 3.70936 11.0702 3.91642 11.4387 4.31969C11.7949 4.72354 11.9729 5.26886 11.9729 5.95565L11.9718 9.31509Z" fill="black"/>
</svg>
