<svg width="16" height="16" viewBox="0 0 16 16" fill="none" xmlns="http://www.w3.org/2000/svg">
<path d="M12.5643 13.4487C12.4258 13.5177 12.2749 13.5584 12.1205 13.5684C11.9661 13.5784 11.8112 13.5574 11.6649 13.5068C11.5187 13.4561 11.384 13.3768 11.2688 13.2735C11.1536 13.1701 11.0602 13.0448 10.9941 12.9049L7.81469 6.21764C7.80054 6.18751 7.77809 6.16204 7.74999 6.14419C7.72189 6.12635 7.68929 6.11687 7.656 6.11687C7.62271 6.11687 7.59011 6.12635 7.56201 6.14419C7.53391 6.16204 7.51146 6.18751 7.49731 6.21764L6.51187 8.29062C6.49465 8.32728 6.46457 8.35635 6.42734 8.3723C6.39011 8.38826 6.34832 8.38999 6.30989 8.37718C5.64427 8.14745 5.03786 7.77299 4.53432 7.28076C4.51048 7.2565 4.4947 7.22546 4.48914 7.1919C4.48358 7.15834 4.48851 7.12388 4.50325 7.09322L6.63394 2.61212C6.70667 2.45245 6.82183 2.3158 6.96686 2.21706C7.10701 2.1179 7.26709 2.05046 7.43595 2.01945C7.60481 1.98843 7.7784 1.99458 7.94465 2.03746C8.11089 2.08034 8.2658 2.15893 8.39859 2.26775C8.53138 2.37658 8.63887 2.51302 8.71358 2.66761L13.0782 11.8628C13.2158 12.1417 13.2391 12.4633 13.1432 12.7591C13.0472 13.0549 12.8395 13.3015 12.5643 13.4464V13.4487Z" fill="black"/>
<path d="M7.55502 11.5965C4.87168 11.5965 2.03521 9.77766 1.09637 7.4561C1.03443 7.31334 1.00169 7.15963 1.00006 7.00403C0.998441 6.84842 1.02797 6.69406 1.08692 6.55004C1.14587 6.40602 1.23305 6.27526 1.34331 6.16545C1.45357 6.05564 1.5847 5.969 1.72896 5.91065C1.87322 5.85229 2.0277 5.82339 2.1833 5.82566C2.3389 5.82792 2.49247 5.8613 2.63497 5.92383C2.77747 5.98636 2.90602 6.07677 3.01304 6.18974C3.12006 6.30271 3.2034 6.43596 3.25813 6.58163C3.84629 8.03649 5.81052 9.26496 7.55502 9.26496C7.82267 9.26409 8.08971 9.2392 8.35291 9.19061C8.38906 9.18312 8.42668 9.18802 8.4597 9.20453C8.49272 9.22104 8.51921 9.2482 8.53491 9.28161L9.41603 11.1315C9.42663 11.1538 9.43212 11.1781 9.43209 11.2028C9.43207 11.2274 9.42654 11.2518 9.4159 11.274C9.40526 11.2962 9.38979 11.3158 9.37061 11.3313C9.35143 11.3468 9.32904 11.3578 9.30506 11.3635C8.73431 11.5168 8.14601 11.5952 7.55502 11.5965Z" fill="black"/>
<path d="M4.31793 12.9027C4.25131 13.0423 4.15761 13.1673 4.04226 13.2704C3.92691 13.3735 3.79221 13.4527 3.646 13.5033C3.49978 13.5539 3.34497 13.5749 3.19056 13.5652C3.03615 13.5554 2.88522 13.515 2.74654 13.4464C2.47121 13.3017 2.26323 13.0552 2.16685 12.7595C2.07048 12.4637 2.09332 12.142 2.23052 11.8628L2.73545 10.8008C2.74616 10.7795 2.76132 10.7607 2.7799 10.7457C2.79848 10.7307 2.82005 10.7198 2.84317 10.7138C2.86629 10.7078 2.89042 10.7069 2.91395 10.7109C2.93747 10.715 2.95986 10.7241 2.97959 10.7376C3.09056 10.8141 3.20153 10.8885 3.31251 10.9595C3.75313 11.2427 4.21897 11.4845 4.70411 11.682C4.72474 11.6904 4.74346 11.7029 4.75915 11.7188C4.77485 11.7346 4.7872 11.7534 4.79548 11.7741C4.80376 11.7948 4.8078 11.817 4.80735 11.8393C4.80691 11.8616 4.80199 11.8836 4.79289 11.9039L4.31793 12.9027Z" fill="black"/>
<path d="M11.6455 7.29741C11.6324 7.26936 11.6273 7.23823 11.6309 7.20747C11.6344 7.17672 11.6464 7.14754 11.6655 7.12318C12.1707 6.48491 12.521 5.73807 12.6886 4.94145C12.7412 4.67723 12.8838 4.43941 13.092 4.26844C13.3001 4.09747 13.5612 4.00393 13.8305 4.00372C14.0084 4.00376 14.1839 4.04435 14.3437 4.12242C14.5036 4.20049 14.6435 4.31398 14.7528 4.45426C14.8622 4.59454 14.9381 4.7579 14.9748 4.93194C15.0115 5.10597 15.0081 5.28609 14.9647 5.45858C14.6472 6.91516 13.9149 8.2487 12.8562 9.29826C12.8374 9.31727 12.8143 9.3315 12.7888 9.33975C12.7634 9.34801 12.7363 9.35005 12.7099 9.3457C12.6835 9.34136 12.6585 9.33075 12.6371 9.31477C12.6156 9.2988 12.5983 9.27791 12.5865 9.25387L11.6455 7.29741Z" fill="black"/>
</svg>
