<svg width="16" height="16" viewBox="0 0 16 16" fill="none" xmlns="http://www.w3.org/2000/svg">
<path d="M7.99998 1.5C4.41016 1.5 1.5 4.41017 1.5 8C1.5 8.00416 1.5 8.00833 1.50001 8.01249C1.50518 10.7608 3.21693 13.1092 5.63121 14.0549C5.57441 13.5406 5.52305 12.7497 5.65375 12.1882C5.77187 11.6809 6.41595 8.95731 6.41595 8.95731C6.41595 8.95731 6.22152 8.56792 6.22152 7.99226C6.22152 7.08844 6.74539 6.41367 7.39767 6.41367C7.95223 6.41367 8.22008 6.83002 8.22008 7.32927C8.22008 7.6852 8.07546 8.15358 7.92318 8.64677C7.83685 8.92636 7.74806 9.21392 7.68177 9.49349C7.52864 10.1404 8.0062 10.668 8.64431 10.668C9.79957 10.668 10.6876 9.4499 10.6876 7.69154C10.6876 6.13522 9.56934 5.04709 7.97253 5.04709C6.12306 5.04709 5.03749 6.43429 5.03749 7.8679C5.03749 8.42657 5.25269 9.02562 5.52124 9.35128C5.57436 9.41564 5.58214 9.47202 5.56631 9.53771C5.53849 9.65347 5.4915 9.84431 5.45194 10.005C5.42134 10.1292 5.39518 10.2355 5.38579 10.2749C5.35745 10.3939 5.29159 10.4191 5.1684 10.3618C4.3566 9.9839 3.84903 8.79698 3.84903 7.84366C3.84903 5.79325 5.3388 3.91021 8.14383 3.91021C10.3987 3.91021 12.151 5.51699 12.151 7.66431C12.151 9.90446 10.7385 11.7073 8.77805 11.7073C8.11937 11.7073 7.50018 11.3651 7.28823 10.9609C7.28823 10.9609 6.9623 12.202 6.88328 12.5061C6.73655 13.0707 6.34039 13.7784 6.07542 14.2101C6.68358 14.3984 7.3299 14.5 7.99998 14.5C11.5899 14.5 14.5 11.5898 14.5 7.99999C14.5 4.41016 11.5899 1.5 7.99998 1.5Z" fill="black"/>
<path fill-rule="evenodd" clip-rule="evenodd" d="M7.99998 14.5C11.5898 14.5 14.5 11.5898 14.5 8C14.5 4.41011 11.5898 1.5 7.99998 1.5C4.41016 1.5 1.5 4.41011 1.5 8C1.5 8.00416 1.5 8.00833 1.50001 8.01249C1.50518 10.7608 3.21693 13.1092 5.63121 14.0549C5.57441 13.5406 5.52305 12.7497 5.65375 12.1882C5.77187 11.6809 6.41595 8.95731 6.41595 8.95731C6.41595 8.95731 6.22152 8.56792 6.22152 7.99226C6.22152 7.08844 6.74539 6.41367 7.39767 6.41367C7.95223 6.41367 8.22008 6.83002 8.22008 7.32927C8.22008 7.6852 8.07546 8.15358 7.92318 8.64677C7.83685 8.92636 7.74806 9.21392 7.68177 9.49349C7.52864 10.1404 8.0062 10.668 8.64431 10.668C9.79957 10.668 10.6876 9.4499 10.6876 7.69154C10.6876 6.13522 9.56934 5.04709 7.97253 5.04709C6.12306 5.04709 5.03749 6.43429 5.03749 7.8679C5.03749 8.42657 5.25269 9.02562 5.52124 9.35128C5.57436 9.41564 5.58214 9.47202 5.56631 9.53771C5.53849 9.65347 5.4915 9.84431 5.45194 10.005C5.42134 10.1292 5.39518 10.2355 5.38579 10.2749C5.35745 10.3939 5.29159 10.4191 5.1684 10.3618C4.3566 9.9839 3.84903 8.79698 3.84903 7.84366C3.84903 5.79325 5.3388 3.91021 8.14383 3.91021C10.3987 3.91021 12.151 5.51699 12.151 7.66431C12.151 9.90446 10.7385 11.7073 8.77805 11.7073C8.11937 11.7073 7.50018 11.3651 7.28823 10.9609C7.28823 10.9609 6.9623 12.202 6.88328 12.5061C6.73655 13.0707 6.34039 13.7784 6.07542 14.2101" fill="black"/>
</svg>
