<svg width="16" height="16" viewBox="0 0 16 16" fill="none" xmlns="http://www.w3.org/2000/svg">
<path d="M11.3863 7.75617C10.7716 7.95638 9.86141 8.14518 9.62783 8.18163C9.75516 8.24089 9.79665 8.29315 9.85088 8.31093C10.0388 8.33361 10.2252 8.36793 10.4089 8.41367C10.7705 8.49687 11.0699 8.57568 11.3163 8.66262C11.5722 8.75834 11.7077 8.80247 11.8585 8.84594C12.0347 8.89396 12.2132 8.933 12.3933 8.96294C12.5419 8.98489 12.8578 8.87512 12.932 8.85603C13.0062 8.83693 13.9671 8.46351 13.9671 8.46351C13.9671 8.46351 14.3842 8.30742 14.5493 8.26592C14.701 8.22399 14.705 8.27471 14.705 8.27471C14.7188 8.31865 14.7296 8.36346 14.7375 8.40885C14.7527 8.55173 14.7541 8.69576 14.7414 8.8389C14.725 8.94921 14.7031 9.0586 14.6756 9.16667C14.6507 9.25591 14.6173 9.34252 14.5757 9.42528C14.5449 9.47906 14.4975 9.56292 14.4813 9.59937C14.4561 9.64953 14.4399 9.70369 14.4334 9.7594C14.4259 9.83483 14.4295 9.91094 14.4442 9.98531C14.4573 10.049 14.4999 10.2086 14.4999 10.2086L14.5502 10.4081C14.5699 10.4794 14.5809 10.5525 14.5853 10.6263C14.5911 10.7422 14.5744 10.8582 14.5361 10.9677C14.5151 11.0215 14.497 11.0765 14.4821 11.1324C14.4368 11.3224 14.4513 11.5217 14.5236 11.7031C14.5814 11.8827 14.7214 12.1115 14.7032 12.212C14.6922 12.2915 14.6727 12.3135 14.514 12.2915C14.2993 12.2621 13.9465 12.1378 13.55 11.9954C13.1535 11.8529 12.9729 11.7908 12.7377 11.7212C12.5794 11.6744 12.4657 11.6566 12.39 11.6566C12.3432 11.6566 11.8401 11.8276 11.6284 11.8981C11.26 12.0206 10.4897 12.2364 10.0188 12.3262C9.4489 12.4351 8.75365 12.5661 8.117 12.5782C7.78726 12.5846 7.65598 12.5778 7.41977 12.5683C7.50757 12.7464 7.53502 12.9479 7.52689 13.1661C7.35676 13.2133 7.16532 13.2197 6.96775 13.2379C6.67458 13.266 6.37891 13.2522 6.08961 13.1971C5.70059 13.1262 5.64088 13.0662 5.4613 12.9527C5.3105 12.8537 5.15944 12.6864 5.0363 12.5229C4.86594 12.2867 4.83871 12.1791 4.83871 12.1791C4.69832 12.2091 4.55636 12.2311 4.41347 12.245C4.14315 12.2745 3.87071 12.2797 3.59945 12.2603C3.40451 12.245 3.0774 12.117 2.96763 12.079C2.66783 11.9675 2.37642 11.8347 2.09565 11.6814C1.80433 11.515 1.51411 11.322 1.36043 11.1106C1.6467 11.0549 2.06492 10.8942 2.09587 10.8033C2.09892 10.794 2.09945 10.7841 2.09741 10.7745C2.0917 10.7499 2.0636 10.7137 1.95603 10.649C1.8175 10.5587 1.38019 10.4004 1.25352 10.3541C1.24847 10.234 1.19644 9.68082 1.88665 9.0738C2.0933 8.89722 2.31077 8.73372 2.53779 8.58425C2.53779 8.58425 3.12916 8.19745 3.60002 8.04232C3.39648 8.01814 3.11057 7.91182 2.97949 7.8655C2.67942 7.75361 2.3876 7.62076 2.10619 7.46792C1.81399 7.30086 1.51213 7.09867 1.36285 6.89362C1.64912 6.83698 2.11409 6.66466 2.09916 6.55686C2.09916 6.55686 2.10575 6.51296 1.97183 6.42953C1.85109 6.36367 1.45813 6.19683 1.25835 6.13536C1.23903 6.03503 1.19644 5.46688 1.88665 4.8601C2.09337 4.68335 2.31099 4.51976 2.53823 4.37031C2.53823 4.37031 3.11078 3.96395 3.7259 3.78196C3.87417 3.74012 4.02532 3.7093 4.17814 3.68977C4.61435 3.65419 5.31356 3.63707 5.38206 3.63949C5.51925 3.45688 5.66857 3.28371 5.82903 3.12117C6.08961 2.86454 6.23735 2.76553 6.39322 2.74796C6.60837 2.76069 7.76003 3.02984 8.08517 3.12665C8.27177 3.17934 8.64542 3.28034 8.94134 3.40436C9.24649 3.5216 9.3207 3.62127 9.3207 3.62127C9.37785 3.70763 9.43986 3.79066 9.50642 3.86999C9.57843 3.942 9.78523 4.06625 9.84275 4.08953C9.92946 4.11148 10.0761 4.1128 10.4081 4.19292C10.7549 4.27548 11.0666 4.36373 11.3147 4.441C11.5716 4.52662 11.7055 4.5859 11.8592 4.62541C12.0128 4.66493 12.2587 4.7242 12.3948 4.74395C12.5309 4.76372 12.8302 4.65614 12.9044 4.63705C12.9785 4.61795 13.9671 4.24957 13.9671 4.24957C13.9671 4.24957 14.5006 4.05879 14.5489 4.04321C14.7107 3.99052 14.7375 3.98679 14.7375 4.19491C14.7414 4.26647 14.7523 4.55845 14.7414 4.62475C14.7271 4.72609 14.7066 4.82647 14.6799 4.92529C14.6514 5.01531 14.6079 5.14482 14.5746 5.20366C14.5438 5.25744 14.4938 5.34043 14.4775 5.37688C14.4535 5.43034 14.4382 5.48735 14.4323 5.54569C14.4248 5.62111 14.4284 5.69723 14.4431 5.77159C14.4562 5.83526 14.4988 5.99485 14.4988 5.99485L14.5484 6.17246C14.564 6.24118 14.5755 6.31074 14.5829 6.38079C14.5926 6.49897 14.5785 6.61788 14.5414 6.73051C14.5155 6.80449 14.5015 6.84357 14.4879 6.88748C14.4667 6.96009 14.4571 7.03558 14.4593 7.11118C14.4594 7.22765 14.4779 7.34336 14.514 7.4541C14.5719 7.63455 14.7107 7.87142 14.7063 7.96517C14.7063 8.0387 14.6953 8.1004 14.5111 8.07295C14.2969 8.04135 13.9524 7.9195 13.5555 7.77791C13.1586 7.63631 12.9715 7.56671 12.7364 7.49734C12.5781 7.45057 12.4813 7.43389 12.4054 7.43389C12.3586 7.43455 11.8471 7.61062 11.6355 7.68109C11.5663 7.70392 11.4587 7.73598 11.3863 7.75617Z" fill="black"/>
</svg>
