<svg width="16" height="16" viewBox="0 0 16 16" fill="none" xmlns="http://www.w3.org/2000/svg">
<path d="M5.0723 3.60307C5.47568 3.60307 5.84835 3.6338 6.19026 3.726C6.53218 3.78748 6.81263 3.91426 7.06235 4.06793C7.31206 4.2216 7.49647 4.44058 7.62324 4.72103C7.74619 5.00148 7.8115 5.3434 7.8115 5.71605C7.8115 6.15018 7.7193 6.52283 7.50031 6.80328C7.31206 7.08373 7.00472 7.33345 6.62822 7.51785C7.15839 7.67153 7.56178 7.95198 7.80765 8.32463C8.05353 8.69729 8.21105 9.16214 8.21105 9.69231C8.21105 10.1264 8.11884 10.4991 7.96133 10.8103C7.80765 11.1215 7.55793 11.4019 7.27748 11.5863C6.99704 11.7746 6.65511 11.9282 6.28246 12.0204C5.90981 12.1126 5.53716 12.1741 5.1645 12.1741L1 12.1818V3.60307H5.0723ZM4.82258 7.08373C5.1645 7.08373 5.44495 6.99154 5.66009 6.83402C5.87523 6.67651 5.97128 6.3999 5.97128 6.05797C5.97128 5.86973 5.94054 5.68532 5.87908 5.56239C5.8176 5.43945 5.7254 5.3434 5.59863 5.25119C5.47568 5.18973 5.34891 5.12826 5.19523 5.09753C5.04157 5.0668 4.88405 5.0668 4.69965 5.0668H2.89784V7.08758C2.89784 7.08373 4.82258 7.08373 4.82258 7.08373ZM4.91478 10.7526C5.10303 10.7526 5.28744 10.7219 5.44495 10.6912C5.59863 10.6604 5.75614 10.599 5.87908 10.5029C6.00201 10.4069 6.09805 10.3147 6.19026 10.161C6.25173 10.0073 6.3132 9.81909 6.3132 9.60011C6.3132 9.16598 6.19026 8.8548 5.94054 8.63581C5.69083 8.44757 5.34891 8.35536 4.94551 8.35536H2.89784V10.7488H4.91478V10.7526Z" fill="black"/>
<path d="M10.9157 10.7219C11.1654 10.9716 11.538 11.0946 12.0336 11.0946C12.3756 11.0946 12.6867 11.0024 12.9364 10.8448C13.1862 10.6566 13.3398 10.4722 13.4013 10.284H14.9227C14.6729 11.0293 14.3003 11.5594 13.8047 11.9013C13.3091 12.2125 12.7175 12.3969 12.0029 12.3969C11.5073 12.3969 11.0693 12.3047 10.666 12.1472C10.2626 11.9935 9.95138 11.7746 9.67093 11.4634C9.39048 11.1829 9.17533 10.841 9.04856 10.4376C8.89488 10.0342 8.82957 9.60011 8.82957 9.10067C8.82957 8.63581 8.89104 8.19785 9.04856 7.79447C9.20607 7.39108 9.42121 7.04916 9.70166 6.73797C9.98211 6.45752 10.324 6.2078 10.6967 6.05414C11.1001 5.90046 11.5035 5.80442 12.0029 5.80442C12.5331 5.80442 12.9979 5.89662 13.4013 6.1156C13.8047 6.33459 14.1159 6.58045 14.3656 6.95311C14.6153 7.29503 14.7997 7.69843 14.9265 8.13254C14.988 8.56667 15.0186 9.00463 14.988 9.50022H10.4815C10.4815 10.0073 10.666 10.4722 10.9157 10.7219ZM12.875 7.45639C12.656 7.23741 12.3141 7.11447 11.9107 7.11447C11.6302 7.11447 11.4151 7.17593 11.2268 7.26814C11.0386 7.36034 10.9157 7.48712 10.7927 7.61006C10.6698 7.73299 10.6045 7.89051 10.5737 8.04418C10.543 8.19785 10.5123 8.32463 10.5123 8.44757H13.3091C13.2476 7.98656 13.0901 7.67537 12.875 7.45639ZM10.1396 4.19471H13.6203V5.03222H10.1396V4.19471Z" fill="black"/>
</svg>
