<svg width="16" height="16" viewBox="0 0 16 16" fill="none" xmlns="http://www.w3.org/2000/svg">
<path d="M8.00053 1.9C6.34387 1.9 6.13597 1.90725 5.4853 1.93686C4.8359 1.96659 4.39264 2.0694 4.00478 2.22025C3.60358 2.37606 3.26325 2.58447 2.92419 2.92366C2.58488 3.26272 2.37646 3.60305 2.22015 4.00412C2.06892 4.39211 1.96598 4.8355 1.93675 5.48464C1.90765 6.13531 1.90002 6.34334 1.90002 8C1.90002 9.65666 1.9074 9.86393 1.93688 10.5146C1.96674 11.164 2.06955 11.6073 2.22027 11.9951C2.37621 12.3963 2.58462 12.7367 2.92381 13.0757C3.26274 13.415 3.60307 13.6239 4.00402 13.7798C4.39213 13.9306 4.83552 14.0334 5.48479 14.0631C6.13546 14.0928 6.34324 14.1 7.99977 14.1C9.65656 14.1 9.86383 14.0928 10.5145 14.0631C11.1639 14.0334 11.6077 13.9306 11.9958 13.7798C12.3969 13.6239 12.7367 13.415 13.0756 13.0757C13.4149 12.7367 13.6233 12.3963 13.7796 11.9952C13.9296 11.6073 14.0325 11.1639 14.063 10.5147C14.0923 9.86406 14.0999 9.65666 14.0999 8C14.0999 6.34334 14.0923 6.13543 14.063 5.48477C14.0325 4.83537 13.9296 4.39211 13.7796 4.00425C13.6233 3.60305 13.4149 3.26272 13.0756 2.92366C12.7363 2.58435 12.397 2.37593 11.9954 2.22025C11.6065 2.0694 11.163 1.96659 10.5136 1.93686C9.86294 1.90725 9.65579 1.9 7.99863 1.9H8.00053ZM7.45331 2.99927C7.61573 2.99902 7.79695 2.99927 8.00053 2.99927C9.62923 2.99927 9.82227 3.00512 10.4654 3.03435C11.0602 3.06154 11.383 3.16092 11.598 3.24442C11.8827 3.35498 12.0856 3.48715 12.299 3.70065C12.5125 3.91414 12.6447 4.11748 12.7555 4.40215C12.839 4.61692 12.9385 4.93971 12.9656 5.53446C12.9948 6.1775 13.0011 6.37067 13.0011 7.9986C13.0011 9.62654 12.9948 9.81971 12.9656 10.4627C12.9384 11.0575 12.839 11.3803 12.7555 11.5951C12.6449 11.8797 12.5125 12.0824 12.299 12.2958C12.0855 12.5093 11.8828 12.6415 11.598 12.752C11.3832 12.8359 11.0602 12.935 10.4654 12.9622C9.8224 12.9915 9.62923 12.9978 8.00053 12.9978C6.37171 12.9978 6.17867 12.9915 5.53562 12.9622C4.94088 12.9348 4.61808 12.8354 4.40293 12.7519C4.11826 12.6413 3.91493 12.5092 3.70143 12.2957C3.48793 12.0822 3.35576 11.8793 3.24495 11.5946C3.16145 11.3798 3.06195 11.057 3.03488 10.4622C3.00565 9.8192 2.9998 9.62603 2.9998 7.99708C2.9998 6.36812 3.00565 6.17597 3.03488 5.53293C3.06207 4.93818 3.16145 4.61539 3.24495 4.40037C3.35551 4.1157 3.48793 3.91237 3.70143 3.69887C3.91493 3.48537 4.11826 3.3532 4.40293 3.24238C4.61796 3.15851 4.94088 3.05938 5.53562 3.03206C6.09835 3.00664 6.31643 2.99902 7.45331 2.99775V2.99927ZM11.2567 4.01213C10.8525 4.01213 10.5247 4.33962 10.5247 4.74387C10.5247 5.148 10.8525 5.47587 11.2567 5.47587C11.6608 5.47587 11.9887 5.148 11.9887 4.74387C11.9887 4.33975 11.6608 4.01187 11.2567 4.01187V4.01213ZM8.00053 4.8674C6.27055 4.8674 4.86793 6.27002 4.86793 8C4.86793 9.72999 6.27055 11.132 8.00053 11.132C9.73052 11.132 11.1326 9.72999 11.1326 8C11.1326 6.27002 9.73039 4.8674 8.00041 4.8674H8.00053ZM8.00053 5.96667C9.12344 5.96667 10.0339 6.87697 10.0339 8C10.0339 9.12291 9.12344 10.0333 8.00053 10.0333C6.8775 10.0333 5.9672 9.12291 5.9672 8C5.9672 6.87697 6.8775 5.96667 8.00053 5.96667Z" fill="black"/>
</svg>
