<svg width="16" height="16" viewBox="0 0 16 16" fill="none" xmlns="http://www.w3.org/2000/svg">
<path d="M12.6951 3.74288C11.815 3.34036 10.8803 3.04701 9.90473 2.88328C9.78194 3.09477 9.64548 3.38129 9.54997 3.60643C8.5123 3.45634 7.48213 3.45634 6.45879 3.60643C6.36328 3.38129 6.22 3.09477 6.10401 2.88328C5.12161 3.04701 4.18697 3.34036 3.31303 3.74288C1.54606 6.34899 1.0685 8.8937 1.30728 11.4043C2.48071 12.2571 3.61322 12.7756 4.72594 13.1167C4.99883 12.7483 5.24444 12.3526 5.45593 11.9365C5.05341 11.7864 4.67136 11.6022 4.30296 11.3838C4.39847 11.3156 4.49398 11.2406 4.58268 11.1655C6.80674 12.1821 9.21569 12.1821 11.4125 11.1655C11.508 11.2406 11.5967 11.3156 11.6922 11.3838C11.3238 11.6022 10.9417 11.7864 10.5392 11.9365C10.7507 12.3526 10.9963 12.7483 11.2692 13.1167C12.3812 12.7756 13.5206 12.2571 14.6878 11.4043C14.9811 8.49803 14.2232 5.97378 12.6951 3.74288ZM5.76292 9.85564C5.09433 9.85564 4.54855 9.24847 4.54855 8.50484C4.54855 7.76122 5.08068 7.15402 5.76292 7.15402C6.43832 7.15402 6.99091 7.76122 6.97726 8.50484C6.97726 9.24847 6.43832 9.85564 5.76292 9.85564ZM10.2459 9.85564C9.57725 9.85564 9.03078 9.24847 9.03078 8.50484C9.03078 7.76122 9.5636 7.15402 10.2459 7.15402C10.9213 7.15402 11.4739 7.76122 11.4602 8.50484C11.4602 9.24847 10.9281 9.85564 10.2459 9.85564Z" fill="black"/>
</svg>
