<svg width="16" height="16" viewBox="0 0 16 16" fill="none" xmlns="http://www.w3.org/2000/svg">
<path d="M7.87191 11.5373C6.78806 11.5373 6.10678 10.6043 5.73471 10.1115L6.33611 9.50476C6.4978 9.70712 7.10288 10.6423 7.87797 10.6423C8.12971 10.6367 8.37207 10.5457 8.56522 10.3841C8.56522 10.3841 9.02387 10.7855 9.26762 10.9096C9.26762 10.9096 8.81157 11.534 7.87857 11.5373L7.87191 11.5373ZM13.2503 8.85965H13.2487C12.4362 8.86138 11.456 10.8934 10.1316 10.8934C8.74605 10.8934 7.87071 8.86882 7.00756 8.86882C6.06756 8.86882 5.22538 10.8934 3.88353 10.8934C3.16456 10.8934 2.59849 10.3617 2 9.788V11.3827C2 11.7264 2.0677 12.0667 2.19923 12.3843C2.33076 12.7018 2.52355 12.9904 2.7666 13.2334C3.00964 13.4764 3.29817 13.6692 3.61572 13.8008C3.93327 13.9323 4.27362 14 4.61734 14H11.3827C11.7264 14 12.0667 13.9323 12.3843 13.8008C12.7018 13.6692 12.9904 13.4764 13.2334 13.2334C13.4764 12.9904 13.6692 12.7018 13.8008 12.3843C13.9323 12.0667 14 11.7264 14 11.3827V9.20944C13.8769 9.09026 13.5943 8.85968 13.2503 8.85965ZM11.3827 2H4.61734C4.25369 1.99952 3.89396 2.07508 3.56124 2.22181C3.96945 3.70439 4.91764 6.98078 5.66379 8.2812C5.43866 8.50281 5.23907 8.6852 5.00873 8.91204C4.37012 7.94311 3.23714 4.266 2.7849 2.74848C2.53603 2.99189 2.33837 3.28263 2.20357 3.60359C2.06878 3.92455 1.99956 4.26923 2 4.61735V8.56102C2.6901 9.12196 3.25231 9.98838 3.87844 9.98838L3.88353 9.98836C4.76234 9.98174 5.58533 8 7.00756 8C8.45778 8 9.09726 9.97786 10.1176 9.97786C11.0996 9.97786 11.8387 8 13.2277 8C13.4968 7.99976 13.762 8.06529 14 8.1909V4.61735C14.0003 4.2126 13.9066 3.81331 13.7263 3.45095C13.546 3.08858 13.284 2.77305 12.9609 2.52922C12.5231 4.31387 11.5165 7.75635 10.205 9.77081C9.9112 9.70364 9.64485 9.54852 9.44145 9.32613C10.7959 7.28399 12.0328 2.7679 12.2031 2.13117C11.9384 2.04401 11.6614 1.99972 11.3827 2Z" fill="black"/>
</svg>
