<svg width="16" height="16" viewBox="0 0 16 16" fill="none" xmlns="http://www.w3.org/2000/svg">
<path fill-rule="evenodd" clip-rule="evenodd" d="M5.08524 4.25031C5.29108 3.66755 5.84678 3.25 6.5 3.25H9.5C10.1532 3.25 10.7089 3.66755 10.9148 4.25031C10.7837 4.25 10.6456 4.25 10.5 4.25H5.5C5.35438 4.25 5.21632 4.25 5.08524 4.25031ZM4.04578 4.27132C4.2691 3.1196 5.283 2.25 6.5 2.25H9.5C10.717 2.25 11.7309 3.1196 11.9542 4.27132C12.4688 4.29985 12.8289 4.36655 13.135 4.52248C13.6054 4.76217 13.9878 5.14462 14.2275 5.61502C14.32 5.79645 14.381 5.99691 14.4214 6.23727C14.3927 6.25099 14.362 6.26539 14.3295 6.2804C14.0425 6.41286 13.6091 6.59253 13.0369 6.77321C11.893 7.13446 10.1938 7.5 8 7.5C5.80622 7.5 4.10702 7.13446 2.96307 6.77321C2.39092 6.59253 1.95747 6.41286 1.67047 6.2804C1.63796 6.26539 1.60733 6.251 1.5786 6.23727C1.61896 5.99691 1.68004 5.79645 1.77248 5.61502C2.01217 5.14462 2.39462 4.76217 2.86502 4.52248C3.17107 4.36655 3.53124 4.29985 4.04578 4.27132ZM13.3381 7.72679C13.8082 7.57832 14.1952 7.42926 14.4954 7.30082C14.5 7.57709 14.5 7.89046 14.5 8.25V9.5C14.5 10.9001 14.5 11.6002 14.2275 12.135C13.9878 12.6054 13.6054 12.9878 13.135 13.2275C12.6002 13.5 11.9001 13.5 10.5 13.5H5.5C4.09987 13.5 3.3998 13.5 2.86502 13.2275C2.39462 12.9878 2.01217 12.6054 1.77248 12.135C1.5 11.6002 1.5 10.9001 1.5 9.5V8.25C1.5 7.89046 1.5 7.57709 1.50461 7.30082C1.80483 7.42926 2.19177 7.57832 2.66193 7.72679C3.61188 8.02677 4.90109 8.3242 6.5 8.44439V9C6.5 9.27614 6.72386 9.5 7 9.5H9C9.27614 9.5 9.5 9.27614 9.5 9V8.44439C11.0989 8.3242 12.3881 8.02677 13.3381 7.72679Z" fill="black"/>
</svg>
