<svg width="16" height="16" viewBox="0 0 16 16" fill="none" xmlns="http://www.w3.org/2000/svg">
<path d="M2.5 9V8.5H13.5V9C13.5 10.1046 12.6046 11 11.5 11H10C9.72386 11 9.5 11.2239 9.5 11.5V12.9C9.5 13.7284 8.82843 14.4 8 14.4C7.17157 14.4 6.5 13.7284 6.5 12.9V11.5C6.5 11.2239 6.27614 11 6 11H4.5C3.39543 11 2.5 10.1046 2.5 9Z" fill="black"/>
<path fill-rule="evenodd" clip-rule="evenodd" d="M8.5 2H4C3.17157 2 2.5 2.67157 2.5 3.5V7.5H13.5V3.5C13.5 2.67157 12.8284 2 12 2H11.5V4.5C11.5 4.77614 11.2761 5 11 5C10.7239 5 10.5 4.77614 10.5 4.5V2H9.5V3.5C9.5 3.77614 9.27614 4 9 4C8.72386 4 8.5 3.77614 8.5 3.5V2Z" fill="black"/>
</svg>
