<svg width="16" height="16" viewBox="0 0 16 16" fill="none" xmlns="http://www.w3.org/2000/svg">
<path fill-rule="evenodd" clip-rule="evenodd" d="M5.22265 1.68397C5.45241 1.5308 5.76285 1.59288 5.91603 1.82265L6.72414 3.03482C7.1196 2.849 7.5547 2.75 8 2.75C8.4453 2.75 8.8804 2.849 9.27586 3.03482L10.084 1.82265C10.2372 1.59288 10.5476 1.5308 10.7773 1.68397C11.0071 1.83715 11.0692 2.14758 10.916 2.37735L10.0975 3.60513L10.1213 3.62868C10.5652 4.07258 10.8556 4.64126 10.9584 5.25229C11.0043 5.5246 10.7761 5.75 10.5 5.75H8L5.5 5.75C5.22386 5.75 4.99575 5.5246 5.04156 5.25229C5.14436 4.64126 5.43478 4.07258 5.87868 3.62868L5.90249 3.60513L5.08397 2.37735C4.9308 2.14758 4.99289 1.83715 5.22265 1.68397ZM4.0702 10.5H2.25C1.97386 10.5 1.75 10.2761 1.75 9.99999C1.75 9.72385 1.97386 9.49999 2.25 9.49999H4V7.64212L2.69666 6.64747C2.47714 6.47994 2.435 6.16618 2.60252 5.94666C2.77005 5.72714 3.08382 5.68499 3.30334 5.85252L4.47987 6.7504C4.48654 6.75013 4.49326 6.75 4.5 6.75H11.5C11.5067 6.75 11.5135 6.75013 11.5201 6.7504L12.6967 5.85252C12.9162 5.68499 13.2299 5.72714 13.3975 5.94666C13.565 6.16618 13.5229 6.47994 13.3033 6.64747L12 7.64212V9.49999H13.75C14.0261 9.49999 14.25 9.72385 14.25 9.99999C14.25 10.2761 14.0261 10.5 13.75 10.5H11.9298C11.8279 11.0372 11.6186 11.5364 11.325 11.9743L12.8033 13.1025C13.0229 13.27 13.065 13.5838 12.8975 13.8033C12.7299 14.0229 12.4162 14.065 12.1967 13.8975L10.6677 12.7306C9.95986 13.3645 9.02495 13.75 8 13.75C6.97505 13.75 6.04014 13.3645 5.33235 12.7306L3.80334 13.8975C3.58382 14.065 3.27005 14.0229 3.10252 13.8033C2.935 13.5838 2.97714 13.27 3.19666 13.1025L4.67499 11.9743C4.38143 11.5364 4.1721 11.0372 4.0702 10.5ZM8 9.5C8 10.0523 7.55228 10.5 7 10.5C6.44772 10.5 6 10.0523 6 9.5C6 8.94771 6.44772 8.5 7 8.5C7.55228 8.5 8 8.94771 8 9.5ZM9 12C9.41421 12 9.75 11.6642 9.75 11.25C9.75 10.8358 9.41421 10.5 9 10.5C8.58579 10.5 8.25 10.8358 8.25 11.25C8.25 11.6642 8.58579 12 9 12Z" fill="black"/>
</svg>
