<svg width="16" height="16" viewBox="0 0 16 16" fill="none" xmlns="http://www.w3.org/2000/svg">
<path fill-rule="evenodd" clip-rule="evenodd" d="M2 4.4C2 3.55992 2 3.13988 2.16349 2.81901C2.3073 2.53677 2.53677 2.3073 2.81901 2.16349C3.13988 2 3.55992 2 4.4 2H6.6C7.44008 2 7.86012 2 8.18099 2.16349C8.46323 2.3073 8.6927 2.53677 8.83651 2.81901C9 3.13988 9 3.55992 9 4.4L9 6.07833L9 6.1V12.4L9 12.4217L9 13.25C9 13.483 9 13.5995 8.96194 13.6913C8.91119 13.8139 8.81386 13.9112 8.69134 13.9619C8.59946 14 8.48297 14 8.25 14C8.01703 14 7.90054 14 7.80866 13.9619C7.68614 13.9112 7.58881 13.8139 7.53806 13.6913C7.5 13.5995 7.5 13.483 7.5 13.25V11.75C7.5 11.3358 7.16421 11 6.75 11H4.25C3.83579 11 3.5 11.3358 3.5 11.75V13.1994C3.5 13.4996 3.5 13.6497 3.42709 13.7694C3.37216 13.8597 3.24641 13.9571 3.14533 13.9879C3.01117 14.0286 2.90837 14.0022 2.70277 13.9492C2.64555 13.9345 2.59411 13.9155 2.54601 13.891C2.35785 13.7951 2.20487 13.6422 2.10899 13.454C2 13.2401 2 12.9601 2 12.4V4.4ZM4 3.5C3.72386 3.5 3.5 3.72386 3.5 4V4.5C3.5 4.77614 3.72386 5 4 5H4.5C4.77614 5 5 4.77614 5 4.5V4C5 3.72386 4.77614 3.5 4.5 3.5H4ZM3.5 9C3.5 8.72386 3.72386 8.5 4 8.5H4.5C4.77614 8.5 5 8.72386 5 9V9.5C5 9.77614 4.77614 10 4.5 10H4C3.72386 10 3.5 9.77614 3.5 9.5V9ZM4 6C3.72386 6 3.5 6.22386 3.5 6.5V7C3.5 7.27614 3.72386 7.5 4 7.5H4.5C4.77614 7.5 5 7.27614 5 7V6.5C5 6.22386 4.77614 6 4.5 6H4ZM6 4C6 3.72386 6.22386 3.5 6.5 3.5H7C7.27614 3.5 7.5 3.72386 7.5 4V4.5C7.5 4.77614 7.27614 5 7 5H6.5C6.22386 5 6 4.77614 6 4.5V4ZM6.5 8.5C6.22386 8.5 6 8.72386 6 9V9.5C6 9.77614 6.22386 10 6.5 10H7C7.27614 10 7.5 9.77614 7.5 9.5V9C7.5 8.72386 7.27614 8.5 7 8.5H6.5ZM6 6.5C6 6.22386 6.22386 6 6.5 6H7C7.27614 6 7.5 6.22386 7.5 6.5V7C7.5 7.27614 7.27614 7.5 7 7.5H6.5C6.22386 7.5 6 7.27614 6 7V6.5ZM9.98987 13.6098C9.97392 13.805 10.1038 13.9973 10.2996 13.9992C10.3899 14 10.4895 14 10.6 14H12.4C12.9601 14 13.2401 14 13.454 13.891C13.6422 13.7951 13.7951 13.6422 13.891 13.454C14 13.2401 14 12.9601 14 12.4V12.4V6.9C14 6.05992 14 5.63988 13.8365 5.31901C13.6927 5.03677 13.4632 4.8073 13.181 4.66349C12.8601 4.5 12.4401 4.5 11.6 4.5H10.6C10.4971 4.5 10.4456 4.5 10.3925 4.51169C10.21 4.55187 10.0519 4.70999 10.0117 4.89252C10 4.94562 10 5.00034 10 5.10976V13.2L10 13.2231V13.2231C10.0001 13.3423 10.0001 13.4845 9.98987 13.6098ZM11 6.5C11 6.22386 11.2239 6 11.5 6H12C12.2761 6 12.5 6.22386 12.5 6.5V7C12.5 7.27614 12.2761 7.5 12 7.5H11.5C11.2239 7.5 11 7.27614 11 7V6.5ZM11.5 11C11.2239 11 11 11.2239 11 11.5V12C11 12.2761 11.2239 12.5 11.5 12.5H12C12.2761 12.5 12.5 12.2761 12.5 12V11.5C12.5 11.2239 12.2761 11 12 11H11.5ZM11 9C11 8.72386 11.2239 8.5 11.5 8.5H12C12.2761 8.5 12.5 8.72386 12.5 9V9.5C12.5 9.77614 12.2761 10 12 10H11.5C11.2239 10 11 9.77614 11 9.5V9Z" fill="black"/>
</svg>
