<svg width="16" height="16" viewBox="0 0 16 16" fill="none" xmlns="http://www.w3.org/2000/svg">
<path fill-rule="evenodd" clip-rule="evenodd" d="M2.32698 3.63803C2 4.27976 2 5.11984 2 6.8V9.2C2 10.8802 2 11.7202 2.32698 12.362C2.6146 12.9265 3.07354 13.3854 3.63803 13.673C4.27976 14 5.11984 14 6.8 14H9.2C10.8802 14 11.7202 14 12.362 13.673C12.9265 13.3854 13.3854 12.9265 13.673 12.362C14 11.7202 14 10.8802 14 9.2V6.8C14 5.11984 14 4.27976 13.673 3.63803C13.3854 3.07354 12.9265 2.6146 12.362 2.32698C11.7202 2 10.8802 2 9.2 2H6.8C5.11984 2 4.27976 2 3.63803 2.32698C3.07354 2.6146 2.6146 3.07354 2.32698 3.63803ZM8.97362 9.97935C9.28537 10.1676 9.64811 10.2617 10.0618 10.2617C10.4402 10.2617 10.7745 10.1842 11.0647 10.0294C11.3569 9.87249 11.5853 9.65583 11.75 9.37937C11.9167 9.10291 12 8.78429 12 8.42352V7.86765H10.1648V8.54704H11.1293C11.1266 8.72794 11.0815 8.88676 10.9941 9.0235C10.9059 9.16467 10.7834 9.27545 10.6265 9.35584C10.4716 9.43427 10.2902 9.47349 10.0824 9.47349C9.8334 9.47349 9.6187 9.41368 9.43831 9.29408C9.25792 9.17448 9.11871 9.00487 9.02068 8.78527C8.9246 8.56567 8.87656 8.30489 8.87656 8.00294C8.87656 7.69903 8.9246 7.43727 9.02068 7.21767C9.11675 6.99807 9.254 6.82847 9.43243 6.70886C9.61281 6.5873 9.82653 6.52651 10.0736 6.52651C10.2069 6.52651 10.3285 6.54416 10.4383 6.57945C10.5481 6.61475 10.6451 6.66573 10.7294 6.73239C10.8157 6.79709 10.8873 6.87552 10.9441 6.96768C11.001 7.05983 11.0412 7.16277 11.0647 7.27649H11.9706C11.9431 7.04513 11.8745 6.83631 11.7647 6.65004C11.6549 6.46181 11.5137 6.30005 11.3412 6.16476C11.1706 6.02751 10.9745 5.92261 10.753 5.85006C10.5334 5.77556 10.2981 5.7383 10.0471 5.7383C9.65497 5.7383 9.30204 5.83046 8.98832 6.01476C8.67657 6.19711 8.4305 6.45789 8.25011 6.79709C8.06972 7.13434 7.97953 7.53629 7.97953 8.00294C7.97953 8.45391 8.06678 8.84899 8.24129 9.1882C8.41775 9.52741 8.66186 9.79112 8.97362 9.97935ZM4 5.80889V10.1911H4.88821V8.13823C4.88821 8.05784 4.88723 7.94608 4.88527 7.80295C4.88527 7.65981 4.88233 7.49413 4.87644 7.3059C4.87456 7.245 4.87228 7.18279 4.86959 7.11927C4.91379 7.19903 4.95725 7.27692 4.99997 7.35296C5.09997 7.5255 5.19016 7.67942 5.27055 7.81471C5.35094 7.95 5.41663 8.05882 5.4676 8.14117L6.75874 10.1911H7.70283V5.80889H6.81168V8.00294C6.81168 8.09117 6.81266 8.2147 6.81462 8.37352C6.81658 8.53234 6.82051 8.69802 6.82639 8.87056L6.82682 8.88314C6.79697 8.82981 6.76644 8.77562 6.73521 8.72057C6.66071 8.58724 6.59012 8.46273 6.52346 8.34705C6.45875 8.23137 6.40483 8.14019 6.3617 8.07353L4.93821 5.80889H4Z" fill="black"/>
</svg>
