<svg width="16" height="16" viewBox="0 0 16 16" fill="none" xmlns="http://www.w3.org/2000/svg">
<path fill-rule="evenodd" clip-rule="evenodd" d="M2.32698 3.63803C2 4.27976 2 5.11984 2 6.8V9.2C2 10.8802 2 11.7202 2.32698 12.362C2.6146 12.9265 3.07354 13.3854 3.63803 13.673C4.27976 14 5.11984 14 6.8 14H9.2C10.8802 14 11.7202 14 12.362 13.673C12.9265 13.3854 13.3854 12.9265 13.673 12.362C14 11.7202 14 10.8802 14 9.2V6.8C14 5.11984 14 4.27976 13.673 3.63803C13.3854 3.07354 12.9265 2.6146 12.362 2.32698C11.7202 2 10.8802 2 9.2 2H6.8C5.11984 2 4.27976 2 3.63803 2.32698C3.07354 2.6146 2.6146 3.07354 2.32698 3.63803ZM5.66352 10.0577C5.32828 10.0577 5.03562 9.99604 4.78555 9.87282C4.53729 9.74778 4.3443 9.57472 4.20658 9.35365C4.06886 9.13076 4 8.87434 4 8.58441V5.94235H4.80458V8.51645C4.80458 8.67592 4.83991 8.81817 4.91059 8.9432C4.98307 9.06824 5.08364 9.16609 5.2123 9.23677C5.34096 9.30744 5.49137 9.34277 5.66352 9.34277C5.83748 9.34277 5.98879 9.30744 6.11745 9.23677C6.24611 9.16609 6.34578 9.06915 6.41645 8.94592C6.48712 8.82089 6.52246 8.67773 6.52246 8.51645V5.94235H7.32704V8.58441C7.32704 8.87434 7.25818 9.13076 7.12046 9.35365C6.98274 9.57472 6.78975 9.74778 6.54149 9.87282C6.29323 9.99604 6.00057 10.0577 5.66352 10.0577ZM7.7078 9.99242V5.94235H9.29792C9.60236 5.94235 9.86512 5.99671 10.0862 6.10544C10.3073 6.21235 10.4776 6.36548 10.5972 6.56481C10.7168 6.76233 10.7766 6.99609 10.7766 7.2661C10.7766 7.53791 10.7159 7.77349 10.5945 7.97282C10.4731 8.17034 10.3009 8.32346 10.078 8.43219C9.85515 8.5391 9.59149 8.59256 9.28705 8.59256H8.52868V9.99242H7.7078ZM9.24628 7.90215H8.52868V6.63548H9.24628C9.39668 6.63548 9.52534 6.66176 9.63226 6.71431C9.74099 6.76505 9.82434 6.83753 9.88233 6.93176C9.94213 7.02418 9.97203 7.13562 9.97203 7.2661C9.97203 7.39657 9.94213 7.50982 9.88233 7.60587C9.82434 7.7001 9.74099 7.77349 9.63226 7.82604C9.52534 7.87678 9.39668 7.90215 9.24628 7.90215ZM11.1329 5.94235L11.2036 8.72847H11.9049L11.9755 5.94235H11.1329ZM11.2362 9.90815C11.3232 9.99332 11.4292 10.0359 11.5542 10.0359C11.6793 10.0359 11.7844 9.99332 11.8695 9.90815C11.9565 9.82117 12 9.71516 12 9.59013C12 9.46328 11.9565 9.35727 11.8695 9.2721C11.7844 9.18693 11.6793 9.14435 11.5542 9.14435C11.4292 9.14435 11.3232 9.18693 11.2362 9.2721C11.151 9.35727 11.1084 9.46328 11.1084 9.59013C11.1084 9.71516 11.151 9.82117 11.2362 9.90815Z" fill="black"/>
</svg>
