<svg width="16" height="16" viewBox="0 0 16 16" fill="none" xmlns="http://www.w3.org/2000/svg">
<g clip-path="url(#clip0_5613_736)">
<path fill-rule="evenodd" clip-rule="evenodd" d="M1.30938 4.92313C1 5.5505 1 6.367 1 8C1 9.633 1 10.4495 1.30938 11.0769C1.60147 11.6692 2.08084 12.1485 2.67313 12.4406C3.3005 12.75 4.117 12.75 5.75 12.75H8.96232L8.66012 7.71532C8.58606 6.48147 9.9524 5.69263 10.9839 6.37368L14.996 9.02268C15 8.72133 15 8.38314 15 8C15 6.367 15 5.5505 14.6906 4.92313C14.3985 4.33084 13.9192 3.85147 13.3269 3.55938C12.6995 3.25 11.883 3.25 10.25 3.25H5.75C4.117 3.25 3.3005 3.25 2.67313 3.55938C2.08084 3.85147 1.60147 4.33084 1.30938 4.92313ZM14.9347 10.1805L10.4329 7.2082C10.0891 6.98118 9.63364 7.24413 9.65833 7.65541L9.96412 12.75H10.25C10.6287 12.75 10.9635 12.75 11.2622 12.7461L11.8145 11.9097L12.2719 12.7021C12.7056 12.6607 13.0365 12.5838 13.3269 12.4406C13.438 12.3858 13.5452 12.3244 13.6479 12.2569L13.5982 12.1709L13.0392 11.2026L14.1552 11.1356L14.6769 11.1043C14.6815 11.0952 14.6861 11.086 14.6906 11.0769C14.8158 10.8229 14.8904 10.538 14.9347 10.1805Z" fill="black"/>
<path d="M9.6583 7.6554L9.98219 13.0514C10.011 13.531 10.6338 13.6979 10.8985 13.2969L11.8144 11.9097L12.8019 13.62C12.94 13.8592 13.2457 13.9411 13.4849 13.803L13.8436 13.5959C14.0828 13.4579 14.1647 13.1521 14.0266 12.9129L13.0392 11.2026L14.6985 11.103C15.1781 11.0742 15.345 10.4514 14.944 10.1867L10.4329 7.20819C10.0891 6.98117 9.63362 7.24412 9.6583 7.6554Z" fill="black"/>
</g>
<defs>
<clipPath id="clip0_5613_736">
<rect width="16" height="16" fill="white"/>
</clipPath>
</defs>
</svg>
