<svg width="16" height="16" viewBox="0 0 16 16" fill="none" xmlns="http://www.w3.org/2000/svg">
<path fill-rule="evenodd" clip-rule="evenodd" d="M2 6.8C2 5.11984 2 4.27976 2.32698 3.63803C2.6146 3.07354 3.07354 2.6146 3.63803 2.32698C4.27976 2 5.11984 2 6.8 2H9.2C10.8802 2 11.7202 2 12.362 2.32698C12.9265 2.6146 13.3854 3.07354 13.673 3.63803C14 4.27976 14 5.11984 14 6.8V9.2C14 10.8802 14 11.7202 13.673 12.362C13.3854 12.9265 12.9265 13.3854 12.362 13.673C11.7202 14 10.8802 14 9.2 14H6.8C5.11984 14 4.27976 14 3.63803 13.673C3.07354 13.3854 2.6146 12.9265 2.32698 12.362C2 11.7202 2 10.8802 2 9.2V6.8ZM5.8 9.05001C6.3799 9.05001 6.85 8.57991 6.85 8.00001C6.85 7.42011 6.3799 6.95001 5.8 6.95001C5.2201 6.95001 4.75 7.42011 4.75 8.00001C4.75 8.57991 5.2201 9.05001 5.8 9.05001ZM5.8 10.05C6.93218 10.05 7.85 9.1322 7.85 8.00001C7.85 6.86783 6.93218 5.95001 5.8 5.95001C4.66782 5.95001 3.75 6.86783 3.75 8.00001C3.75 9.1322 4.66782 10.05 5.8 10.05ZM11.8123 6.89043C12.028 6.71793 12.0629 6.40328 11.8904 6.18765C11.7179 5.97202 11.4033 5.93706 11.1877 6.10957L9.5 7.45969V6.5C9.5 6.22386 9.27614 6 9 6C8.72386 6 8.5 6.22386 8.5 6.5V8.5V9.5C8.5 9.77614 8.72386 10 9 10C9.27614 10 9.5 9.77614 9.5 9.5V8.74031L9.79623 8.50333L11.1464 9.85355C11.3417 10.0488 11.6583 10.0488 11.8536 9.85355C12.0488 9.65829 12.0488 9.34171 11.8536 9.14645L10.5819 7.87479L11.8123 6.89043Z" fill="black"/>
</svg>
