<svg width="16" height="16" viewBox="0 0 16 16" fill="none" xmlns="http://www.w3.org/2000/svg">
<path fill-rule="evenodd" clip-rule="evenodd" d="M2.32698 3.63803C2 4.27976 2 5.11984 2 6.8V9.2C2 10.8802 2 11.7202 2.32698 12.362C2.6146 12.9265 3.07354 13.3854 3.63803 13.673C4.27976 14 5.11984 14 6.8 14H9.2C10.8802 14 11.7202 14 12.362 13.673C12.9265 13.3854 13.3854 12.9265 13.673 12.362C14 11.7202 14 10.8802 14 9.2V6.8C14 5.11984 14 4.27976 13.673 3.63803C13.3854 3.07354 12.9265 2.6146 12.362 2.32698C11.7202 2 10.8802 2 9.2 2H6.8C5.11984 2 4.27976 2 3.63803 2.32698C3.07354 2.6146 2.6146 3.07354 2.32698 3.63803ZM3.5 9.49693V6.50307H4.14097L5.11347 8.05023C5.14294 8.09578 5.17978 8.15807 5.22398 8.2371C5.26953 8.31613 5.31775 8.40119 5.36865 8.49228C5.38999 8.52989 5.41085 8.56691 5.43124 8.60335L5.43094 8.59475C5.42692 8.47687 5.42424 8.36368 5.4229 8.25518C5.42157 8.14668 5.4209 8.06229 5.4209 8.00201V6.50307H6.02972V9.49693H5.38473L4.50264 8.09645C4.46782 8.04019 4.42294 7.96584 4.36802 7.87341C4.3131 7.78099 4.25148 7.67583 4.18316 7.55795C4.15398 7.50601 4.12429 7.45279 4.09409 7.3983C4.09592 7.44169 4.09749 7.4842 4.09877 7.5258C4.10279 7.6544 4.1048 7.76759 4.1048 7.86538C4.10614 7.96316 4.10681 8.03952 4.10681 8.09444V9.49693H3.5ZM6.31721 9.49693V6.50307H8.44522H8.45712H9.09222L9.44987 8.00402C9.478 8.12592 9.50413 8.24848 9.52824 8.37172C9.55369 8.49362 9.5778 8.61619 9.60057 8.73942L9.61155 8.79541L9.62267 8.73942C9.64813 8.61619 9.67425 8.49362 9.70104 8.37172C9.72783 8.24848 9.75596 8.12592 9.78543 8.00402L10.1612 6.50307H10.7841L11.1578 8.00402C11.1873 8.12592 11.2154 8.24848 11.2422 8.37172C11.269 8.49362 11.2951 8.61619 11.3205 8.73942L11.3301 8.78522L11.3386 8.73942C11.3627 8.61619 11.3875 8.49362 11.413 8.37172C11.4398 8.24848 11.4665 8.12592 11.4933 8.00402L11.851 6.50307H12.5L11.6943 9.49693H11.0131L10.5851 7.85131C10.5543 7.73209 10.5235 7.60015 10.4927 7.45548C10.4856 7.4205 10.4783 7.38452 10.4706 7.34755C10.4629 7.38452 10.4556 7.4205 10.4485 7.45548C10.419 7.60015 10.3889 7.73209 10.3581 7.85131L9.9301 9.49693H9.24894L8.45712 6.54738V7.02549H6.92402V7.72874H8.34058V8.23911H6.92402V8.97451H8.45712V9.49693H6.31721Z" fill="black"/>
</svg>
