<svg width="16" height="16" viewBox="0 0 16 16" fill="none" xmlns="http://www.w3.org/2000/svg">
<path fill-rule="evenodd" clip-rule="evenodd" d="M2.32698 3.63803C2 4.27976 2 5.11984 2 6.8V9.2C2 10.8802 2 11.7202 2.32698 12.362C2.6146 12.9265 3.07354 13.3854 3.63803 13.673C4.27976 14 5.11984 14 6.8 14H9.2C10.8802 14 11.7202 14 12.362 13.673C12.9265 13.3854 13.3854 12.9265 13.673 12.362C14 11.7202 14 10.8802 14 9.2V6.8C14 5.11984 14 4.27976 13.673 3.63803C13.3854 3.07354 12.9265 2.6146 12.362 2.32698C11.7202 2 10.8802 2 9.2 2H6.8C5.11984 2 4.27976 2 3.63803 2.32698C3.07354 2.6146 2.6146 3.07354 2.32698 3.63803ZM3.5 6.53706V9.46294H4.09303V8.27099H5.42833V7.77614H4.09303V7.04762H5.52455V6.53706H3.5ZM5.67591 6.53706V9.46294H6.26894V8.43594H6.80699L6.81484 8.43592L7.33522 9.46294H7.97538L7.38497 8.32443L7.3902 8.32204C7.55515 8.2448 7.68279 8.13615 7.77312 7.99607C7.86475 7.85469 7.91057 7.68712 7.91057 7.49337C7.91057 7.297 7.86737 7.12747 7.78097 6.98478C7.69457 6.84209 7.57151 6.73212 7.4118 6.65488C7.25209 6.57633 7.06227 6.53706 6.84233 6.53706H5.67591ZM6.26894 7.9568H6.80699C6.91434 7.9568 7.00663 7.93782 7.08387 7.89985C7.16241 7.86189 7.22263 7.80821 7.26452 7.73883C7.30772 7.66945 7.32933 7.58763 7.32933 7.49337C7.32933 7.39912 7.30772 7.31795 7.26452 7.24988C7.22263 7.1818 7.16241 7.12878 7.08387 7.09082C7.00663 7.05285 6.91368 7.03387 6.80502 7.03387H6.26894V7.9568ZM8.12674 9.46294V6.53706H10.2181V7.04762H8.71977V7.7349H10.1042V8.23368H8.71977V8.95238H10.2181V9.46294H8.12674ZM10.4087 6.53706V9.46294H12.5V8.95238H11.0017V8.23368H12.3861V7.7349H11.0017V7.04762H12.5V6.53706H10.4087Z" fill="black"/>
</svg>
