<svg width="16" height="16" viewBox="0 0 16 16" fill="none" xmlns="http://www.w3.org/2000/svg">
<path fill-rule="evenodd" clip-rule="evenodd" d="M2.32698 3.63803C2 4.27976 2 5.11984 2 6.8V9.2C2 10.8802 2 11.7202 2.32698 12.362C2.6146 12.9265 3.07354 13.3854 3.63803 13.673C4.27976 14 5.11984 14 6.8 14H9.2C10.8802 14 11.7202 14 12.362 13.673C12.9265 13.3854 13.3854 12.9265 13.673 12.362C14 11.7202 14 10.8802 14 9.2V6.8C14 5.11984 14 4.27976 13.673 3.63803C13.3854 3.07354 12.9265 2.6146 12.362 2.32698C11.7202 2 10.8802 2 9.2 2H6.8C5.11984 2 4.27976 2 3.63803 2.32698C3.07354 2.6146 2.6146 3.07354 2.32698 3.63803ZM4.0785 9.14013C4.2584 9.2447 4.46304 9.29698 4.69241 9.29698C4.83971 9.29698 4.97576 9.27562 5.10057 9.23289C5.22537 9.18904 5.33612 9.1272 5.43282 9.04737C5.53064 8.96641 5.61047 8.86971 5.67232 8.75727C5.73528 8.64371 5.77688 8.51666 5.79712 8.37611H5.28103C5.26529 8.45032 5.23999 8.51666 5.20513 8.57512C5.17028 8.63247 5.12755 8.68138 5.07695 8.72186C5.02748 8.76233 4.9707 8.79325 4.90661 8.81462C4.84364 8.83486 4.77449 8.84498 4.69916 8.84498C4.55524 8.84498 4.43212 8.81068 4.3298 8.7421C4.22748 8.67238 4.14933 8.57456 4.09536 8.44863C4.04139 8.3227 4.01441 8.17372 4.01441 8.00169C4.01441 7.82853 4.04139 7.67899 4.09536 7.55306C4.15046 7.426 4.2286 7.32818 4.3298 7.25959C4.43212 7.18988 4.55524 7.15502 4.69916 7.15502C4.77449 7.15502 4.8442 7.1657 4.90829 7.18707C4.97238 7.20731 5.02917 7.23767 5.07864 7.27814C5.12924 7.31862 5.1714 7.36809 5.20513 7.42656C5.23999 7.48503 5.26529 7.55193 5.28103 7.62727H5.79712C5.77688 7.48672 5.73528 7.35966 5.67232 7.2461C5.61047 7.13253 5.53121 7.03528 5.43451 6.95432C5.33781 6.87336 5.2265 6.81152 5.10057 6.7688C4.97576 6.72494 4.83971 6.70302 4.69241 6.70302C4.46304 6.70302 4.25784 6.75587 4.07681 6.86156C3.89691 6.96613 3.7558 7.11567 3.65348 7.31019C3.55116 7.50358 3.5 7.73408 3.5 8.00169C3.5 8.26704 3.55116 8.49698 3.65348 8.6915C3.75692 8.88489 3.8986 9.03444 4.0785 9.14013ZM6.44828 9.13844C6.62706 9.24413 6.82888 9.29698 7.05376 9.29698C7.27976 9.29698 7.48159 9.2447 7.65924 9.14013C7.83802 9.03444 7.97913 8.88489 8.08257 8.6915C8.18602 8.49698 8.23774 8.26704 8.23774 8.00169C8.23774 7.73521 8.18602 7.50471 8.08257 7.31019C7.97913 7.11567 7.83802 6.96613 7.65924 6.86156C7.48159 6.75587 7.27976 6.70302 7.05376 6.70302C6.82888 6.70302 6.62706 6.75587 6.44828 6.86156C6.2695 6.96613 6.12839 7.11567 6.02495 7.31019C5.92263 7.50471 5.87147 7.73521 5.87147 8.00169C5.87147 8.26592 5.92263 8.49529 6.02495 8.68981C6.12839 8.88321 6.2695 9.03275 6.44828 9.13844ZM7.39951 8.74716C7.29944 8.81237 7.18419 8.84498 7.05376 8.84498C6.92446 8.84498 6.80921 8.81237 6.70801 8.74716C6.60794 8.68082 6.52923 8.58468 6.47189 8.45875C6.41455 8.33282 6.38587 8.18046 6.38587 8.00169C6.38587 7.82178 6.41455 7.66887 6.47189 7.54294C6.52923 7.41588 6.60794 7.31975 6.70801 7.25453C6.80921 7.18819 6.92446 7.15502 7.05376 7.15502C7.18419 7.15502 7.29944 7.18819 7.39951 7.25453C7.5007 7.31975 7.57997 7.41588 7.63732 7.54294C7.69466 7.66887 7.72333 7.82178 7.72333 8.00169C7.72333 8.18046 7.69466 8.33282 7.63732 8.45875C7.57997 8.58468 7.5007 8.68082 7.39951 8.74716ZM9.49944 9.29698C9.27456 9.29698 9.07273 9.24413 8.89395 9.13844C8.71518 9.03275 8.57407 8.88321 8.47062 8.68981C8.3683 8.49529 8.31714 8.26592 8.31714 8.00169C8.31714 7.73521 8.3683 7.50471 8.47062 7.31019C8.57407 7.11567 8.71518 6.96613 8.89395 6.86156C9.07273 6.75587 9.27456 6.70302 9.49944 6.70302C9.72544 6.70302 9.92727 6.75587 10.1049 6.86156C10.2837 6.96613 10.4248 7.11567 10.5283 7.31019C10.6317 7.50471 10.6834 7.73521 10.6834 8.00169C10.6834 8.26704 10.6317 8.49698 10.5283 8.6915C10.4248 8.88489 10.2837 9.03444 10.1049 9.14013C9.92727 9.2447 9.72544 9.29698 9.49944 9.29698ZM9.49944 8.84498C9.62987 8.84498 9.74512 8.81237 9.84519 8.74716C9.94638 8.68082 10.0257 8.58468 10.083 8.45875C10.1403 8.33282 10.169 8.18046 10.169 8.00169C10.169 7.82178 10.1403 7.66887 10.083 7.54294C10.0257 7.41588 9.94638 7.31975 9.84519 7.25453C9.74512 7.18819 9.62987 7.15502 9.49944 7.15502C9.37013 7.15502 9.25488 7.18819 9.15369 7.25453C9.05362 7.31975 8.97491 7.41588 8.91757 7.54294C8.86022 7.66887 8.83155 7.82178 8.83155 8.00169C8.83155 8.18046 8.86022 8.33282 8.91757 8.45875C8.97491 8.58468 9.05362 8.68082 9.15369 8.74716C9.25488 8.81237 9.37013 8.84498 9.49944 8.84498ZM10.8455 6.7435V9.2565H12.5V8.81799H11.3548V6.7435H10.8455Z" fill="black"/>
</svg>
