<svg width="16" height="16" viewBox="0 0 16 16" fill="none" xmlns="http://www.w3.org/2000/svg">
<path fill-rule="evenodd" clip-rule="evenodd" d="M9.00004 1.57735C8.38124 1.22009 7.61885 1.22009 7.00004 1.57735L2.93787 3.92265C2.31906 4.27992 1.93787 4.94017 1.93787 5.6547V10.3453C1.93787 11.0598 2.31906 11.7201 2.93787 12.0774L7.00004 14.4227C7.61885 14.7799 8.38124 14.7799 9.00004 14.4227L13.0622 12.0774C13.681 11.7201 14.0622 11.0598 14.0622 10.3453V5.6547C14.0622 4.94017 13.681 4.27992 13.0622 3.92265L9.00004 1.57735ZM6.25004 6.5C6.25004 6.22386 6.02618 6 5.75004 6C5.4739 6 5.25004 6.22386 5.25004 6.5V7.5H4.25004C3.9739 7.5 3.75004 7.72386 3.75004 8C3.75004 8.27614 3.9739 8.5 4.25004 8.5H5.25004V9.5C5.25004 9.77614 5.4739 10 5.75004 10C6.02618 10 6.25004 9.77614 6.25004 9.5V8.5H7.25004C7.52618 8.5 7.75004 8.27614 7.75004 8C7.75004 7.72386 7.52618 7.5 7.25004 7.5H6.25004V6.5ZM10.75 6.5C10.75 6.22386 10.5262 6 10.25 6C9.9739 6 9.75004 6.22386 9.75004 6.5V7.5H8.75004C8.4739 7.5 8.25004 7.72386 8.25004 8C8.25004 8.27614 8.4739 8.5 8.75004 8.5H9.75004V9.5C9.75004 9.77614 9.9739 10 10.25 10C10.5262 10 10.75 9.77614 10.75 9.5V8.5H11.75C12.0262 8.5 12.25 8.27614 12.25 8C12.25 7.72386 12.0262 7.5 11.75 7.5H10.75V6.5Z" fill="black"/>
</svg>
