<svg width="16" height="16" viewBox="0 0 16 16" fill="none" xmlns="http://www.w3.org/2000/svg">
<path fill-rule="evenodd" clip-rule="evenodd" d="M9.00004 1.57735C8.38124 1.22009 7.61885 1.22009 7.00004 1.57735L2.93787 3.92265C2.31906 4.27992 1.93787 4.94017 1.93787 5.6547V10.3453C1.93787 11.0598 2.31906 11.7201 2.93787 12.0774L7.00004 14.4227C7.61885 14.7799 8.38124 14.7799 9.00004 14.4227L13.0622 12.0774C13.681 11.7201 14.0622 11.0598 14.0622 10.3453V5.6547C14.0622 4.94017 13.681 4.27992 13.0622 3.92265L9.00004 1.57735ZM7.00004 5C7.00004 4.72386 6.77618 4.5 6.50004 4.5C6.2239 4.5 6.00004 4.72386 6.00004 5V6H5.00004C4.7239 6 4.50004 6.22386 4.50004 6.5C4.50004 6.77614 4.7239 7 5.00004 7H6.00004V9H5.00004C4.7239 9 4.50004 9.22386 4.50004 9.5C4.50004 9.77615 4.7239 10 5.00004 10H6.00004V11C6.00004 11.2761 6.2239 11.5 6.50004 11.5C6.77618 11.5 7.00004 11.2761 7.00004 11V10H9.00004V11C9.00004 11.2761 9.2239 11.5 9.50004 11.5C9.77618 11.5 10 11.2761 10 11V10H11C11.2762 10 11.5 9.77615 11.5 9.5C11.5 9.22386 11.2762 9 11 9H10V7H11C11.2762 7 11.5 6.77614 11.5 6.5C11.5 6.22386 11.2762 6 11 6H10V5C10 4.72386 9.77618 4.5 9.50004 4.5C9.2239 4.5 9.00004 4.72386 9.00004 5V6H7.00004V5ZM7.00004 9V7H9.00004V9H7.00004Z" fill="black"/>
</svg>
