<svg width="16" height="16" viewBox="0 0 16 16" fill="none" xmlns="http://www.w3.org/2000/svg">
<path fill-rule="evenodd" clip-rule="evenodd" d="M9.00004 1.57735C8.38124 1.22009 7.61885 1.22009 7.00004 1.57735L2.93787 3.92265C2.31906 4.27992 1.93787 4.94017 1.93787 5.6547V10.3453C1.93787 11.0598 2.31906 11.7201 2.93787 12.0774L7.00004 14.4227C7.61885 14.7799 8.38124 14.7799 9.00004 14.4227L13.0622 12.0774C13.681 11.7201 14.0622 11.0598 14.0622 10.3453V5.6547C14.0622 4.94017 13.681 4.27992 13.0622 3.92265L9.00004 1.57735ZM7.14331 5.6903C7.60012 5.50109 8.10279 5.45158 8.58774 5.54804C9.0727 5.6445 9.51815 5.8826 9.86778 6.23224C10.063 6.4275 10.3796 6.4275 10.5749 6.23224C10.7702 6.03697 10.7702 5.72039 10.5749 5.52513C10.0854 5.03565 9.46177 4.7023 8.78283 4.56725C8.1039 4.43221 7.40017 4.50152 6.76062 4.76642C6.12108 5.03133 5.57446 5.47994 5.18987 6.05551C4.80529 6.63108 4.60002 7.30777 4.60002 8C4.60002 8.69224 4.80529 9.36893 5.18987 9.9445C5.57446 10.5201 6.12108 10.9687 6.76062 11.2336C7.40017 11.4985 8.1039 11.5678 8.78283 11.4328C9.46177 11.2977 10.0854 10.9644 10.5749 10.4749C10.7702 10.2796 10.7702 9.96303 10.5749 9.76777C10.3796 9.57251 10.063 9.57251 9.86778 9.76777C9.51815 10.1174 9.0727 10.3555 8.58774 10.452C8.10279 10.5484 7.60012 10.4989 7.14331 10.3097C6.68649 10.1205 6.29605 9.80005 6.02134 9.38893C5.74664 8.97781 5.60002 8.49446 5.60002 8C5.60002 7.50555 5.74664 7.0222 6.02134 6.61108C6.29605 6.19995 6.68649 5.87952 7.14331 5.6903Z" fill="black"/>
</svg>
