<svg width="16" height="16" viewBox="0 0 16 16" fill="none" xmlns="http://www.w3.org/2000/svg">
<path fill-rule="evenodd" clip-rule="evenodd" d="M2.00017 8.37408C2.07914 8.4539 2.15248 8.53251 2.22115 8.60612L2.26981 8.65821C2.50442 8.90869 2.70214 9.10805 2.95571 9.25461C3.19798 9.39465 3.51716 9.5 3.99997 9.5C4.48278 9.5 4.80196 9.39465 5.04423 9.25461C5.2978 9.10805 5.49552 8.90869 5.73013 8.6582L5.77878 8.60612L5.77879 8.60612C5.99116 8.37848 6.24808 8.1031 6.57842 7.89148C6.95338 7.65128 7.40648 7.5 7.99997 7.5C8.59346 7.5 9.04656 7.65128 9.42152 7.89148C9.75185 8.1031 10.0088 8.37847 10.2211 8.60611L10.2212 8.60611L10.2698 8.6582C10.5044 8.90869 10.7021 9.10805 10.9557 9.25461C11.198 9.39465 11.5172 9.5 12 9.5C12.4828 9.5 12.802 9.39465 13.0442 9.25461C13.2978 9.10805 13.4955 8.90869 13.7301 8.6582L13.7788 8.60612C13.8474 8.53253 13.9208 8.45394 13.9997 8.37414C13.9977 7.46697 13.9777 6.97619 13.782 6.59202C13.5902 6.21569 13.2842 5.90973 12.9079 5.71799C12.4801 5.5 11.92 5.5 10.7999 5.5H5.19994C4.07983 5.5 3.51978 5.5 3.09196 5.71799C2.71563 5.90973 2.40967 6.21569 2.21793 6.59202C2.02219 6.97618 2.00221 7.46695 2.00017 8.37408ZM13.9999 9.79431C13.8654 9.90984 13.7152 10.0218 13.5447 10.1204C13.1382 10.3554 12.644 10.5 12 10.5C11.356 10.5 10.8618 10.3554 10.4553 10.1204C10.0601 9.89195 9.77365 9.59131 9.53995 9.3418L9.51282 9.31282C9.27972 9.06381 9.10301 8.87504 8.8821 8.73352C8.67168 8.59872 8.40648 8.5 7.99997 8.5C7.59346 8.5 7.32826 8.59872 7.11784 8.73352C6.89693 8.87504 6.72022 9.06381 6.48712 9.31282L6.45999 9.3418C6.22629 9.59131 5.93987 9.89195 5.54466 10.1204C5.13816 10.3554 4.64395 10.5 3.99997 10.5C3.35599 10.5 2.86178 10.3554 2.45528 10.1204C2.28474 10.0218 2.13447 9.9098 1.99994 9.79425V10.55C1.99994 11.6701 1.99994 12.2302 2.21793 12.658C2.40967 13.0343 2.71563 13.3403 3.09196 13.532C3.51978 13.75 4.07983 13.75 5.19994 13.75H10.7999C11.92 13.75 12.4801 13.75 12.9079 13.532C13.2842 13.3403 13.5902 13.0343 13.782 12.658C13.9999 12.2302 13.9999 11.6701 13.9999 10.55V9.79431Z" fill="black"/>
<path d="M6.5 3.40002C6.5 2.982 6.89155 2.29938 7.27456 1.73165C7.62774 1.20813 8.37226 1.20813 8.72544 1.73165C9.10845 2.29938 9.5 2.982 9.5 3.40002C9.5 4.21821 9 4.90002 8 4.90002C7 4.90002 6.5 4.21821 6.5 3.40002Z" fill="black"/>
</svg>
