<svg width="16" height="16" viewBox="0 0 16 16" fill="none" xmlns="http://www.w3.org/2000/svg">
<path fill-rule="evenodd" clip-rule="evenodd" d="M2.75 11.3V4.7C2.75 3.5799 2.75 3.01984 2.96799 2.59202C3.15973 2.21569 3.46569 1.90973 3.84202 1.71799C4.26984 1.5 4.82989 1.5 5.95 1.5H10.05C11.1701 1.5 11.7302 1.5 12.158 1.71799C12.5343 1.90973 12.8403 2.21569 13.032 2.59202C13.25 3.01984 13.25 3.5799 13.25 4.7V11.3C13.25 12.4201 13.25 12.9802 13.032 13.408C12.8403 13.7843 12.5343 14.0903 12.158 14.282C11.7302 14.5 11.1701 14.5 10.05 14.5H5.95H5.94999C4.82989 14.5 4.26984 14.5 3.84202 14.282C3.46569 14.0903 3.15973 13.7843 2.96799 13.408C2.75 12.9802 2.75 12.4201 2.75 11.3ZM4 4C4 3.44772 4.44772 3 5 3H11C11.5523 3 12 3.44772 12 4V6C12 6.55228 11.5523 7 11 7H5C4.44772 7 4 6.55228 4 6V4ZM4.5 8C4.22386 8 4 8.22386 4 8.5C4 8.77614 4.22386 9 4.5 9H5.5C5.77614 9 6 8.77614 6 8.5C6 8.22386 5.77614 8 5.5 8H4.5ZM4.5 10C4.22386 10 4 10.2239 4 10.5C4 10.7761 4.22386 11 4.5 11H5.5C5.77614 11 6 10.7761 6 10.5C6 10.2239 5.77614 10 5.5 10H4.5ZM4.5 12C4.22386 12 4 12.2239 4 12.5C4 12.7761 4.22386 13 4.5 13H5.5C5.77614 13 6 12.7761 6 12.5C6 12.2239 5.77614 12 5.5 12H4.5ZM7 8.5C7 8.22386 7.22386 8 7.5 8H8.5C8.77614 8 9 8.22386 9 8.5C9 8.77614 8.77614 9 8.5 9H7.5C7.22386 9 7 8.77614 7 8.5ZM7 10.5C7 10.2239 7.22386 10 7.5 10H8.5C8.77614 10 9 10.2239 9 10.5C9 10.7761 8.77614 11 8.5 11H7.5C7.22386 11 7 10.7761 7 10.5ZM7 12.5C7 12.2239 7.22386 12 7.5 12H8.5C8.77614 12 9 12.2239 9 12.5C9 12.7761 8.77614 13 8.5 13H7.5C7.22386 13 7 12.7761 7 12.5ZM10.5 8C10.2239 8 10 8.22386 10 8.5C10 8.77614 10.2239 9 10.5 9H11.5C11.7761 9 12 8.77614 12 8.5C12 8.22386 11.7761 8 11.5 8H10.5ZM10.5 10C10.2239 10 10 10.2239 10 10.5C10 10.7761 10.2239 11 10.5 11H11.5C11.7761 11 12 10.7761 12 10.5C12 10.2239 11.7761 10 11.5 10H10.5ZM10.5 12C10.2239 12 10 12.2239 10 12.5C10 12.7761 10.2239 13 10.5 13H11.5C11.7761 13 12 12.7761 12 12.5C12 12.2239 11.7761 12 11.5 12H10.5Z" fill="black"/>
</svg>
