<svg width="16" height="16" viewBox="0 0 16 16" fill="none" xmlns="http://www.w3.org/2000/svg">
<path fill-rule="evenodd" clip-rule="evenodd" d="M2.01647 5.75C2.04459 5.02643 2.12075 4.54278 2.32698 4.13803C2.6146 3.57354 3.07354 3.1146 3.63803 2.82698C4.27976 2.5 5.11984 2.5 6.8 2.5H9.2C10.8802 2.5 11.7202 2.5 12.362 2.82698C12.9265 3.1146 13.3854 3.57354 13.673 4.13803C13.8793 4.54278 13.9554 5.02643 13.9835 5.75H2.01647ZM2.00051 6.75C2 6.92277 2 7.10577 2 7.3V9.2C2 10.8802 2 11.7202 2.32698 12.362C2.6146 12.9265 3.07354 13.3854 3.63803 13.673C4.27976 14 5.11984 14 6.8 14H9.2C10.8802 14 11.7202 14 12.362 13.673C12.9265 13.3854 13.3854 12.9265 13.673 12.362C14 11.7202 14 10.8802 14 9.2V7.3C14 7.10577 14 6.92277 13.9995 6.75H2.00051ZM7 8.55C7 8.26997 7 8.12996 7.0545 8.023C7.10243 7.92892 7.17892 7.85243 7.273 7.8045C7.37996 7.75 7.51997 7.75 7.8 7.75H8.2C8.48003 7.75 8.62004 7.75 8.727 7.8045C8.82108 7.85243 8.89757 7.92892 8.9455 8.023C9 8.12996 9 8.26997 9 8.55V8.95C9 9.23003 9 9.37004 8.9455 9.477C8.89757 9.57108 8.82108 9.64757 8.727 9.6955C8.62004 9.75 8.48003 9.75 8.2 9.75H7.8C7.51997 9.75 7.37996 9.75 7.273 9.6955C7.17892 9.64757 7.10243 9.57108 7.0545 9.477C7 9.37004 7 9.23003 7 8.95V8.55ZM10 8.55C10 8.26997 10 8.12996 10.0545 8.023C10.1024 7.92892 10.1789 7.85243 10.273 7.8045C10.38 7.75 10.52 7.75 10.8 7.75H11.2C11.48 7.75 11.62 7.75 11.727 7.8045C11.8211 7.85243 11.8976 7.92892 11.9455 8.023C12 8.12996 12 8.26997 12 8.55V8.95C12 9.23003 12 9.37004 11.9455 9.477C11.8976 9.57108 11.8211 9.64757 11.727 9.6955C11.62 9.75 11.48 9.75 11.2 9.75H10.8C10.52 9.75 10.38 9.75 10.273 9.6955C10.1789 9.64757 10.1024 9.57108 10.0545 9.477C10 9.37004 10 9.23003 10 8.95V8.55ZM4.0545 11.023C4 11.13 4 11.27 4 11.55V11.95C4 12.23 4 12.37 4.0545 12.477C4.10243 12.5711 4.17892 12.6476 4.273 12.6955C4.37996 12.75 4.51997 12.75 4.8 12.75H5.2C5.48003 12.75 5.62004 12.75 5.727 12.6955C5.82108 12.6476 5.89757 12.5711 5.9455 12.477C6 12.37 6 12.23 6 11.95V11.55C6 11.27 6 11.13 5.9455 11.023C5.89757 10.9289 5.82108 10.8524 5.727 10.8045C5.62004 10.75 5.48003 10.75 5.2 10.75H4.8C4.51997 10.75 4.37996 10.75 4.273 10.8045C4.17892 10.8524 4.10243 10.9289 4.0545 11.023ZM7 11.55C7 11.27 7 11.13 7.0545 11.023C7.10243 10.9289 7.17892 10.8524 7.273 10.8045C7.37996 10.75 7.51997 10.75 7.8 10.75H8.2C8.48003 10.75 8.62004 10.75 8.727 10.8045C8.82108 10.8524 8.89757 10.9289 8.9455 11.023C9 11.13 9 11.27 9 11.55V11.95C9 12.23 9 12.37 8.9455 12.477C8.89757 12.5711 8.82108 12.6476 8.727 12.6955C8.62004 12.75 8.48003 12.75 8.2 12.75H7.8C7.51997 12.75 7.37996 12.75 7.273 12.6955C7.17892 12.6476 7.10243 12.5711 7.0545 12.477C7 12.37 7 12.23 7 11.95V11.55Z" fill="black"/>
<path d="M4.83453 3V2M10.8345 3V2" stroke="black" stroke-width="1.5" stroke-linecap="round"/>
</svg>
