<svg width="16" height="16" viewBox="0 0 16 16" fill="none" xmlns="http://www.w3.org/2000/svg">
<path fill-rule="evenodd" clip-rule="evenodd" d="M2.01647 5.75C2.04459 5.02643 2.12075 4.54278 2.32698 4.13803C2.6146 3.57354 3.07354 3.1146 3.63803 2.82698C4.27976 2.5 5.11984 2.5 6.8 2.5H9.2C10.8802 2.5 11.7202 2.5 12.362 2.82698C12.9265 3.1146 13.3854 3.57354 13.673 4.13803C13.8793 4.54278 13.9554 5.02643 13.9835 5.75H2.01647ZM2.00051 6.75C2 6.92277 2 7.10577 2 7.3V9.2C2 10.8802 2 11.7202 2.32698 12.362C2.6146 12.9265 3.07354 13.3854 3.63803 13.673C4.27976 14 5.11984 14 6.8 14H9.2C10.8802 14 11.7202 14 12.362 13.673C12.9265 13.3854 13.3854 12.9265 13.673 12.362C14 11.7202 14 10.8802 14 9.2V7.3C14 7.10577 14 6.92277 13.9995 6.75H2.00051ZM10.1906 7.99313C10.4153 8.15364 10.4674 8.46591 10.3069 8.69062L7.80687 12.1906C7.72144 12.3102 7.58772 12.3862 7.44124 12.3983C7.29476 12.4104 7.15037 12.3575 7.04645 12.2536L5.54645 10.7536C5.35118 10.5583 5.35118 10.2417 5.54645 10.0464C5.74171 9.85119 6.05829 9.85119 6.25355 10.0464L7.3362 11.1291L9.49313 8.10938C9.65364 7.88468 9.96591 7.83263 10.1906 7.99313Z" fill="black"/>
<path d="M4.83453 3V2M10.8345 3V2" stroke="black" stroke-width="1.5" stroke-linecap="round"/>
</svg>
