<svg width="16" height="16" viewBox="0 0 16 16" fill="none" xmlns="http://www.w3.org/2000/svg">
<path d="M8 7.5V13.25M8 13.25L10.5 10.5M8 13.25L5.5 10.5" stroke="black" stroke-linecap="round" stroke-linejoin="round"/>
<path d="M0.750009 7.75C0.949924 8.21643 1.26884 8.72451 1.5345 9.11186C1.79652 9.49389 2.29636 9.61171 2.71615 9.4158L5.12133 8.29338C5.47618 8.12779 5.64391 7.71706 5.50641 7.3504L5.08473 6.22592C5.0312 6.08318 5.04605 5.92357 5.14766 5.80992C5.46036 5.46016 6.30409 4.75 7.99998 4.75C9.69587 4.75 10.5396 5.46015 10.8524 5.80992C10.954 5.92356 10.9688 6.08318 10.9153 6.22592L10.4936 7.3504C10.3561 7.71706 10.5238 8.12779 10.8787 8.29338L13.2839 9.41582C13.7037 9.61171 14.2035 9.49392 14.4655 9.1119C14.7312 8.72456 15.0501 8.21646 15.25 7.75C15.9999 6 13 2 7.99998 2C3 2 -4.60148e-05 6 0.750009 7.75Z" fill="black"/>
</svg>
