<svg width="16" height="16" viewBox="0 0 16 16" fill="none" xmlns="http://www.w3.org/2000/svg">
<path d="M7.5 8H13.25M13.25 8L10.5 5.5M13.25 8L10.5 10.5" stroke="black" stroke-linecap="round" stroke-linejoin="round"/>
<path d="M7.75 15.25C8.21643 15.0501 8.72451 14.7312 9.11186 14.4655C9.49389 14.2035 9.61171 13.7036 9.4158 13.2839L8.29338 10.8787C8.12779 10.5238 7.71706 10.3561 7.3504 10.4936L6.22592 10.9153C6.08318 10.9688 5.92357 10.9539 5.80992 10.8523C5.46016 10.5396 4.75 9.69591 4.75 8.00002C4.75 6.30413 5.46015 5.46037 5.80992 5.14765C5.92356 5.04604 6.08318 5.03118 6.22592 5.08471L7.3504 5.50639C7.71706 5.64389 8.12779 5.47616 8.29338 5.12131L9.41582 2.7161C9.61171 2.29632 9.49392 1.7965 9.1119 1.53448C8.72456 1.26881 8.21646 0.949882 7.75 0.74999C6 6.00815e-05 2 3.00003 2 8.00002C2 13 6 16 7.75 15.25Z" fill="black"/>
</svg>
