<svg width="16" height="16" viewBox="0 0 16 16" fill="none" xmlns="http://www.w3.org/2000/svg">
<g clip-path="url(#clip0_4637_1578)">
<path d="M9.5 2.5L13.5 6.5M13.5 2.5L9.5 6.5" stroke="black" stroke-linecap="round" stroke-linejoin="round"/>
<g clip-path="url(#clip1_4637_1578)">
<path d="M13.6139 12.6391C13.8024 12.1679 13.9361 11.5831 14.0222 11.1214C14.107 10.666 13.8369 10.2292 13.4016 10.0709L10.9072 9.16387C10.5392 9.03005 10.1301 9.20187 9.96809 9.55836L9.47113 10.6517C9.40805 10.7905 9.28468 10.8928 9.13248 10.9013C8.66404 10.9275 7.56528 10.8331 6.3661 9.63391C5.16693 8.43473 5.07245 7.33595 5.09865 6.8675C5.10716 6.71529 5.20952 6.59192 5.34831 6.52884L6.44161 6.03188C6.7981 5.86984 6.96992 5.46081 6.8361 5.0928L5.92904 2.59838C5.77073 2.16303 5.33401 1.8929 4.87861 1.97776C4.41686 2.06379 3.83206 2.19755 3.36088 2.38604C1.59316 3.0932 0.886037 8.04293 4.42156 11.5784C7.95708 15.114 12.9069 14.4069 13.6139 12.6391Z" fill="black"/>
</g>
</g>
<defs>
<clipPath id="clip0_4637_1578">
<rect width="16" height="16" fill="white"/>
</clipPath>
<clipPath id="clip1_4637_1578">
<rect width="16" height="16" fill="white" transform="translate(7.25 20.0637) rotate(-135)"/>
</clipPath>
</defs>
</svg>
