<svg width="16" height="16" viewBox="0 0 16 16" fill="none" xmlns="http://www.w3.org/2000/svg">
<path fill-rule="evenodd" clip-rule="evenodd" d="M5.09611 3.26012L4.80503 3.86557C4.14794 3.91789 3.70139 4.00805 3.31989 4.21493C2.78168 4.50679 2.3341 4.97109 2.06216 5.51963C1.75 6.14931 1.75 6.95184 1.75 8.55691V9.19314C1.75 10.7982 1.75 11.6007 2.06216 12.2304C2.3341 12.779 2.78168 13.2433 3.31989 13.5351C3.93771 13.8701 4.72615 13.8991 6.30303 13.9569C7.00309 13.9826 7.61898 14 8 14C8.38102 14 8.99691 13.9826 9.69697 13.9569C11.2739 13.8991 12.0623 13.8701 12.6801 13.5351C13.2183 13.2433 13.6659 12.779 13.9378 12.2304C14.25 11.6007 14.25 10.7982 14.25 9.19314V8.55691C14.25 6.95184 14.25 6.14931 13.9378 5.51963C13.6659 4.97109 13.2183 4.50679 12.6801 4.21493C12.2986 4.00805 11.8521 3.91789 11.195 3.86557L10.9039 3.26012C10.6668 2.76687 10.5482 2.52025 10.3679 2.33985C10.2086 2.18034 10.0153 2.05881 9.8025 1.9843C9.56181 1.90002 9.28817 1.90002 8.74089 1.90002H7.25911C6.71183 1.90002 6.43819 1.90002 6.1975 1.9843C5.98469 2.05881 5.79142 2.18034 5.63205 2.33985C5.45181 2.52025 5.33325 2.76687 5.09611 3.26011L5.09611 3.26012L5.09611 3.26012ZM10 8.75002C10 9.85459 9.10457 10.75 8 10.75C6.89543 10.75 6 9.85459 6 8.75002C6 7.64545 6.89543 6.75002 8 6.75002C9.10457 6.75002 10 7.64545 10 8.75002ZM11 8.75002C11 10.4069 9.65685 11.75 8 11.75C6.34315 11.75 5 10.4069 5 8.75002C5 7.09317 6.34315 5.75002 8 5.75002C9.65685 5.75002 11 7.09317 11 8.75002Z" fill="black"/>
</svg>
