<svg width="16" height="16" viewBox="0 0 16 16" fill="none" xmlns="http://www.w3.org/2000/svg">
<mask id="path-1-inside-1_5592_1129" fill="white">
<path fill-rule="evenodd" clip-rule="evenodd" d="M2.21916 7.50347L6.8789 2.26127C7.47558 1.58999 8.52444 1.58999 9.12112 2.26127L13.7809 7.50347C14.6407 8.47082 13.954 10 12.6597 10H11V10.4C11 10.9601 11 11.2401 10.891 11.454C10.7951 11.6422 10.6422 11.7951 10.454 11.891C10.2401 12 9.96006 12 9.40001 12H6.60001C6.03996 12 5.75993 12 5.54602 11.891C5.35786 11.7951 5.20488 11.6422 5.109 11.454C5.00001 11.2401 5.00001 10.9601 5.00001 10.4V10H3.34027C2.046 10 1.35929 8.47082 2.21916 7.50347Z"/>
</mask>
<path d="M6.8789 2.26127L7.6263 2.92563V2.92563L6.8789 2.26127ZM2.21916 7.50347L2.96657 8.16783H2.96657L2.21916 7.50347ZM9.12112 2.26127L8.37371 2.92563V2.92563L9.12112 2.26127ZM13.7809 7.50347L13.0334 8.16783L13.0334 8.16783L13.7809 7.50347ZM11 10V9.00001H10V10H11ZM10.891 11.454L11.782 11.908L11.782 11.908L10.891 11.454ZM10.454 11.891L10 11L10 11L10.454 11.891ZM5.54602 11.891L6.00001 11L6.00001 11L5.54602 11.891ZM5.109 11.454L4.218 11.908L4.218 11.908L5.109 11.454ZM5.00001 10H6.00001V9.00001H5.00001V10ZM6.13149 1.5969L1.47175 6.8391L2.96657 8.16783L7.6263 2.92563L6.13149 1.5969ZM9.86853 1.5969C8.87405 0.478116 7.12596 0.478115 6.13149 1.5969L7.6263 2.92563C7.8252 2.70187 8.17482 2.70187 8.37371 2.92563L9.86853 1.5969ZM14.5283 6.8391L9.86853 1.5969L8.37371 2.92563L13.0334 8.16783L14.5283 6.8391ZM12.6597 11C14.8169 11 15.9614 8.45136 14.5283 6.8391L13.0334 8.16783C13.3201 8.49028 13.0912 9.00001 12.6597 9.00001V11ZM11 11H12.6597V9.00001H11V11ZM10 10V10.4H12V10H10ZM10 10.4C10 10.6965 9.99923 10.8588 9.98971 10.9754C9.98113 11.0803 9.97071 11.0575 10 11L11.782 11.908C11.9203 11.6366 11.9644 11.3668 11.9831 11.1382C12.0008 10.9213 12 10.6635 12 10.4H10ZM10 11V11L10.908 12.782C11.2843 12.5903 11.5903 12.2843 11.782 11.908L10 11ZM10 11C10.0575 10.9707 10.0803 10.9811 9.97538 10.9897C9.85879 10.9992 9.69654 11 9.40001 11V13C9.66353 13 9.92132 13.0008 10.1382 12.9831C10.3668 12.9644 10.6366 12.9203 10.908 12.782L10 11ZM9.40001 11H6.60001V13H9.40001V11ZM6.60001 11C6.30348 11 6.14123 10.9992 6.02464 10.9897C5.91973 10.9811 5.9425 10.9707 6.00001 11L5.09203 12.782C5.36345 12.9203 5.63319 12.9644 5.86178 12.9831C6.0787 13.0008 6.33648 13 6.60001 13V11ZM6.00001 11L6.00001 11L4.218 11.908C4.40974 12.2843 4.7157 12.5903 5.09203 12.782L6.00001 11ZM6.00001 11C6.02931 11.0575 6.01888 11.0803 6.01031 10.9754C6.00079 10.8588 6.00001 10.6965 6.00001 10.4H4.00001C4.00001 10.6635 3.99923 10.9213 4.01695 11.1382C4.03563 11.3668 4.0797 11.6366 4.218 11.908L6.00001 11ZM6.00001 10.4V10H4.00001V10.4H6.00001ZM3.34027 11H5.00001V9.00001H3.34027V11ZM1.47175 6.8391C0.0386373 8.45136 1.18315 11 3.34027 11V9.00001C2.90885 9.00001 2.67995 8.49028 2.96657 8.16783L1.47175 6.8391Z" fill="black" mask="url(#path-1-inside-1_5592_1129)"/>
<path d="M5.5 13.5H10.5" stroke="black" stroke-linecap="round"/>
</svg>
