<svg width="16" height="16" viewBox="0 0 16 16" fill="none" xmlns="http://www.w3.org/2000/svg">
<path d="M5 8C5 7.06812 5 6.60218 5.15224 6.23463C5.35523 5.74458 5.74458 5.35523 6.23463 5.15224C6.60218 5 7.06812 5 8 5C8.93188 5 9.39782 5 9.76537 5.15224C10.2554 5.35523 10.6448 5.74458 10.8478 6.23463C11 6.60218 11 7.06812 11 8V10.4C11 10.9601 11 11.2401 10.891 11.454C10.7951 11.6422 10.6422 11.7951 10.454 11.891C10.2401 12 9.96005 12 9.4 12H6.6C6.03995 12 5.75992 12 5.54601 11.891C5.35785 11.7951 5.20487 11.6422 5.10899 11.454C5 11.2401 5 10.9601 5 10.4V8Z" fill="black"/>
<path d="M6.87889 2.26125L2.21915 7.50345C1.35928 8.47081 2.04599 10 3.34027 10H12.6597C13.954 10 14.6407 8.47081 13.7808 7.50345L9.12111 2.26125C8.52443 1.58998 7.47557 1.58998 6.87889 2.26125Z" fill="black"/>
<path d="M5.5 13.5H10.5" stroke="black" stroke-linecap="round"/>
</svg>
