<svg width="16" height="16" viewBox="0 0 16 16" fill="none" xmlns="http://www.w3.org/2000/svg">
<path fill-rule="evenodd" clip-rule="evenodd" d="M1.82698 4.13803C1.5 4.77976 1.5 5.61984 1.5 7.3V8.7C1.5 10.3802 1.5 11.2202 1.82698 11.862C2.1146 12.4265 2.57354 12.8854 3.13803 13.173C3.77976 13.5 4.61984 13.5 6.3 13.5H9.7C11.3802 13.5 12.2202 13.5 12.862 13.173C13.4265 12.8854 13.8854 12.4265 14.173 11.862C14.5 11.2202 14.5 10.3802 14.5 8.7V7.3C14.5 5.61984 14.5 4.77976 14.173 4.13803C13.8854 3.57354 13.4265 3.1146 12.862 2.82698C12.2202 2.5 11.3802 2.5 9.7 2.5H6.3C4.61984 2.5 3.77976 2.5 3.13803 2.82698C2.57354 3.1146 2.1146 3.57354 1.82698 4.13803ZM4.41508 10.1977C4.76402 10.3992 5.15956 10.5 5.60169 10.5C5.88561 10.5 6.14785 10.4588 6.38843 10.3765C6.63117 10.2919 6.84681 10.1717 7.03537 10.0156C7.22393 9.85956 7.37781 9.67208 7.49701 9.45319C7.61621 9.23429 7.69532 8.99046 7.73433 8.72172H6.72653C6.69402 8.86259 6.64525 8.9883 6.58023 9.09883C6.51521 9.20936 6.43502 9.30364 6.33966 9.38166C6.2443 9.45969 6.13593 9.51821 6.01456 9.55722C5.89319 9.59623 5.7599 9.61573 5.61469 9.61573C5.33945 9.61573 5.10429 9.54963 4.90923 9.41743C4.71417 9.28522 4.56463 9.09883 4.4606 8.85826C4.35873 8.61769 4.3078 8.33268 4.3078 8.00325C4.3078 7.67165 4.35982 7.38557 4.46385 7.14499C4.56788 6.90225 4.71634 6.71478 4.90923 6.58257C5.10429 6.45037 5.33945 6.38427 5.61469 6.38427C5.7599 6.38427 5.89319 6.40485 6.01456 6.44603C6.1381 6.48505 6.24755 6.54356 6.34291 6.62159C6.43827 6.69744 6.51847 6.79172 6.58349 6.90442C6.6485 7.01495 6.6951 7.14174 6.72328 7.28479H7.73433C7.69532 7.01387 7.61621 6.76896 7.49701 6.55007C7.37781 6.33117 7.22393 6.14369 7.03537 5.98765C6.84898 5.8316 6.63442 5.71131 6.39168 5.62679C6.14894 5.54226 5.88561 5.5 5.60169 5.5C5.15956 5.5 4.76402 5.60078 4.41508 5.80234C4.06831 6.0039 3.79523 6.29215 3.59584 6.6671C3.39861 7.04205 3.3 7.48743 3.3 8.00325C3.3 8.51474 3.39861 8.95795 3.59584 9.3329C3.79523 9.70568 4.06831 9.99393 4.41508 10.1977ZM9.25254 10.1977C9.60147 10.3992 9.99701 10.5 10.4391 10.5C10.7231 10.5 10.9853 10.4588 11.2259 10.3765C11.4686 10.2919 11.6843 10.1717 11.8728 10.0156C12.0614 9.85956 12.2153 9.67208 12.3345 9.45319C12.4537 9.23429 12.5328 8.99046 12.5718 8.72172H11.564C11.5315 8.86259 11.4827 8.9883 11.4177 9.09883C11.3527 9.20936 11.2725 9.30364 11.1771 9.38166C11.0818 9.45969 10.9734 9.51821 10.852 9.55722C10.7306 9.59623 10.5974 9.61573 10.4521 9.61573C10.1769 9.61573 9.94174 9.54963 9.74668 9.41743C9.55163 9.28522 9.40208 9.09883 9.29805 8.85826C9.19619 8.61769 9.14525 8.33268 9.14525 8.00325C9.14525 7.67165 9.19727 7.38557 9.3013 7.14499C9.40533 6.90225 9.55379 6.71478 9.74668 6.58257C9.94174 6.45037 10.1769 6.38427 10.4521 6.38427C10.5974 6.38427 10.7306 6.40485 10.852 6.44603C10.9756 6.48505 11.085 6.54356 11.1804 6.62159C11.2757 6.69744 11.3559 6.79172 11.4209 6.90442C11.486 7.01495 11.5326 7.14174 11.5607 7.28479H12.5718C12.5328 7.01387 12.4537 6.76896 12.3345 6.55007C12.2153 6.33117 12.0614 6.14369 11.8728 5.98765C11.6864 5.8316 11.4719 5.71131 11.2291 5.62679C10.9864 5.54226 10.7231 5.5 10.4391 5.5C9.99701 5.5 9.60147 5.60078 9.25254 5.80234C8.90577 6.0039 8.63268 6.29215 8.43329 6.6671C8.23606 7.04205 8.13745 7.48743 8.13745 8.00325C8.13745 8.51474 8.23606 8.95795 8.43329 9.3329C8.63268 9.70568 8.90577 9.99393 9.25254 10.1977Z" fill="black"/>
</svg>
