<svg width="16" height="16" viewBox="0 0 16 16" fill="none" xmlns="http://www.w3.org/2000/svg">
<path fill-rule="evenodd" clip-rule="evenodd" d="M1.5 7.3C1.5 5.61984 1.5 4.77976 1.82698 4.13803C2.1146 3.57354 2.57354 3.1146 3.13803 2.82698C3.77976 2.5 4.61984 2.5 6.3 2.5H9.7C11.3802 2.5 12.2202 2.5 12.862 2.82698C13.4265 3.1146 13.8854 3.57354 14.173 4.13803C14.5 4.77976 14.5 5.61984 14.5 7.3V8.7C14.5 10.3802 14.5 11.2202 14.173 11.862C13.8854 12.4265 13.4265 12.8854 12.862 13.173C12.2202 13.5 11.3802 13.5 9.7 13.5H6.3C4.61984 13.5 3.77976 13.5 3.13803 13.173C2.57354 12.8854 2.1146 12.4265 1.82698 11.862C1.5 11.2202 1.5 10.3802 1.5 8.7V7.3ZM4.61829 5.6903C5.07511 5.50108 5.57777 5.45157 6.06273 5.54804C6.54768 5.6445 6.99314 5.8826 7.34277 6.23223C7.53803 6.4275 7.53803 6.74408 7.34277 6.93934C7.1475 7.1346 6.83092 7.1346 6.63566 6.93934C6.42588 6.72956 6.15861 6.5867 5.86764 6.52882C5.57666 6.47094 5.27506 6.50065 5.00097 6.61418C4.72689 6.72771 4.49262 6.91997 4.3278 7.16665C4.16297 7.41332 4.075 7.70333 4.075 8C4.075 8.29667 4.16297 8.58668 4.3278 8.83336C4.49262 9.08003 4.72689 9.27229 5.00098 9.38582C5.27506 9.49935 5.57666 9.52906 5.86764 9.47118C6.15861 9.4133 6.42588 9.27044 6.63566 9.06066C6.83092 8.8654 7.1475 8.8654 7.34277 9.06066C7.53803 9.25592 7.53803 9.5725 7.34277 9.76777C6.99314 10.1174 6.54768 10.3555 6.06273 10.452C5.57777 10.5484 5.07511 10.4989 4.61829 10.3097C4.16148 10.1205 3.77103 9.80005 3.49633 9.38893C3.22162 8.9778 3.075 8.49445 3.075 8C3.075 7.50555 3.22162 7.0222 3.49633 6.61107C3.77103 6.19995 4.16148 5.87952 4.61829 5.6903ZM11.0627 5.54804C10.5778 5.45157 10.0751 5.50108 9.61829 5.6903C9.16148 5.87952 8.77103 6.19995 8.49633 6.61107C8.22162 7.0222 8.075 7.50555 8.075 8C8.075 8.49445 8.22162 8.9778 8.49633 9.38893C8.77103 9.80005 9.16148 10.1205 9.61829 10.3097C10.0751 10.4989 10.5778 10.5484 11.0627 10.452C11.5477 10.3555 11.9931 10.1174 12.3428 9.76777C12.538 9.5725 12.538 9.25592 12.3428 9.06066C12.1475 8.8654 11.8309 8.8654 11.6357 9.06066C11.4259 9.27044 11.1586 9.4133 10.8676 9.47118C10.5767 9.52906 10.2751 9.49935 10.001 9.38582C9.72689 9.27229 9.49262 9.08003 9.3278 8.83336C9.16297 8.58668 9.075 8.29667 9.075 8C9.075 7.70333 9.16297 7.41332 9.3278 7.16665C9.49262 6.91997 9.72688 6.72771 10.001 6.61418C10.2751 6.50065 10.5767 6.47094 10.8676 6.52882C11.1586 6.5867 11.4259 6.72956 11.6357 6.93934C11.8309 7.1346 12.1475 7.1346 12.3428 6.93934C12.538 6.74408 12.538 6.4275 12.3428 6.23223C11.9931 5.8826 11.5477 5.6445 11.0627 5.54804Z" fill="black"/>
</svg>
