<svg width="16" height="16" viewBox="0 0 16 16" fill="none" xmlns="http://www.w3.org/2000/svg">
<path fill-rule="evenodd" clip-rule="evenodd" d="M3.7698 6H12.2302L12.0339 5.01854C11.9394 4.54593 11.8785 4.24484 11.8151 4.01698C11.755 3.80126 11.7102 3.72032 11.6804 3.67761C11.5749 3.5265 11.4297 3.40748 11.2609 3.33369C11.2131 3.31283 11.125 3.28477 10.9017 3.26817C10.6658 3.25064 10.3586 3.25 9.87663 3.25H6.12337C5.6414 3.25 5.33422 3.25064 5.09834 3.26817C4.87503 3.28477 4.78688 3.31283 4.73915 3.33369C4.57029 3.40748 4.42511 3.5265 4.31963 3.67761C4.28981 3.72032 4.24501 3.80126 4.18494 4.01698C4.12149 4.24484 4.06062 4.54593 3.96609 5.01855L3.7698 6ZM13.3 6.25L13.3241 6.37037L14.0077 7.15169C14.4862 7.69857 14.75 8.40054 14.75 9.12721V10.5292C14.75 10.8885 14.5577 11.211 14.25 11.3631V12.25C14.25 12.4823 14.25 12.5985 14.2308 12.6951C14.1519 13.0918 13.8418 13.4019 13.4451 13.4808C13.3485 13.5 13.2323 13.5 13 13.5C12.7677 13.5 12.6515 13.5 12.5549 13.4808C12.1582 13.4019 11.8481 13.0918 11.7692 12.6951C11.75 12.5985 11.75 12.4823 11.75 12.25V11.8056C10.75 11.9167 9.50001 12 8.00003 12C6.50002 12 5.25001 11.9167 4.25 11.8056V12.25C4.25 12.4823 4.25 12.5985 4.23079 12.6951C4.15188 13.0918 3.84178 13.4019 3.44509 13.4808C3.34849 13.5 3.23233 13.5 3 13.5C2.76767 13.5 2.65151 13.5 2.55491 13.4808C2.15822 13.4019 1.84812 13.0918 1.76921 12.6951C1.75 12.5985 1.75 12.4823 1.75 12.25V11.3631C1.44228 11.211 1.25 10.8885 1.25 10.5292V9.12721C1.25 8.40054 1.51375 7.69857 1.99227 7.15169L2.67593 6.37037L2.7 6.25L2.98551 4.82243C3.16878 3.9061 3.26041 3.44793 3.49964 3.10522C3.7106 2.80301 4.00097 2.56497 4.33869 2.41737C4.72166 2.25 5.1889 2.25 6.12337 2.25H9.87663C10.8111 2.25 11.2783 2.25 11.6613 2.41737C11.999 2.56497 12.2894 2.80301 12.5004 3.10522C12.7396 3.44793 12.8312 3.9061 13.0145 4.82243L13.3 6.25ZM4 10C4.55228 10 5 9.55228 5 9C5 8.44772 4.55228 8 4 8C3.44772 8 3 8.44772 3 9C3 9.55228 3.44772 10 4 10ZM13 9C13 9.55228 12.5523 10 12 10C11.4477 10 11 9.55228 11 9C11 8.44772 11.4477 8 12 8C12.5523 8 13 8.44772 13 9ZM6.5 8.5C6.22386 8.5 6 8.72386 6 9C6 9.27614 6.22386 9.5 6.5 9.5H9.5C9.77614 9.5 10 9.27614 10 9C10 8.72386 9.77614 8.5 9.5 8.5H6.5Z" fill="black"/>
</svg>
