<svg width="16" height="16" viewBox="0 0 16 16" fill="none" xmlns="http://www.w3.org/2000/svg">
<path fill-rule="evenodd" clip-rule="evenodd" d="M5.43712 4.46763L4.15143 4.69433C3.04834 4.88884 2.4968 4.98609 2.11333 5.27506C1.77602 5.52924 1.52783 5.88368 1.40435 6.28758C1.26396 6.74676 1.36121 7.29831 1.55572 8.40139L2.09403 11.4543C2.28853 12.5574 2.38578 13.1089 2.67475 13.4924C2.92893 13.8297 3.28337 14.0779 3.68728 14.2014C4.14645 14.3418 4.698 14.2445 5.80109 14.05L7.37678 13.7722C8.47987 13.5777 9.03141 13.4804 9.41488 13.1914C9.67688 12.994 9.88509 12.7361 10.0229 12.4415C10.0026 12.4379 9.98217 12.4343 9.96165 12.4307L9.96161 12.4307L9.92367 12.424L8.34798 12.1462L8.31004 12.1395L8.31002 12.1395C7.79088 12.048 7.34302 11.969 6.97945 11.8738C6.59572 11.7734 6.22086 11.6349 5.88171 11.3793C5.37574 10.998 5.00347 10.4664 4.81824 9.8605C4.69408 9.45439 4.69213 9.05476 4.72897 8.65981C4.76387 8.28562 4.84285 7.83777 4.93441 7.31864L4.93441 7.31863L4.94111 7.28067L5.43712 4.46763ZM6.48443 4.28687C7.11105 4.18747 7.50126 4.16128 7.84093 4.26513C8.24483 4.38861 8.59928 4.63679 8.85346 4.97411C9.14242 5.35758 9.23968 5.90912 9.43418 7.01221L9.97249 10.0651C10.0787 10.6677 10.156 11.1057 10.1813 11.454C10.1537 11.4492 10.1257 11.4442 10.0973 11.4392L8.52162 11.1614C7.41854 10.9669 6.86699 10.8696 6.48352 10.5807C6.14621 10.3265 5.89803 9.97203 5.77454 9.56813C5.63416 9.10895 5.73141 8.55741 5.92591 7.45432L6.46422 4.40141C6.47108 4.36255 6.47781 4.32438 6.48443 4.28687Z" fill="black"/>
<rect x="7.0199" y="1.25" width="8" height="9.5" rx="2" transform="rotate(10 7.0199 1.25)" fill="black"/>
</svg>
