<svg width="16" height="16" viewBox="0 0 16 16" fill="none" xmlns="http://www.w3.org/2000/svg">
<path fill-rule="evenodd" clip-rule="evenodd" d="M6 2.5H5.75C4.34987 2.5 3.6498 2.5 3.11502 2.77248C2.64462 3.01217 2.26217 3.39462 2.02248 3.86502C1.75 4.3998 1.75 5.09987 1.75 6.5H3.65035C3.55377 6.28653 3.5 6.04955 3.5 5.80001C3.5 4.86112 4.26112 4.10001 5.2 4.10001H5.25C5.5184 4.10001 5.77269 4.16043 6 4.26841V2.5ZM7 5.85001V6.5H7.80298C8.18821 6.4984 8.5 6.18561 8.5 5.80001C8.5 5.41341 8.1866 5.10001 7.8 5.10001H7.75C7.33579 5.10001 7 5.43579 7 5.85001ZM9.34965 6.5C9.44623 6.28653 9.5 6.04955 9.5 5.80001C9.5 4.86112 8.73888 4.10001 7.8 4.10001H7.75C7.4816 4.10001 7.22731 4.16043 7 4.26841V2.5H10.25C11.6501 2.5 12.3502 2.5 12.885 2.77248C13.3554 3.01217 13.7378 3.39462 13.9775 3.86502C14.25 4.3998 14.25 5.09987 14.25 6.5H9.34965ZM7 8.62377C7.44999 9.15047 8.0751 9.71875 8.84189 9.97434C9.10386 10.0617 9.38702 9.92009 9.47434 9.65811C9.56167 9.39614 9.42009 9.11298 9.15811 9.02566C8.55069 8.82318 8.0013 8.2944 7.58218 7.75553C7.51426 7.6682 7.45111 7.58238 7.39305 7.50001H7.8C7.80155 7.50001 7.80309 7.5 7.80464 7.5H14.25V9.5C14.25 10.9001 14.25 11.6002 13.9775 12.135C13.7378 12.6054 13.3554 12.9878 12.885 13.2275C12.3502 13.5 11.6501 13.5 10.25 13.5H7V8.62377ZM5.19536 7.5C5.19691 7.5 5.19845 7.50001 5.2 7.50001H5.60695C5.54889 7.58238 5.48574 7.6682 5.41782 7.75553C4.9987 8.2944 4.44931 8.82318 3.84189 9.02566C3.57991 9.11298 3.43833 9.39614 3.52566 9.65811C3.61298 9.92009 3.89614 10.0617 4.15811 9.97434C4.9249 9.71875 5.55001 9.15047 6 8.62377V13.5H5.75C4.34987 13.5 3.6498 13.5 3.11502 13.2275C2.64462 12.9878 2.26217 12.6054 2.02248 12.135C1.75 11.6002 1.75 10.9001 1.75 9.5V7.5H5.19536ZM6 5.85001C6 5.43579 5.66421 5.10001 5.25 5.10001H5.2C4.8134 5.10001 4.5 5.41341 4.5 5.80001C4.5 6.18561 4.81179 6.4984 5.19702 6.5H6V5.85001Z" fill="black"/>
</svg>
