<svg width="16" height="16" viewBox="0 0 16 16" fill="none" xmlns="http://www.w3.org/2000/svg">
<path fill-rule="evenodd" clip-rule="evenodd" d="M1.5 7.3C1.5 5.61984 1.5 4.77976 1.82698 4.13803C2.1146 3.57354 2.57354 3.1146 3.13803 2.82698C3.77976 2.5 4.61984 2.5 6.3 2.5H9.7C11.3802 2.5 12.2202 2.5 12.862 2.82698C13.4265 3.1146 13.8854 3.57354 14.173 4.13803C14.5 4.77976 14.5 5.61984 14.5 7.3V8.7C14.5 10.3802 14.5 11.2202 14.173 11.862C13.8854 12.4265 13.4265 12.8854 12.862 13.173C12.2202 13.5 11.3802 13.5 9.7 13.5H6.3C4.61984 13.5 3.77976 13.5 3.13803 13.173C2.57354 12.8854 2.1146 12.4265 1.82698 11.862C1.5 11.2202 1.5 10.3802 1.5 8.7V7.3ZM5.5 8C6.32843 8 7 7.32843 7 6.5C7 5.67157 6.32843 5 5.5 5C4.67157 5 4 5.67157 4 6.5C4 7.32843 4.67157 8 5.5 8ZM8 10.3841C8 10.7243 7.72427 11 7.38415 11H3.61585C3.27573 11 3 10.7243 3 10.3841C3 10.2396 3.0139 10.0946 3.06709 9.96011C3.24361 9.51393 3.82863 8.5 5.5 8.5C7.17137 8.5 7.75639 9.51393 7.93291 9.96011C7.9861 10.0946 8 10.2396 8 10.3841ZM9.5 5.5C9.22386 5.5 9 5.72386 9 6C9 6.27614 9.22386 6.5 9.5 6.5H12.5C12.7761 6.5 13 6.27614 13 6C13 5.72386 12.7761 5.5 12.5 5.5H9.5ZM9.5 7.5C9.22386 7.5 9 7.72386 9 8C9 8.27614 9.22386 8.5 9.5 8.5H12.5C12.7761 8.5 13 8.27614 13 8C13 7.72386 12.7761 7.5 12.5 7.5H9.5ZM9.5 9.5C9.22386 9.5 9 9.72386 9 10C9 10.2761 9.22386 10.5 9.5 10.5H12.5C12.7761 10.5 13 10.2761 13 10C13 9.72386 12.7761 9.5 12.5 9.5H9.5Z" fill="black"/>
</svg>
