<svg width="16" height="16" viewBox="0 0 16 16" fill="none" xmlns="http://www.w3.org/2000/svg">
<path fill-rule="evenodd" clip-rule="evenodd" d="M2.5 6.33609V9.2C2.5 10.8802 2.5 11.7202 2.82698 12.362C3.1146 12.9265 3.57354 13.3854 4.13803 13.673C4.77976 14 5.61984 14 7.3 14H8.7C10.3802 14 11.2202 14 11.862 13.673C12.4265 13.3854 12.8854 12.9265 13.173 12.362C13.5 11.7202 13.5 10.8802 13.5 9.2V8.63774C13.5 7.85058 13.5 7.457 13.4057 7.08982C13.3221 6.7644 13.1845 6.45534 12.9985 6.17552C12.7887 5.8598 12.4961 5.59651 11.911 5.06993L9.73678 3.1131L9.73677 3.1131L9.73676 3.11309C9.36115 2.77503 9.17334 2.606 8.96676 2.4737C8.6233 2.25374 8.23861 2.10611 7.83617 2.03986C7.59411 2 7.34144 2 6.83609 2C5.59196 2 4.9699 2 4.47191 2.18166C3.64025 2.48504 2.98504 3.14025 2.68166 3.97191C2.5 4.4699 2.5 5.09196 2.5 6.33609ZM5.375 9.5C5.375 8.87868 5.87868 8.375 6.5 8.375H7.625V9.625H5.375V9.5ZM8.375 10V8.375H9.5C10.1213 8.375 10.625 8.87868 10.625 9.5V10.5C10.625 11.1213 10.1213 11.625 9.5 11.625H8.375V10ZM7.625 10.375V11.625H6.5C5.87868 11.625 5.375 11.1213 5.375 10.5V10.375H7.625ZM6.5 7.625C5.46447 7.625 4.625 8.46447 4.625 9.5V10V10.5C4.625 11.5355 5.46447 12.375 6.5 12.375H8H9.5C10.5355 12.375 11.375 11.5355 11.375 10.5V9.5C11.375 8.46447 10.5355 7.625 9.5 7.625H8H6.5Z" fill="black"/>
</svg>
