<svg width="16" height="16" viewBox="0 0 16 16" fill="none" xmlns="http://www.w3.org/2000/svg">
<path fill-rule="evenodd" clip-rule="evenodd" d="M7.3 14H8.7C10.3802 14 11.2202 14 11.862 13.673C12.4265 13.3854 12.8854 12.9265 13.173 12.362C13.5 11.7202 13.5 10.8802 13.5 9.2V6.33609C13.5 5.09196 13.5 4.4699 13.3183 3.97191C13.015 3.14025 12.3598 2.48504 11.5281 2.18166C11.0301 2 10.408 2 9.16391 2C8.65856 2 8.40589 2 8.16383 2.03986C7.76139 2.10611 7.3767 2.25374 7.03324 2.4737C6.82666 2.606 6.63885 2.77503 6.26324 3.11309L6.26323 3.1131L6.26322 3.1131L4.08897 5.06993C3.50388 5.59651 3.21133 5.8598 3.0015 6.17552C2.81552 6.45534 2.67788 6.7644 2.5943 7.08982C2.5 7.457 2.5 7.85058 2.5 8.63774V9.2C2.5 10.8802 2.5 11.7202 2.82698 12.362C3.1146 12.9265 3.57354 13.3854 4.13803 13.673C4.77976 14 5.61984 14 7.3 14ZM7.625 4.5C7.625 4.29289 7.45711 4.125 7.25 4.125C7.04289 4.125 6.875 4.29289 6.875 4.5V6.5C6.875 6.70711 7.04289 6.875 7.25 6.875C7.45711 6.875 7.625 6.70711 7.625 6.5V4.5ZM8.875 4.5C8.875 4.29289 8.70711 4.125 8.5 4.125C8.29289 4.125 8.125 4.29289 8.125 4.5V6.5C8.125 6.70711 8.29289 6.875 8.5 6.875C8.70711 6.875 8.875 6.70711 8.875 6.5V4.5ZM10.125 4.5C10.125 4.29289 9.95711 4.125 9.75 4.125C9.54289 4.125 9.375 4.29289 9.375 4.5V6.5C9.375 6.70711 9.54289 6.875 9.75 6.875C9.95711 6.875 10.125 6.70711 10.125 6.5V4.5ZM11.375 4.5C11.375 4.29289 11.2071 4.125 11 4.125C10.7929 4.125 10.625 4.29289 10.625 4.5V6.5C10.625 6.70711 10.7929 6.875 11 6.875C11.2071 6.875 11.375 6.70711 11.375 6.5V4.5Z" fill="black"/>
</svg>
