<svg width="16" height="16" viewBox="0 0 16 16" fill="none" xmlns="http://www.w3.org/2000/svg">
<path fill-rule="evenodd" clip-rule="evenodd" d="M14.226 5H1.77399C1.80392 4.50973 1.87121 4.16191 2.02248 3.86502C2.26217 3.39462 2.64462 3.01217 3.11502 2.77248C3.6498 2.5 4.34987 2.5 5.75 2.5H10.25C11.6501 2.5 12.3502 2.5 12.885 2.77248C13.3554 3.01217 13.7378 3.39462 13.9775 3.86502C14.1288 4.16191 14.1961 4.50973 14.226 5ZM1.75 6.5H14.25V9.5C14.25 10.9001 14.25 11.6002 13.9775 12.135C13.7378 12.6054 13.3554 12.9878 12.885 13.2275C12.3502 13.5 11.6501 13.5 10.25 13.5H5.75C4.34987 13.5 3.6498 13.5 3.11502 13.2275C2.64462 12.9878 2.26217 12.6054 2.02248 12.135C1.75 11.6002 1.75 10.9001 1.75 9.5V6.5ZM4 9C3.72386 9 3.5 9.22386 3.5 9.5C3.5 9.77614 3.72386 10 4 10H7.5C7.77614 10 8 9.77614 8 9.5C8 9.22386 7.77614 9 7.5 9H4ZM4 10.5C3.72386 10.5 3.5 10.7239 3.5 11C3.5 11.2761 3.72386 11.5 4 11.5H6C6.27614 11.5 6.5 11.2761 6.5 11C6.5 10.7239 6.27614 10.5 6 10.5H4Z" fill="black"/>
</svg>
