<svg width="16" height="16" viewBox="0 0 16 16" fill="none" xmlns="http://www.w3.org/2000/svg">
<path d="M4.25 9.5L2.75 3H11.7331C12.7637 3 13.279 3 13.6347 3.21288C13.9466 3.39951 14.1801 3.69303 14.2918 4.03887C14.4192 4.43335 14.3034 4.93545 14.0716 5.93966L13.6793 7.63966C13.526 8.30389 13.4494 8.636 13.2688 8.88371C13.1095 9.10223 12.894 9.27361 12.6453 9.37972C12.3633 9.5 12.0225 9.5 11.3408 9.5H4.25Z" fill="black"/>
<path d="M1.75 2.5H2.23101C2.6844 2.5 3.08105 2.80502 3.19748 3.2432L3.93 6M5.25 7.5L3.77512 9.26986C3.36804 9.75836 3.7154 10.5 4.35128 10.5H12.75" stroke="black" stroke-linecap="round" stroke-linejoin="round"/>
<circle cx="5" cy="12.75" r="1.25" fill="black"/>
<circle cx="12" cy="12.75" r="1.25" fill="black"/>
</svg>
