<svg width="16" height="16" viewBox="0 0 16 16" fill="none" xmlns="http://www.w3.org/2000/svg">
<path fill-rule="evenodd" clip-rule="evenodd" d="M2.32698 3.63803C2 4.27976 2 5.11984 2 6.8V9.2C2 10.8802 2 11.7202 2.32698 12.362C2.6146 12.9265 3.07354 13.3854 3.63803 13.673C4.27976 14 5.11984 14 6.8 14H9.2C10.8802 14 11.7202 14 12.362 13.673C12.9265 13.3854 13.3854 12.9265 13.673 12.362C14 11.7202 14 10.8802 14 9.2V6.8C14 5.11984 14 4.27976 13.673 3.63803C13.3854 3.07354 12.9265 2.6146 12.362 2.32698C11.7202 2 10.8802 2 9.2 2H6.8C5.11984 2 4.27976 2 3.63803 2.32698C3.07354 2.6146 2.6146 3.07354 2.32698 3.63803ZM3.5 7.5625V4.625C3.5 4.27554 3.5 4.10082 3.55709 3.96299C3.63321 3.77922 3.77922 3.63321 3.96299 3.55709C4.10082 3.5 4.27554 3.5 4.625 3.5C4.97446 3.5 5.14918 3.5 5.28701 3.55709C5.47078 3.63321 5.61679 3.77922 5.69291 3.96299C5.75 4.10082 5.75 4.27554 5.75 4.625V7.5625C5.75 7.91196 5.75 8.08668 5.69291 8.22451C5.61679 8.40828 5.47078 8.55429 5.28701 8.63041C5.14918 8.6875 4.97446 8.6875 4.625 8.6875C4.27554 8.6875 4.10082 8.6875 3.96299 8.63041C3.77922 8.55429 3.63321 8.40828 3.55709 8.22451C3.5 8.08668 3.5 7.91196 3.5 7.5625ZM6.875 10.375V4.625C6.875 4.27554 6.875 4.10082 6.93209 3.96299C7.00821 3.77922 7.15422 3.63321 7.33799 3.55709C7.47582 3.5 7.65054 3.5 8 3.5C8.34946 3.5 8.52418 3.5 8.66201 3.55709C8.84578 3.63321 8.99179 3.77922 9.06791 3.96299C9.125 4.10082 9.125 4.27554 9.125 4.625V10.375C9.125 10.7245 9.125 10.8992 9.06791 11.037C8.99179 11.2208 8.84578 11.3668 8.66201 11.4429C8.52418 11.5 8.34946 11.5 8 11.5C7.65054 11.5 7.47582 11.5 7.33799 11.4429C7.15422 11.3668 7.00821 11.2208 6.93209 11.037C6.875 10.8992 6.875 10.7245 6.875 10.375ZM10.25 4.625V9.25C10.25 9.59946 10.25 9.77418 10.3071 9.91201C10.3832 10.0958 10.5292 10.2418 10.713 10.3179C10.8508 10.375 11.0255 10.375 11.375 10.375C11.7245 10.375 11.8992 10.375 12.037 10.3179C12.2208 10.2418 12.3668 10.0958 12.4429 9.91201C12.5 9.77418 12.5 9.59946 12.5 9.25V4.625C12.5 4.27554 12.5 4.10082 12.4429 3.96299C12.3668 3.77922 12.2208 3.63321 12.037 3.55709C11.8992 3.5 11.7245 3.5 11.375 3.5C11.0255 3.5 10.8508 3.5 10.713 3.55709C10.5292 3.63321 10.3832 3.77922 10.3071 3.96299C10.25 4.10082 10.25 4.27554 10.25 4.625Z" fill="black"/>
</svg>
