<svg width="16" height="16" viewBox="0 0 16 16" fill="none" xmlns="http://www.w3.org/2000/svg">
<path fill-rule="evenodd" clip-rule="evenodd" d="M2 6.78143C2 6.78761 2 6.7938 2 6.8V9.2C2 10.8802 2 11.7202 2.32698 12.362C2.6146 12.9265 3.07354 13.3854 3.63803 13.673C4.27976 14 5.11984 14 6.8 14H9.2C10.8802 14 11.7202 14 12.362 13.673C12.9265 13.3854 13.3854 12.9265 13.673 12.362C13.8835 11.9489 13.9585 11.4537 13.9852 10.7052L12.5001 9.3343V7.97339L14 9.35795C14 9.30614 14 9.25349 14 9.2V6.8C14 5.11984 14 4.27976 13.673 3.63803C13.3854 3.07354 12.9265 2.6146 12.362 2.32698C11.7202 2 10.8802 2 9.2 2H6.8C5.11984 2 4.27976 2 3.63803 2.32698C3.07354 2.6146 2.6146 3.07354 2.32698 3.63803C2.08216 4.11852 2.02064 4.71021 2.00519 5.68245L4.75005 6.94931L7.58099 5.64273C7.84689 5.52001 8.15321 5.52 8.41911 5.64273L10.2501 6.48778V7.58915L8.00005 6.55069L5.16911 7.85727C4.90321 7.97999 4.59689 7.97999 4.33099 7.85727L2 6.78143ZM10.2501 7.58915V11.375C10.2501 11.7245 10.2501 11.8992 10.3071 12.037C10.3833 12.2208 10.5293 12.3668 10.713 12.4429C10.8509 12.5 11.0256 12.5 11.3751 12.5C11.7245 12.5 11.8992 12.5 12.0371 12.4429C12.2208 12.3668 12.3668 12.2208 12.443 12.037C12.5001 11.8992 12.5001 11.7245 12.5001 11.375V9.3343L10.9689 7.92092L10.2501 7.58915ZM10.2501 6.48778L11.3879 7.01296C11.4829 7.05677 11.5703 7.1152 11.6472 7.18611L12.5001 7.97339V4.75C12.5001 4.40054 12.5001 4.22581 12.443 4.08799C12.3668 3.90422 12.2208 3.75821 12.0371 3.68209C11.8992 3.625 11.7245 3.625 11.3751 3.625C11.0256 3.625 10.8509 3.625 10.713 3.68209C10.5293 3.75821 10.3833 3.90422 10.3071 4.08799C10.2501 4.22581 10.2501 4.40054 10.2501 4.75V6.48778ZM6.87505 8.625V11.375C6.87505 11.7245 6.87505 11.8992 6.93214 12.037C7.00826 12.2208 7.15427 12.3668 7.33804 12.4429C7.47587 12.5 7.65059 12.5 8.00005 12.5C8.34951 12.5 8.52423 12.5 8.66206 12.4429C8.84583 12.3668 8.99184 12.2208 9.06796 12.037C9.12505 11.8992 9.12505 11.7245 9.12505 11.375V8.625C9.12505 8.27554 9.12505 8.10081 9.06796 7.96299C8.99184 7.77922 8.84583 7.63321 8.66206 7.55709C8.52423 7.5 8.34951 7.5 8.00005 7.5C7.65059 7.5 7.47587 7.5 7.33804 7.55709C7.15427 7.63321 7.00826 7.77922 6.93214 7.96299C6.87505 8.10081 6.87505 8.27554 6.87505 8.625ZM3.50005 10.4375V11.375C3.50005 11.7245 3.50005 11.8992 3.55714 12.037C3.63326 12.2208 3.77927 12.3668 3.96304 12.4429C4.10087 12.5 4.27559 12.5 4.62505 12.5C4.97451 12.5 5.14923 12.5 5.28706 12.4429C5.47083 12.3668 5.61684 12.2208 5.69296 12.037C5.75005 11.8992 5.75005 11.7245 5.75005 11.375V10.4375C5.75005 10.088 5.75005 9.91331 5.69296 9.77549C5.61684 9.59172 5.47083 9.44571 5.28706 9.36959C5.14923 9.3125 4.97451 9.3125 4.62505 9.3125C4.27559 9.3125 4.10087 9.3125 3.96304 9.36959C3.77927 9.44571 3.63326 9.59172 3.55714 9.77549C3.50005 9.91331 3.50005 10.088 3.50005 10.4375Z" fill="black"/>
</svg>
