<svg width="16" height="16" viewBox="0 0 16 16" fill="none" xmlns="http://www.w3.org/2000/svg">
<path fill-rule="evenodd" clip-rule="evenodd" d="M8.86781 1.6679C8.31943 1.40381 7.68065 1.40381 7.13227 1.6679L3.59045 3.37355C3.04207 3.63763 2.64379 4.13706 2.50836 4.73044L1.6336 8.56302C1.49816 9.1564 1.6403 9.77917 2.01979 10.255L4.47081 13.3285C4.8503 13.8044 5.42582 14.0815 6.03447 14.0815H9.96561C10.5743 14.0815 11.1498 13.8044 11.5293 13.3285L13.9803 10.255C14.3598 9.77918 14.5019 9.15641 14.3665 8.56302L13.4917 4.73045C13.3563 4.13706 12.958 3.63763 12.4096 3.37355L8.86781 1.6679ZM8.23565 4.01908L9.45335 6.70108C9.48405 6.7687 9.52944 6.82864 9.5862 6.87653L11.6575 8.624C11.8524 8.78846 11.8923 9.07327 11.7501 9.28497L10.1361 11.6877C10.0118 11.8726 9.78021 11.9531 9.56808 11.8849L6.73367 10.9744C6.63989 10.9442 6.55709 10.8871 6.49568 10.8101L4.94055 8.85998C4.86992 8.77142 4.83146 8.66151 4.83146 8.54824V5.75085C4.83146 5.57817 4.92057 5.41771 5.06715 5.32642L7.51607 3.80136C7.77246 3.64169 8.11079 3.74406 8.23565 4.01908Z" fill="black"/>
</svg>
