<svg width="16" height="16" viewBox="0 0 16 16" fill="none" xmlns="http://www.w3.org/2000/svg">
<path fill-rule="evenodd" clip-rule="evenodd" d="M2.32698 3.63803C2 4.27976 2 5.11984 2 6.8V9.2C2 10.8802 2 11.7202 2.32698 12.362C2.6146 12.9265 3.07354 13.3854 3.63803 13.673C4.27976 14 5.11984 14 6.8 14H9.2C10.8802 14 11.7202 14 12.362 13.673C12.9265 13.3854 13.3854 12.9265 13.673 12.362C14 11.7202 14 10.8802 14 9.2V6.8C14 5.11984 14 4.27976 13.673 3.63803C13.3854 3.07354 12.9265 2.6146 12.362 2.32698C11.7202 2 10.8802 2 9.2 2H6.8C5.11984 2 4.27976 2 3.63803 2.32698C3.07354 2.6146 2.6146 3.07354 2.32698 3.63803ZM6.875 11.375V5.625C6.875 5.27554 6.875 5.10082 6.93209 4.96299C7.00821 4.77922 7.15422 4.63321 7.33799 4.55709C7.47582 4.5 7.65054 4.5 8 4.5C8.34946 4.5 8.52418 4.5 8.66201 4.55709C8.84578 4.63321 8.99179 4.77922 9.06791 4.96299C9.125 5.10082 9.125 5.27554 9.125 5.625V11.375C9.125 11.7245 9.125 11.8992 9.06791 12.037C8.99179 12.2208 8.84578 12.3668 8.66201 12.4429C8.52418 12.5 8.34946 12.5 8 12.5C7.65054 12.5 7.47582 12.5 7.33799 12.4429C7.15422 12.3668 7.00821 12.2208 6.93209 12.037C6.875 11.8992 6.875 11.7245 6.875 11.375ZM3.5 11.375V8.4375C3.5 8.08804 3.5 7.91332 3.55709 7.77549C3.63321 7.59172 3.77922 7.44571 3.96299 7.36959C4.10082 7.3125 4.27554 7.3125 4.625 7.3125C4.97446 7.3125 5.14918 7.3125 5.28701 7.36959C5.47078 7.44571 5.61679 7.59172 5.69291 7.77549C5.75 7.91332 5.75 8.08804 5.75 8.4375V11.375C5.75 11.7245 5.75 11.8992 5.69291 12.037C5.61679 12.2208 5.47078 12.3668 5.28701 12.4429C5.14918 12.5 4.97446 12.5 4.625 12.5C4.27554 12.5 4.10082 12.5 3.96299 12.4429C3.77922 12.3668 3.63321 12.2208 3.55709 12.037C3.5 11.8992 3.5 11.7245 3.5 11.375ZM10.25 6.75V11.375C10.25 11.7245 10.25 11.8992 10.3071 12.037C10.3832 12.2208 10.5292 12.3668 10.713 12.4429C10.8508 12.5 11.0255 12.5 11.375 12.5C11.7245 12.5 11.8992 12.5 12.037 12.4429C12.2208 12.3668 12.3668 12.2208 12.4429 12.037C12.5 11.8992 12.5 11.7245 12.5 11.375V6.75C12.5 6.40054 12.5 6.22582 12.4429 6.08799C12.3668 5.90422 12.2208 5.75821 12.037 5.68209C11.8992 5.625 11.7245 5.625 11.375 5.625C11.0255 5.625 10.8508 5.625 10.713 5.68209C10.5292 5.75821 10.3832 5.90422 10.3071 6.08799C10.25 6.22582 10.25 6.40054 10.25 6.75Z" fill="black"/>
</svg>
