<svg width="16" height="16" viewBox="0 0 16 16" fill="none" xmlns="http://www.w3.org/2000/svg">
<path fill-rule="evenodd" clip-rule="evenodd" d="M2.32698 3.63803C2 4.27976 2 5.11984 2 6.8V9.2C2 9.78736 2 10.2721 2.01397 10.6815L5.2758 7.05724C5.65907 6.63138 6.32108 6.61397 6.7262 7.0191L8.98429 9.27719L13.8185 4.00352C13.7791 3.87297 13.7313 3.75235 13.673 3.63803C13.3854 3.07354 12.9265 2.6146 12.362 2.32698C11.7202 2 10.8802 2 9.2 2H6.8C5.11984 2 4.27976 2 3.63803 2.32698C3.07354 2.6146 2.6146 3.07354 2.32698 3.63803ZM13.9854 5.30129L9.72145 9.95291C9.33674 10.3726 8.67976 10.3869 8.27719 9.98429L6.0191 7.7262L2.18009 11.9918C2.2197 12.1241 2.26803 12.2463 2.32698 12.362C2.6146 12.9265 3.07354 13.3854 3.63803 13.673C4.27976 14 5.11984 14 6.8 14H9.2C10.8802 14 11.7202 14 12.362 13.673C12.9265 13.3854 13.3854 12.9265 13.673 12.362C14 11.7202 14 10.8802 14 9.2V6.8C14 6.20439 14 5.71435 13.9854 5.30129Z" fill="black"/>
</svg>
