<svg width="16" height="16" viewBox="0 0 16 16" fill="none" xmlns="http://www.w3.org/2000/svg">
<path fill-rule="evenodd" clip-rule="evenodd" d="M2.32698 3.63803C2 4.27976 2 5.11984 2 6.8V9.2C2 10.8802 2 11.7202 2.32698 12.362C2.6146 12.9265 3.07354 13.3854 3.63803 13.673C4.27976 14 5.11984 14 6.8 14H9.2C10.8802 14 11.7202 14 12.362 13.673C12.9265 13.3854 13.3854 12.9265 13.673 12.362C14 11.7202 14 10.8802 14 9.2V6.8C14 5.11984 14 4.27976 13.673 3.63803C13.3854 3.07354 12.9265 2.6146 12.362 2.32698C11.7202 2 10.8802 2 9.2 2H6.8C5.11984 2 4.27976 2 3.63803 2.32698C3.07354 2.6146 2.6146 3.07354 2.32698 3.63803ZM12.4744 5.44411C12.5 5.34874 12.5 5.23249 12.5 5C12.5 4.76751 12.5 4.65126 12.4744 4.55589C12.4051 4.29707 12.2029 4.09491 11.9441 4.02556C11.8487 4 11.7325 4 11.5 4H4.5C4.2675 4 4.15126 4 4.05588 4.02556C3.79706 4.09491 3.5949 4.29707 3.52555 4.55589C3.5 4.65126 3.5 4.76751 3.5 5C3.5 5.23249 3.5 5.34874 3.52555 5.44411C3.5949 5.70293 3.79706 5.90509 4.05588 5.97444C4.15126 6 4.2675 6 4.5 6H11.5C11.7325 6 11.8487 6 11.9441 5.97444C12.2029 5.90509 12.4051 5.70293 12.4744 5.44411ZM11 8C11 8.23249 11 8.34874 10.9744 8.44411C10.9051 8.70293 10.7029 8.90509 10.4441 8.97444C10.3487 9 10.2325 9 10 9H6C5.76751 9 5.65126 9 5.55589 8.97444C5.29707 8.90509 5.09491 8.70293 5.02556 8.44411C5 8.34874 5 8.23249 5 8C5 7.76751 5 7.65126 5.02556 7.55589C5.09491 7.29707 5.29707 7.09491 5.55589 7.02556C5.65126 7 5.76751 7 6 7H10C10.2325 7 10.3487 7 10.4441 7.02556C10.7029 7.09491 10.9051 7.29707 10.9744 7.55589C11 7.65126 11 7.76751 11 8ZM9.5 11C9.5 11.2325 9.5 11.3487 9.47444 11.4441C9.40509 11.7029 9.20293 11.9051 8.94411 11.9744C8.84874 12 8.73249 12 8.5 12H7.5C7.2675 12 7.15126 12 7.05588 11.9744C6.79706 11.9051 6.5949 11.7029 6.52555 11.4441C6.5 11.3487 6.5 11.2325 6.5 11C6.5 10.7675 6.5 10.6513 6.52555 10.5559C6.5949 10.2971 6.79706 10.0949 7.05588 10.0256C7.15126 10 7.2675 10 7.5 10H8.5C8.73249 10 8.84874 10 8.94411 10.0256C9.20293 10.0949 9.40509 10.2971 9.47444 10.5559C9.5 10.6513 9.5 10.7675 9.5 11Z" fill="black"/>
</svg>
