<svg width="16" height="16" viewBox="0 0 16 16" fill="none" xmlns="http://www.w3.org/2000/svg">
<path fill-rule="evenodd" clip-rule="evenodd" d="M2.01457 5.30129C2 5.71435 2 6.20439 2 6.8V9.2C2 10.8802 2 11.7202 2.32698 12.362C2.6146 12.9265 3.07354 13.3854 3.63803 13.673C4.27976 14 5.11984 14 6.8 14H9.2C10.8802 14 11.7202 14 12.362 13.673C12.9265 13.3854 13.3854 12.9265 13.673 12.362C13.732 12.2463 13.7803 12.1241 13.8199 11.9918L9.9809 7.7262L7.72281 9.98429C7.32024 10.3869 6.66326 10.3726 6.27855 9.95291L2.01457 5.30129ZM2.18151 4.00352L7.01571 9.27719L9.2738 7.0191C9.67892 6.61397 10.3409 6.63138 10.7242 7.05724L13.986 10.6815C14 10.2721 14 9.78736 14 9.2V6.8C14 5.11984 14 4.27976 13.673 3.63803C13.3854 3.07354 12.9265 2.6146 12.362 2.32698C11.7202 2 10.8802 2 9.2 2H6.8C5.11984 2 4.27976 2 3.63803 2.32698C3.07354 2.6146 2.6146 3.07354 2.32698 3.63803C2.26873 3.75235 2.22085 3.87297 2.18151 4.00352Z" fill="black"/>
</svg>
