<svg width="16" height="16" viewBox="0 0 16 16" fill="none" xmlns="http://www.w3.org/2000/svg">
<path fill-rule="evenodd" clip-rule="evenodd" d="M10.0902 2.55699C9.21474 0.857793 6.78527 0.857793 5.90985 2.55699C5.85724 2.65909 5.73857 2.70825 5.62918 2.67325C3.80864 2.09075 2.09075 3.80864 2.67325 5.62918C2.70825 5.73857 2.65909 5.85724 2.55699 5.90985C0.857793 6.78527 0.857793 9.21474 2.55699 10.0902C2.65909 10.1428 2.70825 10.2614 2.67325 10.3708C2.09075 12.1914 3.80864 13.9093 5.62918 13.3268C5.73857 13.2918 5.85724 13.3409 5.90985 13.443C6.78527 15.1422 9.21474 15.1422 10.0902 13.443C10.1428 13.3409 10.2614 13.2918 10.3708 13.3268C12.1914 13.9093 13.9093 12.1914 13.3268 10.3708C13.2918 10.2614 13.3409 10.1428 13.443 10.0902C15.1422 9.21474 15.1422 6.78527 13.443 5.90985C13.3409 5.85724 13.2918 5.73857 13.3268 5.62918C13.9093 3.80864 12.1914 2.09075 10.3708 2.67325C10.2614 2.70825 10.1428 2.65909 10.0902 2.55699ZM11.1135 6.34332C11.3031 6.14256 11.2941 5.82611 11.0933 5.6365C10.8926 5.44689 10.5761 5.45594 10.3865 5.65669L6.54396 9.72527L5.40001 8.20001C5.23432 7.97909 4.92092 7.93432 4.70001 8.10001C4.47909 8.26569 4.43432 8.57909 4.60001 8.80001L6.10001 10.8C6.18847 10.918 6.32448 10.9909 6.47169 10.9992C6.61889 11.0076 6.76228 10.9505 6.86351 10.8433L11.1135 6.34332Z" fill="black"/>
</svg>
