<svg width="16" height="16" viewBox="0 0 16 16" fill="none" xmlns="http://www.w3.org/2000/svg">
<path fill-rule="evenodd" clip-rule="evenodd" d="M2.32698 3.63803C2 4.27976 2 5.11984 2 6.8V9.2C2 10.8802 2 11.7202 2.32698 12.362C2.6146 12.9265 3.07354 13.3854 3.63803 13.673C4.27976 14 5.11984 14 6.8 14H9.2C10.8802 14 11.7202 14 12.362 13.673C12.9265 13.3854 13.3854 12.9265 13.673 12.362C14 11.7202 14 10.8802 14 9.2V6.8C14 5.11984 14 4.27976 13.673 3.63803C13.3854 3.07354 12.9265 2.6146 12.362 2.32698C11.7202 2 10.8802 2 9.2 2H6.8C5.11984 2 4.27976 2 3.63803 2.32698C3.07354 2.6146 2.6146 3.07354 2.32698 3.63803ZM11.1135 6.34331C11.3031 6.14255 11.2941 5.8261 11.0933 5.63649C10.8926 5.44689 10.5761 5.45593 10.3865 5.65669L6.54395 9.72527L5.4 8.2C5.23431 7.97909 4.92091 7.93431 4.7 8.1C4.47909 8.26569 4.43431 8.57909 4.6 8.8L6.1 10.8C6.18846 10.918 6.32448 10.9908 6.47168 10.9992C6.61889 11.0075 6.76227 10.9505 6.86351 10.8433L11.1135 6.34331Z" fill="black"/>
</svg>
