<svg width="16" height="16" viewBox="0 0 16 16" fill="none" xmlns="http://www.w3.org/2000/svg">
<path fill-rule="evenodd" clip-rule="evenodd" d="M8 14.25C11.4518 14.25 14.25 11.4518 14.25 8C14.25 4.54822 11.4518 1.75 8 1.75C4.54822 1.75 1.75 4.54822 1.75 8C1.75 11.4518 4.54822 14.25 8 14.25ZM11.1135 6.34331C11.3031 6.14255 11.2941 5.8261 11.0933 5.63649C10.8926 5.44689 10.5761 5.45593 10.3865 5.65669L6.54395 9.72527L5.4 8.2C5.23431 7.97909 4.92091 7.93431 4.7 8.1C4.47909 8.26569 4.43431 8.57909 4.6 8.8L6.1 10.8C6.18846 10.918 6.32448 10.9908 6.47168 10.9992C6.61889 11.0075 6.76227 10.9505 6.86351 10.8433L11.1135 6.34331Z" fill="black"/>
</svg>
