<svg width="16" height="16" viewBox="0 0 16 16" fill="none" xmlns="http://www.w3.org/2000/svg">
<path fill-rule="evenodd" clip-rule="evenodd" d="M3.86502 2.77248C4.19343 2.60515 4.58416 2.54058 5.16106 2.51566C5.43867 1.91599 6.04575 1.5 6.75 1.5H9.25C9.95425 1.5 10.5613 1.91599 10.8389 2.51566C11.4158 2.54058 11.8066 2.60515 12.135 2.77248C12.6054 3.01217 12.9878 3.39462 13.2275 3.86502C13.5 4.3998 13.5 5.09987 13.5 6.5V10.25C13.5 11.6501 13.5 12.3502 13.2275 12.885C12.9878 13.3554 12.6054 13.7378 12.135 13.9775C11.6002 14.25 10.9001 14.25 9.5 14.25H6.5C5.09987 14.25 4.3998 14.25 3.86502 13.9775C3.39462 13.7378 3.01217 13.3554 2.77248 12.885C2.5 12.3502 2.5 11.6501 2.5 10.25V6.5C2.5 5.09987 2.5 4.3998 2.77248 3.86502C3.01217 3.39462 3.39462 3.01217 3.86502 2.77248ZM9.25 2.5H6.75C6.33579 2.5 6 2.83579 6 3.25C6 3.66421 6.33579 4 6.75 4H9.25C9.66421 4 10 3.66421 10 3.25C10 2.83579 9.66421 2.5 9.25 2.5Z" fill="black"/>
</svg>
