<svg width="16" height="16" viewBox="0 0 16 16" fill="none" xmlns="http://www.w3.org/2000/svg">
<path d="M4 14L5 13M12 14L11 13" stroke="black" stroke-linecap="round" stroke-linejoin="round"/>
<path fill-rule="evenodd" clip-rule="evenodd" d="M8 14C11.0376 14 13.5 11.5376 13.5 8.5C13.5 5.46243 11.0376 3 8 3C4.96243 3 2.5 5.46243 2.5 8.5C2.5 11.5376 4.96243 14 8 14ZM8.5 6C8.5 5.72386 8.27614 5.5 8 5.5C7.72386 5.5 7.5 5.72386 7.5 6V8.5C7.5 8.59871 7.52922 8.69522 7.58397 8.77735L8.58397 10.2773C8.73715 10.5071 9.04759 10.5692 9.27735 10.416C9.50711 10.2628 9.5692 9.95241 9.41603 9.72265L8.5 8.34861V6Z" fill="black"/>
<path d="M3.58075 4.27135C3.39208 4.42966 3.29774 4.50881 3.14634 4.52506C3.04135 4.53632 2.86005 4.48276 2.77805 4.41625C2.65978 4.32033 2.63593 4.2427 2.58822 4.08745C2.51323 3.84342 2.48493 3.58495 2.50761 3.32569C2.55384 2.79727 2.80809 2.30887 3.21442 1.96791C3.62076 1.62696 4.1459 1.46138 4.67431 1.50761C4.93357 1.53029 5.1832 1.60305 5.4105 1.71927C5.55511 1.79322 5.62742 1.83019 5.70134 1.96331C5.7526 2.05562 5.77387 2.24347 5.74454 2.34491C5.70225 2.49119 5.60792 2.57034 5.41925 2.72865L4.5 3.5L3.58075 4.27135Z" fill="black"/>
<path d="M12.4193 4.27135C12.6079 4.42966 12.7023 4.50881 12.8537 4.52506C12.9586 4.53632 13.1399 4.48276 13.222 4.41625C13.3402 4.32033 13.3641 4.2427 13.4118 4.08745C13.4868 3.84342 13.5151 3.58495 13.4924 3.32569C13.4462 2.79727 13.1919 2.30887 12.7856 1.96791C12.3792 1.62696 11.8541 1.46138 11.3257 1.50761C11.0664 1.53029 10.8168 1.60305 10.5895 1.71927C10.4449 1.79322 10.3726 1.83019 10.2987 1.96331C10.2474 2.05562 10.2261 2.24347 10.2555 2.34491C10.2977 2.49119 10.3921 2.57034 10.5807 2.72865L11.5 3.5L12.4193 4.27135Z" fill="black"/>
</svg>
