<svg width="16" height="16" viewBox="0 0 16 16" fill="none" xmlns="http://www.w3.org/2000/svg">
<path d="M7.25 12.5L6.25 14M10.75 12.5L9.75 14M3.75 12.5L2.75 14" stroke="black" stroke-linecap="round" stroke-linejoin="round"/>
<path d="M9 12.5L8 14M12.5 12.5L11.5 14M5.5 12.5L4.5 14" stroke="black" stroke-linecap="round" stroke-linejoin="round"/>
<path fill-rule="evenodd" clip-rule="evenodd" d="M1 8.25C1 9.90685 2.34315 11.25 4 11.25H11C13.2091 11.25 15 9.45914 15 7.25C15 5.04086 13.2091 3.25 11 3.25C10.8674 3.25 10.7364 3.25645 10.6071 3.26905C9.96175 1.92664 8.58909 1 7 1C4.79086 1 3 2.79086 3 5C3 5.13956 3.00715 5.27746 3.0211 5.41334C1.8449 5.81916 1 6.93591 1 8.25Z" fill="black"/>
</svg>
