<svg width="16" height="16" viewBox="0 0 16 16" fill="none" xmlns="http://www.w3.org/2000/svg">
<path d="M4 12.25L4.0005 13.2491L4.86603 12.75L4.001 13.25L4.86603 13.75L4.0005 13.2509L4 14.25L3.9995 13.2509L3.13397 13.75L3.999 13.25L3.13397 12.75L3.9995 13.2491L4 12.25Z" fill="black" stroke="black" stroke-width="0.75" stroke-linejoin="round"/>
<path d="M8 12.25L8.0005 13.2491L8.86603 12.75L8.001 13.25L8.86603 13.75L8.0005 13.2509L8 14.25L7.9995 13.2509L7.13397 13.75L7.999 13.25L7.13397 12.75L7.9995 13.2491L8 12.25Z" fill="black" stroke="black" stroke-width="0.75" stroke-linejoin="round"/>
<path d="M12 12.25L12.0005 13.2491L12.866 12.75L12.001 13.25L12.866 13.75L12.0005 13.2509L12 14.25L11.9995 13.2509L11.134 13.75L11.999 13.25L11.134 12.75L11.9995 13.2491L12 12.25Z" fill="black" stroke="black" stroke-width="0.75" stroke-linejoin="round"/>
<path fill-rule="evenodd" clip-rule="evenodd" d="M1 8.25C1 9.90685 2.34315 11.25 4 11.25H11C13.2091 11.25 15 9.45914 15 7.25C15 5.04086 13.2091 3.25 11 3.25C10.8674 3.25 10.7364 3.25645 10.6071 3.26905C9.96175 1.92664 8.58909 1 7 1C4.79086 1 3 2.79086 3 5C3 5.13956 3.00715 5.27746 3.0211 5.41334C1.8449 5.81916 1 6.93591 1 8.25Z" fill="black"/>
</svg>
