<svg width="16" height="16" viewBox="0 0 16 16" fill="none" xmlns="http://www.w3.org/2000/svg">
<path d="M3.9327 13.5619H3.24754C3.07069 13.5619 2.95101 13.3816 3.01964 13.2186L3.55324 11.9513C3.59184 11.8596 3.68164 11.8 3.78113 11.8H4.84023C5.02007 11.8 5.13976 11.9859 5.06534 12.1496L4.68551 12.9852C4.6483 13.0671 4.70815 13.16 4.79807 13.16H5.44986C5.62377 13.16 5.70203 13.3779 5.56788 13.4885L4.0309 14.7565C3.88428 14.8775 3.67226 14.7259 3.73937 14.548L4.04837 13.7291C4.07889 13.6483 4.01913 13.5619 3.9327 13.5619Z" fill="black"/>
<path d="M7.56844 13.5619H6.88328C6.70643 13.5619 6.58675 13.3816 6.65538 13.2186L7.18898 11.9513C7.22759 11.8596 7.31739 11.8 7.41688 11.8H8.47597C8.65581 11.8 8.7755 11.9859 8.70108 12.1496L8.32125 12.9852C8.28404 13.0671 8.34389 13.16 8.43381 13.16H9.0856C9.25951 13.16 9.33777 13.3779 9.20362 13.4885L7.66665 14.7565C7.52002 14.8775 7.308 14.7259 7.37511 14.548L7.68412 13.7291C7.71463 13.6483 7.65487 13.5619 7.56844 13.5619Z" fill="black"/>
<path d="M11.2041 13.5619H10.5189C10.3421 13.5619 10.2224 13.3816 10.291 13.2186L10.8246 11.9513C10.8632 11.8596 10.953 11.8 11.0525 11.8H12.1116C12.2914 11.8 12.4111 11.9859 12.3367 12.1496L11.9569 12.9852C11.9197 13.0671 11.9795 13.16 12.0694 13.16H12.7212C12.8951 13.16 12.9734 13.3779 12.8392 13.4885L11.3023 14.7565C11.1556 14.8775 10.9436 14.7259 11.0107 14.548L11.3197 13.7291C11.3503 13.6483 11.2905 13.5619 11.2041 13.5619Z" fill="black"/>
<path fill-rule="evenodd" clip-rule="evenodd" d="M1 8.25C1 9.90685 2.34315 11.25 4 11.25H11C13.2091 11.25 15 9.45914 15 7.25C15 5.04086 13.2091 3.25 11 3.25C10.8674 3.25 10.7364 3.25645 10.6071 3.26905C9.96175 1.92664 8.58909 1 7 1C4.79086 1 3 2.79086 3 5C3 5.13956 3.00715 5.27746 3.0211 5.41334C1.8449 5.81916 1 6.93591 1 8.25Z" fill="black"/>
</svg>
