<svg width="16" height="16" viewBox="0 0 16 16" fill="none" xmlns="http://www.w3.org/2000/svg">
<path fill-rule="evenodd" clip-rule="evenodd" d="M8 1.5C4.30769 1.5 2 3.9394 2 7.25C2 8.82127 2.51984 10.1963 3.46082 11.2074L2.86183 13.1042C2.69481 13.6331 3.13625 14.1281 3.66401 13.9575C4.35702 13.7336 5.25491 13.3568 6.05687 12.748C6.6507 12.9124 7.3005 13 8 13C11.6923 13 14 10.6042 14 7.25C14 3.89583 11.6923 1.5 8 1.5Z" fill="black"/>
<circle cx="8" cy="10.1" r="0.75" fill="white"/>
<path d="M6.5 5.75C6.5 5.25 7 4.25 8 4.25C8.75 4.25 9.5 4.75 9.5 5.75C9.5 6.75 8 7 8 8" stroke="white" stroke-linecap="round" stroke-linejoin="round"/>
</svg>
