<svg width="16" height="16" viewBox="0 0 16 16" fill="none" xmlns="http://www.w3.org/2000/svg">
<path d="M6 4.25V11.75C6 12.7165 5.2165 13.5 4.25 13.5V13.5C3.2835 13.5 2.5 12.7165 2.5 11.75V11.75C2.5 10.7835 3.2835 10 4.25 10H11.75C12.7165 10 13.5 10.7835 13.5 11.75V11.75C13.5 12.7165 12.7165 13.5 11.75 13.5V13.5C10.7835 13.5 10 12.7165 10 11.75V4.25C10 3.2835 10.7835 2.5 11.75 2.5V2.5C12.7165 2.5 13.5 3.2835 13.5 4.25V4.25C13.5 5.2165 12.7165 6 11.75 6H4.25C3.2835 6 2.5 5.2165 2.5 4.25V4.25C2.5 3.2835 3.2835 2.5 4.25 2.5V2.5C5.2165 2.5 6 3.2835 6 4.25Z" stroke="black"/>
</svg>
