<svg width="16" height="16" viewBox="0 0 16 16" fill="none" xmlns="http://www.w3.org/2000/svg">
<path fill-rule="evenodd" clip-rule="evenodd" d="M8 1.5C4.30769 1.5 2 3.9394 2 7.25C2 8.82127 2.51984 10.1963 3.46082 11.2074L2.86183 13.1042C2.69481 13.6331 3.13625 14.1281 3.66401 13.9575C4.35702 13.7336 5.25491 13.3568 6.05687 12.748C6.6507 12.9124 7.3005 13 8 13C11.6923 13 14 10.6042 14 7.25C14 3.89583 11.6923 1.5 8 1.5ZM11.5 6.5C11.5 7.66901 10.9799 8.42573 10.4504 8.87963C10.1908 9.10216 9.93242 9.24967 9.7384 9.34206C9.64091 9.38848 9.5582 9.42169 9.4976 9.44394C9.46726 9.45509 9.44232 9.46354 9.42368 9.46958L9.40051 9.47687L9.39265 9.47923L9.38968 9.48009L9.38844 9.48045L9.38788 9.48061C9.38762 9.48069 9.38736 9.48076 9.25 9L9.38736 9.48076C9.12184 9.55662 8.8451 9.40288 8.76924 9.13736C8.69366 8.87284 8.84597 8.59717 9.10966 8.5201L9.11562 8.51821C9.12262 8.51595 9.13528 8.51171 9.15279 8.50527C9.1879 8.49238 9.2419 8.4709 9.30847 8.43919C9.44258 8.37533 9.62173 8.27284 9.7996 8.12037C9.84325 8.08296 9.88705 8.0424 9.93027 7.99841C9.13421 7.96198 8.5 7.30505 8.5 6.5C8.5 5.67157 9.17157 5 10 5C10.8284 5 11.5 5.67157 11.5 6.5ZM7.75 6.5C7.75 7.66901 7.22994 8.42573 6.7004 8.87963C6.44077 9.10216 6.18242 9.24967 5.9884 9.34206C5.89091 9.38848 5.8082 9.42169 5.7476 9.44394C5.71726 9.45509 5.69232 9.46354 5.67368 9.46958L5.65051 9.47687L5.64265 9.47923L5.63968 9.48009L5.63844 9.48045L5.63788 9.48061C5.63762 9.48069 5.63736 9.48076 5.5 9L5.63736 9.48076C5.37184 9.55662 5.0951 9.40288 5.01924 9.13736C4.94366 8.87284 5.09597 8.59717 5.35966 8.5201L5.36562 8.51821C5.37262 8.51595 5.38528 8.51171 5.40279 8.50527C5.4379 8.49238 5.4919 8.4709 5.55847 8.43919C5.69258 8.37533 5.87173 8.27284 6.0496 8.12037C6.09325 8.08296 6.13705 8.0424 6.18027 7.99841C5.38421 7.96198 4.75 7.30505 4.75 6.5C4.75 5.67157 5.42157 5 6.25 5C7.07843 5 7.75 5.67157 7.75 6.5Z" fill="black"/>
</svg>
