<svg width="16" height="16" viewBox="0 0 16 16" fill="none" xmlns="http://www.w3.org/2000/svg">
<path fill-rule="evenodd" clip-rule="evenodd" d="M10.25 5C13.0192 5 14.75 6.72578 14.75 9.0679C14.75 10.1956 14.3488 11.1804 13.6235 11.8985L14.0384 13.1939C14.1936 13.6787 13.7898 14.1326 13.3093 13.9645C12.7689 13.7755 12.1075 13.4719 11.5356 12.9992C11.1375 13.0886 10.708 13.1358 10.25 13.1358C7.48077 13.1358 5.75 11.4408 5.75 9.0679C5.75 6.69496 7.48077 5 10.25 5Z" fill="black"/>
<path fill-rule="evenodd" clip-rule="evenodd" d="M1.5 6.6921C1.5 3.84665 3.61538 1.75 7 1.75C9.28499 1.75 10.9915 2.68854 11.8592 4.18544C11.3547 4.06294 10.8157 4 10.25 4C8.66113 4 7.27832 4.48896 6.28253 5.40996C5.28132 6.33599 4.75 7.62777 4.75 9.0679C4.75 9.96355 4.95551 10.8018 5.35175 11.5304C4.58619 12.1364 3.70339 12.504 3.03015 12.7177C2.54474 12.8718 2.14103 12.415 2.29719 11.9303L2.87682 10.1311C1.99043 9.25864 1.5 8.06217 1.5 6.6921ZM12.3452 5.39342C12.4473 5.80256 12.5 6.23707 12.5 6.6921C12.5 9.57499 10.3846 11.6342 7 11.6342C6.87002 11.6342 6.74191 11.6311 6.61572 11.625C6.05571 10.9427 5.75 10.0652 5.75 9.0679C5.75 6.69496 7.48077 5 10.25 5C11.0378 5 11.7415 5.13966 12.3452 5.39342Z" fill="black"/>
</svg>
