<svg width="16" height="16" viewBox="0 0 16 16" fill="none" xmlns="http://www.w3.org/2000/svg">
<path fill-rule="evenodd" clip-rule="evenodd" d="M2 7.25C2 3.9394 4.30769 1.5 8 1.5C11.6923 1.5 14 3.89583 14 7.25C14 10.6042 11.6923 13 8 13C7.3005 13 6.6507 12.9124 6.05687 12.748C5.25491 13.3568 4.35702 13.7336 3.66401 13.9575C3.13625 14.1281 2.69481 13.6331 2.86183 13.1042L3.46082 11.2074C2.51984 10.1963 2 8.82127 2 7.25ZM7.21256 8.46092V8.56622H8.42119V8.46092C8.42119 8.23812 8.44866 8.05652 8.5036 7.91612C8.55853 7.77572 8.64247 7.65364 8.7554 7.54987C8.87138 7.44305 9.01788 7.33622 9.1949 7.2294C9.50621 7.04627 9.75343 6.82499 9.93656 6.56557C10.1197 6.30308 10.2112 5.97804 10.2112 5.59042C10.2112 5.20585 10.1166 4.87623 9.9274 4.60154C9.73817 4.32685 9.47569 4.11625 9.13996 3.96975C8.80728 3.82325 8.42272 3.75 7.98627 3.75C7.58949 3.75 7.22477 3.82172 6.89209 3.96517C6.56246 4.10862 6.29693 4.3238 6.09549 4.61069C5.8971 4.89759 5.79485 5.26079 5.78875 5.70029H7.09352C7.09963 5.51106 7.14541 5.35388 7.23087 5.22874C7.31633 5.10056 7.42468 5.00441 7.55592 4.94032C7.69021 4.87623 7.83213 4.84418 7.98169 4.84418C8.13734 4.84418 8.27774 4.87775 8.40288 4.9449C8.53107 5.00899 8.63331 5.09903 8.70961 5.21501C8.78592 5.33099 8.82407 5.46986 8.82407 5.63162C8.82407 5.85443 8.75387 6.04518 8.61347 6.20389C8.47308 6.3626 8.30063 6.50758 8.09614 6.63882C7.90691 6.7548 7.74668 6.87841 7.61543 7.00965C7.48419 7.14089 7.38347 7.31791 7.31328 7.54071C7.24613 7.76352 7.21256 8.07025 7.21256 8.46092ZM7.24003 10.5348C7.39263 10.6783 7.58644 10.75 7.82145 10.75C8.05952 10.75 8.25332 10.6783 8.40288 10.5348C8.55243 10.3914 8.62721 10.2067 8.62721 9.98087C8.62721 9.75196 8.55243 9.56731 8.40288 9.42691C8.25332 9.28346 8.05952 9.21174 7.82145 9.21174C7.58644 9.21174 7.39263 9.28346 7.24003 9.42691C7.09047 9.56731 7.0157 9.75196 7.0157 9.98087C7.0157 10.2067 7.09047 10.3914 7.24003 10.5348Z" fill="black"/>
</svg>
