<svg width="16" height="16" viewBox="0 0 16 16" fill="none" xmlns="http://www.w3.org/2000/svg">
<path fill-rule="evenodd" clip-rule="evenodd" d="M2 7.25C2 3.9394 4.30769 1.5 8 1.5C11.6923 1.5 14 3.89583 14 7.25C14 10.6042 11.6923 13 8 13C7.3005 13 6.6507 12.9124 6.05687 12.748C5.25491 13.3568 4.35702 13.7336 3.66401 13.9575C3.13625 14.1281 2.69481 13.6331 2.86183 13.1042L3.46082 11.2074C2.51984 10.1963 2 8.82127 2 7.25ZM7.65495 3.87829C7.4054 4.00758 7.23149 4.44854 6.88367 5.33046L6.8477 5.42166L6.8477 5.42167C6.77723 5.60034 6.742 5.68967 6.68805 5.765C6.64022 5.83178 6.58176 5.89024 6.51499 5.93806C6.43966 5.99201 6.35032 6.02724 6.17165 6.09771L6.08044 6.13368L6.08044 6.13368C5.19853 6.48151 4.75757 6.65542 4.62827 6.90496C4.51616 7.12133 4.51616 7.37867 4.62827 7.59504C4.75757 7.84458 5.19852 8.01849 6.08044 8.36631L6.08044 8.36632L6.17165 8.40229C6.35032 8.47275 6.43966 8.50799 6.51499 8.56194C6.58176 8.60976 6.64022 8.66822 6.68805 8.735C6.742 8.81033 6.77723 8.89966 6.84769 9.07833L6.8477 9.07834L6.88367 9.16954C7.23149 10.0515 7.4054 10.4924 7.65495 10.6217C7.87131 10.7338 8.12866 10.7338 8.34502 10.6217C8.59457 10.4924 8.76848 10.0515 9.1163 9.16954L9.1163 9.16954L9.15227 9.07834C9.22274 8.89966 9.25797 8.81033 9.31192 8.735C9.35975 8.66822 9.41821 8.60976 9.48498 8.56194C9.56031 8.50799 9.64965 8.47276 9.82832 8.40229L9.82832 8.40229L9.91953 8.36632L9.91953 8.36632C10.8014 8.01849 11.2424 7.84458 11.3717 7.59504C11.4838 7.37867 11.4838 7.12133 11.3717 6.90496C11.2424 6.65542 10.8014 6.48151 9.91953 6.13368L9.82832 6.09771C9.64965 6.02724 9.56031 5.99201 9.48498 5.93806C9.41821 5.89024 9.35975 5.83178 9.31192 5.765C9.25797 5.68967 9.22274 5.60034 9.15227 5.42166L9.1163 5.33046L9.1163 5.33045C8.76848 4.44854 8.59457 4.00758 8.34502 3.87829C8.12866 3.76618 7.87131 3.76618 7.65495 3.87829Z" fill="black"/>
</svg>
