<svg width="16" height="16" viewBox="0 0 16 16" fill="none" xmlns="http://www.w3.org/2000/svg">
<mask id="path-1-inside-1_4646_185" fill="white">
<path fill-rule="evenodd" clip-rule="evenodd" d="M8 1.5C4.30769 1.5 2 3.9394 2 7.25C2 8.82127 2.51984 10.1963 3.46082 11.2074L2.86183 13.1042C2.69481 13.6331 3.13625 14.1281 3.66401 13.9575C4.35702 13.7336 5.25491 13.3568 6.05687 12.748C6.6507 12.9124 7.3005 13 8 13C11.6923 13 14 10.6042 14 7.25C14 3.89583 11.6923 1.5 8 1.5Z"/>
</mask>
<path d="M3.46082 11.2074L4.4144 11.5085L4.5899 10.9528L4.19286 10.5261L3.46082 11.2074ZM2.86183 13.1042L3.81541 13.4053H3.81541L2.86183 13.1042ZM3.66401 13.9575L3.35653 13.006H3.35653L3.66401 13.9575ZM6.05687 12.748L6.32373 11.7843L5.84658 11.6521L5.45222 11.9515L6.05687 12.748ZM3 7.25C3 5.8323 3.49001 4.6613 4.3174 3.84568C5.14399 3.03087 6.37962 2.5 8 2.5V0.5C5.92807 0.5 4.16371 1.18883 2.91337 2.42137C1.66384 3.6531 1 5.3571 1 7.25H3ZM4.19286 10.5261C3.44229 9.71963 3 8.59651 3 7.25H1C1 9.04603 1.59739 10.673 2.72878 11.8887L4.19286 10.5261ZM3.81541 13.4053L4.4144 11.5085L2.50724 10.9063L1.90825 12.8031L3.81541 13.4053ZM3.35653 13.006C3.40314 12.9909 3.47448 12.9837 3.5546 13.0055C3.63139 13.0263 3.69356 13.0676 3.73743 13.1151C3.82693 13.2122 3.83908 13.3304 3.81541 13.4053L1.90825 12.8031C1.71756 13.4069 1.86691 14.0371 2.26732 14.4711C2.67795 14.9163 3.32367 15.1184 3.97148 14.9091L3.35653 13.006ZM5.45222 11.9515C4.77089 12.4687 3.98714 12.8022 3.35653 13.006L3.97148 14.9091C4.7269 14.665 5.73892 14.2449 6.66151 13.5445L5.45222 11.9515ZM8 12C7.38403 12 6.82446 11.9229 6.32373 11.7843L5.79 13.7117C6.47694 13.902 7.21698 14 8 14V12ZM13 7.25C13 8.69212 12.5084 9.86095 11.6845 10.6688C10.8604 11.4768 9.62545 12 8 12V14C10.0669 14 11.8319 13.3253 13.0847 12.0968C14.3378 10.8682 15 9.16205 15 7.25H13ZM8 2.5C9.62545 2.5 10.8604 3.02318 11.6845 3.83122C12.5084 4.63905 13 5.80788 13 7.25H15C15 5.33795 14.3378 3.63179 13.0847 2.40316C11.8319 1.17474 10.0669 0.5 8 0.5V2.5Z" fill="black" mask="url(#path-1-inside-1_4646_185)"/>
</svg>
