<svg width="16" height="16" viewBox="0 0 16 16" fill="none" xmlns="http://www.w3.org/2000/svg">
<path fill-rule="evenodd" clip-rule="evenodd" d="M8 14.25C11.4518 14.25 14.25 11.4518 14.25 8C14.25 4.54822 11.4518 1.75 8 1.75C4.54822 1.75 1.75 4.54822 1.75 8C1.75 11.4518 4.54822 14.25 8 14.25ZM7.19868 5.93377L10.5513 4.81623C10.9422 4.68594 11.3141 5.0578 11.1838 5.44868L10.0662 8.80132C9.86716 9.39853 9.39853 9.86716 8.80132 10.0662L5.44868 11.1838C5.05781 11.3141 4.68593 10.9422 4.81623 10.5513L5.93377 7.19868C6.13284 6.60147 6.60147 6.13284 7.19868 5.93377Z" fill="black"/>
<circle cx="8" cy="8" r="0.75" fill="black"/>
</svg>
