<svg width="16" height="16" viewBox="0 0 16 16" fill="none" xmlns="http://www.w3.org/2000/svg">
<path fill-rule="evenodd" clip-rule="evenodd" d="M5.25 3.5C2.76472 3.5 0.75 5.51472 0.75 8C0.75 10.4853 2.76472 12.5 5.25 12.5H10.75C13.2353 12.5 15.25 10.4853 15.25 8C15.25 5.51472 13.2353 3.5 10.75 3.5H5.25ZM5.5 6.5C5.5 6.22386 5.27614 6 5 6C4.72386 6 4.5 6.22386 4.5 6.5V7.5H3.5C3.22386 7.5 3 7.72386 3 8C3 8.27614 3.22386 8.5 3.5 8.5H4.5V9.5C4.5 9.77614 4.72386 10 5 10C5.27614 10 5.5 9.77614 5.5 9.5V8.5H6.5C6.77614 8.5 7 8.27614 7 8C7 7.72386 6.77614 7.5 6.5 7.5H5.5V6.5ZM10.75 7C10.75 7.41421 10.4142 7.75 10 7.75C9.58579 7.75 9.25 7.41421 9.25 7C9.25 6.58579 9.58579 6.25 10 6.25C10.4142 6.25 10.75 6.58579 10.75 7ZM12 9.75C12.4142 9.75 12.75 9.41421 12.75 9C12.75 8.58579 12.4142 8.25 12 8.25C11.5858 8.25 11.25 8.58579 11.25 9C11.25 9.41421 11.5858 9.75 12 9.75Z" fill="black"/>
</svg>
