<svg width="16" height="16" viewBox="0 0 16 16" fill="none" xmlns="http://www.w3.org/2000/svg">
<path fill-rule="evenodd" clip-rule="evenodd" d="M9.75 5C9.89106 5 10.0184 5.10027 10.0434 5.23911C10.2741 6.52456 11.3981 7.5 12.75 7.5C12.9555 7.5 13.1557 7.47746 13.3483 7.43473C13.7672 7.34179 14.25 7.57096 14.25 8C14.25 11.4518 11.4518 14.25 8 14.25C4.54822 14.25 1.75 11.4518 1.75 8C1.75 4.54822 4.54822 1.75 8 1.75C8.26823 1.75 8.38219 2.1259 8.24503 2.35641C8.08939 2.61797 8 2.92354 8 3.25C8 4.2165 8.7835 5 9.75 5ZM5.75 6.5C6.16421 6.5 6.5 6.16421 6.5 5.75C6.5 5.33579 6.16421 5 5.75 5C5.33579 5 5 5.33579 5 5.75C5 6.16421 5.33579 6.5 5.75 6.5ZM9 11.25C9 11.6642 8.66421 12 8.25 12C7.83579 12 7.5 11.6642 7.5 11.25C7.5 10.8358 7.83579 10.5 8.25 10.5C8.66421 10.5 9 10.8358 9 11.25ZM4.75 9.5C5.16421 9.5 5.5 9.16421 5.5 8.75C5.5 8.33579 5.16421 8 4.75 8C4.33579 8 4 8.33579 4 8.75C4 9.16421 4.33579 9.5 4.75 9.5ZM8.5 8.25C8.5 8.66421 8.16421 9 7.75 9C7.33579 9 7 8.66421 7 8.25C7 7.83579 7.33579 7.5 7.75 7.5C8.16421 7.5 8.5 7.83579 8.5 8.25ZM10.75 10C11.1642 10 11.5 9.66421 11.5 9.25C11.5 8.83579 11.1642 8.5 10.75 8.5C10.3358 8.5 10 8.83579 10 9.25C10 9.66421 10.3358 10 10.75 10Z" fill="black"/>
</svg>
