<svg width="16" height="16" viewBox="0 0 16 16" fill="none" xmlns="http://www.w3.org/2000/svg">
<rect x="1.75" y="1.75" width="9" height="9" rx="3" fill="black"/>
<path fill-rule="evenodd" clip-rule="evenodd" d="M5.3134 11.7464C5.34718 11.9969 5.39897 12.2064 5.47836 12.3981C5.78284 13.1331 6.36687 13.7172 7.10195 14.0216C7.65326 14.25 8.35218 14.25 9.75 14.25C11.1478 14.25 11.8467 14.25 12.3981 14.0216C13.1331 13.7172 13.7172 13.1331 14.0216 12.3981C14.25 11.8467 14.25 11.1478 14.25 9.75C14.25 8.35218 14.25 7.65326 14.0216 7.10195C13.7172 6.36687 13.1331 5.78284 12.3981 5.47836C12.2064 5.39897 11.9969 5.34718 11.7464 5.3134C11.75 5.5874 11.75 5.88751 11.75 6.21569V6.21573V6.25V6.28427V6.28431C11.75 6.95408 11.75 7.50694 11.7191 7.95954C11.6871 8.42882 11.6186 8.86292 11.4455 9.28073C11.0395 10.2608 10.2608 11.0395 9.28073 11.4455C8.86292 11.6186 8.42882 11.6871 7.95954 11.7191C7.50694 11.75 6.95408 11.75 6.28431 11.75H6.28427H6.25H6.21573H6.21569C5.88751 11.75 5.5874 11.75 5.3134 11.7464ZM5.25458 10.7454C5.54218 10.75 5.87031 10.75 6.25 10.75C7.64782 10.75 8.34674 10.75 8.89805 10.5216C9.63313 10.2172 10.2172 9.63313 10.5216 8.89805C10.75 8.34674 10.75 7.64782 10.75 6.25C10.75 5.87031 10.75 5.54218 10.7454 5.25458C10.4578 5.25 10.1297 5.25 9.75 5.25C8.35218 5.25 7.65326 5.25 7.10195 5.47836C6.36687 5.78284 5.78284 6.36687 5.47836 7.10195C5.25 7.65326 5.25 8.35218 5.25 9.75C5.25 10.1297 5.25 10.4578 5.25458 10.7454Z" fill="black"/>
</svg>
