<svg width="16" height="16" viewBox="0 0 16 16" fill="none" xmlns="http://www.w3.org/2000/svg">
<path fill-rule="evenodd" clip-rule="evenodd" d="M2.16349 2.81901C2 3.13988 2 3.55992 2 4.4V9.2C2 10.8802 2 11.7202 2.32698 12.362C2.6146 12.9265 3.07354 13.3854 3.63803 13.673C4.27976 14 5.11984 14 6.8 14H9.2C10.8802 14 11.7202 14 12.362 13.673C12.9265 13.3854 13.3854 12.9265 13.673 12.362C14 11.7202 14 10.8802 14 9.2V6.8C14 5.11984 14 4.27976 13.673 3.63803C13.3854 3.07354 12.9265 2.6146 12.362 2.32698C11.7202 2 10.8802 2 9.2 2H4.4C3.55992 2 3.13988 2 2.81901 2.16349C2.53677 2.3073 2.3073 2.53677 2.16349 2.81901ZM6.25 8.5C5.42157 8.5 4.75 9.17157 4.75 10V11C4.75 11.8284 5.42157 12.5 6.25 12.5H6.75C7.02614 12.5 7.25 12.2761 7.25 12C7.25 11.7239 7.02614 11.5 6.75 11.5H6.25C5.97386 11.5 5.75 11.2761 5.75 11V10C5.75 9.72386 5.97386 9.5 6.25 9.5H6.75C7.02614 9.5 7.25 9.27614 7.25 9C7.25 8.72386 7.02614 8.5 6.75 8.5H6.25ZM8.75 8.5C8.05964 8.5 7.5 9.05964 7.5 9.75C7.5 10.4404 8.05964 11 8.75 11C8.88807 11 9 11.1119 9 11.25C9 11.3881 8.88807 11.5 8.75 11.5H8C7.72386 11.5 7.5 11.7239 7.5 12C7.5 12.2761 7.72386 12.5 8 12.5H8.75C9.44036 12.5 10 11.9404 10 11.25C10 10.5596 9.44036 10 8.75 10C8.61193 10 8.5 9.88807 8.5 9.75C8.5 9.61193 8.61193 9.5 8.75 9.5H9.5C9.77614 9.5 10 9.27614 10 9C10 8.72386 9.77614 8.5 9.5 8.5H8.75ZM11.5 8.5C10.8096 8.5 10.25 9.05964 10.25 9.75C10.25 10.4404 10.8096 11 11.5 11C11.6381 11 11.75 11.1119 11.75 11.25C11.75 11.3881 11.6381 11.5 11.5 11.5H10.75C10.4739 11.5 10.25 11.7239 10.25 12C10.25 12.2761 10.4739 12.5 10.75 12.5H11.5C12.1904 12.5 12.75 11.9404 12.75 11.25C12.75 10.5596 12.1904 10 11.5 10C11.3619 10 11.25 9.88807 11.25 9.75C11.25 9.61193 11.3619 9.5 11.5 9.5H12.25C12.5261 9.5 12.75 9.27614 12.75 9C12.75 8.72386 12.5261 8.5 12.25 8.5H11.5Z" fill="black"/>
</svg>
