<svg width="16" height="16" viewBox="0 0 16 16" fill="none" xmlns="http://www.w3.org/2000/svg">
<path fill-rule="evenodd" clip-rule="evenodd" d="M1.82988 5.04851L2.32822 10.0319C2.43458 11.0955 3.09882 12.0222 4.07192 12.4645L6.96552 13.7798C7.62283 14.0785 8.37722 14.0785 9.03453 13.7798L11.9281 12.4645C12.9012 12.0222 13.5655 11.0955 13.6718 10.0319L14.1702 5.04851C14.3468 3.28246 12.9599 1.75 11.1851 1.75H4.81499C3.04012 1.75 1.65327 3.28245 1.82988 5.04851ZM6.57772 10.9314C6.96307 11.1438 7.43642 11.25 7.99775 11.25C8.50447 11.25 8.95202 11.1635 9.3404 10.9906C9.72879 10.8146 10.0322 10.5749 10.2507 10.2715C10.4722 9.96803 10.5829 9.62061 10.5829 9.22919C10.5829 8.82564 10.4509 8.47215 10.187 8.16873C9.92298 7.8653 9.55432 7.68325 9.08098 7.62256V7.60891C9.46329 7.53002 9.7743 7.36162 10.014 7.10371C10.2537 6.8458 10.3736 6.52568 10.3736 6.14337C10.3736 5.77319 10.2704 5.44701 10.0641 5.16482C9.86078 4.87961 9.57859 4.65659 9.21752 4.49577C8.85948 4.33192 8.44834 4.25 7.9841 4.25C7.48952 4.25 7.06017 4.34254 6.69606 4.52763C6.33195 4.71272 6.04977 4.9676 5.84951 5.29226C5.65228 5.61389 5.55367 5.98104 5.55367 6.39369H6.87356C6.87356 6.06599 6.97521 5.80505 7.17851 5.61086C7.3818 5.41667 7.65033 5.31957 7.9841 5.31957C8.30573 5.31957 8.56667 5.40756 8.76693 5.58355C8.97023 5.75954 9.07187 5.99317 9.07187 6.28446C9.07187 6.55754 8.96264 6.77449 8.74417 6.93531C8.52874 7.09309 8.23746 7.17198 7.87031 7.17198H7.26498V8.19603H7.87031C8.27083 8.19603 8.59246 8.28403 8.8352 8.46001C9.08098 8.63297 9.20386 8.86357 9.20386 9.15182C9.20386 9.45525 9.09008 9.6995 8.86251 9.88459C8.63798 10.0666 8.34517 10.1577 7.9841 10.1577C7.59875 10.1577 7.29684 10.0469 7.07838 9.82542C6.86294 9.60392 6.75523 9.29595 6.75523 8.9015H5.41713C5.41713 9.33236 5.51422 9.72529 5.70841 10.0803C5.90564 10.4353 6.19541 10.719 6.57772 10.9314Z" fill="black"/>
</svg>
