<svg width="16" height="16" viewBox="0 0 16 16" fill="none" xmlns="http://www.w3.org/2000/svg">
<path fill-rule="evenodd" clip-rule="evenodd" d="M1.82988 5.04851L2.32822 10.0319C2.43458 11.0955 3.09882 12.0222 4.07192 12.4645L6.96552 13.7798C7.62283 14.0785 8.37722 14.0785 9.03453 13.7798L11.9281 12.4645C12.9012 12.0222 13.5655 11.0955 13.6718 10.0319L14.1702 5.04851C14.3468 3.28246 12.9599 1.75 11.1851 1.75H4.81499C3.04012 1.75 1.65327 3.28245 1.82988 5.04851ZM8 3.75C7.24965 3.75 6.69991 4.06719 6.34683 4.37524C6.1712 4.52848 6.04143 4.68147 5.95455 4.79758C5.9109 4.85592 5.87744 4.90581 5.85386 4.94297C5.84205 4.96158 5.83267 4.97708 5.82567 4.98895L5.81695 5.004L5.81392 5.00939L5.81273 5.01153L5.81222 5.01245L5.81198 5.01288C5.81187 5.01309 5.81176 5.01329 6.25 5.254L5.81176 5.01329C5.67881 5.25532 5.76725 5.5593 6.00929 5.69224C6.25041 5.82469 6.55302 5.73741 6.68674 5.49743L6.6873 5.4965C6.68897 5.49366 6.6926 5.48759 6.69822 5.47875C6.70948 5.461 6.72846 5.43245 6.75523 5.39667C6.80921 5.32453 6.89222 5.22652 7.00427 5.12876C7.22656 4.93481 7.55181 4.75 8 4.75C8.27673 4.75 8.60967 4.84574 8.86216 5.02937C9.10259 5.20423 9.25 5.43967 9.25 5.75C9.25 5.84383 9.21118 5.95025 9.10027 6.077C8.98659 6.20692 8.81972 6.33071 8.62693 6.44088C8.43746 6.54915 8.24397 6.63242 8.09544 6.68901C8.02194 6.71701 7.96127 6.73778 7.91999 6.75126C7.8994 6.75799 7.88375 6.76285 7.87389 6.76586L7.86358 6.76896L7.86264 6.76924L8 7.25C7.86264 6.76924 7.86252 6.76927 7.86241 6.7693L7.86194 6.76944C7.63387 6.83495 7.48323 7.05179 7.50148 7.28845C7.51972 7.52495 7.70161 7.71603 7.9368 7.74599L7.93653 7.74595C7.93651 7.74595 7.93694 7.74601 7.93782 7.74613L7.94829 7.74764C7.95865 7.7492 7.97555 7.75187 7.99804 7.75589C8.04314 7.76394 8.11001 7.77727 8.19123 7.79757C8.35574 7.8387 8.56875 7.90589 8.77639 8.00971C9.20004 8.22154 9.5 8.52482 9.5 9C9.5 9.32321 9.33969 9.62857 9.05491 9.86589C8.76753 10.1054 8.38016 10.25 8 10.25C7.45841 10.25 7.07665 10.0138 6.81891 9.76516C6.68883 9.63967 6.59356 9.51347 6.53154 9.41963C6.50077 9.37307 6.47889 9.33555 6.46561 9.31155C6.45898 9.29959 6.45456 9.2911 6.45229 9.28665L6.45062 9.28334C6.33162 9.03575 6.03485 8.93039 5.78618 9.04803C5.53656 9.16611 5.42994 9.4642 5.54802 9.71382L6 9.5C5.54802 9.71382 5.54812 9.71403 5.54822 9.71424L5.54844 9.71469L5.54891 9.71568L5.55003 9.71801L5.55297 9.72405L5.56168 9.74143C5.56876 9.75529 5.57842 9.77365 5.59071 9.79587C5.61527 9.84023 5.6506 9.90036 5.69728 9.97099C5.79015 10.1115 5.93076 10.2978 6.1246 10.4848C6.5147 10.8612 7.13294 11.25 8 11.25C8.61984 11.25 9.23247 11.0196 9.69509 10.6341C10.1603 10.2464 10.5 9.67679 10.5 9C10.5 8.04272 9.88918 7.48078 9.33893 7.176C9.51896 7.05595 9.70015 6.91002 9.85285 6.7355C10.0701 6.48725 10.25 6.15617 10.25 5.75C10.25 5.06033 9.89741 4.54577 9.45034 4.22063C9.01533 3.90426 8.47327 3.75 8 3.75ZM7.937 7.74602L7.93691 7.746L7.9368 7.74599C7.93687 7.746 7.93693 7.74601 7.937 7.74602ZM7.937 7.74602L7.93736 7.74606L7.93765 7.7461C7.93743 7.74607 7.93722 7.74604 7.937 7.74602ZM6.6873 5.4965L6.68747 5.49611L6.68783 5.49546L6.68803 5.4951C6.6876 5.49587 6.68717 5.49665 6.68674 5.49743L6.68669 5.49752L6.68689 5.49716L6.6873 5.4965ZM6.68628 5.49824L6.68649 5.49789C6.68633 5.49816 6.68625 5.4983 6.68625 5.4983L6.68628 5.49824Z" fill="black"/>
</svg>
