<svg width="16" height="16" viewBox="0 0 16 16" fill="none" xmlns="http://www.w3.org/2000/svg">
<path fill-rule="evenodd" clip-rule="evenodd" d="M9 1.57735C8.3812 1.22009 7.6188 1.22009 7 1.57735L2.93782 3.92265C2.31902 4.27992 1.93782 4.94017 1.93782 5.6547V10.3453C1.93782 11.0598 2.31902 11.7201 2.93782 12.0774L7 14.4227C7.6188 14.7799 8.3812 14.7799 9 14.4227L13.0622 12.0774C13.681 11.7201 14.0622 11.0598 14.0622 10.3453V5.6547C14.0622 4.94017 13.681 4.27992 13.0622 3.92265L9 1.57735ZM5.21891 5.81699C4.97976 5.67892 4.67397 5.76085 4.5359 6C4.39782 6.23915 4.47976 6.54494 4.71891 6.68301L7.5 8.28868V11.5C7.5 11.7761 7.72385 12 8 12C8.27614 12 8.5 11.7761 8.5 11.5V8.28868L11.2811 6.68301C11.5202 6.54494 11.6022 6.23915 11.4641 6C11.326 5.76085 11.0202 5.67892 10.7811 5.81699L8 7.42265L5.21891 5.81699Z" fill="black"/>
</svg>
