<svg width="16" height="16" viewBox="0 0 16 16" fill="none" xmlns="http://www.w3.org/2000/svg">
<path fill-rule="evenodd" clip-rule="evenodd" d="M4.81459 8.51837C3.93614 8.77299 3.22799 9.12992 2.78022 9.55001C3.69281 10.4062 5.6869 11 8 11C10.3131 11 12.3072 10.4062 13.2198 9.55001C12.772 9.12992 12.0639 8.77299 11.1854 8.51837C10.2306 8.76528 9.14086 8.89998 8 8.89998C6.85914 8.89998 5.76941 8.76528 4.81459 8.51837ZM2.25 10.6C2.25 10.5419 2.25456 10.4842 2.26354 10.4271C2.62873 10.7304 3.06643 10.9809 3.53541 11.1848C4.72912 11.7038 6.30834 12 8 12C9.69166 12 11.2709 11.7038 12.4646 11.1848C12.9336 10.9809 13.3713 10.7304 13.7365 10.4271C13.7454 10.4842 13.75 10.5419 13.75 10.6V11.6C13.75 12.9807 11.1756 14.1 8 14.1C4.82436 14.1 2.25 12.9807 2.25 11.6V10.6Z" fill="black"/>
<path fill-rule="evenodd" clip-rule="evenodd" d="M2.26354 7.32706C2.25456 7.3842 2.25 7.44187 2.25 7.5V8.5C2.25 9.88071 4.82436 11 8 11C11.1756 11 13.75 9.88071 13.75 8.5V7.5C13.75 7.44187 13.7454 7.3842 13.7365 7.32706C13.3713 7.63038 12.9336 7.88092 12.4646 8.08483C11.2709 8.60384 9.69166 8.89999 8 8.89999C6.30834 8.89999 4.72912 8.60384 3.53541 8.08483C3.06643 7.88092 2.62873 7.63037 2.26354 7.32706ZM2.78022 6.45C3.69281 5.59384 5.6869 5 8 5C10.3131 5 12.3072 5.59384 13.2198 6.45C12.3072 7.30616 10.3131 7.89999 8 7.89999C5.6869 7.89999 3.69281 7.30616 2.78022 6.45Z" fill="black"/>
<path fill-rule="evenodd" clip-rule="evenodd" d="M2.25 5.40002V4.40002C2.25 3.01931 4.82436 1.90002 8 1.90002C11.1756 1.90002 13.75 3.01931 13.75 4.40002V5.40002C13.75 6.78074 11.1756 7.90002 8 7.90002C4.82436 7.90002 2.25 6.78074 2.25 5.40002Z" fill="black"/>
</svg>
