<svg width="16" height="16" viewBox="0 0 16 16" fill="none" xmlns="http://www.w3.org/2000/svg">
<path fill-rule="evenodd" clip-rule="evenodd" d="M5.17156 3.07843L5.17156 3.07843L3.07842 5.17158C2.08837 6.16162 1.59335 6.65664 1.40788 7.22746C1.24474 7.72957 1.24474 8.27044 1.40788 8.77255C1.59335 9.34337 2.08837 9.83839 3.07842 10.8284L5.17156 12.9216C6.1616 13.9116 6.65662 14.4066 7.22745 14.5921C7.72955 14.7553 8.27042 14.7553 8.77253 14.5921C9.34335 14.4066 9.83837 13.9116 10.8284 12.9216L12.9216 10.8284C13.9116 9.83839 14.4066 9.34337 14.5921 8.77255C14.7552 8.27044 14.7552 7.72957 14.5921 7.22746C14.4066 6.65664 13.9116 6.16162 12.9216 5.17158L12.9216 5.17158L10.8284 3.07843C9.83837 2.08839 9.34335 1.59337 8.77253 1.4079C8.27042 1.24475 7.72955 1.24475 7.22745 1.4079C6.65663 1.59337 6.1616 2.08839 5.17156 3.07843ZM5.77638 9.55279C6.02143 9.43027 6.31899 9.52785 6.44426 9.7706L6.44813 9.77735L6.4518 9.78348C6.46069 9.79814 6.47702 9.82355 6.50155 9.85625C6.55077 9.92188 6.63155 10.0149 6.74984 10.1096C6.98007 10.2938 7.37145 10.5 7.99999 10.5C8.62853 10.5 9.01991 10.2938 9.25014 10.1096C9.36843 10.0149 9.44921 9.92188 9.49843 9.85625C9.52295 9.82355 9.53928 9.79814 9.54818 9.78348C9.55231 9.77668 9.5548 9.77227 9.55572 9.7706C9.68099 9.52785 9.97855 9.43027 10.2236 9.55279C10.4706 9.67628 10.5707 9.97662 10.4472 10.2236L9.99999 10C10.4472 10.2236 10.4471 10.2239 10.4469 10.2241L10.4467 10.2247L10.4461 10.2259L10.4447 10.2286L10.4414 10.235L10.4321 10.2522C10.4248 10.2655 10.4151 10.2824 10.403 10.3025C10.3787 10.3425 10.3442 10.3952 10.2984 10.4563C10.207 10.5781 10.069 10.7351 9.87484 10.8904C9.48007 11.2063 8.87145 11.5 7.99999 11.5C7.12853 11.5 6.51991 11.2063 6.12514 10.8904C5.93093 10.7351 5.79295 10.5781 5.70155 10.4563C5.65577 10.3952 5.62131 10.3425 5.59701 10.3025C5.58484 10.2824 5.57518 10.2655 5.56786 10.2522L5.55862 10.235L5.55528 10.2286L5.55393 10.2259L5.55332 10.2247L5.55304 10.2241C5.55291 10.2239 5.55277 10.2236 5.99999 10L5.55277 10.2236C5.42928 9.97662 5.52939 9.67628 5.77638 9.55279ZM5.99999 7.75C5.99999 8.44036 5.44034 9 4.74999 9C4.05963 9 3.49999 8.44036 3.49999 7.75C3.49999 7.05965 4.05963 6.5 4.74999 6.5C5.44034 6.5 5.99999 7.05965 5.99999 7.75ZM11.25 9C11.9403 9 12.5 8.44036 12.5 7.75C12.5 7.05965 11.9403 6.5 11.25 6.5C10.5596 6.5 9.99999 7.05965 9.99999 7.75C9.99999 8.44036 10.5596 9 11.25 9Z" fill="black"/>
</svg>
