<svg width="16" height="16" viewBox="0 0 16 16" fill="none" xmlns="http://www.w3.org/2000/svg">
<path fill-rule="evenodd" clip-rule="evenodd" d="M1.46799 4.09202C1.25 4.51984 1.25 5.0799 1.25 6.2V9.8C1.25 10.9201 1.25 11.4802 1.46799 11.908C1.65973 12.2843 1.96569 12.5903 2.34202 12.782C2.76984 13 3.3299 13 4.45 13H8.92452C9.4137 13 9.65829 13 9.88846 12.9447C10.0925 12.8957 10.2876 12.8149 10.4666 12.7053C10.6684 12.5816 10.8414 12.4086 11.1873 12.0627L13.8358 9.41421L13.8358 9.41421C14.3308 8.91919 14.5783 8.67168 14.6711 8.38627C14.7526 8.13522 14.7526 7.86478 14.6711 7.61373C14.5783 7.32832 14.3308 7.08081 13.8358 6.5858L13.8358 6.58579L11.1873 3.93726C10.8414 3.59135 10.6684 3.4184 10.4666 3.29472C10.2876 3.18506 10.0925 3.10425 9.88846 3.05526C9.65829 3 9.4137 3 8.92452 3H4.45C3.3299 3 2.76984 3 2.34202 3.21799C1.96569 3.40973 1.65973 3.71569 1.46799 4.09202ZM4.35355 5.64645C4.15829 5.45118 3.84171 5.45118 3.64645 5.64645C3.45118 5.84171 3.45118 6.15829 3.64645 6.35355L5.29289 8L3.64645 9.64645C3.45118 9.84171 3.45118 10.1583 3.64645 10.3536C3.84171 10.5488 4.15829 10.5488 4.35355 10.3536L6 8.70711L7.64645 10.3536C7.84171 10.5488 8.15829 10.5488 8.35355 10.3536C8.54882 10.1583 8.54882 9.84171 8.35355 9.64645L6.70711 8L8.35355 6.35355C8.54882 6.15829 8.54882 5.84171 8.35355 5.64645C8.15829 5.45118 7.84171 5.45118 7.64645 5.64645L6 7.29289L4.35355 5.64645Z" fill="black"/>
</svg>
