<svg width="16" height="16" viewBox="0 0 16 16" fill="none" xmlns="http://www.w3.org/2000/svg">
<path fill-rule="evenodd" clip-rule="evenodd" d="M14.5142 4.09202C14.7322 4.51984 14.7322 5.0799 14.7322 6.2V9.8C14.7322 10.9201 14.7322 11.4802 14.5142 11.908C14.3225 12.2843 14.0165 12.5903 13.6402 12.782C13.2124 13 12.6523 13 11.5322 13H7.05772C6.56854 13 6.32394 13 6.09377 12.9447C5.8897 12.8957 5.69461 12.8149 5.51566 12.7053C5.31383 12.5816 5.14088 12.4086 4.79498 12.0627L2.14645 9.41421C1.65143 8.91919 1.40391 8.67168 1.31118 8.38627C1.22961 8.13522 1.22961 7.86478 1.31118 7.61373C1.40391 7.32832 1.65142 7.08081 2.14645 6.58579L4.79497 3.93726C5.14088 3.59135 5.31383 3.4184 5.51566 3.29472C5.69461 3.18506 5.8897 3.10425 6.09377 3.05526C6.32394 3 6.56854 3 7.05772 3H11.5322C12.6523 3 13.2124 3 13.6402 3.21799C14.0165 3.40973 14.3225 3.71569 14.5142 4.09202ZM11.6287 5.64645C11.8239 5.45118 12.1405 5.45118 12.3358 5.64645C12.531 5.84171 12.531 6.15829 12.3358 6.35355L10.6893 8L12.3358 9.64645C12.531 9.84171 12.531 10.1583 12.3358 10.3536C12.1405 10.5488 11.8239 10.5488 11.6287 10.3536L9.98223 8.70711L8.33579 10.3536C8.14052 10.5488 7.82394 10.5488 7.62868 10.3536C7.43342 10.1583 7.43342 9.84171 7.62868 9.64645L9.27513 8L7.62868 6.35355C7.43342 6.15829 7.43342 5.84171 7.62868 5.64645C7.82394 5.45118 8.14052 5.45118 8.33579 5.64645L9.98223 7.29289L11.6287 5.64645Z" fill="black"/>
</svg>
