<svg width="16" height="16" viewBox="0 0 16 16" fill="none" xmlns="http://www.w3.org/2000/svg">
<path d="M5.17157 3.07843C6.16161 2.08839 6.65664 1.59336 7.22746 1.40789C7.72957 1.24475 8.27043 1.24475 8.77254 1.40789C9.34336 1.59336 9.83838 2.08838 10.8284 3.07843L12.9216 5.17157C13.9116 6.16161 14.4066 6.65664 14.5921 7.22746C14.7553 7.72957 14.7553 8.27043 14.5921 8.77254C14.4066 9.34336 13.9116 9.83838 12.9216 10.8284L10.8284 12.9216C9.83839 13.9116 9.34336 14.4066 8.77254 14.5921C8.27043 14.7553 7.72957 14.7553 7.22746 14.5921C6.65664 14.4066 6.16161 13.9116 5.17157 12.9216L3.07843 10.8284C2.08839 9.83839 1.59336 9.34336 1.40789 8.77254C1.24475 8.27043 1.24475 7.72957 1.40789 7.22746C1.59336 6.65664 2.08838 6.16161 3.07843 5.17157L5.17157 3.07843Z" fill="black"/>
</svg>
