<svg width="16" height="16" viewBox="0 0 16 16" fill="none" xmlns="http://www.w3.org/2000/svg">
<path fill-rule="evenodd" clip-rule="evenodd" d="M2.32698 3.63803C2 4.27976 2 5.11984 2 6.8V9.2C2 10.8802 2 11.7202 2.32698 12.362C2.6146 12.9265 3.07354 13.3854 3.63803 13.673C4.27976 14 5.11984 14 6.8 14H9.2C10.8802 14 11.7202 14 12.362 13.673C12.9265 13.3854 13.3854 12.9265 13.673 12.362C14 11.7202 14 10.8802 14 9.2V6.8C14 5.11984 14 4.27976 13.673 3.63803C13.3854 3.07354 12.9265 2.6146 12.362 2.32698C11.7202 2 10.8802 2 9.2 2H6.8C5.11984 2 4.27976 2 3.63803 2.32698C3.07354 2.6146 2.6146 3.07354 2.32698 3.63803ZM5.25 6.25C5.80228 6.25 6.25 5.80228 6.25 5.25C6.25 4.69772 5.80228 4.25 5.25 4.25C4.69772 4.25 4.25 4.69772 4.25 5.25C4.25 5.80228 4.69772 6.25 5.25 6.25ZM6.25 10.75C6.25 11.3023 5.80228 11.75 5.25 11.75C4.69772 11.75 4.25 11.3023 4.25 10.75C4.25 10.1977 4.69772 9.75 5.25 9.75C5.80228 9.75 6.25 10.1977 6.25 10.75ZM10.75 11.75C11.3023 11.75 11.75 11.3023 11.75 10.75C11.75 10.1977 11.3023 9.75 10.75 9.75C10.1977 9.75 9.75 10.1977 9.75 10.75C9.75 11.3023 10.1977 11.75 10.75 11.75ZM11.75 5.25C11.75 5.80228 11.3023 6.25 10.75 6.25C10.1977 6.25 9.75 5.80228 9.75 5.25C9.75 4.69772 10.1977 4.25 10.75 4.25C11.3023 4.25 11.75 4.69772 11.75 5.25ZM8 9C8.55228 9 9 8.55228 9 8C9 7.44772 8.55228 7 8 7C7.44772 7 7 7.44772 7 8C7 8.55228 7.44772 9 8 9Z" fill="black"/>
</svg>
