<svg width="16" height="16" viewBox="0 0 16 16" fill="none" xmlns="http://www.w3.org/2000/svg">
<path fill-rule="evenodd" clip-rule="evenodd" d="M2 6.8C2 5.11984 2 4.27976 2.32698 3.63803C2.6146 3.07354 3.07354 2.6146 3.63803 2.32698C4.27976 2 5.11984 2 6.8 2H9.2C10.8802 2 11.7202 2 12.362 2.32698C12.9265 2.6146 13.3854 3.07354 13.673 3.63803C14 4.27976 14 5.11984 14 6.8V9.2C14 10.8802 14 11.7202 13.673 12.362C13.3854 12.9265 12.9265 13.3854 12.362 13.673C11.7202 14 10.8802 14 9.2 14H6.8C5.11984 14 4.27976 14 3.63803 13.673C3.07354 13.3854 2.6146 12.9265 2.32698 12.362C2 11.7202 2 10.8802 2 9.2V6.8ZM8.1 6.05C8.1 7.18218 7.18218 8.1 6.05 8.1C4.91782 8.1 4 7.18218 4 6.05C4 4.91782 4.91782 4 6.05 4C7.18218 4 8.1 4.91782 8.1 6.05ZM8.90003 7.9C8.34775 7.9 7.90003 8.34772 7.90003 8.9V10.9C7.90003 11.4523 8.34775 11.9 8.90003 11.9H10.9C11.4523 11.9 11.9 11.4523 11.9 10.9V8.9C11.9 8.34772 11.4523 7.9 10.9 7.9H8.90003Z" fill="black"/>
</svg>
