<svg width="16" height="16" viewBox="0 0 16 16" fill="none" xmlns="http://www.w3.org/2000/svg">
<path fill-rule="evenodd" clip-rule="evenodd" d="M4.5 7.75C3.79206 7.75 3.14139 7.99522 2.6283 8.40534L3.56775 4.75192C3.79506 3.86794 4.59201 3.25 5.50474 3.25H10.4953C11.408 3.25 12.2049 3.86794 12.4322 4.75192L13.3717 8.40534C12.8586 7.99522 12.2079 7.75 11.5 7.75H4.5ZM4.36368 13.75H4.5H11.5H11.6363C13.356 13.75 14.75 12.356 14.75 10.6363C14.75 10.0478 14.6758 9.4616 14.5293 8.8916L13.4007 4.50288C13.0598 3.17691 11.8644 2.25 10.4953 2.25H5.50474C4.13564 2.25 2.94022 3.17691 2.59926 4.50288L1.47073 8.8916C1.32416 9.46159 1.25 10.0478 1.25 10.6363C1.25 12.356 2.64404 13.75 4.36368 13.75ZM7.5 10.25C7.5 9.97386 7.27614 9.75 7 9.75C6.72386 9.75 6.5 9.97386 6.5 10.25V11.25C6.5 11.5261 6.72386 11.75 7 11.75C7.27614 11.75 7.5 11.5261 7.5 11.25V10.25ZM9 10.25C9 9.97386 8.77614 9.75 8.5 9.75C8.22386 9.75 8 9.97386 8 10.25V11.25C8 11.5261 8.22386 11.75 8.5 11.75C8.77614 11.75 9 11.5261 9 11.25V10.25ZM10.5 10.25C10.5 9.97386 10.2761 9.75 10 9.75C9.72386 9.75 9.5 9.97386 9.5 10.25V11.25C9.5 11.5261 9.72386 11.75 10 11.75C10.2761 11.75 10.5 11.5261 10.5 11.25V10.25ZM12 10.25C12 9.97386 11.7761 9.75 11.5 9.75C11.2239 9.75 11 9.97386 11 10.25V11.25C11 11.5261 11.2239 11.75 11.5 11.75C11.7761 11.75 12 11.5261 12 11.25V10.25Z" fill="black"/>
</svg>
