<svg width="16" height="16" viewBox="0 0 16 16" fill="none" xmlns="http://www.w3.org/2000/svg">
<path fill-rule="evenodd" clip-rule="evenodd" d="M2.6283 8.40534C3.14139 7.99522 3.79206 7.75 4.5 7.75H11.5C12.2079 7.75 12.8586 7.99522 13.3717 8.40534L12.4322 4.75192C12.2049 3.86794 11.408 3.25 10.4953 3.25H5.50474C4.59201 3.25 3.79506 3.86794 3.56775 4.75192L2.6283 8.40534ZM4.5 13.75H4.36368C2.64404 13.75 1.25 12.356 1.25 10.6363C1.25 10.0478 1.32416 9.46159 1.47073 8.8916L2.59926 4.50288C2.94022 3.17691 4.13564 2.25 5.50474 2.25H10.4953C11.8644 2.25 13.0598 3.17691 13.4007 4.50288L14.5293 8.8916C14.6758 9.4616 14.75 10.0478 14.75 10.6363C14.75 12.356 13.356 13.75 11.6363 13.75H11.5H4.5ZM12 10.5C12 10.9142 11.6642 11.25 11.25 11.25C10.8358 11.25 10.5 10.9142 10.5 10.5C10.5 10.0858 10.8358 9.75 11.25 9.75C11.6642 9.75 12 10.0858 12 10.5ZM8.75 11.25C9.16421 11.25 9.5 10.9142 9.5 10.5C9.5 10.0858 9.16421 9.75 8.75 9.75C8.33579 9.75 8 10.0858 8 10.5C8 10.9142 8.33579 11.25 8.75 11.25Z" fill="black"/>
</svg>
