<svg width="16" height="16" viewBox="0 0 16 16" fill="none" xmlns="http://www.w3.org/2000/svg">
<path fill-rule="evenodd" clip-rule="evenodd" d="M4.5 7.75C3.79206 7.75 3.14139 7.99522 2.6283 8.40534L3.56775 4.75192C3.79506 3.86794 4.59201 3.25 5.50474 3.25H10.4953C11.408 3.25 12.2049 3.86794 12.4322 4.75192L13.3717 8.40534C12.8586 7.99522 12.2079 7.75 11.5 7.75H4.5ZM4.36368 13.75H4.5H11.5H11.6363C13.356 13.75 14.75 12.356 14.75 10.6363C14.75 10.0478 14.6758 9.4616 14.5293 8.8916L13.4007 4.50288C13.0598 3.17691 11.8644 2.25 10.4953 2.25H5.50474C4.13564 2.25 2.94022 3.17691 2.59926 4.50288L1.47073 8.8916C1.32416 9.46159 1.25 10.0478 1.25 10.6363C1.25 12.356 2.64404 13.75 4.36368 13.75ZM4.5 10.25C4.22386 10.25 4 10.4739 4 10.75C4 11.0261 4.22386 11.25 4.5 11.25H11.5C11.7761 11.25 12 11.0261 12 10.75C12 10.4739 11.7761 10.25 11.5 10.25H4.5Z" fill="black"/>
</svg>
