<svg width="16" height="16" viewBox="0 0 16 16" fill="none" xmlns="http://www.w3.org/2000/svg">
<path fill-rule="evenodd" clip-rule="evenodd" d="M4.12421 12.8821L4.35713 10.7858C4.43847 10.0538 5.05721 9.5 5.79372 9.5C6.68691 9.5 7.36633 8.69798 7.21949 7.81694L7.05975 6.85851C7.02534 6.65206 7.14625 6.45125 7.34481 6.38506L7.42522 6.35826C8.85967 5.88011 9.6546 4.34868 9.22012 2.9004L8.89404 1.81346C8.60205 1.77164 8.30355 1.75 8 1.75C4.54822 1.75 1.75 4.54822 1.75 8C1.75 9.98662 2.67689 11.7568 4.12179 12.9015C4.12268 12.8951 4.12349 12.8886 4.12421 12.8821ZM11.4013 2.75572C13.116 3.87011 14.25 5.80263 14.25 8C14.25 11.0132 12.1177 13.5283 9.27979 14.1189C9.27165 14.0866 9.26316 14.0526 9.25421 14.0169L8.77109 12.0843C8.73666 11.9466 8.71944 11.8778 8.71407 11.8222C8.67563 11.425 8.95495 11.0673 9.34961 11.0083C9.40479 11 9.47576 11 9.61771 11H9.86692C9.99103 11 10.0531 11 10.0832 10.9976C10.7624 10.9428 11.0226 10.0837 10.4877 9.6614C10.4641 9.6427 10.4125 9.6083 10.3093 9.53952L10.3092 9.5395L10.3092 9.53947L10.3092 9.53945L10.3091 9.53943C10.2656 9.5104 10.2438 9.49588 10.2271 9.48335C9.87545 9.2195 9.82511 8.71113 10.1182 8.38344C10.1321 8.36787 10.1506 8.34937 10.1876 8.31236L10.3971 8.10291L10.3971 8.1029C10.5564 7.94359 10.6361 7.86392 10.6858 7.77698C10.792 7.59148 10.814 7.3695 10.7463 7.16679C10.7145 7.07177 10.652 6.97803 10.527 6.79055L10.3068 6.46022C10.2608 6.39122 10.2378 6.35672 10.2185 6.3221C10.1007 6.11094 10.0635 5.86425 10.1136 5.62772C10.1218 5.58894 10.1336 5.54918 10.1571 5.46967L10.5494 4.14586C10.7115 3.59859 11.0112 3.12534 11.4013 2.75572Z" fill="black"/>
<circle cx="8" cy="8" r="6" stroke="black"/>
</svg>
