<svg width="16" height="16" viewBox="0 0 16 16" fill="none" xmlns="http://www.w3.org/2000/svg">
<rect x="2.5" y="2.5" width="11" height="11" rx="2.5" stroke="black"/>
<path d="M2 6C2 5.07003 2 4.60504 2.10222 4.22354C2.37962 3.18827 3.18827 2.37962 4.22354 2.10222C4.60504 2 5.07003 2 6 2H10C10.93 2 11.395 2 11.7765 2.10222C12.8117 2.37962 13.6204 3.18827 13.8978 4.22354C14 4.60504 14 5.07003 14 6H2Z" fill="black"/>
<path d="M10.5 9.25H7.25C6.42157 9.25 5.75 9.92157 5.75 10.75V10.75M10.5 9.25L8.99998 7.75M10.5 9.25L8.99998 10.75" stroke="black" stroke-linecap="round" stroke-linejoin="round"/>
</svg>
