<svg width="16" height="16" viewBox="0 0 16 16" fill="none" xmlns="http://www.w3.org/2000/svg">
<path d="M7.80605 9.94563C8.71581 9.28858 9.17069 8.96006 9.33208 8.55377C9.47337 8.19811 9.47337 7.80189 9.33208 7.44623C9.17069 7.03994 8.71581 6.71142 7.80605 6.05437L5.30518 4.24818C4.07671 3.36096 3.46248 2.91734 2.94991 2.93447C2.5037 2.94938 2.08732 3.16228 1.81399 3.51528C1.5 3.92078 1.5 4.67846 1.5 6.19381V9.80619C1.5 11.3215 1.5 12.0792 1.81399 12.4847C2.08732 12.8377 2.5037 13.0506 2.94991 13.0655C3.46248 13.0827 4.07671 12.639 5.30518 11.7518L7.80605 9.94563Z" fill="black"/>
<path d="M14.5 11V5C14.5 4.53501 14.5 4.30252 14.4489 4.11177C14.3102 3.59413 13.9059 3.18981 13.3882 3.05111C13.1975 3 12.965 3 12.5 3C12.035 3 11.8025 3 11.6118 3.05111C11.0941 3.18981 10.6898 3.59413 10.5511 4.11177C10.5 4.30252 10.5 4.53501 10.5 5V11C10.5 11.465 10.5 11.6975 10.5511 11.8882C10.6898 12.4059 11.0941 12.8102 11.6118 12.9489C11.8025 13 12.035 13 12.5 13C12.965 13 13.1975 13 13.3882 12.9489C13.9059 12.8102 14.3102 12.4059 14.4489 11.8882C14.5 11.6975 14.5 11.465 14.5 11Z" fill="black"/>
</svg>
