<svg width="16" height="16" viewBox="0 0 16 16" fill="none" xmlns="http://www.w3.org/2000/svg">
<path fill-rule="evenodd" clip-rule="evenodd" d="M2.75 6.7C2.75 5.01984 2.75 4.17977 3.07698 3.53803C3.3646 2.97354 3.82354 2.5146 4.38803 2.22698C5.02976 1.9 5.86984 1.9 7.55 1.9H8.45C10.1302 1.9 10.9702 1.9 11.612 2.22698C12.1765 2.5146 12.6354 2.97354 12.923 3.53803C13.25 4.17977 13.25 5.01984 13.25 6.7V9.3C13.25 10.9802 13.25 11.8202 12.923 12.462C12.6354 13.0265 12.1765 13.4854 11.612 13.773C10.9702 14.1 10.1302 14.1 8.45 14.1H7.55C7.50098 14.1 7.45267 14.1 7.40506 14.1C7.78229 13.4896 8 12.7702 8 12C8 9.79086 6.20914 8 4 8C3.56347 8 3.14327 8.06993 2.75 8.19919V6.7ZM11.5 8C11.5 8.55229 11.0523 9 10.5 9C9.94772 9 9.5 8.55229 9.5 8C9.5 7.44772 9.94772 7 10.5 7C11.0523 7 11.5 7.44772 11.5 8Z" fill="black"/>
<path fill-rule="evenodd" clip-rule="evenodd" d="M4 15C5.65685 15 7 13.6569 7 12C7 10.3431 5.65685 9 4 9C2.34315 9 1 10.3431 1 12C1 13.6569 2.34315 15 4 15ZM3.73483 13.2348C3.58839 13.3813 3.58839 13.6187 3.73483 13.7652C3.88128 13.9116 4.11872 13.9116 4.26517 13.7652L5.76517 12.2652C5.91161 12.1187 5.91161 11.8813 5.76517 11.7348L4.26517 10.2348C4.11872 10.0884 3.88128 10.0884 3.73484 10.2348C3.58839 10.3813 3.58839 10.6187 3.73484 10.7652L4.59467 11.625L2.5 11.625C2.29289 11.625 2.125 11.7929 2.125 12C2.125 12.2071 2.29289 12.375 2.5 12.375L4.59467 12.375L3.73483 13.2348Z" fill="black"/>
</svg>
