<svg width="16" height="16" viewBox="0 0 16 16" fill="none" xmlns="http://www.w3.org/2000/svg">
<path fill-rule="evenodd" clip-rule="evenodd" d="M1.89219 6.03592C1.75 6.48116 1.75 6.97667 1.75 7.9677V8.94999C1.75 9.94654 1.75 10.6475 1.81823 11.1869L5.51718 8.72095L1.91976 5.95371C1.91018 5.98096 1.90099 6.00836 1.89219 6.03592ZM2.41101 5.06996L7.39029 8.90018C7.74974 9.17668 8.25026 9.17668 8.60971 8.90018L13.589 5.06996C13.5611 5.03523 13.5324 5.00108 13.5029 4.96755C13.1943 4.61655 12.7694 4.36161 11.9196 3.85174L9.64639 2.48782C9.04779 2.12866 8.74849 1.94908 8.42898 1.87891C8.14636 1.81685 7.85364 1.81685 7.57102 1.87891C7.25151 1.94908 6.95221 2.12866 6.35361 2.48782L4.08042 3.85173L4.08042 3.85174C3.23062 4.36161 2.80572 4.61655 2.49708 4.96755C2.4676 5.00108 2.43891 5.03523 2.41101 5.06996ZM14.0802 5.95371L10.4828 8.72095L14.1818 11.1869C14.25 10.6475 14.25 9.94654 14.25 8.94999V7.9677C14.25 6.97667 14.25 6.48116 14.1078 6.03592C14.099 6.00836 14.0898 5.98096 14.0802 5.95371ZM13.8823 12.1891L9.72265 9.41603C9.69719 9.39905 9.6738 9.38015 9.65252 9.35965L9.21942 9.6928C8.50052 10.2458 7.49948 10.2458 6.78058 9.6928L6.34748 9.35965C6.3262 9.38015 6.30281 9.39905 6.27735 9.41603L2.11772 12.1891C2.40701 12.7183 2.84949 13.1486 3.38803 13.423C4.02976 13.75 4.86984 13.75 6.55 13.75H9.45C11.1302 13.75 11.9702 13.75 12.612 13.423C13.1505 13.1486 13.593 12.7183 13.8823 12.1891Z" fill="black"/>
</svg>
