<svg width="16" height="16" viewBox="0 0 16 16" fill="none" xmlns="http://www.w3.org/2000/svg">
<path fill-rule="evenodd" clip-rule="evenodd" d="M1.78899 5.35312C1.75 5.84957 1.75 6.47303 1.75 7.3V8.7C1.75 9.55861 1.75 10.1978 1.79364 10.7033L5.51718 8.22095L1.78899 5.35312ZM2.01688 4.26678L7.39029 8.40018C7.74974 8.67668 8.25026 8.67668 8.60971 8.40018L13.9831 4.26678C13.9644 4.2229 13.9444 4.18004 13.923 4.13803C13.6354 3.57354 13.1765 3.1146 12.612 2.82698C11.9702 2.5 11.1302 2.5 9.45 2.5H6.55C4.86984 2.5 4.02976 2.5 3.38803 2.82698C2.82354 3.1146 2.3646 3.57354 2.07698 4.13803C2.05558 4.18004 2.03557 4.2229 2.01688 4.26678ZM14.211 5.35312L10.4828 8.22095L14.2064 10.7033C14.25 10.1978 14.25 9.55861 14.25 8.7V7.3C14.25 6.47303 14.25 5.84957 14.211 5.35312ZM13.9754 11.7512L9.72265 8.91603C9.69719 8.89905 9.6738 8.88015 9.65252 8.85965L9.21942 9.1928C8.50052 9.7458 7.49948 9.7458 6.78058 9.1928L6.34748 8.85965C6.3262 8.88015 6.30281 8.89905 6.27735 8.91603L2.02463 11.7512C2.04107 11.7888 2.0585 11.8257 2.07698 11.862C2.3646 12.4265 2.82354 12.8854 3.38803 13.173C4.02976 13.5 4.86984 13.5 6.55 13.5H9.45C11.1302 13.5 11.9702 13.5 12.612 13.173C13.1765 12.8854 13.6354 12.4265 13.923 11.862C13.9415 11.8257 13.9589 11.7888 13.9754 11.7512Z" fill="black"/>
</svg>
