<svg width="16" height="16" viewBox="0 0 16 16" fill="none" xmlns="http://www.w3.org/2000/svg">
<path fill-rule="evenodd" clip-rule="evenodd" d="M1.73327 10.1868C1.91874 10.7576 2.41376 11.2526 3.40381 12.2426L3.75736 12.5962C4.7474 13.5862 5.24242 14.0813 5.81324 14.2667C6.31535 14.4299 6.85622 14.4299 7.35833 14.2667C7.92915 14.0813 8.42417 13.5862 9.41421 12.5962L12.5962 9.41421C13.5862 8.42417 14.0813 7.92915 14.2667 7.35833C14.4299 6.85622 14.4299 6.31535 14.2667 5.81324C14.0813 5.24242 13.5862 4.7474 12.5962 3.75736L12.2426 3.40381C11.2526 2.41376 10.7576 1.91874 10.1868 1.73327C9.68465 1.57013 9.14378 1.57013 8.64167 1.73327C8.07085 1.91874 7.57583 2.41376 6.58579 3.40381L3.40381 6.58579C2.41376 7.57583 1.91874 8.07085 1.73327 8.64167C1.57013 9.14378 1.57013 9.68465 1.73327 10.1868ZM2.68433 9.87774C2.79561 10.2202 3.09262 10.5172 3.68665 11.1113L4.88873 12.3134C5.48276 12.9074 5.77977 13.2044 6.12226 13.3157C6.42353 13.4136 6.74805 13.4136 7.04931 13.3157C7.3918 13.2044 7.68882 12.9074 8.28284 12.3134L9.73241 10.8638C9.93042 10.6658 10.0294 10.5668 10.0665 10.4526C10.0991 10.3522 10.0991 10.244 10.0665 10.1436C10.0294 10.0294 9.93042 9.93042 9.73241 9.73241L6.26759 6.26759C6.06958 6.06958 5.97058 5.97058 5.85641 5.93348C5.75599 5.90085 5.64782 5.90085 5.54739 5.93348C5.43323 5.97058 5.33423 6.06958 5.13622 6.26759L3.68665 7.71716C3.09262 8.31118 2.79561 8.6082 2.68433 8.95069C2.58644 9.25195 2.58644 9.57647 2.68433 9.87774Z" fill="black"/>
</svg>
