<svg width="16" height="16" viewBox="0 0 16 16" fill="none" xmlns="http://www.w3.org/2000/svg">
<path d="M8 2.25C9.13724 2.25 10.2489 2.58723 11.1945 3.21905C12.1401 3.85087 12.8771 4.7489 13.3123 5.79957C13.7475 6.85025 13.8614 8.00638 13.6395 9.12177C13.4177 10.2372 12.87 11.2617 12.0659 12.0659C11.2617 12.87 10.2372 13.4177 9.12177 13.6395C8.00638 13.8614 6.85025 13.7475 5.79957 13.3123C4.7489 12.8771 3.85087 12.1401 3.21905 11.1945C2.58723 10.2489 2.25 9.13724 2.25 8" stroke="#0077FF" stroke-linecap="round"/>
<path d="M2.5 2.5V6M2.5 2.5H6M2.5 2.5L8 8" stroke="#0077FF" stroke-linecap="round" stroke-linejoin="round"/>
</svg>
