<svg width="16" height="16" viewBox="0 0 16 16" fill="none" xmlns="http://www.w3.org/2000/svg">
<path fill-rule="evenodd" clip-rule="evenodd" d="M2.98366 4.75143C1.75122 5.99871 1.25 7.46481 1.25 8C1.25 9 2.99988 13.25 8 13.25C9.13269 13.25 10.0986 13.0319 10.9151 12.6829L9.04516 10.8129C8.7197 10.9339 8.36757 11 8 11C6.34315 11 5 9.65685 5 8C5 7.63243 5.06611 7.2803 5.18708 6.95484L2.98366 4.75143ZM6.01199 7.77976C6.00407 7.85208 6 7.92557 6 8C6 9.10457 6.89543 10 8 10C8.07443 10 8.14792 9.99593 8.22024 9.98801L6.01199 7.77976ZM9.98801 8.22024L7.77976 6.01199C7.85208 6.00407 7.92557 6 8 6C9.10457 6 10 6.89543 10 8C10 8.07443 9.99593 8.14792 9.98801 8.22024ZM10.8129 9.04516C10.9339 8.7197 11 8.36757 11 8C11 6.34315 9.65685 5 8 5C7.63243 5 7.2803 5.06611 6.95484 5.18708L5.08487 3.3171C5.90142 2.9681 6.86731 2.75 8 2.75C13.0001 2.75 14.75 7 14.75 8C14.75 8.53519 14.2488 10.0013 13.0163 11.2486L10.8129 9.04516Z" fill="black"/>
<path d="M2.5 2.5L13.5 13.5" stroke="black" stroke-linecap="round" stroke-linejoin="round"/>
</svg>
