<svg width="16" height="16" viewBox="0 0 16 16" fill="none" xmlns="http://www.w3.org/2000/svg">
<path fill-rule="evenodd" clip-rule="evenodd" d="M1.25 8C1.25 7 2.99988 2.75 8 2.75C13.0001 2.75 14.75 7 14.75 8C14.75 9 13.0001 13.25 8 13.25C2.99988 13.25 1.25 9 1.25 8ZM10 8C10 9.10457 9.10457 10 8 10C6.89543 10 6 9.10457 6 8C6 6.89543 6.89543 6 8 6C9.10457 6 10 6.89543 10 8ZM11 8C11 9.65685 9.65685 11 8 11C6.34315 11 5 9.65685 5 8C5 6.34315 6.34315 5 8 5C9.65685 5 11 6.34315 11 8Z" fill="black"/>
</svg>
