<svg width="16" height="16" viewBox="0 0 16 16" fill="none" xmlns="http://www.w3.org/2000/svg">
<path fill-rule="evenodd" clip-rule="evenodd" d="M1.97435 13.077L2.94402 10.168C2.98084 10.0575 3.04288 9.95714 3.12521 9.87481L8.02145 4.97856L11.0215 7.97856L6.12521 12.8748C6.04288 12.9571 5.94251 13.0192 5.83205 13.056L2.92304 14.0257C2.33672 14.2211 1.77892 13.6633 1.97435 13.077ZM12.0757 7.6186C12.3678 7.81947 12.7706 7.79004 13.0303 7.53033C13.3232 7.23744 13.3232 6.76256 13.0303 6.46967L12.7803 6.21967L13.5 5.5C14.3284 4.67157 14.3284 3.32843 13.5 2.5C12.6716 1.67157 11.3284 1.67157 10.5 2.5L9.78034 3.21967L9.53034 2.96967C9.23745 2.67678 8.76258 2.67678 8.46968 2.96967C8.20997 3.22938 8.18055 3.63218 8.38141 3.92431L12.0757 7.6186Z" fill="black"/>
</svg>
