<svg width="16" height="16" viewBox="0 0 16 16" fill="none" xmlns="http://www.w3.org/2000/svg">
<path fill-rule="evenodd" clip-rule="evenodd" d="M14.25 8C14.25 11.4518 11.4518 14.25 8 14.25C4.54822 14.25 1.75 11.4518 1.75 8C1.75 4.54822 4.54822 1.75 8 1.75C11.4518 1.75 14.25 4.54822 14.25 8ZM6.5 7C6.5 7.55228 6.05228 8 5.5 8C4.94772 8 4.5 7.55228 4.5 7C4.5 6.44772 4.94772 6 5.5 6C6.05228 6 6.5 6.44772 6.5 7ZM10.5 8C11.0523 8 11.5 7.55228 11.5 7C11.5 6.44772 11.0523 6 10.5 6C9.94771 6 9.5 6.44772 9.5 7C9.5 7.55228 9.94771 8 10.5 8ZM5.27639 9.55279C5.52338 9.42929 5.82372 9.5294 5.94721 9.77639C6.26216 10.4063 7.11728 10.5115 7.57559 9.97685L7.6145 9.93146C7.62449 9.91939 7.63513 9.9077 7.64641 9.89644C7.68733 9.85544 7.73391 9.82291 7.78381 9.79902C7.85226 9.76615 7.92625 9.74996 8 9.74999C8.07375 9.74996 8.14774 9.76615 8.21619 9.79902C8.26609 9.82291 8.31267 9.85544 8.35359 9.89644C8.36487 9.9077 8.37551 9.91939 8.3855 9.93146L8.42441 9.97685C8.88272 10.5115 9.73784 10.4063 10.0528 9.77639C10.1763 9.5294 10.4766 9.42929 10.7236 9.55279C10.9706 9.67628 11.0707 9.97662 10.9472 10.2236C10.3829 11.3521 8.95836 11.6452 8 10.9393C7.04164 11.6452 5.61706 11.3521 5.05279 10.2236C4.92929 9.97662 5.0294 9.67628 5.27639 9.55279Z" fill="black"/>
</svg>
