<svg width="16" height="16" viewBox="0 0 16 16" fill="none" xmlns="http://www.w3.org/2000/svg">
<path fill-rule="evenodd" clip-rule="evenodd" d="M8 14.25C11.4518 14.25 14.25 11.4518 14.25 8C14.25 4.54822 11.4518 1.75 8 1.75C4.54822 1.75 1.75 4.54822 1.75 8C1.75 11.4518 4.54822 14.25 8 14.25ZM5.5 8C6.05228 8 6.5 7.55228 6.5 7C6.5 6.44772 6.05228 6 5.5 6C4.94772 6 4.5 6.44772 4.5 7C4.5 7.55228 4.94772 8 5.5 8ZM11.5 7C11.5 7.55228 11.0523 8 10.5 8C9.94771 8 9.5 7.55228 9.5 7C9.5 6.44772 9.94771 6 10.5 6C11.0523 6 11.5 6.44772 11.5 7ZM6 9.75C5.72386 9.75 5.5 9.97386 5.5 10.25C5.5 10.5261 5.72386 10.75 6 10.75H10C10.2761 10.75 10.5 10.5261 10.5 10.25C10.5 9.97386 10.2761 9.75 10 9.75H6Z" fill="black"/>
</svg>
