<svg width="16" height="16" viewBox="0 0 16 16" fill="none" xmlns="http://www.w3.org/2000/svg">
<path fill-rule="evenodd" clip-rule="evenodd" d="M8 14.25C11.4518 14.25 14.25 11.4518 14.25 8C14.25 4.54822 11.4518 1.75 8 1.75C4.54822 1.75 1.75 4.54822 1.75 8C1.75 11.4518 4.54822 14.25 8 14.25ZM5.5 8C6.05228 8 6.5 7.55228 6.5 7C6.5 6.44772 6.05228 6 5.5 6C4.94772 6 4.5 6.44772 4.5 7C4.5 7.55228 4.94772 8 5.5 8ZM11.5 7C11.5 7.55228 11.0523 8 10.5 8C9.94771 8 9.5 7.55228 9.5 7C9.5 6.44772 9.94771 6 10.5 6C11.0523 6 11.5 6.44772 11.5 7ZM6.15422 9.94711L5.85355 9.64645C5.65829 9.45118 5.34171 9.45118 5.14645 9.64645C4.95118 9.84171 4.95118 10.1583 5.14645 10.3536L5.44711 10.6542C6.13494 11.342 7.21144 11.4312 8 10.8843C8.78856 11.4312 9.86506 11.342 10.5529 10.6542L10.8536 10.3536C11.0488 10.1583 11.0488 9.84171 10.8536 9.64645C10.6583 9.45118 10.3417 9.45118 10.1464 9.64645L9.84578 9.94711C9.48548 10.3074 8.91187 10.3392 8.51398 10.0209L8.31235 9.85957C8.12974 9.71348 7.87026 9.71348 7.68765 9.85957L7.48602 10.0209C7.08813 10.3392 6.51452 10.3074 6.15422 9.94711Z" fill="black"/>
</svg>
