<svg width="16" height="16" viewBox="0 0 16 16" fill="none" xmlns="http://www.w3.org/2000/svg">
<path fill-rule="evenodd" clip-rule="evenodd" d="M8 14.25C11.4518 14.25 14.25 11.4518 14.25 8C14.25 4.54822 11.4518 1.75 8 1.75C4.54822 1.75 1.75 4.54822 1.75 8C1.75 11.4518 4.54822 14.25 8 14.25ZM5.5 8C6.05228 8 6.5 7.55228 6.5 7C6.5 6.44772 6.05228 6 5.5 6C4.94772 6 4.5 6.44772 4.5 7C4.5 7.55228 4.94772 8 5.5 8ZM11.5 7C11.5 7.55228 11.0523 8 10.5 8C9.94771 8 9.5 7.55228 9.5 7C9.5 6.44772 9.94771 6 10.5 6C11.0523 6 11.5 6.44772 11.5 7ZM10.1213 10.8787C10.3166 11.0739 10.6332 11.0739 10.8284 10.8787C11.0237 10.6834 11.0237 10.3668 10.8284 10.1716C10.0783 9.42143 9.06087 9 8 9C6.93913 9 5.92172 9.42143 5.17157 10.1716C4.97631 10.3668 4.97631 10.6834 5.17157 10.8787C5.36684 11.0739 5.68342 11.0739 5.87868 10.8787C6.44129 10.3161 7.20435 10 8 10C8.79565 10 9.55871 10.3161 10.1213 10.8787Z" fill="black"/>
</svg>
