<svg width="16" height="16" viewBox="0 0 16 16" fill="none" xmlns="http://www.w3.org/2000/svg">
<path fill-rule="evenodd" clip-rule="evenodd" d="M8 14.25C11.4518 14.25 14.25 11.4518 14.25 8C14.25 4.54822 11.4518 1.75 8 1.75C4.54822 1.75 1.75 4.54822 1.75 8C1.75 11.4518 4.54822 14.25 8 14.25ZM5.5 8C6.05228 8 6.5 7.55228 6.5 7C6.5 6.44772 6.05228 6 5.5 6C4.94772 6 4.5 6.44772 4.5 7C4.5 7.55228 4.94772 8 5.5 8ZM11.5 7C11.5 7.55228 11.0523 8 10.5 8C9.94771 8 9.5 7.55228 9.5 7C9.5 6.44772 9.94771 6 10.5 6C11.0523 6 11.5 6.44772 11.5 7ZM5.87868 9.62132C5.68342 9.42606 5.36684 9.42606 5.17157 9.62132C4.97631 9.81658 4.97631 10.1332 5.17157 10.3284C5.92172 11.0786 6.93913 11.5 8 11.5C9.06087 11.5 10.0783 11.0786 10.8284 10.3284C11.0237 10.1332 11.0237 9.81658 10.8284 9.62132C10.6332 9.42606 10.3166 9.42606 10.1213 9.62132C9.55871 10.1839 8.79565 10.5 8 10.5C7.20435 10.5 6.44129 10.1839 5.87868 9.62132Z" fill="black"/>
</svg>
