<svg width="16" height="16" viewBox="0 0 16 16" fill="none" xmlns="http://www.w3.org/2000/svg">
<path fill-rule="evenodd" clip-rule="evenodd" d="M8 14.25C11.4518 14.25 14.25 11.4518 14.25 8C14.25 4.54822 11.4518 1.75 8 1.75C4.54822 1.75 1.75 4.54822 1.75 8C1.75 11.4518 4.54822 14.25 8 14.25ZM5.5 7.5C6.05228 7.5 6.5 7.05228 6.5 6.5C6.5 5.94772 6.05228 5.5 5.5 5.5C4.94772 5.5 4.5 5.94772 4.5 6.5C4.5 7.05228 4.94772 7.5 5.5 7.5ZM11.5 6.5C11.5 7.05228 11.0523 7.5 10.5 7.5C9.94771 7.5 9.5 7.05228 9.5 6.5C9.5 5.94772 9.94771 5.5 10.5 5.5C11.0523 5.5 11.5 5.94772 11.5 6.5ZM5.11364 10.2107C5.45884 9.01537 6.56019 8 8 8C9.43981 8 10.5412 9.01537 10.8864 10.2107C10.9417 10.4024 10.9694 10.4983 10.9308 10.6355C10.9021 10.7371 10.8029 10.8691 10.7132 10.9248C10.592 11 10.4614 11 10.2 11H5.8C5.53864 11 5.40795 11 5.28682 10.9248C5.19711 10.8691 5.09786 10.7371 5.06925 10.6355C5.0306 10.4983 5.05828 10.4024 5.11364 10.2107Z" fill="black"/>
</svg>
