<svg width="16" height="16" viewBox="0 0 16 16" fill="none" xmlns="http://www.w3.org/2000/svg">
<path fill-rule="evenodd" clip-rule="evenodd" d="M8 14.25C11.4518 14.25 14.25 11.4518 14.25 8C14.25 4.54822 11.4518 1.75 8 1.75C4.54822 1.75 1.75 4.54822 1.75 8C1.75 11.4518 4.54822 14.25 8 14.25ZM5.5 7C6.05228 7 6.5 6.55228 6.5 6C6.5 5.44772 6.05228 5 5.5 5C4.94772 5 4.5 5.44772 4.5 6C4.5 6.55228 4.94772 7 5.5 7ZM11.5 6C11.5 6.55228 11.0523 7 10.5 7C9.94771 7 9.5 6.55228 9.5 6C9.5 5.44772 9.94771 5 10.5 5C11.0523 5 11.5 5.44772 11.5 6ZM5.11364 8.78928C5.45884 9.98463 6.56019 11 8 11C9.43981 11 10.5412 9.98463 10.8864 8.78928C10.9417 8.59759 10.9694 8.50174 10.9308 8.36449C10.9021 8.26286 10.8029 8.13089 10.7132 8.0752C10.592 8 10.4614 8 10.2 8H5.8C5.53864 8 5.40795 8 5.28682 8.0752C5.19711 8.13089 5.09786 8.26286 5.06925 8.36449C5.0306 8.50174 5.05828 8.59759 5.11364 8.78928Z" fill="black"/>
</svg>
