<svg width="16" height="16" viewBox="0 0 16 16" fill="none" xmlns="http://www.w3.org/2000/svg">
<path fill-rule="evenodd" clip-rule="evenodd" d="M10 3H6C5.44772 3 5 3.44772 5 4L11 4C11 3.44772 10.5523 3 10 3ZM4 4V4.01027C2.46012 4.13731 1.25 5.42733 1.25 7V9C1.25 10.5727 2.46012 11.8627 4 11.9897V12C4 13.1046 4.89543 14 6 14H10C11.1046 14 12 13.1046 12 12V11.9897C13.5399 11.8627 14.75 10.5727 14.75 9V7C14.75 5.42733 13.5399 4.13731 12 4.01027V4C12 2.89543 11.1046 2 10 2H6C4.89543 2 4 2.89543 4 4ZM5 12C5 12.5523 5.44772 13 6 13H10C10.5523 13 11 12.5523 11 12V10.5C11 9.94772 10.5523 9.5 10 9.5H6C5.44772 9.5 5 9.94772 5 10.5V12ZM5.75 5.75C5.75 6.16421 5.41421 6.5 5 6.5C4.58579 6.5 4.25 6.16421 4.25 5.75C4.25 5.33579 4.58579 5 5 5C5.41421 5 5.75 5.33579 5.75 5.75ZM7 6.5C7.41421 6.5 7.75 6.16421 7.75 5.75C7.75 5.33579 7.41421 5 7 5C6.58579 5 6.25 5.33579 6.25 5.75C6.25 6.16421 6.58579 6.5 7 6.5ZM9.75 5.75C9.75 6.16421 9.41421 6.5 9 6.5C8.58579 6.5 8.25 6.16421 8.25 5.75C8.25 5.33579 8.58579 5 9 5C9.41421 5 9.75 5.33579 9.75 5.75ZM11 6.5C11.4142 6.5 11.75 6.16421 11.75 5.75C11.75 5.33579 11.4142 5 11 5C10.5858 5 10.25 5.33579 10.25 5.75C10.25 6.16421 10.5858 6.5 11 6.5ZM5.75 7.75C5.75 8.16421 5.41421 8.5 5 8.5C4.58579 8.5 4.25 8.16421 4.25 7.75C4.25 7.33579 4.58579 7 5 7C5.41421 7 5.75 7.33579 5.75 7.75ZM7 8.5C7.41421 8.5 7.75 8.16421 7.75 7.75C7.75 7.33579 7.41421 7 7 7C6.58579 7 6.25 7.33579 6.25 7.75C6.25 8.16421 6.58579 8.5 7 8.5ZM9.75 7.75C9.75 8.16421 9.41421 8.5 9 8.5C8.58579 8.5 8.25 8.16421 8.25 7.75C8.25 7.33579 8.58579 7 9 7C9.41421 7 9.75 7.33579 9.75 7.75ZM11 8.5C11.4142 8.5 11.75 8.16421 11.75 7.75C11.75 7.33579 11.4142 7 11 7C10.5858 7 10.25 7.33579 10.25 7.75C10.25 8.16421 10.5858 8.5 11 8.5Z" fill="black"/>
</svg>
