<svg width="16" height="16" viewBox="0 0 16 16" fill="none" xmlns="http://www.w3.org/2000/svg">
<path d="M3.5 5L7 6.5M7 6.5H9M7 6.5V9.5M9 6.5L12.5 5M9 6.5V9.5M6.5 13.75L7 9.5M9.5 13.75L9 9.5M7 9.5H9" stroke="black" stroke-width="2" stroke-linecap="round" stroke-linejoin="round"/>
<path d="M4.32132 10.7931L6.36677 6.2931C6.44791 6.1146 6.62588 6 6.82196 6H9.17804C9.37411 6 9.55209 6.1146 9.63323 6.2931L11.6787 10.7931C11.8292 11.1241 11.5871 11.5 11.2235 11.5H4.7765C4.41286 11.5 4.17084 11.1241 4.32132 10.7931Z" fill="black"/>
<circle cx="8" cy="3" r="2" fill="black"/>
</svg>
