<svg width="16" height="16" viewBox="0 0 16 16" fill="none" xmlns="http://www.w3.org/2000/svg">
<path fill-rule="evenodd" clip-rule="evenodd" d="M2.5 9.2V6.8C2.5 5.11984 2.5 4.27976 2.82698 3.63803C3.1146 3.07354 3.57354 2.6146 4.13803 2.32698C4.77976 2 5.61984 2 7.3 2H8V4.6C8 5.44008 8 5.86012 8.16349 6.18099C8.3073 6.46323 8.53677 6.6927 8.81901 6.83651C9.13988 7 9.55992 7 10.4 7H13.5V9.2C13.5 10.8802 13.5 11.7202 13.173 12.362C12.8854 12.9265 12.4265 13.3854 11.862 13.673C11.2202 14 10.3802 14 8.7 14H7.3C5.61984 14 4.77976 14 4.13803 13.673C3.57354 13.3854 3.1146 12.9265 2.82698 12.362C2.5 11.7202 2.5 10.8802 2.5 9.2ZM9 5.5V2.5L13 6H9.5C9.22386 6 9 5.77614 9 5.5ZM6.85355 8.85355C7.04882 8.65829 7.04882 8.34171 6.85355 8.14645C6.65829 7.95118 6.34171 7.95118 6.14645 8.14645L4.64645 9.64645C4.45118 9.84171 4.45118 10.1583 4.64645 10.3536L6.14645 11.8536C6.34171 12.0488 6.65829 12.0488 6.85355 11.8536C7.04882 11.6583 7.04882 11.3417 6.85355 11.1464L5.70711 10L6.85355 8.85355ZM11.3536 9.64645L9.85355 8.14645C9.65829 7.95118 9.34171 7.95118 9.14645 8.14645C8.95118 8.34171 8.95118 8.65829 9.14645 8.85355L10.2929 10L9.14645 11.1464C8.95118 11.3417 8.95118 11.6583 9.14645 11.8536C9.34171 12.0488 9.65829 12.0488 9.85355 11.8536L11.3536 10.3536C11.5488 10.1583 11.5488 9.84171 11.3536 9.64645Z" fill="black"/>
</svg>
