<svg width="16" height="16" viewBox="0 0 16 16" fill="none" xmlns="http://www.w3.org/2000/svg">
<path fill-rule="evenodd" clip-rule="evenodd" d="M2.5 9.2V6.8C2.5 5.11984 2.5 4.27976 2.82698 3.63803C3.1146 3.07354 3.57354 2.6146 4.13803 2.32698C4.77976 2 5.61984 2 7.3 2H8V4.6C8 5.44008 8 5.86012 8.16349 6.18099C8.3073 6.46323 8.53677 6.6927 8.81901 6.83651C9.13988 7 9.55992 7 10.4 7H12C11.2483 7 10.5934 7.41473 10.2518 8.02784C10.0493 8.05167 9.82158 8.10102 9.59202 8.21799C9.21569 8.40973 8.90973 8.71569 8.71799 9.09202C8.60103 9.32157 8.55167 9.54925 8.52783 9.75176C7.91471 10.0934 7.5 10.7483 7.5 11.5C7.5 12.2517 7.91473 12.9066 8.52784 13.2482C8.55167 13.4507 8.60102 13.6784 8.71799 13.908C8.73387 13.9391 8.75053 13.9698 8.76795 14C8.74546 14 8.72281 14 8.7 14H7.3C5.61984 14 4.77976 14 4.13803 13.673C3.57354 13.3854 3.1146 12.9265 2.82698 12.362C2.5 11.7202 2.5 10.8802 2.5 9.2ZM13.5 9.00959V9.2C13.5 10.8802 13.5 11.7202 13.173 12.362C12.8854 12.9265 12.4265 13.3854 11.862 13.673C11.479 13.8681 11.0254 13.9468 10.3648 13.9786C10.2365 13.9631 10.1355 13.9366 10.046 13.891C9.85785 13.7951 9.70487 13.6422 9.60899 13.454C9.50669 13.2532 9.50041 12.9942 9.50003 12.5C8.94774 12.5 8.5 12.0523 8.5 11.5C8.5 10.9477 8.94772 10.5 9.5 10.5C9.50039 10.0058 9.50669 9.74679 9.60899 9.54601C9.70487 9.35785 9.85785 9.20487 10.046 9.10899C10.2468 9.00669 10.5058 9.00041 11 9.00003C11 8.44774 11.4477 8 12 8C12.5523 8 13 8.44774 13 9.00003C13.2019 9.00018 13.3645 9.00132 13.5 9.00959ZM13.5 7.6771C13.1335 7.26189 12.5974 7 12 7H13.5V7.6771ZM9 5.5V2.5L13 6H9.5C9.22386 6 9 5.77614 9 5.5Z" fill="black"/>
<path d="M13 9.00003C13.4942 9.00041 13.7532 9.00669 13.954 9.10899C14.1422 9.20487 14.2951 9.35785 14.391 9.54601C14.4933 9.74679 14.4996 10.0058 14.5 10.5C13.9477 10.5 13.5 10.9477 13.5 11.5C13.5 12.0523 13.9477 12.5 14.5 12.5C14.4996 12.9942 14.4933 13.2532 14.391 13.454C14.2951 13.6422 14.1422 13.7951 13.954 13.891C13.7532 13.9933 13.4942 13.9996 13 14C13 14.5523 12.5523 15 12 15C11.4477 15 11 14.5523 11 14C10.5058 13.9996 10.2468 13.9933 10.046 13.891C9.85785 13.7951 9.70487 13.6422 9.60899 13.454C9.50669 13.2532 9.50041 12.9942 9.50003 12.5C8.94774 12.5 8.5 12.0523 8.5 11.5C8.5 10.9477 8.94772 10.5 9.5 10.5C9.50039 10.0058 9.50669 9.74679 9.60899 9.54601C9.70487 9.35785 9.85785 9.20487 10.046 9.10899C10.2468 9.00669 10.5058 9.00041 11 9.00003C11 8.44774 11.4477 8 12 8C12.5523 8 13 8.44774 13 9.00003Z" fill="black"/>
</svg>
