<svg width="16" height="16" viewBox="0 0 16 16" fill="none" xmlns="http://www.w3.org/2000/svg">
<path fill-rule="evenodd" clip-rule="evenodd" d="M2.5 9.2V6.8C2.5 5.11984 2.5 4.27976 2.82698 3.63803C3.1146 3.07354 3.57354 2.6146 4.13803 2.32698C4.77976 2 5.61984 2 7.3 2H8V4.6C8 5.44008 8 5.86012 8.16349 6.18099C8.3073 6.46323 8.53677 6.6927 8.81901 6.83651C9.13988 7 9.55992 7 10.4 7H13.5V7.5H9.5C8.39543 7.5 7.5 8.39543 7.5 9.5V12C7.5 12.5641 7.73352 13.0736 8.10915 13.4372C8.03876 13.611 8 13.801 8 14H7.3C5.61984 14 4.77976 14 4.13803 13.673C3.57354 13.3854 3.1146 12.9265 2.82698 12.362C2.5 11.7202 2.5 10.8802 2.5 9.2ZM12.1583 13.5C12.0633 13.563 11.9644 13.6209 11.862 13.673C11.2596 13.9799 10.4825 13.9988 9 13.9999C9 13.9789 9.0013 13.9583 9.00381 13.938C9.03436 13.6911 9.24486 13.5 9.5 13.5H10H11V13H10H9.5C9.21392 13 8.95589 12.8799 8.77362 12.6873C8.60401 12.5081 8.5 12.2662 8.5 12V9.5C8.5 8.94772 8.94772 8.5 9.5 8.5H13.5V9.2C13.5 10.8802 13.5 11.7202 13.173 12.362C13.0548 12.594 12.9076 12.8082 12.7361 13H12V13.5H12.1583ZM9 5.5V2.5L13 6H9.5C9.22386 6 9 5.77614 9 5.5Z" fill="black"/>
<path fill-rule="evenodd" clip-rule="evenodd" d="M9.5 8.5C8.94772 8.5 8.5 8.94772 8.5 9.5V12C8.5 12.5523 8.94772 13 9.5 13H11V13.5H9.5C9.22386 13.5 9 13.7239 9 14C9 14.2761 9.22386 14.5 9.5 14.5H11.5H13.5C13.7761 14.5 14 14.2761 14 14C14 13.7239 13.7761 13.5 13.5 13.5H12V13H13.5C14.0523 13 14.5 12.5523 14.5 12V9.5C14.5 8.94772 14.0523 8.5 13.5 8.5H9.5Z" fill="black"/>
</svg>
