<svg width="16" height="16" viewBox="0 0 16 16" fill="none" xmlns="http://www.w3.org/2000/svg">
<path d="M2.5 9.2V6.8C2.5 5.11984 2.5 4.27976 2.82698 3.63803C3.1146 3.07354 3.57354 2.6146 4.13803 2.32698C4.77976 2 5.61984 2 7.3 2H8V4.6C8 5.44008 8 5.86012 8.16349 6.18099C8.3073 6.46323 8.53677 6.6927 8.81901 6.83651C9.13988 7 9.55992 7 10.4 7H13.5V9.2C13.5 10.8802 13.5 11.7202 13.173 12.362C12.8854 12.9265 12.4265 13.3854 11.862 13.673C11.2202 14 10.3802 14 8.7 14H7.3C5.61984 14 4.77976 14 4.13803 13.673C3.57354 13.3854 3.1146 12.9265 2.82698 12.362C2.5 11.7202 2.5 10.8802 2.5 9.2Z" fill="black"/>
<path d="M9 5.5V2.5L13 6H9.5C9.22386 6 9 5.77614 9 5.5Z" fill="black"/>
</svg>
