<svg width="16" height="16" viewBox="0 0 16 16" fill="none" xmlns="http://www.w3.org/2000/svg">
<path fill-rule="evenodd" clip-rule="evenodd" d="M2.5 9.2V6.8C2.5 5.11984 2.5 4.27976 2.82698 3.63803C3.1146 3.07354 3.57354 2.6146 4.13803 2.32698C4.77976 2 5.61984 2 7.3 2H8V4.6C8 5.44008 8 5.86012 8.16349 6.18099C8.3073 6.46323 8.53677 6.6927 8.81901 6.83651C9.13988 7 9.55992 7 10.4 7H13.5V7.69827C12.9874 7.56793 12.4156 7.5 11.828 7.5C10.9432 7.5 10.0946 7.65395 9.42964 7.94304C9.09876 8.08691 8.76786 8.28399 8.50555 8.55363C8.24177 8.82478 8.0056 9.21752 8.0002 9.71217L8.00005 9.72951V10.2213C8.00005 10.4307 8.04117 10.6215 8.10846 10.7929C8.03962 10.9284 8.0013 11.0802 8.00009 11.2381L8.00003 11.2464L7.99997 11.2464L8 11.2569L8.00001 11.2586V11.7459C8.00001 11.9566 8.0404 12.1475 8.10772 12.319C8.03935 12.4541 8.00131 12.6054 8.0001 12.7627L8.00004 12.771H7.99998L8.00001 12.7815L8.00002 12.7818V12.7832V13.2705C8.00002 13.546 8.07166 13.7903 8.18035 14H7.3C5.61984 14 4.77976 14 4.13803 13.673C3.57354 13.3854 3.1146 12.9265 2.82698 12.362C2.5 11.7202 2.5 10.8802 2.5 9.2ZM12.1201 13.5249C12.0368 13.5784 11.9507 13.6278 11.862 13.673C11.3386 13.9397 10.6833 13.9889 9.54787 13.9979C9.45559 13.9434 9.37342 13.8853 9.30258 13.8244C9.12245 13.6695 9.01552 13.4957 9.00158 13.3117C9.00054 13.298 9.00002 13.2843 9.00002 13.2705V12.7818L9.00001 12.7787L9.00007 12.7703L9.01064 12.7787L9.01079 12.7788L9.01458 12.7817L9.01463 12.7818C9.18962 12.9182 9.39259 13.0316 9.6068 13.1247C9.7298 13.1782 9.86082 13.2269 9.99867 13.2705C10.1953 13.3327 10.4057 13.3845 10.6267 13.4251C10.998 13.4934 11.3988 13.53 11.8127 13.5309H11.8127L11.8279 13.5309H11.8279H11.8279C11.9261 13.5309 12.0236 13.5289 12.1201 13.5249ZM13.3632 11.8286C13.3171 12.0258 13.2554 12.2002 13.173 12.362C13.0756 12.5533 12.9584 12.7324 12.8241 12.8969C12.6005 12.9335 12.3635 12.9582 12.117 12.9691C12.0219 12.9733 11.9255 12.9754 11.8279 12.9754L11.8279 12.9754H11.8279C11.4374 12.9754 11.0655 12.941 10.7271 12.8788C10.5756 12.8509 10.4308 12.8175 10.2942 12.779C10.156 12.7402 10.0261 12.6962 9.90591 12.6478L9.90589 12.6478C9.87955 12.6372 9.85368 12.6263 9.82829 12.6153C9.63846 12.5328 9.4755 12.4386 9.34559 12.3354C9.33082 12.3236 9.31648 12.3118 9.30257 12.2998C9.12243 12.1449 9.0155 11.9711 9.00157 11.7871L9.00056 11.7703C9.00019 11.7622 9.00001 11.7541 9.00001 11.7459V11.2572L9 11.2541L9.00006 11.2457L9.01063 11.2541L9.01078 11.2542L9.01457 11.2571L9.01462 11.2572C9.18961 11.3937 9.39258 11.507 9.60679 11.6001C9.72979 11.6536 9.86081 11.7023 9.99866 11.7459C10.0471 11.7612 10.0965 11.7759 10.1466 11.79L10.1466 11.79C10.3817 11.856 10.6343 11.9078 10.899 11.9442C11.1959 11.985 11.508 12.0063 11.8279 12.0063H11.8279H11.8279H11.8279L11.8544 12.0063H11.8544C11.9282 12.006 12.0015 12.0046 12.0743 12.0021C12.1259 12.0003 12.1773 11.9979 12.2283 11.995C12.3876 11.986 12.5441 11.9716 12.6967 11.9521C12.9289 11.9225 13.1523 11.881 13.3632 11.8286ZM13.5 8.73784V9.2C13.5 10.0722 13.5 10.7181 13.4543 11.2273C13.423 11.2368 13.3913 11.2461 13.3591 11.2552L13.3591 11.2552C13.0156 11.3515 12.621 11.4164 12.1969 11.4404C12.0761 11.4473 11.953 11.4508 11.8279 11.4508H11.8279C11.2636 11.4508 10.738 11.379 10.2966 11.2551L10.2966 11.2551C10.2442 11.2404 10.1929 11.225 10.1429 11.2088C10.0701 11.1853 10.0001 11.1603 9.933 11.134L9.93298 11.134C9.89724 11.1199 9.86233 11.1055 9.82828 11.0907C9.63846 11.0082 9.4755 10.914 9.34559 10.8108C9.31564 10.787 9.28745 10.7627 9.26109 10.738L9.26077 10.7377L9.26079 10.7377L9.26047 10.7374C9.24865 10.7263 9.23721 10.7151 9.22613 10.7038C9.20776 10.6851 9.19041 10.6662 9.17414 10.647L9.17388 10.6467C9.0851 10.542 9.02814 10.4307 9.00811 10.3148L9.00805 10.3145C9.00413 10.2917 9.00163 10.2688 9.0006 10.2457C9.00024 10.2376 9.00005 10.2295 9.00005 10.2213V9.72951L9.0001 9.72951C9.0001 9.05047 10.2662 8.5 11.828 8.5C12.4535 8.5 13.0317 8.58832 13.5 8.73784ZM9 5.5V2.5L13 6H9.5C9.22386 6 9 5.77614 9 5.5Z" fill="black"/>
<path fill-rule="evenodd" clip-rule="evenodd" d="M9.00005 9.72951V10.2213C9.00005 10.4057 9.09344 10.5807 9.26079 10.7377C9.26078 10.7377 9.26078 10.7377 9.26077 10.7377C9.70958 11.1588 10.6903 11.4508 11.8279 11.4508C11.8279 11.4508 11.8279 11.4508 11.8279 11.4508C11.953 11.4508 12.0761 11.4473 12.1969 11.4404C13.5844 11.3618 14.6558 10.846 14.6558 10.2213V9.73708L14.6558 9.72951C14.6558 9.05047 13.3898 8.5 11.828 8.5C10.2662 8.5 9.0001 9.05047 9.0001 9.72951L9.00005 9.72951ZM14.6557 11.2458L14.6557 11.2541L14.6557 11.2541V11.7459C14.6557 11.9303 14.5623 12.1053 14.395 12.2623L14.395 12.2623C14.0893 12.5491 13.5369 12.776 12.8562 12.8916C12.6233 12.9311 12.3753 12.9577 12.117 12.9691C12.0219 12.9733 11.9255 12.9754 11.8279 12.9754L11.8279 12.9754C11.4374 12.9754 11.0655 12.941 10.7271 12.8788C9.71218 12.6921 9.00001 12.2552 9.00001 11.7459V11.2572L9 11.2541L9.00006 11.2457C9.17832 11.3873 9.38661 11.5044 9.60679 11.6001C9.77304 11.6724 9.95395 11.7359 10.1466 11.79L10.1466 11.79C10.6455 11.93 11.2229 12.0063 11.8279 12.0063C12.4329 12.0063 13.0103 11.93 13.5092 11.79L13.5092 11.79C13.7018 11.736 13.8827 11.6724 14.049 11.6001C14.2691 11.5044 14.4774 11.3873 14.6557 11.2458ZM14.049 13.1247C14.2691 13.029 14.4774 12.9119 14.6557 12.7703L14.6557 12.7787L14.6557 12.7787V13.2705C14.6557 13.9495 13.3897 14.5 11.8279 14.5C10.2661 14.5 9.00002 13.9495 9.00002 13.2705V12.7818L9.00001 12.7787L9.00007 12.7703C9.17833 12.9119 9.38662 13.029 9.6068 13.1247C10.2036 13.3842 10.9893 13.5309 11.8279 13.5309C12.6665 13.5309 13.4522 13.3842 14.049 13.1247Z" fill="black"/>
</svg>
