<svg width="16" height="16" viewBox="0 0 16 16" fill="none" xmlns="http://www.w3.org/2000/svg">
<path fill-rule="evenodd" clip-rule="evenodd" d="M2.32698 3.63803C2 4.27976 2 5.11984 2 6.8V9.2C2 10.8802 2 11.7202 2.32698 12.362C2.6146 12.9265 3.07354 13.3854 3.63803 13.673C4.27976 14 5.11984 14 6.8 14H9.2C10.8802 14 11.7202 14 12.362 13.673C12.9265 13.3854 13.3854 12.9265 13.673 12.362C14 11.7202 14 10.8802 14 9.2V6.8C14 5.11984 14 4.27976 13.673 3.63803C13.3854 3.07354 12.9265 2.6146 12.362 2.32698C11.7202 2 10.8802 2 9.2 2H6.8C5.11984 2 4.27976 2 3.63803 2.32698C3.07354 2.6146 2.6146 3.07354 2.32698 3.63803ZM5.10899 3.54601C5 3.75992 5 4.03995 5 4.6V5.9C5 6.46005 5 6.74008 5.10899 6.95399C5.20487 7.14215 5.35785 7.29513 5.54601 7.39101C5.75992 7.5 6.03995 7.5 6.6 7.5H9.4C9.96005 7.5 10.2401 7.5 10.454 7.39101C10.6422 7.29513 10.7951 7.14215 10.891 6.95399C11 6.74008 11 6.46005 11 5.9V4.6C11 4.03995 11 3.75992 10.891 3.54601C10.7951 3.35785 10.6422 3.20487 10.454 3.10899C10.2401 3 9.96005 3 9.4 3H6.6C6.03995 3 5.75992 3 5.54601 3.10899C5.35785 3.20487 5.20487 3.35785 5.10899 3.54601ZM4 4.5C4 4.22386 3.77614 4 3.5 4C3.22386 4 3 4.22386 3 4.5V5.5C3 5.77614 3.22386 6 3.5 6C3.77614 6 4 5.77614 4 5.5V4.5ZM13 4.5C13 4.22386 12.7761 4 12.5 4C12.2239 4 12 4.22386 12 4.5V5.5C12 5.77614 12.2239 6 12.5 6C12.7761 6 13 5.77614 13 5.5V4.5ZM4 7.5C4 7.22386 3.77614 7 3.5 7C3.22386 7 3 7.22386 3 7.5V8.5C3 8.77614 3.22386 9 3.5 9C3.77614 9 4 8.77614 4 8.5V7.5ZM13 7.5C13 7.22386 12.7761 7 12.5 7C12.2239 7 12 7.22386 12 7.5V8.5C12 8.77614 12.2239 9 12.5 9C12.7761 9 13 8.77614 13 8.5V7.5ZM4 10.5C4 10.2239 3.77614 10 3.5 10C3.22386 10 3 10.2239 3 10.5V11.5C3 11.7761 3.22386 12 3.5 12C3.77614 12 4 11.7761 4 11.5V10.5ZM13 10.5C13 10.2239 12.7761 10 12.5 10C12.2239 10 12 10.2239 12 10.5V11.5C12 11.7761 12.2239 12 12.5 12C12.7761 12 13 11.7761 13 11.5V10.5ZM5 10.1C5 9.53995 5 9.25992 5.10899 9.04601C5.20487 8.85785 5.35785 8.70487 5.54601 8.60899C5.75992 8.5 6.03995 8.5 6.6 8.5H9.4C9.96005 8.5 10.2401 8.5 10.454 8.60899C10.6422 8.70487 10.7951 8.85785 10.891 9.04601C11 9.25992 11 9.53995 11 10.1V11.4C11 11.9601 11 12.2401 10.891 12.454C10.7951 12.6422 10.6422 12.7951 10.454 12.891C10.2401 13 9.96005 13 9.4 13H6.6C6.03995 13 5.75992 13 5.54601 12.891C5.35785 12.7951 5.20487 12.6422 5.10899 12.454C5 12.2401 5 11.9601 5 11.4V10.1Z" fill="black"/>
</svg>
