<svg width="16" height="16" viewBox="0 0 16 16" fill="none" xmlns="http://www.w3.org/2000/svg">
<path d="M3.03383 4.83851C2.38175 4.00859 2.05571 3.59363 2.05748 3.24494C2.05901 2.94163 2.19812 2.65541 2.43567 2.46682C2.70877 2.25 3.23649 2.25 4.29194 2.25H11.7081C12.7635 2.25 13.2912 2.25 13.5643 2.46682C13.8019 2.65541 13.941 2.94163 13.9425 3.24494C13.9443 3.59363 13.6182 4.00859 12.9662 4.83851L9.84189 8.81487C9.71514 8.97619 9.65176 9.05685 9.60671 9.14639C9.56674 9.22583 9.53754 9.31024 9.51989 9.3974C9.5 9.49563 9.5 9.59822 9.5 9.80338V12.3351C9.5 12.8972 9.5 13.1783 9.38233 13.3627C9.27932 13.5242 9.11843 13.6402 8.93265 13.6868C8.72042 13.7401 8.45379 13.6513 7.92053 13.4735L7.59404 13.3647C7.20063 13.2335 7.00392 13.168 6.85849 13.0464C6.73007 12.939 6.63066 12.801 6.56939 12.6452C6.5 12.4688 6.5 12.2615 6.5 11.8468V9.80338C6.5 9.59822 6.5 9.49563 6.48011 9.3974C6.46246 9.31024 6.43326 9.22583 6.39329 9.14639C6.34824 9.05685 6.28486 8.97619 6.15811 8.81487L3.03383 4.83851Z" fill="black"/>
</svg>
