<svg width="16" height="16" viewBox="0 0 16 16" fill="none" xmlns="http://www.w3.org/2000/svg">
<path fill-rule="evenodd" clip-rule="evenodd" d="M2.5 8.89999C2.50002 11.9 5.09722 14.4 8 14.4C10.9028 14.4 13.5 11.9 13.5 8.89999C13.5 6.9207 12.303 4.9414 11.4884 3.82368C11.1238 3.32341 10.4034 3.34568 10.0233 3.8343L9.21295 4.8762C9.10819 5.01089 8.90225 5.00337 8.8076 4.86139L7.1306 2.34588C6.79616 1.84423 6.10425 1.75703 5.69331 2.19821C4.52492 3.45261 2.49998 6.03926 2.5 8.89999ZM9.76777 12.0572C10.7441 11.0809 10.7441 9.498 9.76777 8.52169L8.53092 7.28209C8.23789 6.98841 7.76211 6.98841 7.46908 7.28209L6.23223 8.52169C5.25592 9.498 5.25592 11.0809 6.23223 12.0572C7.20854 13.0335 8.79146 13.0335 9.76777 12.0572Z" fill="black"/>
</svg>
