<svg width="16" height="16" viewBox="0 0 16 16" fill="none" xmlns="http://www.w3.org/2000/svg">
<path fill-rule="evenodd" clip-rule="evenodd" d="M7.79958 2.3583C8.93567 2.63779 10.1905 2.9465 12.3964 2.45204C12.9905 2.31889 13.2875 2.25232 13.4837 2.31667C13.6657 2.37636 13.7962 2.48086 13.8943 2.6454C13.9677 2.76862 13.9901 2.94165 13.997 3.22395L13.8419 3.27565C12.3788 3.76334 11.2877 3.93914 10.4171 3.96108C9.54938 3.98296 8.87838 3.85289 8.24081 3.70108C8.13821 3.67666 8.03492 3.65118 7.93068 3.62548C7.39772 3.49406 6.83999 3.35652 6.224 3.32112C5.50991 3.28008 4.7257 3.37351 3.75 3.7179V2.49999C5.58239 1.81284 6.62783 2.07003 7.79958 2.3583ZM3.75 4.78399V5.93141C4.7257 5.58701 5.50991 5.49359 6.224 5.53463C6.83999 5.57003 7.39772 5.70756 7.93068 5.83898C8.03492 5.86469 8.13821 5.89016 8.24081 5.91459C8.87838 6.06639 9.54938 6.19646 10.4171 6.17459C11.2877 6.15264 12.3788 5.97684 13.8419 5.48915L14 5.43645V4.27633C12.5392 4.7502 11.3969 4.9367 10.4423 4.96077C9.45062 4.98577 8.68412 4.83459 8.00919 4.67389C7.89144 4.64585 7.77814 4.61805 7.66809 4.59103L7.66809 4.59103C7.13762 4.46083 6.68251 4.34912 6.16662 4.31947C5.56367 4.28482 4.86752 4.36491 3.92556 4.71815L3.75 4.78399ZM3.75 8.14491V6.99749L3.92556 6.93165C4.86752 6.57842 5.56367 6.49832 6.16662 6.53298C6.68251 6.56263 7.13762 6.67433 7.66809 6.80454C7.77814 6.83155 7.89144 6.85936 8.00919 6.88739C8.68412 7.04809 9.45062 7.19927 10.4423 7.17427C11.3969 7.1502 12.5392 6.9637 14 6.48983V7.64995L13.8419 7.70265C12.3788 8.19035 11.2877 8.36614 10.4171 8.38809C9.54938 8.40996 8.87838 8.27989 8.24081 8.12809C8.13821 8.10366 8.03492 8.07819 7.93068 8.05249L7.93067 8.05248C7.39772 7.92106 6.83998 7.78353 6.224 7.74813C5.50991 7.70709 4.7257 7.80051 3.75 8.14491ZM3.75 9.21099V10.5C5.60049 9.80605 6.75541 10.0752 8.00685 10.3669C9.32338 10.6737 10.7467 11.0054 13.1991 10.2669C13.4701 10.1852 13.6057 10.1444 13.7193 10.0533C13.8151 9.97648 13.8996 9.86276 13.9455 9.74887C14 9.61385 14 9.46239 14 9.15948V8.70334C12.5392 9.1772 11.3969 9.36371 10.4423 9.38777C9.45062 9.41277 8.68412 9.26159 8.00919 9.1009C7.89144 9.07286 7.77814 9.04505 7.66809 9.01804C7.13762 8.88784 6.68251 8.77613 6.16662 8.74648C5.56367 8.71183 4.86752 8.79192 3.92556 9.14516L3.75 9.21099Z" fill="black"/>
<path d="M3 13.5V2.5" stroke="black" stroke-width="1.5" stroke-linecap="round"/>
</svg>
