<svg width="16" height="16" viewBox="0 0 16 16" fill="none" xmlns="http://www.w3.org/2000/svg">
<path fill-rule="evenodd" clip-rule="evenodd" d="M12.3964 2.45207C10.1905 2.94653 8.93567 2.63782 7.79958 2.35833C6.62783 2.07006 5.58239 1.81287 3.75 2.50002V3.03614C3.93034 3.16913 4.14452 3.32918 4.39393 3.51881C5.08251 3.33769 5.67405 3.28955 6.224 3.32115C6.83999 3.35655 7.39772 3.49409 7.93068 3.62551C8.03492 3.65121 8.13821 3.67669 8.24081 3.70111C8.87838 3.85292 9.54938 3.98299 10.4171 3.96111C11.2877 3.93917 12.3788 3.76337 13.8419 3.27568L13.997 3.22398C13.9901 2.94168 13.9677 2.76865 13.8943 2.64543C13.7962 2.48089 13.6657 2.37639 13.4837 2.3167C13.2875 2.25235 12.9905 2.31892 12.3964 2.45207ZM7.07278 5.64394C6.96342 5.54785 6.82623 5.43688 6.65759 5.30046C6.21159 4.93967 5.80958 4.61933 5.44983 4.33635C5.70676 4.30958 5.94309 4.30666 6.16662 4.3195C6.68251 4.34915 7.13762 4.46086 7.66809 4.59106L7.66809 4.59106C7.77814 4.61808 7.89144 4.64588 8.00919 4.67392C8.68412 4.83462 9.45062 4.9858 10.4423 4.9608C11.3969 4.93673 12.5392 4.75023 14 4.27636V5.43648L13.8419 5.48918C12.3788 5.97687 11.2877 6.15267 10.4171 6.17462C9.54938 6.19649 8.87838 6.06642 8.24081 5.91462C8.13821 5.89019 8.03492 5.86472 7.93068 5.83901C7.65302 5.77054 7.36863 5.70042 7.07278 5.64394ZM5.93683 7.7392C6.12483 7.60076 6.32251 7.46029 6.53005 7.3186C6.93691 7.04084 7.18194 6.87355 7.30862 6.71755C7.42551 6.74503 7.54477 6.7743 7.66809 6.80457C7.77814 6.83158 7.89144 6.85939 8.00919 6.88742C8.68412 7.04812 9.45062 7.1993 10.4423 7.1743C11.3969 7.15024 12.5392 6.96373 14 6.48987V7.64998L13.8419 7.70268C12.3788 8.19038 11.2877 8.36617 10.4171 8.38812C9.54938 8.41 8.87838 8.27992 8.24081 8.12812C8.13821 8.10369 8.03492 8.07822 7.93068 8.05252L7.93067 8.05252C7.39772 7.92109 6.83998 7.78356 6.224 7.74816C6.1296 7.74273 6.03397 7.73966 5.93683 7.7392ZM3.75 9.63489C3.93862 9.43911 4.16426 9.21674 4.42851 8.97485C5.12425 8.76604 5.67626 8.71833 6.16662 8.74651C6.68251 8.77616 7.13762 8.88787 7.66809 9.01807C7.77814 9.04508 7.89144 9.07289 8.00919 9.10093C8.68412 9.26162 9.45062 9.4128 10.4423 9.3878C11.3969 9.36374 12.5392 9.17724 14 8.70337V9.15951C14 9.46242 14 9.61388 13.9455 9.7489C13.8996 9.8628 13.8151 9.97651 13.7193 10.0533C13.6057 10.1444 13.4701 10.1853 13.1991 10.2669C10.7467 11.0054 9.32338 10.6737 8.00685 10.3669C6.75541 10.0752 5.60049 9.80608 3.75 10.5V9.63489Z" fill="black"/>
<path d="M6.65759 5.30044C4.11271 3.24181 3 2.5 3 2.5V10.5C3 10.5 4.07549 8.99431 6.53005 7.31859C7.0415 6.96942 7.29723 6.79483 7.38359 6.59778C7.46207 6.41873 7.46944 6.23715 7.40574 6.05233C7.33563 5.84893 7.10962 5.6661 6.65759 5.30044Z" stroke="black" stroke-linejoin="round"/>
<path d="M3 13.5V2.5" stroke="black" stroke-width="1.5" stroke-linecap="round"/>
</svg>
