<svg width="16" height="16" viewBox="0 0 16 16" fill="none" xmlns="http://www.w3.org/2000/svg">
<path fill-rule="evenodd" clip-rule="evenodd" d="M9.22315 13.75H10.25C11.6501 13.75 12.3502 13.75 12.885 13.4775C12.9105 13.4645 12.9357 13.4511 12.9607 13.4373C12.9569 13.4379 12.9531 13.4386 12.9492 13.4392C12.6916 13.483 12.4206 13.5117 12.1415 13.524C12.038 13.5286 11.9334 13.5309 11.8279 13.5309H11.8279H11.8279L11.8127 13.5309H11.8127C11.3988 13.53 10.998 13.4934 10.6267 13.4251C10.4057 13.3845 10.1953 13.3327 9.99867 13.2705C9.86082 13.2269 9.7298 13.1782 9.6068 13.1247C9.39259 13.0316 9.18962 12.9182 9.01463 12.7818L9.01458 12.7817L9.01079 12.7788L9.01064 12.7787L9.00007 12.7703L9.00001 12.7787L9.00002 12.7818V13.2705C9.00002 13.2843 9.00054 13.298 9.00158 13.3117C9.01333 13.4668 9.09113 13.6146 9.22315 13.75ZM8.07563 13.75C8.02804 13.6029 8.00002 13.4428 8.00002 13.2705V12.7832V12.7818L8.00001 12.7815L7.99998 12.771H8.00004L8.0001 12.7627C8.00131 12.6054 8.03935 12.4541 8.10772 12.319C8.0404 12.1475 8.00001 11.9566 8.00001 11.7459V11.2586L8 11.2569L7.99997 11.2464L8.00003 11.2464L8.00009 11.2381C8.0013 11.0802 8.03962 10.9284 8.10846 10.7929C8.04117 10.6215 8.00005 10.4307 8.00005 10.2213V9.72951L8.0002 9.71217C8.0056 9.21752 8.24177 8.82478 8.50555 8.55363C8.76786 8.28399 9.09876 8.08691 9.42964 7.94304C10.0946 7.65395 10.9432 7.5 11.828 7.5C12.7127 7.5 13.5614 7.65395 14.2263 7.94304C14.2342 7.94648 14.2421 7.94994 14.25 7.95344V7.5C14.25 6.09987 14.25 5.3998 13.9775 4.86502C13.7378 4.39462 13.3554 4.01217 12.885 3.77248C12.3502 3.5 11.6501 3.5 10.25 3.5H8L5.75 2.25C4.34987 2.25 3.6498 2.25 3.11502 2.52248C2.64462 2.76217 2.26217 3.14462 2.02248 3.61502C1.75 4.1498 1.75 4.84987 1.75 6.25V9.75C1.75 11.1501 1.75 11.8502 2.02248 12.385C2.26217 12.8554 2.64462 13.2378 3.11502 13.4775C3.6498 13.75 4.34987 13.75 5.75 13.75H8.07563ZM14.25 9.09452C13.7548 8.73821 12.8554 8.5 11.828 8.5C10.2662 8.5 9.0001 9.05047 9.0001 9.72951L9.00005 9.72951V10.2213C9.00005 10.2295 9.00024 10.2376 9.0006 10.2457C9.00163 10.2688 9.00413 10.2917 9.00805 10.3145L9.00811 10.3148C9.02814 10.4307 9.0851 10.542 9.17388 10.6467L9.17414 10.647C9.19041 10.6662 9.20776 10.6851 9.22613 10.7038C9.23721 10.7151 9.24865 10.7263 9.26047 10.7374L9.26079 10.7377L9.26077 10.7377L9.26109 10.738C9.28745 10.7627 9.31564 10.787 9.34559 10.8108C9.4755 10.914 9.63846 11.0082 9.82828 11.0907C9.86233 11.1055 9.89724 11.1199 9.93298 11.134L9.933 11.134C10.0001 11.1603 10.0701 11.1853 10.1429 11.2088C10.1929 11.225 10.2442 11.2404 10.2966 11.2551L10.2966 11.2551C10.738 11.379 11.2636 11.4508 11.8279 11.4508H11.8279C11.953 11.4508 12.0761 11.4473 12.1969 11.4404C12.621 11.4164 13.0156 11.3515 13.3591 11.2552L13.3591 11.2552C13.4886 11.2188 13.6108 11.178 13.7247 11.1332L13.7247 11.1332C13.7598 11.1194 13.794 11.1053 13.8275 11.0907C13.9854 11.022 14.1248 10.9453 14.242 10.862C14.25 10.5475 14.25 10.1821 14.25 9.75V9.09452ZM14.2031 11.5285C14.1526 11.5536 14.1011 11.5775 14.049 11.6001C13.9845 11.6282 13.9177 11.6549 13.849 11.6803L13.849 11.6803C13.8215 11.6904 13.7938 11.7003 13.7657 11.71C13.73 11.7223 13.6938 11.7343 13.6571 11.7459C13.6103 11.7607 13.5627 11.7749 13.5143 11.7886L13.5092 11.79L13.5092 11.79C13.2563 11.8609 12.9833 11.9155 12.6967 11.9521C12.5441 11.9716 12.3876 11.986 12.2283 11.995C12.1773 11.9979 12.1259 12.0003 12.0743 12.0021C12.0015 12.0046 11.9282 12.006 11.8544 12.0063H11.8544L11.8279 12.0063H11.8279H11.8279H11.8279C11.508 12.0063 11.1959 11.985 10.899 11.9442C10.6343 11.9078 10.3817 11.856 10.1466 11.79L10.1466 11.79C10.0965 11.7759 10.0471 11.7612 9.99866 11.7459C9.86081 11.7023 9.72979 11.6536 9.60679 11.6001C9.39258 11.507 9.18961 11.3937 9.01462 11.2572L9.01457 11.2571L9.01078 11.2542L9.01063 11.2541L9.00006 11.2457L9 11.2541L9.00001 11.2572V11.7459C9.00001 11.7541 9.00019 11.7622 9.00056 11.7703L9.00157 11.7871C9.0155 11.9711 9.12243 12.1449 9.30257 12.2998C9.31648 12.3118 9.33082 12.3236 9.34559 12.3354C9.4755 12.4386 9.63846 12.5328 9.82829 12.6153C9.85368 12.6263 9.87955 12.6372 9.90589 12.6478L9.90591 12.6478C10.0261 12.6962 10.156 12.7402 10.2942 12.779C10.4308 12.8175 10.5756 12.8509 10.7271 12.8788C11.0655 12.941 11.4374 12.9754 11.8279 12.9754H11.8279L11.8279 12.9754C11.9255 12.9754 12.0219 12.9733 12.117 12.9691C12.3753 12.9577 12.6233 12.9311 12.8562 12.8916C13.0342 12.8614 13.2033 12.8236 13.3616 12.779C13.4132 12.7645 13.4637 12.7493 13.5129 12.7334C13.5955 12.7067 13.6746 12.6781 13.7498 12.6478L13.7499 12.6478C13.7762 12.6372 13.8021 12.6263 13.8275 12.6153C13.8354 12.6119 13.8432 12.6084 13.851 12.605C13.8967 12.5341 13.939 12.4607 13.9775 12.385C14.0985 12.1476 14.1657 11.8777 14.2031 11.5285Z" fill="black"/>
<path fill-rule="evenodd" clip-rule="evenodd" d="M9.00005 9.72951V10.2213C9.00005 10.4057 9.09344 10.5807 9.26079 10.7377C9.26078 10.7377 9.26078 10.7377 9.26077 10.7377C9.70958 11.1588 10.6903 11.4508 11.8279 11.4508C11.8279 11.4508 11.8279 11.4508 11.8279 11.4508C11.953 11.4508 12.0761 11.4473 12.1969 11.4404C13.5844 11.3618 14.6558 10.846 14.6558 10.2213V9.73708L14.6558 9.72951C14.6558 9.05047 13.3898 8.5 11.828 8.5C10.2662 8.5 9.0001 9.05047 9.0001 9.72951L9.00005 9.72951ZM14.6557 11.2458L14.6557 11.2541L14.6557 11.2541V11.7459C14.6557 11.9303 14.5623 12.1053 14.395 12.2623L14.395 12.2623C14.0893 12.5491 13.5369 12.776 12.8562 12.8916C12.6233 12.9311 12.3753 12.9577 12.117 12.9691C12.0219 12.9733 11.9255 12.9754 11.8279 12.9754L11.8279 12.9754C11.4374 12.9754 11.0655 12.941 10.7271 12.8788C9.71218 12.6921 9.00001 12.2552 9.00001 11.7459V11.2572L9 11.2541L9.00006 11.2457C9.17832 11.3873 9.38661 11.5044 9.60679 11.6001C9.77304 11.6724 9.95395 11.7359 10.1466 11.79L10.1466 11.79C10.6455 11.93 11.2229 12.0063 11.8279 12.0063C12.4329 12.0063 13.0103 11.93 13.5092 11.79L13.5092 11.79C13.7018 11.736 13.8827 11.6724 14.049 11.6001C14.2691 11.5044 14.4774 11.3873 14.6557 11.2458ZM14.049 13.1247C14.2691 13.029 14.4774 12.9119 14.6557 12.7703L14.6557 12.7787L14.6557 12.7787V13.2705C14.6557 13.9495 13.3897 14.5 11.8279 14.5C10.2661 14.5 9.00002 13.9495 9.00002 13.2705V12.7818L9.00001 12.7787L9.00007 12.7703C9.17833 12.9119 9.38662 13.029 9.6068 13.1247C10.2036 13.3842 10.9893 13.5309 11.8279 13.5309C12.6665 13.5309 13.4522 13.3842 14.049 13.1247Z" fill="black"/>
</svg>
