<svg width="16" height="16" viewBox="0 0 16 16" fill="none" xmlns="http://www.w3.org/2000/svg">
<path fill-rule="evenodd" clip-rule="evenodd" d="M3.11502 13.4775C3.6498 13.75 4.34987 13.75 5.75 13.75H10.25C11.6501 13.75 12.3502 13.75 12.885 13.4775C13.3554 13.2378 13.7378 12.8554 13.9775 12.385C14.25 11.8502 14.25 11.1501 14.25 9.75V7.5C14.25 6.09987 14.25 5.3998 13.9775 4.86502C13.7378 4.39462 13.3554 4.01217 12.885 3.77248C12.3502 3.5 11.6501 3.5 10.25 3.5H8L5.75 2.25C4.34987 2.25 3.6498 2.25 3.11502 2.52248C2.64462 2.76217 2.26217 3.14462 2.02248 3.61502C1.75 4.1498 1.75 4.84987 1.75 6.25V9.75C1.75 11.1501 1.75 11.8502 2.02248 12.385C2.26217 12.8554 2.64462 13.2378 3.11502 13.4775ZM6.85355 7.60355C7.04882 7.40829 7.04882 7.09171 6.85355 6.89645C6.65829 6.70118 6.34171 6.70118 6.14645 6.89645L4.64645 8.39645C4.45118 8.59171 4.45118 8.90829 4.64645 9.10355L6.14645 10.6036C6.34171 10.7988 6.65829 10.7988 6.85355 10.6036C7.04882 10.4083 7.04882 10.0917 6.85355 9.89645L5.70711 8.75L6.85355 7.60355ZM9.85355 6.89645C9.65829 6.70118 9.34171 6.70118 9.14645 6.89645C8.95118 7.09171 8.95118 7.40829 9.14645 7.60355L10.2929 8.75L9.14645 9.89645C8.95118 10.0917 8.95118 10.4083 9.14645 10.6036C9.34171 10.7988 9.65829 10.7988 9.85355 10.6036L11.3536 9.10355C11.5488 8.90829 11.5488 8.59171 11.3536 8.39645L9.85355 6.89645Z" fill="black"/>
</svg>
