<svg width="16" height="16" viewBox="0 0 16 16" fill="none" xmlns="http://www.w3.org/2000/svg">
<path fill-rule="evenodd" clip-rule="evenodd" d="M9.06689 13.75H10.25C11.6105 13.75 12.31 13.75 12.8392 13.5H12V13H13H13.5C13.512 13 13.524 12.9998 13.536 12.9994C13.7124 12.8193 13.8616 12.6124 13.9775 12.385C14.25 11.8502 14.25 11.1501 14.25 9.75V8.83854C14.0668 8.63094 13.7987 8.5 13.5 8.5H9.5C8.94772 8.5 8.5 8.94772 8.5 9.5V12C8.5 12.2662 8.60401 12.5081 8.77362 12.6873C8.95589 12.8799 9.21392 13 9.5 13H10H11V13.5H10H9.5C9.31493 13.5 9.15334 13.6005 9.06689 13.75ZM8.02074 13.75C8.03897 13.6413 8.06889 13.5366 8.10915 13.4372C7.73352 13.0736 7.5 12.5641 7.5 12V9.5C7.5 8.39543 8.39543 7.5 9.5 7.5H13.5C13.7652 7.5 14.0184 7.55163 14.25 7.64538V7.5C14.25 6.09987 14.25 5.3998 13.9775 4.86502C13.7378 4.39462 13.3554 4.01217 12.885 3.77248C12.3502 3.5 11.6501 3.5 10.25 3.5H8L5.75 2.25C4.34987 2.25 3.6498 2.25 3.11502 2.52248C2.64462 2.76217 2.26217 3.14462 2.02248 3.61502C1.75 4.1498 1.75 4.84987 1.75 6.25V9.75C1.75 11.1501 1.75 11.8502 2.02248 12.385C2.26217 12.8554 2.64462 13.2378 3.11502 13.4775C3.6498 13.75 4.34987 13.75 5.75 13.75H8.02074Z" fill="black"/>
<path fill-rule="evenodd" clip-rule="evenodd" d="M9.5 8.5C8.94772 8.5 8.5 8.94772 8.5 9.5V12C8.5 12.5523 8.94772 13 9.5 13H11V13.5H9.5C9.22386 13.5 9 13.7239 9 14C9 14.2761 9.22386 14.5 9.5 14.5H11.5H13.5C13.7761 14.5 14 14.2761 14 14C14 13.7239 13.7761 13.5 13.5 13.5H12V13H13.5C14.0523 13 14.5 12.5523 14.5 12V9.5C14.5 8.94772 14.0523 8.5 13.5 8.5H9.5Z" fill="black"/>
</svg>
