<svg width="16" height="16" viewBox="0 0 16 16" fill="none" xmlns="http://www.w3.org/2000/svg">
<path d="M10.25 13.75H5.75C4.34987 13.75 3.6498 13.75 3.11502 13.4775C2.64462 13.2378 2.26217 12.8554 2.02248 12.385C1.75 11.8502 1.75 11.1501 1.75 9.75V6.25C1.75 4.84987 1.75 4.1498 2.02248 3.61502C2.26217 3.14462 2.64462 2.76217 3.11502 2.52248C3.6498 2.25 4.34987 2.25 5.75 2.25L8 3.5H10.25C11.6501 3.5 12.3502 3.5 12.885 3.77248C13.3554 4.01217 13.7378 4.39462 13.9775 4.86502C14.25 5.3998 14.25 6.09987 14.25 7.5V9.75C14.25 11.1501 14.25 11.8502 13.9775 12.385C13.7378 12.8554 13.3554 13.2378 12.885 13.4775C12.3502 13.75 11.6501 13.75 10.25 13.75Z" fill="black"/>
</svg>
