<svg width="16" height="16" viewBox="0 0 16 16" fill="none" xmlns="http://www.w3.org/2000/svg">
<path fill-rule="evenodd" clip-rule="evenodd" d="M2 6.8C2 5.11984 2 4.27976 2.32698 3.63803C2.6146 3.07354 3.07354 2.6146 3.63803 2.32698C4.27976 2 5.11984 2 6.8 2H9.2C10.8802 2 11.7202 2 12.362 2.32698C12.9265 2.6146 13.3854 3.07354 13.673 3.63803C14 4.27976 14 5.11984 14 6.8V9.2C14 10.8802 14 11.7202 13.673 12.362C13.3854 12.9265 12.9265 13.3854 12.362 13.673C11.7202 14 10.8802 14 9.2 14H6.8C5.11984 14 4.27976 14 3.63803 13.673C3.07354 13.3854 2.6146 12.9265 2.32698 12.362C2 11.7202 2 10.8802 2 9.2V6.8ZM6.5 8C6.5 7.72386 6.72386 7.5 7 7.5H12C12.2761 7.5 12.5 7.72386 12.5 8C12.5 8.27614 12.2761 8.5 12 8.5H7C6.72386 8.5 6.5 8.27614 6.5 8ZM4.5 7C3.94772 7 3.5 7.44772 3.5 8C3.5 8.55228 3.94772 9 4.5 9C5.05228 9 5.5 8.55228 5.5 8C5.5 7.44772 5.05228 7 4.5 7ZM6.5 5C6.5 4.72386 6.72386 4.5 7 4.5H12C12.2761 4.5 12.5 4.72386 12.5 5C12.5 5.27614 12.2761 5.5 12 5.5H7C6.72386 5.5 6.5 5.27614 6.5 5ZM4.5 4C3.94772 4 3.5 4.44772 3.5 5C3.5 5.55228 3.94772 6 4.5 6C5.05228 6 5.5 5.55228 5.5 5C5.5 4.44772 5.05228 4 4.5 4ZM6.5 11C6.5 10.7239 6.72386 10.5 7 10.5H12C12.2761 10.5 12.5 10.7239 12.5 11C12.5 11.2761 12.2761 11.5 12 11.5H7C6.72386 11.5 6.5 11.2761 6.5 11ZM4.5 10C3.94772 10 3.5 10.4477 3.5 11C3.5 11.5523 3.94772 12 4.5 12C5.05228 12 5.5 11.5523 5.5 11C5.5 10.4477 5.05228 10 4.5 10Z" fill="black"/>
</svg>
