<svg width="16" height="16" viewBox="0 0 16 16" fill="none" xmlns="http://www.w3.org/2000/svg">
<path fill-rule="evenodd" clip-rule="evenodd" d="M2.32698 3.63803C2 4.27976 2 5.11984 2 6.8V9.2C2 10.8802 2 11.7202 2.32698 12.362C2.6146 12.9265 3.07354 13.3854 3.63803 13.673C4.27976 14 5.11984 14 6.8 14H8.76795C8.75053 13.9698 8.73387 13.9391 8.71799 13.908C8.60102 13.6784 8.55167 13.4507 8.52784 13.2482C7.91473 12.9066 7.5 12.2517 7.5 11.5H7C6.72386 11.5 6.5 11.2761 6.5 11C6.5 10.7239 6.72386 10.5 7 10.5H7.76756C7.94854 10.1871 8.21184 9.92786 8.52783 9.75176C8.55167 9.54925 8.60103 9.32157 8.71799 9.09202C8.83306 8.86618 8.98926 8.66568 9.17712 8.5H7C6.72386 8.5 6.5 8.27614 6.5 8C6.5 7.72386 6.72386 7.5 7 7.5H10.6771C11.0297 7.18882 11.4928 7 12 7C12.7517 7 13.4066 7.41473 13.7482 8.02784C13.8287 8.03731 13.9131 8.0508 14 8.07096V6.8C14 5.11984 14 4.27976 13.673 3.63803C13.3854 3.07354 12.9265 2.6146 12.362 2.32698C11.7202 2 10.8802 2 9.2 2H6.8C5.11984 2 4.27976 2 3.63803 2.32698C3.07354 2.6146 2.6146 3.07354 2.32698 3.63803ZM14 9.13397C13.9849 9.12526 13.9696 9.11693 13.954 9.10899C13.7532 9.00669 13.4942 9.00041 13 9.00003C13 8.62343 12.7918 8.29545 12.4843 8.12489C12.4288 8.3406 12.233 8.5 12 8.5H11.1338C11.0487 8.64709 11 8.81787 11 9.00003C10.5058 9.00041 10.2468 9.00669 10.046 9.10899C9.85785 9.20487 9.70487 9.35785 9.60899 9.54601C9.50669 9.74679 9.50039 10.0058 9.5 10.5H12C12.2761 10.5 12.5 10.7239 12.5 11C12.5 11.2761 12.2761 11.5 12 11.5H8.5C8.5 12.0523 8.94774 12.5 9.50003 12.5C9.50041 12.9942 9.50669 13.2532 9.60899 13.454C9.70487 13.6422 9.85785 13.7951 10.046 13.891C10.1667 13.9525 10.3085 13.9793 10.5097 13.991C11.3693 13.9702 11.914 13.9013 12.362 13.673C12.9265 13.3854 13.3854 12.9265 13.673 12.362C13.7044 12.3003 13.7328 12.2368 13.7585 12.171C13.5979 11.9935 13.5 11.7582 13.5 11.5C13.5 11.1351 13.6954 10.8159 13.9874 10.6412C14 10.2404 14 9.76822 14 9.2V9.13397ZM3.5 8C3.5 7.44772 3.94772 7 4.5 7C5.05228 7 5.5 7.44772 5.5 8C5.5 8.55228 5.05228 9 4.5 9C3.94772 9 3.5 8.55228 3.5 8ZM7 4.5C6.72386 4.5 6.5 4.72386 6.5 5C6.5 5.27614 6.72386 5.5 7 5.5H12C12.2761 5.5 12.5 5.27614 12.5 5C12.5 4.72386 12.2761 4.5 12 4.5H7ZM3.5 5C3.5 4.44772 3.94772 4 4.5 4C5.05228 4 5.5 4.44772 5.5 5C5.5 5.55228 5.05228 6 4.5 6C3.94772 6 3.5 5.55228 3.5 5ZM3.5 11C3.5 10.4477 3.94772 10 4.5 10C5.05228 10 5.5 10.4477 5.5 11C5.5 11.5523 5.05228 12 4.5 12C3.94772 12 3.5 11.5523 3.5 11Z" fill="black"/>
<path d="M13 9.00003C13.4942 9.00041 13.7532 9.00669 13.954 9.10899C14.1422 9.20487 14.2951 9.35785 14.391 9.54601C14.4933 9.74679 14.4996 10.0058 14.5 10.5C13.9477 10.5 13.5 10.9477 13.5 11.5C13.5 12.0523 13.9477 12.5 14.5 12.5C14.4996 12.9942 14.4933 13.2532 14.391 13.454C14.2951 13.6422 14.1422 13.7951 13.954 13.891C13.7532 13.9933 13.4942 13.9996 13 14C13 14.5523 12.5523 15 12 15C11.4477 15 11 14.5523 11 14C10.5058 13.9996 10.2468 13.9933 10.046 13.891C9.85785 13.7951 9.70487 13.6422 9.60899 13.454C9.50669 13.2532 9.50041 12.9942 9.50003 12.5C8.94774 12.5 8.5 12.0523 8.5 11.5C8.5 10.9477 8.94772 10.5 9.5 10.5C9.50039 10.0058 9.50669 9.74679 9.60899 9.54601C9.70487 9.35785 9.85785 9.20487 10.046 9.10899C10.2468 9.00669 10.5058 9.00041 11 9.00003C11 8.44774 11.4477 8 12 8C12.5523 8 13 8.44774 13 9.00003Z" fill="black"/>
</svg>
