<svg width="16" height="16" viewBox="0 0 16 16" fill="none" xmlns="http://www.w3.org/2000/svg">
<path d="M6.86667 9.6C7.5904 9.0572 7.95226 8.7858 8.08166 8.45309C8.195 8.16166 8.195 7.83834 8.08166 7.54691C7.95226 7.2142 7.5904 6.9428 6.86667 6.4L4.2 4.4C3.17005 3.62754 2.65508 3.24131 2.22402 3.25027C1.8489 3.25807 1.49712 3.43396 1.26581 3.72938C1 4.06885 1 4.71256 1 6V10C1 11.2874 1 11.9312 1.26581 12.2706C1.49712 12.566 1.8489 12.7419 2.22402 12.7497C2.65508 12.7587 3.17005 12.3725 4.2 11.6L6.86667 9.6Z" fill="black"/>
<path d="M14.1167 9.6C14.8404 9.0572 15.2023 8.7858 15.3317 8.45309C15.445 8.16166 15.445 7.83834 15.3317 7.54691C15.2023 7.2142 14.8404 6.9428 14.1167 6.4L11.45 4.4C10.4201 3.62754 9.90508 3.24131 9.47402 3.25027C9.0989 3.25807 8.74712 3.43396 8.51581 3.72938C8.25 4.06885 8.25 4.71256 8.25 6V10C8.25 11.2874 8.25 11.9312 8.51581 12.2706C8.74712 12.566 9.0989 12.7419 9.47402 12.7497C9.90508 12.7587 10.4201 12.3725 11.45 11.6L14.1167 9.6Z" fill="black"/>
</svg>
