<svg width="16" height="16" viewBox="0 0 16 16" fill="none" xmlns="http://www.w3.org/2000/svg">
<path d="M6 2.5V3.6C6 4.44008 6 4.86012 5.83651 5.18099C5.6927 5.46323 5.46323 5.6927 5.18099 5.83651C4.86012 6 4.44008 6 3.6 6H2.5M13.5 6H12.4C11.5599 6 11.1399 6 10.819 5.83651C10.5368 5.6927 10.3073 5.46323 10.1635 5.18099C10 4.86012 10 4.44008 10 3.6V2.5M10 13.5V12.4C10 11.5599 10 11.1399 10.1635 10.819C10.3073 10.5368 10.5368 10.3073 10.819 10.1635C11.1399 10 11.5599 10 12.4 10H13.5M2.5 10H3.6C4.44008 10 4.86012 10 5.18099 10.1635C5.46323 10.3073 5.6927 10.5368 5.83651 10.819C6 11.1399 6 11.5599 6 12.4V13.5" stroke="black" stroke-linecap="round" stroke-linejoin="round"/>
</svg>
