<svg width="16" height="16" viewBox="0 0 16 16" fill="none" xmlns="http://www.w3.org/2000/svg">
<path fill-rule="evenodd" clip-rule="evenodd" d="M2 6.8C2 5.11984 2 4.27976 2.32698 3.63803C2.6146 3.07354 3.07354 2.6146 3.63803 2.32698C4.27976 2 5.11984 2 6.8 2H9.2C10.8802 2 11.7202 2 12.362 2.32698C12.9265 2.6146 13.3854 3.07354 13.673 3.63803C14 4.27976 14 5.11984 14 6.8V9.2C14 10.8802 14 11.7202 13.673 12.362C13.3854 12.9265 12.9265 13.3854 12.362 13.673C11.7202 14 10.8802 14 9.2 14H6.8C5.11984 14 4.27976 14 3.63803 13.673C3.07354 13.3854 2.6146 12.9265 2.32698 12.362C2 11.7202 2 10.8802 2 9.2V6.8ZM8.25 6C8.52614 6 8.75 6.22386 8.75 6.5V9.5C8.75 9.77614 8.52614 10 8.25 10C7.97386 10 7.75 9.77614 7.75 9.5V6.5C7.75 6.22386 7.97386 6 8.25 6ZM5.50529 6.00001C5.15602 5.99908 4.81259 6.08964 4.50919 6.26268C4.20578 6.43571 3.95298 6.68519 3.77595 6.98627C3.59891 7.28736 3.50381 7.62956 3.50011 7.97882L3.50011 7.98941L3.5 8V8.03333C3.5 9.11949 4.38051 10 5.46667 10C6.45158 10 7.25001 9.20157 7.25001 8.21666V8.1C7.25001 7.82386 7.02615 7.6 6.75001 7.6H6.00001C5.72387 7.6 5.50001 7.82386 5.50001 8.1C5.50001 8.37614 5.72387 8.6 6.00001 8.6H6.14997C6.01575 8.83873 5.76004 9 5.46667 9C4.93279 9 4.5 8.56721 4.5 8.03333V8L4.49997 7.9947L4.50006 7.98941C4.50191 7.81478 4.54946 7.64368 4.63797 7.49314C4.72649 7.34259 4.85289 7.21786 5.00459 7.13134C5.15629 7.04482 5.32801 6.99954 5.50265 7C5.67729 7.00047 5.84876 7.04666 6 7.13397C6.23915 7.27205 6.54494 7.19011 6.68301 6.95096C6.82108 6.71182 6.73915 6.40602 6.5 6.26795C6.19752 6.09331 5.85457 6.00093 5.50529 6.00001ZM9.9 6C9.62386 6 9.4 6.22386 9.4 6.5V8V9.5C9.4 9.77614 9.62386 10 9.9 10C10.1761 10 10.4 9.77614 10.4 9.5V8.5H11.5C11.7761 8.5 12 8.27614 12 8C12 7.72386 11.7761 7.5 11.5 7.5H10.4V7H12C12.2761 7 12.5 6.77614 12.5 6.5C12.5 6.22386 12.2761 6 12 6H9.9Z" fill="black"/>
</svg>
