<svg width="16" height="16" viewBox="0 0 16 16" fill="none" xmlns="http://www.w3.org/2000/svg">
<path d="M8.00002 5.14999L7.71631 3.30593C7.59187 2.49708 6.8959 1.89999 6.07753 1.89999V1.89999C5.42229 1.89999 4.82704 2.28917 4.56092 2.88794V2.88794C4.23622 3.61849 4.47272 4.4809 5.12767 4.93936L6.50001 5.89999" stroke="black"/>
<path d="M9.50003 5.89999L10.8723 4.93936C11.5273 4.4809 11.7623 3.61506 11.4376 2.88451V2.88451C11.1731 2.28944 10.5803 1.89999 9.92913 1.89999V1.89999C9.1091 1.89999 8.41386 2.50297 8.29789 3.31476L8 5.39999" stroke="black"/>
<path fill-rule="evenodd" clip-rule="evenodd" d="M12.375 5H3.625C3.27651 5 3.10226 5 2.95736 5.02882C2.36233 5.14718 1.89718 5.61233 1.77882 6.20736C1.75 6.35226 1.75 6.52651 1.75 6.875C1.75 6.99116 1.75 7.04925 1.75961 7.09755C1.79906 7.29589 1.95411 7.45094 2.15245 7.49039C2.20075 7.5 2.25884 7.5 2.375 7.5L8 7.5L13.625 7.5C13.7412 7.5 13.7992 7.5 13.8475 7.49039C14.0459 7.45094 14.2009 7.29589 14.2404 7.09755C14.25 7.04925 14.25 6.99116 14.25 6.875C14.25 6.52651 14.25 6.35226 14.2212 6.20736C14.1028 5.61233 13.6377 5.14718 13.0426 5.02882C12.8977 5 12.7235 5 12.375 5ZM12.9636 8.5C12.9591 8.5 12.9546 8.5 12.95 8.5L8.5 8.5V13.75H10.55C11.6701 13.75 12.2302 13.75 12.658 13.532C13.0343 13.3403 13.3403 13.0343 13.532 12.658C13.75 12.2302 13.75 11.6701 13.75 10.55V9.3C13.75 9.01997 13.75 8.87996 13.6955 8.773C13.6476 8.67892 13.5711 8.60243 13.477 8.5545C13.3718 8.50089 13.2346 8.50001 12.9636 8.5ZM7.5 13.75V8.5L3.05 8.5C3.04542 8.5 3.04088 8.5 3.03637 8.5C2.7654 8.50001 2.62821 8.50089 2.523 8.5545C2.42892 8.60243 2.35243 8.67892 2.3045 8.773C2.25 8.87996 2.25 9.01997 2.25 9.3V10.55C2.25 11.6701 2.25 12.2302 2.46799 12.658C2.65973 13.0343 2.96569 13.3403 3.34202 13.532C3.76984 13.75 4.32989 13.75 5.45 13.75H7.5Z" fill="black"/>
</svg>
