<svg width="16" height="16" viewBox="0 0 16 16" fill="none" xmlns="http://www.w3.org/2000/svg">
<circle cx="3.5" cy="4" r="2" fill="black"/>
<circle cx="12.5" cy="12" r="2" fill="black"/>
<path d="M3.5 4V9C3.5 10.6569 4.84315 12 6.5 12H7M12.5 12V7C12.5 5.34315 11.1569 4 9.5 4H9" stroke="black" stroke-width="1.5" stroke-linecap="round" stroke-linejoin="round"/>
<path d="M9.14645 1.85355L7.35355 3.64645C7.15829 3.84171 7.15829 4.15829 7.35355 4.35355L9.14645 6.14645C9.46143 6.46143 10 6.23835 10 5.79289V2.20711C10 1.76165 9.46143 1.53857 9.14645 1.85355Z" fill="black"/>
<path d="M6.85355 9.85355L8.64645 11.6464C8.84171 11.8417 8.84171 12.1583 8.64645 12.3536L6.85355 14.1464C6.53857 14.4614 6 14.2383 6 13.7929V10.2071C6 9.76165 6.53857 9.53857 6.85355 9.85355Z" fill="black"/>
</svg>
