<svg width="16" height="16" viewBox="0 0 16 16" fill="none" xmlns="http://www.w3.org/2000/svg">
<path fill-rule="evenodd" clip-rule="evenodd" d="M8 14.25C8.76506 14.25 9.42978 12.9076 9.76614 10.9354C9.21552 10.976 8.6256 11 8 11C7.3744 11 6.78448 10.976 6.23386 10.9354C6.57022 12.9076 7.23494 14.25 8 14.25ZM6.17031 13.9779C5.95539 13.6074 5.7786 13.1781 5.63336 12.7242C5.4555 12.1684 5.31087 11.5308 5.20497 10.8364C4.40414 10.7409 3.71128 10.6147 3.14153 10.4881C2.75876 10.403 2.43137 10.3178 2.16395 10.2415C2.84949 12.0253 4.32933 13.4151 6.17031 13.9779ZM6.0963 9.92154C6.68265 9.97039 7.31895 10 8 10C8.68105 10 9.31735 9.97039 9.9037 9.92154C9.96622 9.31616 10 8.6704 10 8C10 7.6315 9.98979 7.27045 9.97022 6.91946C9.36205 6.96969 8.70359 7 8 7C7.29641 7 6.63795 6.96969 6.02978 6.91946C6.01021 7.27045 6 7.6315 6 8C6 8.6704 6.03378 9.31616 6.0963 9.92154ZM5.0341 6.81533C5.0116 7.20159 5 7.59755 5 8C5 8.62397 5.02789 9.23231 5.08104 9.81312C4.41816 9.72643 3.84045 9.61902 3.35847 9.51191C2.81124 9.3903 2.3878 9.26918 2.10369 9.17946C1.99804 9.1461 1.91168 9.11708 1.84543 9.09402C1.78271 8.73879 1.75 8.37322 1.75 8C1.75 7.37343 1.8422 6.7684 2.01377 6.19773C2.30527 6.28435 2.68379 6.38638 3.14153 6.4881C3.67036 6.60561 4.30525 6.7228 5.0341 6.81533ZM6.1131 5.92293C6.69479 5.97096 7.32544 6 8 6C8.67456 6 9.30521 5.97096 9.8869 5.92293C9.61291 3.49218 8.87156 1.75 8 1.75C7.99944 1.75 7.99888 1.75 7.99832 1.75C7.12748 1.75224 6.38691 3.49374 6.1131 5.92293ZM9.8297 2.02209C10.0446 2.39259 10.2214 2.82195 10.3666 3.27581C10.5991 4.00212 10.7747 4.86805 10.8814 5.81799C11.56 5.73048 12.1505 5.62103 12.6415 5.51191C13.0331 5.4249 13.3613 5.33813 13.6204 5.26294C12.8671 3.71902 11.4964 2.5316 9.8297 2.02209ZM10.9659 6.81533C10.9884 7.20159 11 7.59755 11 8C11 8.62397 10.9721 9.23231 10.919 9.81312C11.5818 9.72643 12.1595 9.61902 12.6415 9.51191C13.1888 9.3903 13.6122 9.26918 13.8963 9.17946C14.002 9.1461 14.0883 9.11708 14.1546 9.09402C14.2173 8.73879 14.25 8.37322 14.25 8C14.25 7.37343 14.1578 6.7684 13.9862 6.19773C13.6947 6.28435 13.3162 6.38638 12.8585 6.4881C12.3296 6.60561 11.6947 6.7228 10.9659 6.81533ZM10.795 10.8364C10.6891 11.5308 10.5445 12.1684 10.3666 12.7242C10.2214 13.1781 10.0446 13.6074 9.82969 13.9779C11.6707 13.4151 13.1505 12.0253 13.836 10.2415C13.5686 10.3178 13.2412 10.403 12.8585 10.4881C12.2887 10.6147 11.5959 10.7409 10.795 10.8364ZM6.1703 2.02209C5.95539 2.39259 5.7786 2.82195 5.63336 3.27581C5.40094 4.00212 5.22528 4.86805 5.11859 5.81799C4.43996 5.73048 3.84953 5.62103 3.35847 5.51191C2.96691 5.4249 2.63873 5.33813 2.37962 5.26294C3.13289 3.71902 4.5036 2.5316 6.1703 2.02209Z" fill="black"/>
</svg>
