<svg width="16" height="16" viewBox="0 0 16 16" fill="none" xmlns="http://www.w3.org/2000/svg">
<path fill-rule="evenodd" clip-rule="evenodd" d="M2.32698 3.63803C2 4.27976 2 5.11984 2 6.8V9.2C2 9.60498 2 9.96114 2.00458 10.2775C2.33704 9.83097 2.59986 9.32799 2.86736 8.81608C2.93059 8.69508 2.99408 8.57358 3.05881 8.45221C3.54509 7.54043 4.17114 6.5 5.49999 6.5C6.75484 6.5 7.33685 7.44033 7.76209 8.12737L7.76227 8.12766C7.78494 8.16428 7.80716 8.20018 7.82901 8.23518C8.30502 8.99753 8.67345 9.5 9.49999 9.5C9.88992 9.5 10.2049 9.33617 10.5182 9.00692C10.8467 8.66156 11.1391 8.16982 11.4699 7.57078C11.5198 7.48044 11.5704 7.38772 11.6221 7.29315L11.6227 7.29198C12.1669 6.29565 12.8229 5.09453 13.8916 4.30572C13.8433 4.05189 13.7737 3.83556 13.673 3.63803C13.3854 3.07354 12.9265 2.6146 12.362 2.32698C11.7202 2 10.8802 2 9.2 2H6.8C5.11984 2 4.27976 2 3.63803 2.32698C3.07354 2.6146 2.6146 3.07354 2.32698 3.63803ZM13.9922 5.54088C13.3844 6.16305 12.9364 6.97851 12.478 7.81299L12.4772 7.81456C12.4333 7.89433 12.3894 7.97426 12.3453 8.05422C12.0203 8.64268 11.6722 9.24469 11.2426 9.6962C10.7977 10.1638 10.2368 10.5 9.49999 10.5C8.07295 10.5 7.44138 9.50247 6.98078 8.76482C6.47605 7.95647 6.17807 7.5 5.49999 7.5C4.82883 7.5 4.45489 7.95957 3.94117 8.92279C3.88314 9.0316 3.82388 9.1459 3.76252 9.26425C3.37017 10.021 2.89199 10.9433 2.10082 11.6528C2.14923 11.9247 2.2209 12.1538 2.32698 12.362C2.6146 12.9265 3.07354 13.3854 3.63803 13.673C4.27976 14 5.11984 14 6.8 14H9.2C10.8802 14 11.7202 14 12.362 13.673C12.9265 13.3854 13.3854 12.9265 13.673 12.362C14 11.7202 14 10.8802 14 9.2V6.8C14 6.31559 14 5.90101 13.9922 5.54088Z" fill="black"/>
</svg>
