<svg width="16" height="16" viewBox="0 0 16 16" fill="none" xmlns="http://www.w3.org/2000/svg">
<path fill-rule="evenodd" clip-rule="evenodd" d="M1.5 7.3C1.5 5.61984 1.5 4.77976 1.82698 4.13803C2.1146 3.57354 2.57354 3.1146 3.13803 2.82698C3.77976 2.5 4.61984 2.5 6.3 2.5H9.7C11.3802 2.5 12.2202 2.5 12.862 2.82698C13.4265 3.1146 13.8854 3.57354 14.173 4.13803C14.5 4.77976 14.5 5.61984 14.5 7.3V8.7C14.5 10.3802 14.5 11.2202 14.173 11.862C13.8854 12.4265 13.4265 12.8854 12.862 13.173C12.2202 13.5 11.3802 13.5 9.7 13.5H6.3C4.61984 13.5 3.77976 13.5 3.13803 13.173C2.57354 12.8854 2.1146 12.4265 1.82698 11.862C1.5 11.2202 1.5 10.3802 1.5 8.7V7.3ZM3.25 6C3.52614 6 3.75 6.22386 3.75 6.5V7.5H4.75V6.5C4.75 6.22386 4.97386 6 5.25 6C5.52614 6 5.75 6.22386 5.75 6.5V8V9.5C5.75 9.77614 5.52614 10 5.25 10C4.97386 10 4.75 9.77614 4.75 9.5V8.5H3.75V9.5C3.75 9.77614 3.52614 10 3.25 10C2.97386 10 2.75 9.77614 2.75 9.5V8V6.5C2.75 6.22386 2.97386 6 3.25 6ZM6.5 6.5C6.5 6.22386 6.72386 6 7 6H7.25H7.75C8.85457 6 9.75 6.89543 9.75 8C9.75 9.10457 8.85457 10 7.75 10H7.25H7C6.72386 10 6.5 9.77614 6.5 9.5V6.5ZM7.5 9H7.75C8.30228 9 8.75 8.55228 8.75 8C8.75 7.44772 8.30228 7 7.75 7H7.5V9ZM10.25 6.5C10.25 6.22386 10.4739 6 10.75 6H11.875C12.6344 6 13.25 6.61561 13.25 7.375C13.25 7.79421 13.0624 8.16961 12.7666 8.42181L13.2014 9.33503C13.3202 9.58435 13.2143 9.88271 12.965 10.0014C12.7156 10.1202 12.4173 10.0143 12.2986 9.76497L11.8153 8.75H11.25V9.5C11.25 9.77614 11.0261 10 10.75 10C10.4739 10 10.25 9.77614 10.25 9.5V8.25V6.5ZM11.25 7.75H11.875C12.0821 7.75 12.25 7.58211 12.25 7.375C12.25 7.16789 12.0821 7 11.875 7H11.25V7.75Z" fill="black"/>
</svg>
