<svg width="16" height="16" viewBox="0 0 16 16" fill="none" xmlns="http://www.w3.org/2000/svg">
<path fill-rule="evenodd" clip-rule="evenodd" d="M1.82698 4.13803C1.5 4.77976 1.5 5.61984 1.5 7.3V8.7C1.5 10.3802 1.5 11.2202 1.82698 11.862C2.1146 12.4265 2.57354 12.8854 3.13803 13.173C3.77976 13.5 4.61984 13.5 6.3 13.5H9.7C11.3802 13.5 12.2202 13.5 12.862 13.173C13.4265 12.8854 13.8854 12.4265 14.173 11.862C14.5 11.2202 14.5 10.3802 14.5 8.7V7.3C14.5 5.61984 14.5 4.77976 14.173 4.13803C13.8854 3.57354 13.4265 3.1146 12.862 2.82698C12.2202 2.5 11.3802 2.5 9.7 2.5H6.3C4.61984 2.5 3.77976 2.5 3.13803 2.82698C2.57354 3.1146 2.1146 3.57354 1.82698 4.13803ZM3.39696 9.75V6.25H4.12045V7.6547H5.60736V6.25H6.3285V9.75H5.60736V8.27483H4.12045V9.75H3.39696ZM7.89782 9.75H6.66225V6.25H7.91191C8.2627 6.25 8.5665 6.32125 8.82332 6.46376C9.08015 6.60626 9.27824 6.80828 9.41762 7.0698C9.55699 7.33132 9.62668 7.6406 9.62668 7.99765C9.62668 8.35626 9.55699 8.66711 9.41762 8.9302C9.27824 9.19172 9.07936 9.39374 8.82097 9.53624C8.56415 9.67875 8.25643 9.75 7.89782 9.75ZM7.38574 9.14161H7.86023C8.21415 9.14161 8.47567 9.04295 8.6448 8.84564C8.81393 8.64832 8.89849 8.36566 8.89849 7.99765C8.89849 7.62964 8.81314 7.34776 8.64245 7.15201C8.47332 6.95626 8.21493 6.85839 7.86728 6.85839H7.38574V9.14161ZM9.84297 6.25V9.75H10.5665V8.52617H11.2007H11.2077L11.8279 9.75H12.603L11.9007 8.38993C12.0964 8.29911 12.2491 8.16913 12.3587 8C12.4699 7.83087 12.5255 7.63042 12.5255 7.39866C12.5255 7.16376 12.4731 6.96018 12.3681 6.78792C12.2648 6.61566 12.1168 6.48333 11.9242 6.39094C11.7331 6.29698 11.5061 6.25 11.243 6.25H9.84297ZM11.2007 7.94597H10.5665V6.85134H11.1983C11.3894 6.85134 11.5405 6.90067 11.6517 6.99933C11.7629 7.09799 11.8185 7.2311 11.8185 7.39866C11.8185 7.56465 11.7629 7.69776 11.6517 7.79799C11.5421 7.89664 11.3917 7.94597 11.2007 7.94597Z" fill="black"/>
</svg>
