<svg width="16" height="16" viewBox="0 0 16 16" fill="none" xmlns="http://www.w3.org/2000/svg">
<path fill-rule="evenodd" clip-rule="evenodd" d="M2.94948 4.50947C2.34857 5.44407 2 6.55633 2 7.75V10V11.25V12C2 13.1046 2.89543 14 4 14C5.10457 14 6 13.1046 6 12V10C6 8.89543 5.10457 8 4 8C3.63571 8 3.29417 8.09739 3 8.26756V7.75C3 6.8431 3.24145 5.9926 3.66357 5.25926L2.94948 4.50947ZM10.4395 8.74897C10.806 8.29233 11.3689 8 12 8C12.3643 8 12.7058 8.09739 13 8.26756V7.75C13 4.98858 10.7614 2.75 8 2.75C7.05295 2.75 6.1674 3.0133 5.41255 3.47069L4.70919 2.73216C5.65407 2.11123 6.78485 1.75 8 1.75C11.3137 1.75 14 4.43629 14 7.75V10V11.25V12C14 12.151 13.9833 12.298 13.9516 12.4394C13.9367 12.4219 13.9212 12.4048 13.9052 12.3879L10.4395 8.74897ZM10 11.9125V12C10 13.1006 10.889 13.9935 11.988 14L10 11.9125Z" fill="black"/>
<path d="M3 2.75L13 13.25" stroke="black" stroke-linecap="round" stroke-linejoin="round"/>
</svg>
