<svg width="16" height="16" viewBox="0 0 16 16" fill="none" xmlns="http://www.w3.org/2000/svg">
<path d="M8.44231 4.13321C8.35579 4.29729 8.18554 4.4 8.00002 4.4C7.81453 4.4 7.64429 4.29731 7.55777 4.13326C7.55776 4.13324 7.55775 4.13323 7.55774 4.13321L8.44231 4.13321ZM8.44231 4.13321L8.4423 4.13324M8.44231 4.13321L12.7779 2.93068M12.7779 2.93068C12.3668 2.67883 11.7978 2.5 11 2.5C10.1702 2.5 9.53717 2.89187 9.0944 3.3125C8.87378 3.52209 8.70744 3.73269 8.5968 3.89034C8.54175 3.96879 8.50124 4.03306 8.47536 4.07608C8.46244 4.09756 8.45323 4.11364 8.44773 4.12343L8.4423 4.13324M12.7779 2.93068C13.1895 3.18284 13.4727 3.52652 13.6697 3.90215M12.7779 2.93068L13.6697 3.90215M8.4423 4.13324L8.44215 4.1335L8.44191 4.13396L8.44172 4.13432C8.44179 4.13418 8.44199 4.13382 8.4423 4.13324ZM13.6697 3.90215C14.0727 4.67021 14.1 5.54089 14.1 5.9M13.6697 3.90215L14.1 5.9M14.1 5.9C14.1 7.32239 13.2563 8.75683 12.106 10.0354M14.1 5.9L12.106 10.0354M12.106 10.0354C10.9676 11.3008 9.5981 12.3373 8.69459 12.9572M12.106 10.0354L8.69459 12.9572M8.69459 12.9572C8.27098 13.2478 7.72906 13.2478 7.30546 12.9572M8.69459 12.9572L7.30546 12.9572M7.30546 12.9572C6.40195 12.3373 5.03243 11.3008 3.89405 10.0354M7.30546 12.9572L3.89405 10.0354M3.89405 10.0354C2.74377 8.75683 1.90002 7.32239 1.90002 5.9M3.89405 10.0354L1.90002 5.9M1.90002 5.9C1.90002 5.5409 1.92738 4.67021 2.3303 3.90216M1.90002 5.9L2.3303 3.90216M2.3303 3.90216C2.52735 3.52652 2.81055 3.18284 3.22215 2.93068M2.3303 3.90216L3.22215 2.93068M3.22215 2.93068C3.63327 2.67883 4.20227 2.5 5.00002 2.5M3.22215 2.93068L5.00002 2.5M5.00002 2.5C5.82988 2.5 6.46288 2.89187 6.90565 3.3125M5.00002 2.5L6.90565 3.3125M6.90565 3.3125C7.12627 3.52209 7.29261 3.73269 7.40325 3.89034M6.90565 3.3125L7.40325 3.89034M7.40325 3.89034C7.4583 3.96879 7.49881 4.03306 7.52469 4.07608M7.40325 3.89034L7.52469 4.07608M7.52469 4.07608C7.53761 4.09756 7.54682 4.11364 7.55231 4.12343M7.52469 4.07608L7.55231 4.12343M7.55231 4.12343L7.55775 4.13324M7.55231 4.12343L7.55775 4.13324M7.55775 4.13324C7.55809 4.13387 7.55829 4.13424 7.55834 4.13435L7.55775 4.13324Z" stroke="black" stroke-linejoin="round"/>
</svg>
