<svg width="16" height="16" viewBox="0 0 16 16" fill="none" xmlns="http://www.w3.org/2000/svg">
<path d="M5.13889 13.5H4.4C3.55992 13.5 3.13988 13.5 2.81901 13.3365C2.53677 13.1927 2.3073 12.9632 2.16349 12.681C2 12.3601 2 11.9401 2 11.1V6.83799C2 6.16823 2 5.83335 2.09706 5.53326C2.18294 5.26773 2.32344 5.02312 2.50952 4.81514C2.71983 4.5801 3.00909 4.41136 3.58761 4.07389L6.79071 2.20542C7.23103 1.94857 7.45119 1.82014 7.68551 1.76989C7.89281 1.72544 8.10719 1.72544 8.31449 1.76989C8.54881 1.82014 8.76897 1.94857 9.20929 2.20542L12.4124 4.07389C12.9909 4.41136 13.2802 4.5801 13.4905 4.81514C13.6766 5.02312 13.8171 5.26773 13.9029 5.53326C14 5.83335 14 6.16823 14 6.83799V11.1C14 11.9401 14 12.3601 13.8365 12.681C13.6927 12.9632 13.4632 13.1927 13.181 13.3365C12.8601 13.5 12.4401 13.5 11.6 13.5H10.8611C10.7579 13.5 10.7063 13.5 10.6632 13.4924C10.4562 13.4559 10.2941 13.2938 10.2576 13.0868C10.25 13.0437 10.25 12.9921 10.25 12.8889V10.25C10.25 9.00736 9.24264 8 8 8C6.75736 8 5.75 9.00736 5.75 10.25V12.8889C5.75 12.9921 5.75 13.0437 5.7424 13.0868C5.7059 13.2938 5.54383 13.4559 5.33682 13.4924C5.29374 13.5 5.24213 13.5 5.13889 13.5Z" fill="black"/>
</svg>
