<svg width="16" height="16" viewBox="0 0 16 16" fill="none" xmlns="http://www.w3.org/2000/svg">
<path fill-rule="evenodd" clip-rule="evenodd" d="M5.85033 7.53561C5.018 6.89047 3.60021 5.61189 2.90654 3.94539C2.48207 2.92564 3.39544 2 4.50001 2H11.5C12.6046 2 13.5179 2.92564 13.0935 3.94539C12.3998 5.61189 10.982 6.89047 10.1497 7.53561C9.85763 7.76197 9.85763 8.23802 10.1497 8.46438C10.982 9.10952 12.3998 10.3881 13.0935 12.0546C13.5179 13.0744 12.6046 14 11.5 14H4.50001C3.39544 14 2.48207 13.0744 2.90654 12.0546C3.60021 10.3881 5.018 9.10952 5.85033 8.46438C6.14237 8.23802 6.14237 7.76197 5.85033 7.53561ZM7.5 7.6L7.28087 7.4247C6.73468 6.98775 6.46159 6.76928 6.43146 6.57768C6.40538 6.41185 6.46426 6.24399 6.58822 6.13078C6.73144 6 7.08117 6 7.78062 6H8.21937C8.91883 6 9.26855 6 9.41177 6.13078C9.53574 6.24399 9.59462 6.41185 9.56854 6.57768C9.5384 6.76928 9.26531 6.98775 8.71913 7.4247L8.5 7.6V9.93751C8.50872 9.94513 8.51764 9.95294 8.5268 9.96095L8.5268 9.96095L10.3976 11.5979C10.8936 12.0319 11.1416 12.2489 11.1654 12.4376C11.1859 12.6011 11.1246 12.7642 11.0015 12.8736C10.8594 13 10.5299 13 9.87084 13H6.12916C5.4701 13 5.14057 13 4.99847 12.8736C4.87535 12.7642 4.81407 12.6011 4.83463 12.4376C4.85837 12.2489 5.10636 12.0319 5.60235 11.5979L7.4732 9.96095C7.48235 9.95294 7.49128 9.94513 7.5 9.93751V7.6Z" fill="black"/>
</svg>
