<svg width="16" height="16" viewBox="0 0 16 16" fill="none" xmlns="http://www.w3.org/2000/svg">
<path d="M5.2 13.75H4.9C4.05992 13.75 3.63988 13.75 3.31901 13.5865C3.03677 13.4427 2.8073 13.2132 2.66349 12.931C2.5 12.6101 2.5 12.1901 2.5 11.35V7.73C2.5 7.09778 2.5 6.78167 2.58778 6.49523C2.66548 6.24168 2.79284 6.0061 2.96244 5.80222C3.15402 5.57191 3.41851 5.39879 3.94749 5.05255L6.24749 3.5471C6.88157 3.13207 7.1986 2.92455 7.54049 2.84384C7.84268 2.7725 8.15732 2.7725 8.45951 2.84384C8.8014 2.92455 9.11844 3.13207 9.75251 3.5471L12.0525 5.05255C12.5815 5.39879 12.846 5.57191 13.0376 5.80222C13.2072 6.0061 13.3345 6.24168 13.4122 6.49523C13.5 6.78167 13.5 7.09778 13.5 7.73V11.35C13.5 12.1901 13.5 12.6101 13.3365 12.931C13.1927 13.2132 12.9632 13.4427 12.681 13.5865C12.3601 13.75 11.9401 13.75 11.1 13.75H10.8C10.52 13.75 10.38 13.75 10.273 13.6955C10.1789 13.6476 10.1024 13.5711 10.0545 13.477C10 13.37 10 13.23 10 12.95V10.5C10 10.035 10 9.80252 9.94889 9.61177C9.81019 9.09413 9.40587 8.68981 8.88823 8.55111C8.69748 8.5 8.46499 8.5 8 8.5C7.53501 8.5 7.30252 8.5 7.11177 8.55111C6.59413 8.68981 6.18981 9.09413 6.05111 9.61177C6 9.80252 6 10.035 6 10.5V12.95C6 13.23 6 13.37 5.9455 13.477C5.89757 13.5711 5.82108 13.6476 5.727 13.6955C5.62004 13.75 5.48003 13.75 5.2 13.75Z" fill="black"/>
<path d="M14 6.5L8.46241 2.57754C8.29594 2.45962 8.2127 2.40066 8.12201 2.37784C8.04192 2.35769 7.95808 2.35769 7.87799 2.37784C7.7873 2.40066 7.70406 2.45962 7.53759 2.57754L2 6.5" stroke="black" stroke-width="1.5" stroke-miterlimit="5.4874" stroke-linecap="round" stroke-linejoin="round"/>
<rect x="11" y="2.5" width="2.5" height="4" rx="0.5" fill="black"/>
</svg>
