<svg width="16" height="16" viewBox="0 0 16 16" fill="none" xmlns="http://www.w3.org/2000/svg">
<path fill-rule="evenodd" clip-rule="evenodd" d="M1.82988 5.04851L2.32822 10.0319C2.43458 11.0955 3.09882 12.0222 4.07192 12.4645L6.96552 13.7798C7.62283 14.0785 8.37722 14.0785 9.03453 13.7798L11.9281 12.4645C12.9012 12.0222 13.5655 11.0955 13.6718 10.0319L14.1702 5.04851C14.3468 3.28246 12.9599 1.75 11.1851 1.75H4.81499C3.04012 1.75 1.65327 3.28245 1.82988 5.04851ZM6.5 4C6.2414 4 6.02547 4.19719 6.00205 4.45473L5.75205 7.20473C5.73611 7.38014 5.81363 7.551 5.95612 7.65452C6.09862 7.75804 6.28507 7.77895 6.44696 7.70957C7.23419 7.37219 8.03231 7.3376 8.59905 7.55937C8.8765 7.66794 9.09528 7.8355 9.2465 8.05822C9.3974 8.28045 9.5 8.58556 9.5 9C9.5 9.32321 9.33969 9.62857 9.05491 9.86589C8.76753 10.1054 8.38016 10.25 8 10.25C7.37149 10.25 6.98011 10.0438 6.74987 9.85956C6.63157 9.76493 6.55079 9.67187 6.50156 9.60624C6.47703 9.57353 6.4607 9.54812 6.4518 9.53346C6.44767 9.52666 6.44518 9.52224 6.44426 9.52057C6.31898 9.27783 6.02141 9.18026 5.77637 9.3028C5.52939 9.4263 5.42929 9.72665 5.5528 9.97363L6 9.75C5.5528 9.97363 5.55293 9.9739 5.55307 9.97416L5.55335 9.97472L5.55395 9.97592L5.55531 9.97858L5.55865 9.98503L5.56789 10.0022C5.5752 10.0155 5.58487 10.0324 5.59703 10.0525C5.62134 10.0925 5.65579 10.1452 5.70158 10.2063C5.79299 10.3281 5.93097 10.4851 6.12518 10.6404C6.51995 10.9562 7.12857 11.25 8 11.25C8.61984 11.25 9.23247 11.0196 9.69509 10.6341C10.1603 10.2464 10.5 9.67679 10.5 9C10.5 8.41444 10.3526 7.90705 10.0738 7.49647C9.79535 7.08637 9.40475 6.80081 8.96345 6.62813C8.31775 6.37546 7.5587 6.35987 6.81688 6.53695L6.95661 5H9.75C10.0261 5 10.25 4.77614 10.25 4.5C10.25 4.22386 10.0261 4 9.75 4H6.5Z" fill="black"/>
</svg>
