<svg width="16" height="16" viewBox="0 0 16 16" fill="none" xmlns="http://www.w3.org/2000/svg">
<path fill-rule="evenodd" clip-rule="evenodd" d="M1.82988 5.04851L2.32822 10.0319C2.43458 11.0955 3.09882 12.0222 4.07192 12.4645L6.96552 13.7798C7.62283 14.0785 8.37722 14.0785 9.03453 13.7798L11.9281 12.4645C12.9012 12.0222 13.5655 11.0955 13.6718 10.0319L14.1702 5.04851C14.3468 3.28246 12.9599 1.75 11.1851 1.75H4.81499C3.04012 1.75 1.65327 3.28245 1.82988 5.04851ZM6.79849 10.7421C7.14813 10.914 7.5508 11 8.00649 11C8.4851 11 8.9021 10.904 9.25748 10.712C9.61286 10.52 9.88799 10.2549 10.0829 9.91667C10.2806 9.57562 10.3795 9.18585 10.3795 8.74735C10.3795 8.33466 10.2835 7.96495 10.0915 7.63823C9.90232 7.30864 9.64725 7.04927 9.32626 6.86012C9.00814 6.67097 8.65563 6.57639 8.26872 6.57639C7.72706 6.57639 7.29286 6.74548 6.96615 7.08366H6.95755L7.07362 5.57044H10.0055V4.5H5.90431L5.70655 8.24868H6.91456C6.98621 8.0366 7.12091 7.8718 7.31866 7.7543C7.51928 7.63393 7.76002 7.57374 8.04088 7.57374C8.36187 7.57374 8.6241 7.68695 8.82759 7.91336C9.03107 8.13977 9.13281 8.42923 9.13281 8.78175C9.13281 9.13139 9.02964 9.41799 8.82329 9.64153C8.61694 9.86221 8.34754 9.97255 8.01509 9.97255C7.69696 9.97255 7.43043 9.87511 7.21548 9.68022C7.00054 9.48534 6.88447 9.23743 6.86727 8.93651H5.62058C5.6435 9.34921 5.75814 9.71032 5.96449 10.0198C6.17084 10.3294 6.44884 10.5701 6.79849 10.7421Z" fill="black"/>
</svg>
