<svg width="16" height="16" viewBox="0 0 16 16" fill="none" xmlns="http://www.w3.org/2000/svg">
<path fill-rule="evenodd" clip-rule="evenodd" d="M2.32698 3.63803C2 4.27976 2 5.11984 2 6.8V9.2C2 10.8802 2 11.7202 2.32698 12.362C2.6146 12.9265 3.07354 13.3854 3.63803 13.673C4.27976 14 5.11984 14 6.8 14H9.2C10.8802 14 11.7202 14 12.362 13.673C12.9265 13.3854 13.3854 12.9265 13.673 12.362C14 11.7202 14 10.8802 14 9.2V6.8C14 5.11984 14 4.27976 13.673 3.63803C13.3854 3.07354 12.9265 2.6146 12.362 2.32698C11.7202 2 10.8802 2 9.2 2H6.8C5.11984 2 4.27976 2 3.63803 2.32698C3.07354 2.6146 2.6146 3.07354 2.32698 3.63803ZM5.74055 11.0603V4.9397H4.5V11.0603H5.74055ZM7.57295 11.0603H8.48078C9.1079 11.0603 9.64602 10.9357 10.0951 10.6865C10.547 10.4373 10.8934 10.084 11.1344 9.62668C11.3781 9.16661 11.5 8.62301 11.5 7.99589C11.5 7.36877 11.3781 6.82654 11.1344 6.36921C10.8907 5.91187 10.5443 5.55997 10.0951 5.31351C9.64876 5.0643 9.12022 4.9397 8.50953 4.9397H7.57295H6.87463H6.3324V11.0603H6.90338H7.57295ZM7.57295 10.0087H8.41505C8.83131 10.0087 9.17362 9.93203 9.442 9.77867C9.71311 9.62258 9.91439 9.39528 10.0458 9.09678C10.18 8.79554 10.2471 8.42858 10.2471 7.99589C10.2471 7.56321 10.18 7.19898 10.0458 6.90322C9.91439 6.60472 9.71448 6.37879 9.44611 6.22544C9.17773 6.06934 8.83815 5.99129 8.42737 5.99129H7.57295V10.0087Z" fill="black"/>
</svg>
