<svg width="16" height="16" viewBox="0 0 16 16" fill="none" xmlns="http://www.w3.org/2000/svg">
<path fill-rule="evenodd" clip-rule="evenodd" d="M2.32698 3.63803C2 4.27976 2 5.11984 2 6.8V9.2C2 10.8802 2 11.7202 2.32698 12.362C2.6146 12.9265 3.07354 13.3854 3.63803 13.673C4.27976 14 5.11984 14 6.8 14H9.2C10.8802 14 11.7202 14 12.362 13.673C12.9265 13.3854 13.3854 12.9265 13.673 12.362C14 11.7202 14 10.8802 14 9.2V6.8C14 5.11984 14 4.27976 13.673 3.63803C13.3854 3.07354 12.9265 2.6146 12.362 2.32698C11.7202 2 10.8802 2 9.2 2H6.8C5.11984 2 4.27976 2 3.63803 2.32698C3.07354 2.6146 2.6146 3.07354 2.32698 3.63803ZM5.5 5.5C5.5 5.08579 5.16421 4.75 4.75 4.75C4.33579 4.75 4 5.08579 4 5.5V10.5C4 10.9142 4.33579 11.25 4.75 11.25C5.16421 11.25 5.5 10.9142 5.5 10.5V5.5ZM7.25 4.75C6.83579 4.75 6.5 5.08579 6.5 5.5V10.5C6.5 10.9142 6.83579 11.25 7.25 11.25H9C10.7949 11.25 12.25 9.79493 12.25 8C12.25 6.20507 10.7949 4.75 9 4.75H7.25ZM8 9.75V6.25H9C9.9665 6.25 10.75 7.0335 10.75 8C10.75 8.9665 9.9665 9.75 9 9.75H8Z" fill="black"/>
</svg>
