<svg width="16" height="16" viewBox="0 0 16 16" fill="none" xmlns="http://www.w3.org/2000/svg">
<path fill-rule="evenodd" clip-rule="evenodd" d="M2 6.8C2 5.11984 2 4.27976 2.32698 3.63803C2.6146 3.07354 3.07354 2.6146 3.63803 2.32698C4.27976 2 5.11984 2 6.8 2H9.2C10.8802 2 11.7202 2 12.362 2.32698C12.9265 2.6146 13.3854 3.07354 13.673 3.63803C14 4.27976 14 5.11984 14 6.8V9.2C14 10.8802 14 11.7202 13.673 12.362C13.3854 12.9265 12.9265 13.3854 12.362 13.673C11.7202 14 10.8802 14 9.2 14H6.8C5.11984 14 4.27976 14 3.63803 13.673C3.07354 13.3854 2.6146 12.9265 2.32698 12.362C2 11.7202 2 10.8802 2 9.2V6.8ZM13 9.30001L12.016 7.92245C11.6635 7.42897 11.4873 7.18223 11.2588 7.07105C11.058 6.97337 10.8303 6.94569 10.612 6.99243C10.3635 7.04562 10.1332 7.24296 9.67279 7.63762L7.5 9.50001L5.72054 8.31371C5.28984 8.02658 5.07449 7.88301 4.85044 7.8508C4.65313 7.82243 4.45184 7.85368 4.27242 7.94054C4.06867 8.03917 3.90699 8.24127 3.58363 8.64548L3.00002 9.37499C3.00028 10.137 3.00334 10.6702 3.03755 11.089C3.07337 11.5274 3.1383 11.7516 3.21799 11.908C3.40973 12.2843 3.71569 12.5903 4.09202 12.782C4.24842 12.8617 4.47262 12.9266 4.91104 12.9625C5.36113 12.9992 5.94342 13 6.8 13H9.2C10.0566 13 10.6389 12.9992 11.089 12.9625C11.5274 12.9266 11.7516 12.8617 11.908 12.782C12.2843 12.5903 12.5903 12.2843 12.782 11.908C12.8617 11.7516 12.9266 11.5274 12.9624 11.089C12.9978 10.6566 12.9999 10.1023 13 9.30001ZM5.75 6.5C6.44036 6.5 7 5.94036 7 5.25C7 4.55964 6.44036 4 5.75 4C5.05964 4 4.5 4.55964 4.5 5.25C4.5 5.94036 5.05964 6.5 5.75 6.5Z" fill="black"/>
</svg>
