<svg width="16" height="16" viewBox="0 0 16 16" fill="none" xmlns="http://www.w3.org/2000/svg">
<path fill-rule="evenodd" clip-rule="evenodd" d="M1.59426 7.78243C1.63063 7.64076 1.68094 7.50243 1.78154 7.22577L2.35104 5.65963C2.76499 4.52128 2.97196 3.9521 3.33675 3.53229C3.33856 3.53021 3.34037 3.52813 3.34219 3.52605L2 8H4H6C6.27614 8 6.5 8.22386 6.5 8.5V9C6.5 9.82843 7.17157 10.5 8 10.5C8.82843 10.5 9.5 9.82843 9.5 9V8.5C9.5 8.22386 9.72386 8 10 8H12H14L12.6578 3.52605C12.6596 3.52813 12.6614 3.53021 12.6633 3.53229C13.028 3.9521 13.235 4.52128 13.649 5.65963L14.2185 7.22578C14.3191 7.50243 14.3694 7.64076 14.4057 7.78243C14.444 7.93157 14.4708 8.08344 14.4858 8.23669C14.5 8.38226 14.5 8.52945 14.5 8.82382C14.5 10.3873 14.5 11.169 14.2158 11.7746C13.9183 12.4085 13.4085 12.9183 12.7746 13.2158C12.169 13.5 11.3873 13.5 9.82383 13.5H6.17617C4.61272 13.5 3.831 13.5 3.22538 13.2158C2.59154 12.9183 2.08173 12.4085 1.78424 11.7746C1.5 11.169 1.5 10.3873 1.5 8.82382C1.5 8.52945 1.5 8.38226 1.51423 8.23669C1.52921 8.08344 1.55596 7.93157 1.59426 7.78243ZM12.057 3C11.875 2.87922 11.6796 2.77825 11.4741 2.69935C10.9549 2.5 10.3492 2.5 9.13795 2.5H6.86205C5.65077 2.5 5.04513 2.5 4.52593 2.69935C4.32044 2.77825 4.12505 2.87922 3.94297 3H12.057Z" fill="black"/>
<path d="M13.8246 7.47339L13.8264 7.47954L13.8265 7.4796C13.9012 7.7347 13.9301 7.83488 13.9504 7.93495L14.4405 7.83583L13.9504 7.93495C13.9692 8.02812 13.9827 8.12229 13.9909 8.217C13.9996 8.31874 14 8.42302 14 8.68889V8.95C14 9.79833 13.9996 10.4045 13.9608 10.8797C13.9224 11.349 13.8491 11.6463 13.7275 11.885C13.4878 12.3554 13.1054 12.7378 12.635 12.9775C12.3963 13.0991 12.099 13.1724 11.6297 13.2108C11.1545 13.2496 10.5483 13.25 9.7 13.25H6.3C5.45167 13.25 4.84549 13.2496 4.37032 13.2108C3.90099 13.1724 3.60366 13.0991 3.36502 12.9775C2.89462 12.7378 2.51217 12.3554 2.27248 11.885C2.15089 11.6463 2.07756 11.349 2.03921 10.8797C2.00039 10.4045 2 9.79833 2 8.95V8.68889C2 8.42302 2.00042 8.31874 2.00914 8.217C2.01726 8.12229 2.03077 8.02812 2.04962 7.93495C2.06986 7.83487 2.09879 7.73467 2.17357 7.47954L2.65389 5.84064C3.02901 4.5607 3.18512 4.05978 3.47384 3.69596C3.74172 3.35839 4.09231 3.0958 4.4916 2.93367C4.92194 2.75893 5.44654 2.75 6.78032 2.75H9.21968C10.5535 2.75 11.0781 2.75893 11.5084 2.93367C11.9077 3.0958 12.2583 3.35839 12.5262 3.69596C12.8149 4.05978 12.971 4.5607 13.3461 5.84064L13.8246 7.47339Z" stroke="black" stroke-linecap="round" stroke-linejoin="round"/>
</svg>
