<svg width="16" height="16" viewBox="0 0 16 16" fill="none" xmlns="http://www.w3.org/2000/svg">
<path fill-rule="evenodd" clip-rule="evenodd" d="M2.32698 3.63803C2 4.27976 2 5.11984 2 6.8V9.2C2 10.8802 2 11.7202 2.32698 12.362C2.6146 12.9265 3.07354 13.3854 3.63803 13.673C4.27976 14 5.11984 14 6.8 14H9.2C10.8802 14 11.7202 14 12.362 13.673C12.9265 13.3854 13.3854 12.9265 13.673 12.362C14 11.7202 14 10.8802 14 9.2V6.8C14 5.11984 14 4.27976 13.673 3.63803C13.3854 3.07354 12.9265 2.6146 12.362 2.32698C11.7202 2 10.8802 2 9.2 2H6.8C5.11984 2 4.27976 2 3.63803 2.32698C3.07354 2.6146 2.6146 3.07354 2.32698 3.63803ZM6.89716 5.3241C6.89716 5.83795 7.28982 6.16759 7.92001 6.16759C8.54536 6.16759 8.94771 5.83795 8.94771 5.3241C8.94771 4.81995 8.54536 4.5 7.92001 4.5C7.28982 4.5 6.89716 4.81995 6.89716 5.3241ZM8.88954 10.2784V7.13712C8.88954 6.90928 8.75381 6.74931 8.53567 6.74931C8.33206 6.74931 8.16724 6.80748 7.88123 6.91413L6.95533 7.26316C6.7178 7.35042 6.61115 7.47161 6.61115 7.64612C6.61115 7.80609 6.70326 7.89335 6.83899 7.96607L6.98442 7.99515C7.10076 8.04848 7.17832 8.12119 7.17832 8.38296V10.2784C7.17832 10.5741 7.12015 10.6662 7.0135 10.7244L6.90686 10.7729C6.76143 10.865 6.67902 10.9716 6.67902 11.1413C6.67902 11.3691 6.82929 11.5 7.07652 11.5H8.99134C9.23857 11.5 9.38885 11.3691 9.38885 11.1413C9.38885 10.9716 9.30644 10.865 9.15616 10.7729L9.05436 10.7244C8.95256 10.6662 8.88954 10.5741 8.88954 10.2784Z" fill="black"/>
</svg>
