<svg width="16" height="16" viewBox="0 0 16 16" fill="none" xmlns="http://www.w3.org/2000/svg">
<path fill-rule="evenodd" clip-rule="evenodd" d="M2 6.8C2 5.11984 2 4.27976 2.32698 3.63803C2.6146 3.07354 3.07354 2.6146 3.63803 2.32698C4.27976 2 5.11984 2 6.8 2H9.2C10.8802 2 11.7202 2 12.362 2.32698C12.9265 2.6146 13.3854 3.07354 13.673 3.63803C14 4.27976 14 5.11984 14 6.8V9.2C14 10.8802 14 11.7202 13.673 12.362C13.3854 12.9265 12.9265 13.3854 12.362 13.673C11.7202 14 10.8802 14 9.2 14H6.8C5.11984 14 4.27976 14 3.63803 13.673C3.07354 13.3854 2.6146 12.9265 2.32698 12.362C2 11.7202 2 10.8802 2 9.2V6.8ZM6.25002 7.75C6.25002 7.33579 6.58581 7 7.00002 7H8.10002C8.51424 7 8.85002 7.33579 8.85002 7.75V10.5H9.00002C9.41424 10.5 9.75002 10.8358 9.75002 11.25C9.75002 11.6642 9.41424 12 9.00002 12H8.10002H7.00002C6.58581 12 6.25002 11.6642 6.25002 11.25C6.25002 10.8358 6.58581 10.5 7.00002 10.5H7.35002V8.5H7.00002C6.58581 8.5 6.25002 8.16421 6.25002 7.75ZM8 5.9C8.55228 5.9 9 5.45228 9 4.9C9 4.34772 8.55228 3.9 8 3.9C7.44772 3.9 7 4.34772 7 4.9C7 5.45228 7.44772 5.9 8 5.9Z" fill="black"/>
</svg>
