<svg width="16" height="16" viewBox="0 0 16 16" fill="none" xmlns="http://www.w3.org/2000/svg">
<path d="M6.06945 13.2513C5.78547 13.3891 5.47573 13.4725 5.15603 13.4943C4.55575 13.5352 3.96107 13.3561 3.48212 12.9901C3.00317 12.6242 2.67241 12.0963 2.5511 11.5041C2.42979 10.9119 2.52615 10.2956 2.82232 9.76931C3.1185 9.24304 3.59444 8.84246 4.16197 8.64176C4.72951 8.44106 5.3502 8.45384 5.90908 8.67774C6.46796 8.90164 6.92716 9.32148 7.20163 9.8595C7.36219 10.1742 7.47197 10.5106 7.49534 10.8567C7.52933 11.3601 7.35199 11.9757 6.86513 12.1079C6.45731 12.2187 6.04042 11.8767 5.97945 11.4348M5.97945 11.4348C6.03734 11.3016 6.06945 11.1546 6.06945 11C6.06945 10.3997 5.58518 9.91304 4.9878 9.91304C4.39042 9.91304 3.90615 10.3997 3.90615 11C3.90615 11.6003 4.39042 12.087 4.9878 12.087C5.43135 12.087 5.81254 11.8187 5.97945 11.4348Z" stroke="black" stroke-linecap="round"/>
<path d="M2.5 2.54999H7M2.5 3.99999H4.75M7 3.99999H4.75M4.75 3.99999V6.74999" stroke="black" stroke-linecap="round"/>
<path d="M9 13.25L13.5 8.75" stroke="black" stroke-linecap="round"/>
<path d="M13.25 6.50001C7.49996 4 9.00001 2.5 9.99999 2.5C10.6828 2.5 11.1843 2.93975 11.0378 3.61305C11.0177 3.70551 10.9809 3.79407 10.929 3.87321C10.3531 4.75184 8.75 4.79285 8.75 5.75C8.75 6.75 10.5 7.5 13.25 4.00001" stroke="black" stroke-linecap="round"/>
<circle cx="9.875" cy="9.375" r="0.875" stroke="black"/>
<circle cx="12.625" cy="12.625" r="0.875" stroke="black"/>
</svg>
