<svg width="16" height="16" viewBox="0 0 16 16" fill="none" xmlns="http://www.w3.org/2000/svg">
<path fill-rule="evenodd" clip-rule="evenodd" d="M1 8C1 6.367 1 5.5505 1.30938 4.92313C1.60147 4.33084 2.08084 3.85147 2.67313 3.55938C3.3005 3.25 4.117 3.25 5.75 3.25H10.25C11.883 3.25 12.6995 3.25 13.3269 3.55938C13.9192 3.85147 14.3985 4.33084 14.6906 4.92313C15 5.5505 15 6.367 15 8C15 9.633 15 10.4495 14.6906 11.0769C14.3985 11.6692 13.9192 12.1485 13.3269 12.4406C12.6995 12.75 11.883 12.75 10.25 12.75H5.75C4.117 12.75 3.3005 12.75 2.67313 12.4406C2.08084 12.1485 1.60147 11.6692 1.30938 11.0769C1 10.4495 1 9.633 1 8ZM12.8773 7.5H10.6227C10.1898 7.5 9.96145 6.98728 10.251 6.66552L11.3784 5.41294C11.577 5.19225 11.923 5.19225 12.1216 5.41294L13.249 6.66552C13.5386 6.98728 13.3102 7.5 12.8773 7.5ZM10.6227 8.5H12.8773C13.3102 8.5 13.5386 9.01272 13.249 9.33448L12.1216 10.5871C11.923 10.8077 11.577 10.8077 11.3784 10.5871L10.251 9.33448C9.96145 9.01272 10.1898 8.5 10.6227 8.5Z" fill="black"/>
</svg>
