<svg width="16" height="16" viewBox="0 0 16 16" fill="none" xmlns="http://www.w3.org/2000/svg">
<path fill-rule="evenodd" clip-rule="evenodd" d="M1 8C1 6.367 1 5.5505 1.30938 4.92313C1.60147 4.33084 2.08084 3.85147 2.67313 3.55938C3.3005 3.25 4.117 3.25 5.75 3.25H10.25C11.883 3.25 12.6995 3.25 13.3269 3.55938C13.9192 3.85147 14.3985 4.33084 14.6906 4.92313C15 5.5505 15 6.367 15 8C15 9.633 15 10.4495 14.6906 11.0769C14.3985 11.6692 13.9192 12.1485 13.3269 12.4406C12.6995 12.75 11.883 12.75 10.25 12.75H5.75C4.117 12.75 3.3005 12.75 2.67313 12.4406C2.08084 12.1485 1.60147 11.6692 1.30938 11.0769C1 10.4495 1 9.633 1 8ZM3 5.5C3 5.22386 3.22386 5 3.5 5C3.88418 5 4.23462 5.14443 4.5 5.38195C4.76538 5.14443 5.11582 5 5.5 5C5.77614 5 6 5.22386 6 5.5C6 5.77614 5.77614 6 5.5 6C5.22386 6 5 6.22386 5 6.5V9.5C5 9.77614 5.22386 10 5.5 10C5.77614 10 6 10.2239 6 10.5C6 10.7761 5.77614 11 5.5 11C5.11582 11 4.76538 10.8556 4.5 10.6181C4.23462 10.8556 3.88418 11 3.5 11C3.22386 11 3 10.7761 3 10.5C3 10.2239 3.22386 10 3.5 10C3.77614 10 4 9.77614 4 9.5V6.5C4 6.22386 3.77614 6 3.5 6C3.22386 6 3 5.77614 3 5.5Z" fill="black"/>
</svg>
