<svg width="16" height="16" viewBox="0 0 16 16" fill="none" xmlns="http://www.w3.org/2000/svg">
<path d="M7.5 13.5H6.5C5.09987 13.5 4.3998 13.5 3.86502 13.2275C3.39462 12.9878 3.01217 12.6054 2.77248 12.135C2.5 11.6002 2.5 10.9001 2.5 9.5V6.5C2.5 5.09987 2.5 4.3998 2.77248 3.86502C3.01217 3.39462 3.39462 3.01217 3.86502 2.77248C4.3998 2.5 5.09987 2.5 6.5 2.5H9.5C10.9001 2.5 11.6002 2.5 12.135 2.77248C12.6054 3.01217 12.9878 3.39462 13.2275 3.86502C13.5 4.3998 13.5 5.09987 13.5 6.5V7.5" stroke="black" stroke-linecap="round" stroke-linejoin="round"/>
<path d="M7.88624 8.52996L9.85746 13.7866C10.0362 14.2631 10.7296 14.1991 10.818 13.6979L11.25 11.25L13.6979 10.818C14.1991 10.7296 14.2631 10.0362 13.7866 9.85746L8.52996 7.88624C8.12802 7.73551 7.73551 8.12802 7.88624 8.52996Z" fill="black"/>
</svg>
