<svg width="16" height="16" viewBox="0 0 16 16" fill="none" xmlns="http://www.w3.org/2000/svg">
<path d="M7.5 13.5H6.5C5.09987 13.5 4.3998 13.5 3.86502 13.2275C3.39462 12.9878 3.01217 12.6054 2.77248 12.135C2.5 11.6002 2.5 10.9001 2.5 9.5V6.5C2.5 5.09987 2.5 4.3998 2.77248 3.86502C3.01217 3.39462 3.39462 3.01217 3.86502 2.77248C4.3998 2.5 5.09987 2.5 6.5 2.5H9.5C10.9001 2.5 11.6002 2.5 12.135 2.77248C12.6054 3.01217 12.9878 3.39462 13.2275 3.86502C13.5 4.3998 13.5 5.09987 13.5 6.5V7.5" stroke="black" stroke-linecap="round" stroke-linejoin="round"/>
<path d="M7.81623 8.44868L9.52566 13.577C9.67761 14.0328 10.3224 14.0328 10.4743 13.577L11 12L12.3964 13.3964C12.5917 13.5917 12.9083 13.5917 13.1036 13.3964L13.3964 13.1036C13.5917 12.9083 13.5917 12.5917 13.3964 12.3964L12 11L13.577 10.4743C14.0328 10.3224 14.0328 9.67761 13.577 9.52566L8.44868 7.81623C8.0578 7.68593 7.68593 8.0578 7.81623 8.44868Z" fill="black"/>
</svg>
