<svg width="16" height="16" viewBox="0 0 16 16" fill="none" xmlns="http://www.w3.org/2000/svg">
<circle cx="8" cy="13.25" r="0.75" fill="black"/>
<path d="M8.58997 5.59991L8.50833 10.5C8.50371 10.7775 8.27747 11 7.99998 11C7.72249 11 7.49626 10.7775 7.49163 10.5001L7.40996 5.59992C7.40447 5.27022 7.67022 5 7.99997 5C8.32971 5 8.59546 5.27022 8.58997 5.59991Z" fill="black"/>
<path d="M5 5.5C5 3.5 6.47495 2.5 8 2.5C9.52505 2.5 11 3.5 11 5.5C11 6.96169 9.3976 8.15631 8.53501 8.69349C8.21349 8.89373 8 9.23926 8 9.61803V10.5" stroke="black" stroke-linecap="round" stroke-linejoin="round"/>
</svg>
