<svg width="16" height="16" viewBox="0 0 16 16" fill="none" xmlns="http://www.w3.org/2000/svg">
<path fill-rule="evenodd" clip-rule="evenodd" d="M2.32698 3.63803C2 4.27976 2 5.11984 2 6.8V9.2C2 10.8802 2 11.7202 2.32698 12.362C2.6146 12.9265 3.07354 13.3854 3.63803 13.673C4.27976 14 5.11984 14 6.8 14H9.2C10.8802 14 11.7202 14 12.362 13.673C12.9265 13.3854 13.3854 12.9265 13.673 12.362C14 11.7202 14 10.8802 14 9.2V6.8C14 5.11984 14 4.27976 13.673 3.63803C13.3854 3.07354 12.9265 2.6146 12.362 2.32698C11.7202 2 10.8802 2 9.2 2H6.8C5.11984 2 4.27976 2 3.63803 2.32698C3.07354 2.6146 2.6146 3.07354 2.32698 3.63803ZM8.96586 11.605C9.27796 11.8683 9.71294 12 10.2708 12C10.8072 12 11.2295 11.8791 11.5377 11.6372C11.8459 11.3934 12 11.0618 12 10.6424C12 10.3147 11.8917 10.0523 11.6752 9.85533C11.4607 9.65637 11.1213 9.50715 10.657 9.40767L10.2386 9.31697C9.97139 9.25845 9.77926 9.18823 9.66222 9.10631C9.54519 9.02438 9.48667 8.91612 9.48667 8.78153C9.48667 8.62354 9.55689 8.49382 9.69733 8.39239C9.83973 8.29096 10.0221 8.24025 10.2445 8.24025C10.4785 8.24025 10.6677 8.29974 10.8121 8.41873C10.9564 8.53771 11.0364 8.70059 11.052 8.90735H11.8947C11.881 8.46847 11.7269 8.12419 11.4324 7.87451C11.1398 7.62484 10.7428 7.5 10.2415 7.5C9.90995 7.5 9.62029 7.55559 9.37256 7.66678C9.12484 7.77796 8.93173 7.93303 8.79324 8.13199C8.65475 8.329 8.5855 8.56014 8.5855 8.82542C8.5855 9.44766 9.01268 9.85143 9.86703 10.0367L10.3264 10.1362C10.6034 10.1967 10.8023 10.2708 10.9233 10.3586C11.0462 10.4464 11.1076 10.5605 11.1076 10.7009C11.1076 10.8706 11.0315 11.0062 10.8794 11.1076C10.7272 11.209 10.5263 11.2598 10.2767 11.2598C9.99772 11.2598 9.77828 11.1934 9.61834 11.0608C9.45839 10.9262 9.37549 10.7389 9.36964 10.499H8.50065C8.50065 10.973 8.65572 11.3417 8.96586 11.605ZM5.71791 11.6372C5.97343 11.8752 6.32161 11.9941 6.76244 11.9941C7.21498 11.9941 7.57096 11.8761 7.83039 11.6401C8.08982 11.4041 8.21953 11.0666 8.21953 10.6278V7.57022H7.31836V10.6161C7.31836 10.817 7.26765 10.9711 7.16622 11.0783C7.06479 11.1837 6.92727 11.2363 6.75367 11.2363C6.57811 11.2363 6.43962 11.1837 6.33819 11.0783C6.23676 10.9711 6.18605 10.817 6.18605 10.6161V10.3147H5.33754V10.6102C5.33754 11.0549 5.46433 11.3973 5.71791 11.6372Z" fill="black"/>
</svg>
