<svg width="16" height="16" viewBox="0 0 16 16" fill="none" xmlns="http://www.w3.org/2000/svg">
<path fill-rule="evenodd" clip-rule="evenodd" d="M7.48202 2.38296L7.48204 2.38292L7.48206 2.38283C7.55541 2.11667 7.39915 1.84142 7.13299 1.768C6.86679 1.69457 6.59146 1.85083 6.51803 2.11703L7.00003 2.25C6.51803 2.11703 6.51799 2.11717 6.51795 2.11733L6.51782 2.1178L6.51743 2.11923L6.51611 2.12407L6.5114 2.14152C6.50736 2.15658 6.50157 2.17844 6.49422 2.20676C6.47951 2.26341 6.45856 2.34597 6.43297 2.45186C6.38179 2.66361 6.31196 2.96894 6.2363 3.34725C6.19665 3.54552 6.15534 3.7641 6.11424 4H4.00003C3.72388 4 3.50003 4.22386 3.50003 4.5C3.50003 4.77614 3.72388 5 4.00003 5H5.95932C5.90271 5.41755 5.85217 5.86587 5.81416 6.33459C5.78223 6.72843 5.75884 7.13997 5.74848 7.56234C4.24981 8.17279 3.22635 8.96952 2.68351 9.8726C2.12053 10.8092 2.10132 11.8206 2.55286 12.7236C2.91703 13.4519 3.66902 13.7513 4.47452 13.7422C5.155 13.7344 5.92796 13.5135 6.71215 13.1035C6.82192 13.331 6.94291 13.552 7.07603 13.765C7.22238 13.9992 7.53086 14.0704 7.76503 13.924C7.9992 13.7776 8.07038 13.4692 7.92403 13.235C7.79378 13.0266 7.67641 12.8079 7.57092 12.5806C8.89271 11.6601 10.2184 10.1893 11.1944 8.15726C11.5663 8.38965 11.8521 8.72652 12.0358 9.18569C12.4402 10.1967 12.0566 11.1315 11.4787 11.8826C11.1936 12.2534 10.8766 12.5565 10.6287 12.768C10.5054 12.8732 10.401 12.9541 10.3286 13.008C10.2924 13.0349 10.2644 13.0549 10.2462 13.0677L10.2264 13.0814L10.2227 13.084L10.2225 13.0841L10.2224 13.0841L10.2222 13.0843L10.2221 13.0844C9.99283 13.2377 9.93098 13.5478 10.084 13.7773C10.2372 14.0071 10.5476 14.0692 10.7774 13.916L10.5001 13.5C10.7774 13.916 10.7776 13.9159 10.7777 13.9158L10.7781 13.9155L10.7791 13.9149L10.782 13.913L10.7908 13.9069L10.8208 13.8861C10.8461 13.8684 10.8815 13.843 10.9254 13.8103C11.0132 13.7451 11.1353 13.6503 11.2776 13.5289C11.561 13.2872 11.9315 12.9341 12.2714 12.4924C12.9435 11.6185 13.5599 10.3033 12.9643 8.8143C12.6671 8.07132 12.1839 7.56202 11.5973 7.23426C11.7347 6.88602 11.8621 6.52363 11.978 6.14704C12.0592 5.88311 11.9111 5.60332 11.6471 5.52211C11.3832 5.4409 11.1034 5.58902 11.0222 5.85296C10.9129 6.20807 10.793 6.54887 10.6638 6.87549C10.4084 6.81381 10.1438 6.77489 9.87472 6.7558C8.88392 6.68554 7.79353 6.87617 6.76165 7.19836C6.77333 6.93374 6.79007 6.6722 6.81089 6.41541C6.85143 5.9154 6.90693 5.43894 6.96883 5H9.50003C9.77617 5 10 4.77614 10 4.5C10 4.22386 9.77617 4 9.50003 4H7.12989C7.15926 3.83786 7.1885 3.68525 7.21688 3.54337C7.28966 3.17949 7.35655 2.88717 7.40498 2.68681C7.42919 2.58665 7.44876 2.50954 7.46214 2.45803L7.47733 2.40031L7.48107 2.38647L7.4819 2.38341L7.48202 2.38296ZM5.75271 8.64948C4.59713 9.1783 3.89699 9.79486 3.54058 10.3878C3.1539 11.0311 3.14878 11.6794 3.44728 12.2764C3.58313 12.5481 3.89366 12.7487 4.46316 12.7422C4.96982 12.7365 5.62046 12.5591 6.3342 12.1719C5.95677 11.0526 5.79282 9.83252 5.75271 8.64948ZM7.20467 11.612C6.88685 10.5637 6.75824 9.40236 6.74405 8.25651C7.79268 7.89564 8.87789 7.68762 9.80398 7.7533C9.95941 7.76432 10.1089 7.78275 10.252 7.80903C9.40446 9.54041 8.29479 10.7993 7.20467 11.612Z" fill="black"/>
</svg>
