<svg width="16" height="16" viewBox="0 0 16 16" fill="none" xmlns="http://www.w3.org/2000/svg">
<path fill-rule="evenodd" clip-rule="evenodd" d="M14.75 5.5C14.75 7.84721 12.8472 9.75 10.5 9.75C10.1178 9.75 9.74739 9.69955 9.39505 9.60495L8.67678 10.3232C8.56549 10.4345 8.40831 10.4869 8.25251 10.4646L7.07998 10.2971C6.91499 10.2736 6.77357 10.415 6.79714 10.58L6.96464 11.7525C6.9869 11.9083 6.93451 12.0655 6.82322 12.1768L6.67678 12.3232C6.56549 12.4345 6.40831 12.4869 6.25251 12.4646L5.07402 12.2963C4.91084 12.273 4.77015 12.4112 4.7906 12.5748L4.92975 13.688C4.96705 13.9864 4.73436 14.25 4.43361 14.25H2.5C2.22386 14.25 2 14.0261 2 13.75V11.2071C2 11.0745 2.05268 10.9473 2.14645 10.8536L6.39506 6.60496C6.30045 6.25262 6.25 5.8822 6.25 5.5C6.25 3.15279 8.15279 1.25 10.5 1.25C12.8472 1.25 14.75 3.15279 14.75 5.5ZM11.25 6C11.9404 6 12.5 5.44036 12.5 4.75C12.5 4.05964 11.9404 3.5 11.25 3.5C10.5596 3.5 10 4.05964 10 4.75C10 5.44036 10.5596 6 11.25 6Z" fill="black"/>
</svg>
