<svg width="16" height="16" viewBox="0 0 16 16" fill="none" xmlns="http://www.w3.org/2000/svg">
<path fill-rule="evenodd" clip-rule="evenodd" d="M1.25 7.55C1.25 5.86984 1.25 5.02976 1.57698 4.38803C1.8646 3.82354 2.32354 3.3646 2.88803 3.07698C3.52976 2.75 4.36984 2.75 6.05 2.75H9.95C11.6302 2.75 12.4702 2.75 13.112 3.07698C13.6765 3.3646 14.1354 3.82354 14.423 4.38803C14.75 5.02976 14.75 5.86984 14.75 7.55V8.45C14.75 10.1302 14.75 10.9702 14.423 11.612C14.1354 12.1765 13.6765 12.6354 13.112 12.923C12.4702 13.25 11.6302 13.25 9.95 13.25H6.05C4.36984 13.25 3.52976 13.25 2.88803 12.923C2.32354 12.6354 1.8646 12.1765 1.57698 11.612C1.25 10.9702 1.25 10.1302 1.25 8.45V7.55ZM4.75 6C4.75 6.41421 4.41421 6.75 4 6.75C3.58579 6.75 3.25 6.41421 3.25 6C3.25 5.58579 3.58579 5.25 4 5.25C4.41421 5.25 4.75 5.58579 4.75 6ZM6 6.75C6.41421 6.75 6.75 6.41421 6.75 6C6.75 5.58579 6.41421 5.25 6 5.25C5.58579 5.25 5.25 5.58579 5.25 6C5.25 6.41421 5.58579 6.75 6 6.75ZM8.75 6C8.75 6.41421 8.41421 6.75 8 6.75C7.58579 6.75 7.25 6.41421 7.25 6C7.25 5.58579 7.58579 5.25 8 5.25C8.41421 5.25 8.75 5.58579 8.75 6ZM10 6.75C10.4142 6.75 10.75 6.41421 10.75 6C10.75 5.58579 10.4142 5.25 10 5.25C9.58579 5.25 9.25 5.58579 9.25 6C9.25 6.41421 9.58579 6.75 10 6.75ZM12.75 6C12.75 6.41421 12.4142 6.75 12 6.75C11.5858 6.75 11.25 6.41421 11.25 6C11.25 5.58579 11.5858 5.25 12 5.25C12.4142 5.25 12.75 5.58579 12.75 6ZM5 8.75C5.41421 8.75 5.75 8.41421 5.75 8C5.75 7.58579 5.41421 7.25 5 7.25C4.58579 7.25 4.25 7.58579 4.25 8C4.25 8.41421 4.58579 8.75 5 8.75ZM7.75 8C7.75 8.41421 7.41421 8.75 7 8.75C6.58579 8.75 6.25 8.41421 6.25 8C6.25 7.58579 6.58579 7.25 7 7.25C7.41421 7.25 7.75 7.58579 7.75 8ZM9 8.75C9.41421 8.75 9.75 8.41421 9.75 8C9.75 7.58579 9.41421 7.25 9 7.25C8.58579 7.25 8.25 7.58579 8.25 8C8.25 8.41421 8.58579 8.75 9 8.75ZM11.75 8C11.75 8.41421 11.4142 8.75 11 8.75C10.5858 8.75 10.25 8.41421 10.25 8C10.25 7.58579 10.5858 7.25 11 7.25C11.4142 7.25 11.75 7.58579 11.75 8ZM4.125 9.75C3.77982 9.75 3.5 10.0298 3.5 10.375C3.5 10.7202 3.77982 11 4.125 11H11.875C12.2202 11 12.5 10.7202 12.5 10.375C12.5 10.0298 12.2202 9.75 11.875 9.75H4.125Z" fill="black"/>
</svg>
