<svg width="16" height="16" viewBox="0 0 16 16" fill="none" xmlns="http://www.w3.org/2000/svg">
<path d="M6.47832 2.07252L3.20391 3.84247C2.3569 4.30031 1.93339 4.52923 1.79402 4.83304C1.67259 5.09775 1.67259 5.40225 1.79402 5.66696C1.93339 5.97077 2.3569 6.19969 3.20391 6.65753L6.47832 8.42748C7.03441 8.72807 7.31245 8.87836 7.60613 8.93735C7.8661 8.98957 8.13386 8.98957 8.39383 8.93735C8.6875 8.87836 8.96554 8.72807 9.52163 8.42748L12.796 6.65753C13.6431 6.19969 14.0666 5.97077 14.2059 5.66696C14.3274 5.40225 14.3274 5.09775 14.2059 4.83304C14.0666 4.52923 13.6431 4.30031 12.796 3.84247L9.52163 2.07252C8.96554 1.77193 8.6875 1.62164 8.39383 1.56265C8.13386 1.51043 7.8661 1.51043 7.60613 1.56265C7.31245 1.62164 7.03441 1.77193 6.47832 2.07252Z" fill="black"/>
<path fill-rule="evenodd" clip-rule="evenodd" d="M2.13636 7.213C1.96383 7.33836 1.8533 7.45394 1.79408 7.58304C1.67264 7.84775 1.67264 8.15225 1.79408 8.41696C1.93345 8.72076 2.35695 8.94969 3.20396 9.40753L6.47837 11.1775C7.03446 11.4781 7.3125 11.6284 7.60618 11.6873C7.86615 11.7396 8.13391 11.7396 8.39388 11.6873C8.68756 11.6284 8.9656 11.4781 9.52168 11.1775L12.7961 9.40753C13.6431 8.94969 14.0666 8.72076 14.206 8.41696C14.3274 8.15225 14.3274 7.84775 14.206 7.58304C14.1468 7.45394 14.0362 7.33837 13.8637 7.21301C13.6926 7.30969 13.506 7.41056 13.3096 7.51673L13.2716 7.53724L9.99721 9.30719L9.90158 9.35898C9.44101 9.60864 9.0355 9.82845 8.59081 9.91777C8.20086 9.9961 7.79922 9.9961 7.40926 9.91777C6.96457 9.82845 6.55906 9.60864 6.09849 9.35897L6.00287 9.30719L2.72845 7.53724L2.69053 7.51674L2.69053 7.51674C2.49406 7.41056 2.30742 7.30969 2.13636 7.213ZM12.8563 6.625C12.8365 6.61429 12.8164 6.60344 12.7961 6.59247L9.52168 4.82251C8.9656 4.52193 8.68756 4.37163 8.39388 4.31265C8.13391 4.26043 7.86615 4.26043 7.60618 4.31265C7.3125 4.37163 7.03446 4.52193 6.47838 4.82251L3.20396 6.59247C3.18366 6.60344 3.1636 6.61428 3.14379 6.625C3.16361 6.63571 3.18367 6.64656 3.20397 6.65753L6.47838 8.42748C7.03447 8.72807 7.31251 8.87836 7.60619 8.93735C7.86616 8.98957 8.13392 8.98957 8.39389 8.93735C8.68756 8.87836 8.96561 8.72807 9.52169 8.42748L12.7961 6.65753C12.8164 6.64656 12.8365 6.63572 12.8563 6.625Z" fill="black"/>
<path fill-rule="evenodd" clip-rule="evenodd" d="M4.67755 8.59082L3.20371 9.4074L3.20393 9.40753L6.47835 11.1775C7.03444 11.4781 7.31248 11.6284 7.60615 11.6873C7.86612 11.7396 8.13388 11.7396 8.39385 11.6873C8.68753 11.6284 8.96557 11.4781 9.52166 11.1775L12.7961 9.40753L12.7963 9.4074L11.3225 8.59081L9.99718 9.30719L9.90155 9.35898C9.44098 9.60864 9.03547 9.82845 8.59078 9.91777C8.20083 9.9961 7.79919 9.9961 7.40923 9.91777C6.96454 9.82845 6.55903 9.60864 6.09845 9.35897L6.00284 9.30719L4.67755 8.59082ZM5.71605 8.01543L6.44917 7.60924C7.01528 7.29559 7.29833 7.13876 7.59801 7.07727C7.86325 7.02285 8.13678 7.02285 8.40202 7.07727C8.7017 7.13876 8.98475 7.29559 9.55085 7.60924L9.55086 7.60924L10.284 8.01543L9.52166 8.42748C8.96558 8.72807 8.68753 8.87836 8.39386 8.93735C8.13389 8.98957 7.86613 8.98957 7.60616 8.93735C7.31248 8.87836 7.03444 8.72807 6.47835 8.42748L5.71605 8.01543ZM1.77102 10.4288C1.83842 10.279 1.9742 10.1469 2.19481 9.99588C2.3496 10.0825 2.51615 10.1725 2.69043 10.2667L2.6905 10.2667L2.6905 10.2667L2.72842 10.2872L6.00283 12.0572L6.09845 12.109C6.55903 12.3586 6.96454 12.5784 7.40923 12.6678C7.79919 12.7461 8.20082 12.7461 8.59078 12.6678C9.03547 12.5784 9.44097 12.3586 9.90155 12.109L9.99718 12.0572L13.2716 10.2872L13.3095 10.2667C13.4838 10.1725 13.6504 10.0825 13.8052 9.99588C14.0258 10.1469 14.1616 10.279 14.229 10.4288C14.3479 10.6931 14.3463 10.9959 14.2247 11.259C14.0851 11.5608 13.6661 11.7872 12.8281 12.2402L9.52167 14.0275C8.96558 14.3281 8.68754 14.4784 8.39386 14.5373C8.13389 14.5896 7.86613 14.5896 7.60616 14.5373C7.3125 14.4784 7.03446 14.3281 6.4784 14.0275L6.47838 14.0275L6.47837 14.0275L6.47836 14.0275L3.17189 12.2402C2.33391 11.7872 1.91492 11.5608 1.77533 11.259C1.65368 10.9959 1.65211 10.6931 1.77102 10.4288Z" fill="black"/>
</svg>
