<svg width="16" height="16" viewBox="0 0 16 16" fill="none" xmlns="http://www.w3.org/2000/svg">
<path fill-rule="evenodd" clip-rule="evenodd" d="M3.5 7.5C3.5 5.18367 6.18269 2.56927 7.40541 1.49797C7.7495 1.19649 8.2505 1.19649 8.59459 1.49797C9.81731 2.56927 12.5 5.18367 12.5 7.5C12.5 10.056 10.3223 11.5231 8.75 11.9014V13.75C8.75 14.1642 8.41421 14.5 8 14.5C7.58579 14.5 7.25 14.1642 7.25 13.75V11.9014C5.67769 11.5231 3.5 10.056 3.5 7.5ZM8.5 7C8.5 6.72386 8.27614 6.5 8 6.5C7.72386 6.5 7.5 6.72386 7.5 7V10C7.5 10.2761 7.72386 10.5 8 10.5C8.27614 10.5 8.5 10.2761 8.5 10V7Z" fill="black"/>
</svg>
