<svg width="16" height="16" viewBox="0 0 16 16" fill="none" xmlns="http://www.w3.org/2000/svg">
<path fill-rule="evenodd" clip-rule="evenodd" d="M2.75 6.7C2.75 5.01984 2.75 4.17977 3.07698 3.53803C3.3646 2.97354 3.82354 2.5146 4.38803 2.22698C5.02976 1.9 5.86984 1.9 7.55 1.9H8.45C10.1302 1.9 10.9702 1.9 11.612 2.22698C12.1765 2.5146 12.6354 2.97354 12.923 3.53803C13.25 4.17977 13.25 5.01984 13.25 6.7V8.19919C12.8567 8.06993 12.4365 8 12 8C9.79086 8 8 9.79086 8 12C8 12.7702 8.21771 13.4896 8.59494 14.1C8.54733 14.1 8.49902 14.1 8.45 14.1H7.55C5.86984 14.1 5.02976 14.1 4.38803 13.773C3.82354 13.4854 3.3646 13.0265 3.07698 12.462C2.75 11.8202 2.75 10.9802 2.75 9.3V6.7ZM6.5 8C6.5 8.55229 6.05228 9 5.5 9C4.94772 9 4.5 8.55229 4.5 8C4.5 7.44772 4.94772 7 5.5 7C6.05228 7 6.5 7.44772 6.5 8Z" fill="black"/>
<path fill-rule="evenodd" clip-rule="evenodd" d="M12 15C13.6569 15 15 13.6569 15 12C15 10.3431 13.6569 9 12 9C10.3431 9 9 10.3431 9 12C9 13.6569 10.3431 15 12 15ZM12.2652 10.7652C12.4116 10.6187 12.4116 10.3813 12.2652 10.2348C12.1187 10.0884 11.8813 10.0884 11.7348 10.2348L10.2348 11.7348C10.0884 11.8813 10.0884 12.1187 10.2348 12.2652L11.7348 13.7652C11.8813 13.9116 12.1187 13.9116 12.2652 13.7652C12.4116 13.6187 12.4116 13.3813 12.2652 13.2348L11.4053 12.375H13.5C13.7071 12.375 13.875 12.2071 13.875 12C13.875 11.7929 13.7071 11.625 13.5 11.625H11.4053L12.2652 10.7652Z" fill="black"/>
</svg>
