<svg width="16" height="16" viewBox="0 0 16 16" fill="none" xmlns="http://www.w3.org/2000/svg">
<path d="M9.75 4.75H12.125C12.7463 4.75 13.25 5.25368 13.25 5.875C13.25 6.49632 12.7463 7 12.125 7H9.75V4.75Z" stroke="black" stroke-linecap="round" stroke-linejoin="round"/>
<path d="M9.75 2.5V4.75H11.875C12.4963 4.75 13 4.24632 13 3.625C13 3.00368 12.4963 2.5 11.875 2.5H9.75Z" stroke="black" stroke-linecap="round" stroke-linejoin="round"/>
<path d="M2.25 7L4.5 2.5L6.75 7M3.25 5.5H5.75" stroke="black" stroke-linecap="round" stroke-linejoin="round"/>
<path d="M9.75 13.8V9.29999H11.25C12.4926 9.29999 13.5 10.3073 13.5 11.55C13.5 12.7926 12.4926 13.8 11.25 13.8H9.75Z" stroke="black" stroke-linecap="round" stroke-linejoin="round"/>
<path d="M6.32637 9.92365C6.00471 9.60199 5.59489 9.38294 5.14873 9.29419C4.70258 9.20545 4.24012 9.251 3.81985 9.42508C3.39958 9.59916 3.04037 9.89396 2.78764 10.2722C2.53492 10.6504 2.40002 11.0951 2.40002 11.55C2.40002 12.0049 2.53492 12.4496 2.78764 12.8278C3.04037 13.206 3.39958 13.5008 3.81985 13.6749C4.24012 13.849 4.70258 13.8946 5.14873 13.8058C5.59489 13.7171 6.00471 13.498 6.32637 13.1763" stroke="black" stroke-linecap="round" stroke-linejoin="round"/>
</svg>
