<svg width="16" height="16" viewBox="0 0 16 16" fill="none" xmlns="http://www.w3.org/2000/svg">
<path fill-rule="evenodd" clip-rule="evenodd" d="M3.85372 4.56082C3.6452 4.35231 3.54094 4.24805 3.40772 4.2142C3.3001 4.18685 3.15883 4.20229 3.05966 4.25224C2.9369 4.31407 2.86673 4.42413 2.72637 4.64423C2.1082 5.61368 1.75 6.76501 1.75 8C1.75 9.23499 2.1082 10.3863 2.72637 11.3558C2.86673 11.5759 2.9369 11.6859 3.05966 11.7478C3.15883 11.7977 3.3001 11.8131 3.40772 11.7858C3.54094 11.752 3.6452 11.6477 3.85372 11.4392L5.45187 9.84102C5.6088 9.68409 5.68727 9.60563 5.72397 9.53022C5.76421 9.44756 5.77348 9.40825 5.77439 9.31632C5.77522 9.23247 5.72625 9.0859 5.62831 8.79277C5.54508 8.54367 5.5 8.2771 5.5 8C5.5 7.7229 5.54508 7.45633 5.62831 7.20723C5.72625 6.9141 5.77522 6.76753 5.77439 6.68368C5.77348 6.59174 5.76421 6.55244 5.72397 6.46978C5.68727 6.39437 5.6088 6.31591 5.45187 6.15898L3.85372 4.56082ZM9.84102 5.45187C9.68409 5.6088 9.60563 5.68727 9.53022 5.72397C9.44756 5.76421 9.40825 5.77348 9.31632 5.77439C9.23247 5.77522 9.0859 5.72625 8.79277 5.62831C8.54367 5.54508 8.2771 5.5 8 5.5C7.7229 5.5 7.45633 5.54508 7.20723 5.62831C6.9141 5.72625 6.76753 5.77522 6.68368 5.77439C6.59174 5.77348 6.55244 5.76421 6.46978 5.72397C6.39437 5.68727 6.31591 5.6088 6.15898 5.45187L4.56082 3.85372C4.35231 3.6452 4.24805 3.54094 4.2142 3.40772C4.18685 3.3001 4.20229 3.15883 4.25224 3.05966C4.31407 2.9369 4.42413 2.86673 4.64423 2.72637C5.61368 2.1082 6.76501 1.75 8 1.75C9.23499 1.75 10.3863 2.1082 11.3558 2.72637C11.5759 2.86673 11.6859 2.9369 11.7478 3.05966C11.7977 3.15883 11.8131 3.3001 11.7858 3.40772C11.752 3.54094 11.6477 3.6452 11.4392 3.85372L9.84102 5.45187ZM10.5481 9.84102C10.3912 9.68409 10.3127 9.60563 10.276 9.53022C10.2358 9.44756 10.2265 9.40825 10.2256 9.31632C10.2248 9.23247 10.2738 9.0859 10.3717 8.79277C10.4549 8.54367 10.5 8.2771 10.5 8C10.5 7.7229 10.4549 7.45633 10.3717 7.20723C10.2738 6.9141 10.2248 6.76753 10.2256 6.68368C10.2265 6.59175 10.2358 6.55244 10.276 6.46978C10.3127 6.39437 10.3912 6.31591 10.5481 6.15898L12.1463 4.56082C12.3548 4.35231 12.4591 4.24805 12.5923 4.2142C12.6999 4.18685 12.8412 4.20229 12.9403 4.25224C13.0631 4.31407 13.1333 4.42413 13.2736 4.64423C13.8918 5.61368 14.25 6.76501 14.25 8C14.25 9.23499 13.8918 10.3863 13.2736 11.3558C13.1333 11.5759 13.0631 11.6859 12.9403 11.7478C12.8412 11.7977 12.6999 11.8131 12.5923 11.7858C12.4591 11.752 12.3548 11.6477 12.1463 11.4392L10.5481 9.84102ZM6.15898 10.5481C6.31591 10.3912 6.39437 10.3127 6.46978 10.276C6.55244 10.2358 6.59175 10.2265 6.68368 10.2256C6.76753 10.2248 6.9141 10.2738 7.20723 10.3717C7.45633 10.4549 7.7229 10.5 8 10.5C8.2771 10.5 8.54367 10.4549 8.79277 10.3717C9.0859 10.2738 9.23247 10.2248 9.31632 10.2256C9.40825 10.2265 9.44756 10.2358 9.53022 10.276C9.60563 10.3127 9.68409 10.3912 9.84102 10.5481L11.4392 12.1463C11.6477 12.3548 11.752 12.4591 11.7858 12.5923C11.8131 12.6999 11.7977 12.8412 11.7478 12.9403C11.6859 13.0631 11.5759 13.1333 11.3558 13.2736C10.3863 13.8918 9.23499 14.25 8 14.25C6.76501 14.25 5.61368 13.8918 4.64423 13.2736C4.42413 13.1333 4.31407 13.0631 4.25224 12.9403C4.20229 12.8412 4.18685 12.6999 4.2142 12.5923C4.24805 12.4591 4.35231 12.3548 4.56082 12.1463L6.15898 10.5481Z" fill="black"/>
</svg>
