<svg width="16" height="16" viewBox="0 0 16 16" fill="none" xmlns="http://www.w3.org/2000/svg">
<path d="M6.5 9.5H3.63223C3.07982 9.5 2.80362 9.5 2.62042 9.3846C2.46 9.28356 2.3438 9.1255 2.2952 8.94224C2.2397 8.73296 2.32208 8.46933 2.48685 7.94207L3.99289 3.12276C4.11888 2.71957 4.18188 2.51797 4.30342 2.36868C4.41073 2.23686 4.54986 2.13458 4.70767 2.07147C4.88643 2 5.09764 2 5.52006 2H9.4591C10.2571 2 10.6561 2 10.908 2.16789C11.1282 2.31469 11.2813 2.54282 11.3336 2.80227C11.3935 3.09901 11.2422 3.46821 10.9397 4.2066L10.9397 4.20661L10 6.5H11.9355C12.8894 6.5 13.3664 6.5 13.5784 6.68542C13.7622 6.84618 13.8563 7.08637 13.8305 7.3292C13.8008 7.6093 13.4506 7.93317 12.7504 8.58092L7.90534 13.0626C7.03116 13.8712 6.59407 14.2755 6.29202 14.2696C6.0311 14.2646 5.79156 14.1243 5.65957 13.8991C5.50677 13.6385 5.64572 13.0595 5.92362 11.9016L6.5 9.5Z" fill="black"/>
</svg>
