<svg width="16" height="16" viewBox="0 0 16 16" fill="none" xmlns="http://www.w3.org/2000/svg">
<path fill-rule="evenodd" clip-rule="evenodd" d="M10.9114 9.43143C10.7199 9.59405 10.5737 9.80755 10.5238 10.0537C10.4128 10.6005 10.3253 11.0815 10.2564 11.5H8.50002V6.5H9.50002C9.77616 6.5 10 6.27614 10 6C10 5.72386 9.77616 5.5 9.50002 5.5H8.00002H6.50002C6.22388 5.5 6.00002 5.72386 6.00002 6C6.00002 6.27614 6.22388 6.5 6.50002 6.5H7.50002V11.5H5.74359C5.67466 11.0815 5.5872 10.6005 5.47624 10.0537C5.42627 9.80755 5.2801 9.59405 5.08863 9.43143C4.11671 8.60601 3.5 7.37502 3.5 6C3.5 3.51472 5.51472 1.5 8 1.5C10.4853 1.5 12.5 3.51472 12.5 6C12.5 7.37502 11.8833 8.60601 10.9114 9.43143ZM5.89076 12.5C5.90217 12.5896 5.91239 12.6741 5.92155 12.7537C5.98469 13.3023 6.44772 13.75 7 13.75H9C9.55228 13.75 10.0153 13.3023 10.0785 12.7537C10.0876 12.6741 10.0978 12.5896 10.1092 12.5H8.00002H5.89076Z" fill="black"/>
</svg>
