<svg width="16" height="16" viewBox="0 0 16 16" fill="none" xmlns="http://www.w3.org/2000/svg">
<path d="M1.875 3.25L2.375 3V5" stroke="black" stroke-width="0.7" stroke-linecap="round" stroke-linejoin="round"/>
<path d="M5.25 4H14.25" stroke="black" stroke-linecap="round" stroke-linejoin="round"/>
<path d="M1.625 7.375C1.75 7.125 2 7 2.25 7C2.5 7 2.875 7.125 2.875 7.625C2.875 8.125 1.625 8.25 1.625 9L2.85 9" stroke="black" stroke-width="0.7" stroke-linecap="round" stroke-linejoin="round"/>
<path d="M5.25 8H14.25" stroke="black" stroke-linecap="round" stroke-linejoin="round"/>
<path d="M1.625 12.625C1.75 12.875 2 13 2.25 13C2.5 13 2.875 12.875 2.875 12.375C2.875 11.875 2.25 11.875 2.25 11.875L2.875 11H1.625" stroke="black" stroke-width="0.7" stroke-linecap="round" stroke-linejoin="round"/>
<path d="M5.25 12H14.25" stroke="black" stroke-linecap="round" stroke-linejoin="round"/>
</svg>
