<svg width="16" height="16" viewBox="0 0 16 16" fill="none" xmlns="http://www.w3.org/2000/svg">
<path d="M13.25 8C13.25 7.31056 13.1142 6.62787 12.8504 5.99091C12.5865 5.35395 12.1998 4.7752 11.7123 4.28769C11.2248 3.80018 10.646 3.41347 10.0091 3.14963C9.37213 2.8858 8.68944 2.75 8 2.75" stroke="black" stroke-width="2" stroke-linecap="round"/>
<path fill-rule="evenodd" clip-rule="evenodd" d="M6.13201 2.03394C6.04673 2.25626 6 2.49767 6 2.75C6 3.23915 6.1756 3.68729 6.46721 4.03481C4.87746 4.64976 3.75 6.19322 3.75 8C3.75 10.3472 5.65279 12.25 8 12.25C9.80679 12.25 11.3502 11.1225 11.9652 9.5328C12.3127 9.8244 12.7608 10 13.25 10C13.5023 10 13.7437 9.95328 13.9661 9.868C13.1718 12.4073 10.8011 14.25 8 14.25C4.54822 14.25 1.75 11.4518 1.75 8C1.75 5.1989 3.5927 2.82818 6.13201 2.03394Z" fill="black"/>
</svg>
