<svg width="16" height="16" viewBox="0 0 16 16" fill="none" xmlns="http://www.w3.org/2000/svg">
<path fill-rule="evenodd" clip-rule="evenodd" d="M8 3C7.0335 3 6.25 3.7835 6.25 4.75V4.91085C7.43144 4.86307 8.56856 4.86307 9.75 4.91085V4.75C9.75 3.7835 8.9665 3 8 3ZM4.75 4.75V4.99941C4.27714 5.0517 3.92552 5.13878 3.59716 5.31249C3.05448 5.59958 2.55801 6.11669 2.29327 6.67061C2 7.28421 2 8.02281 2 9.50001C2 10.9772 2 11.7158 2.29327 12.3294C2.55801 12.8833 3.05448 13.4004 3.59716 13.6875C4.1983 14.0055 4.87741 14.0332 6.23563 14.0886C7.42701 14.1371 8.57299 14.1371 9.76437 14.0886C11.1226 14.0332 11.8017 14.0055 12.4028 13.6875C12.9455 13.4004 13.442 12.8833 13.7067 12.3294C14 11.7158 14 10.9772 14 9.50001C14 8.02281 14 7.28421 13.7067 6.67061C13.442 6.11669 12.9455 5.59958 12.4028 5.31249C12.0745 5.13878 11.7229 5.0517 11.25 4.99941V4.75C11.25 2.95508 9.79493 1.5 8 1.5C6.20507 1.5 4.75 2.95508 4.75 4.75ZM9.5 8.65C9.5 9.28579 9.10445 9.82919 8.54601 10.0475L8.86585 11.2469C8.91149 11.4181 8.93431 11.5037 8.91424 11.5712C8.89666 11.6304 8.8578 11.681 8.80515 11.7132C8.74506 11.75 8.65649 11.75 8.47936 11.75H7.52064C7.34351 11.75 7.25494 11.75 7.19485 11.7132C7.1422 11.681 7.10334 11.6304 7.08576 11.5712C7.06569 11.5037 7.08851 11.4181 7.13415 11.2469L7.45399 10.0475C6.89555 9.82919 6.5 9.28579 6.5 8.65C6.5 7.82157 7.17157 7.15 8 7.15C8.82843 7.15 9.5 7.82157 9.5 8.65Z" fill="black"/>
</svg>
