<svg width="16" height="16" viewBox="0 0 16 16" fill="none" xmlns="http://www.w3.org/2000/svg">
<path fill-rule="evenodd" clip-rule="evenodd" d="M12 2.5C11.0335 2.5 10.25 3.2835 10.25 4.25V4.99941C10.7229 5.05169 11.0745 5.13877 11.4028 5.31248C11.9455 5.59957 12.442 6.11668 12.7067 6.6706C13 7.2842 13 8.0228 13 9.5C13 10.9772 13 11.7158 12.7067 12.3294C12.442 12.8833 11.9455 13.4004 11.4028 13.6875C10.8017 14.0055 10.1226 14.0332 8.76437 14.0886C7.57299 14.1371 6.42701 14.1371 5.23563 14.0886C3.87741 14.0332 3.1983 14.0055 2.59716 13.6875C2.05448 13.4004 1.55801 12.8833 1.29327 12.3294C1 11.7158 1 10.9772 1 9.5C1 8.0228 1 7.2842 1.29327 6.6706C1.55801 6.11668 2.05448 5.59957 2.59716 5.31248C3.1983 4.99447 3.87742 4.96679 5.23564 4.91143C6.42223 4.86306 7.56378 4.86286 8.75 4.91084V4.25C8.75 2.45508 10.2051 1 12 1C13.7949 1 15.25 2.45508 15.25 4.25V5.74999C15.25 6.16421 14.9142 6.49999 14.5 6.49999C14.0858 6.49999 13.75 6.16421 13.75 5.74999V4.25C13.75 3.2835 12.9665 2.5 12 2.5ZM8.5 8.64999C8.5 9.28578 8.10445 9.82918 7.54601 10.0475L7.86585 11.2469C7.91149 11.4181 7.93431 11.5037 7.91424 11.5712C7.89666 11.6304 7.8578 11.681 7.80515 11.7132C7.74506 11.75 7.65649 11.75 7.47936 11.75H6.52064C6.34351 11.75 6.25494 11.75 6.19485 11.7132C6.1422 11.681 6.10334 11.6304 6.08576 11.5712C6.06569 11.5037 6.08851 11.4181 6.13415 11.2469L6.45399 10.0475C5.89555 9.82918 5.5 9.28578 5.5 8.64999C5.5 7.82157 6.17157 7.14999 7 7.14999C7.82843 7.14999 8.5 7.82157 8.5 8.64999Z" fill="black"/>
</svg>
