<svg width="16" height="16" viewBox="0 0 16 16" fill="none" xmlns="http://www.w3.org/2000/svg">
<path fill-rule="evenodd" clip-rule="evenodd" d="M2 6.8C2 5.11984 2 4.27976 2.32698 3.63803C2.6146 3.07354 3.07354 2.6146 3.63803 2.32698C4.27976 2 5.11984 2 6.8 2H9.2C10.8802 2 11.7202 2 12.362 2.32698C12.9265 2.6146 13.3854 3.07354 13.673 3.63803C14 4.27976 14 5.11984 14 6.8V9.2C14 10.8802 14 11.7202 13.673 12.362C13.3854 12.9265 12.9265 13.3854 12.362 13.673C11.7202 14 10.8802 14 9.2 14H6.8C5.11984 14 4.27976 14 3.63803 13.673C3.07354 13.3854 2.6146 12.9265 2.32698 12.362C2 11.7202 2 10.8802 2 9.2V6.8ZM6 4.25C6.27614 4.25 6.5 4.47386 6.5 4.75V6.75C6.5 7.02614 6.27614 7.25 6 7.25C5.72386 7.25 5.5 7.02614 5.5 6.75V4.75C5.5 4.47386 5.72386 4.25 6 4.25ZM10 4.25C10.2761 4.25 10.5 4.47386 10.5 4.75V6.75C10.5 7.02614 10.2761 7.25 10 7.25C9.72386 7.25 9.5 7.02614 9.5 6.75V4.75C9.5 4.47386 9.72386 4.25 10 4.25ZM5.5 8.5C5.5 8.22386 5.27614 8 5 8C4.72386 8 4.5 8.22386 4.5 8.5C4.5 8.95963 4.59053 9.41475 4.76642 9.83939C4.94231 10.264 5.20012 10.6499 5.52513 10.9749C5.85013 11.2999 6.23597 11.5577 6.66061 11.7336C7.08525 11.9095 7.54037 12 8 12C8.45963 12 8.91475 11.9095 9.33939 11.7336C9.76403 11.5577 10.1499 11.2999 10.4749 10.9749C10.7999 10.6499 11.0577 10.264 11.2336 9.83939C11.4095 9.41475 11.5 8.95963 11.5 8.5C11.5 8.22386 11.2761 8 11 8C10.7239 8 10.5 8.22386 10.5 8.5C10.5 8.8283 10.4353 9.15339 10.3097 9.45671C10.1841 9.76002 9.99991 10.0356 9.76777 10.2678C9.53562 10.4999 9.26002 10.6841 8.95671 10.8097C8.65339 10.9353 8.3283 11 8 11C7.6717 11 7.34661 10.9353 7.04329 10.8097C6.73998 10.6841 6.46438 10.4999 6.23223 10.2678C6.00009 10.0356 5.81594 9.76002 5.6903 9.45671C5.56466 9.15339 5.5 8.8283 5.5 8.5Z" fill="black"/>
</svg>
