<svg width="16" height="16" viewBox="0 0 16 16" fill="none" xmlns="http://www.w3.org/2000/svg">
<path fill-rule="evenodd" clip-rule="evenodd" d="M2.75 9.7V6.3C2.75 4.61984 2.75 3.77976 3.07698 3.13803C3.3646 2.57354 3.82354 2.1146 4.38803 1.82698C5.02976 1.5 5.86984 1.5 7.55 1.5H8.45C10.1302 1.5 10.9702 1.5 11.612 1.82698C12.1765 2.1146 12.6354 2.57354 12.923 3.13803C13.25 3.77976 13.25 4.61984 13.25 6.3V9.7C13.25 11.3802 13.25 12.2202 12.923 12.862C12.6354 13.4265 12.1765 13.8854 11.612 14.173C10.9702 14.5 10.1302 14.5 8.45 14.5H7.55C5.86984 14.5 5.02976 14.5 4.38803 14.173C3.82354 13.8854 3.3646 13.4265 3.07698 12.862C2.75 12.2202 2.75 11.3802 2.75 9.7ZM8 5C7.72386 5 7.5 5.22386 7.5 5.5C7.5 5.77614 7.72386 6 8 6C8.27614 6 8.5 5.77614 8.5 5.5C8.5 5.22386 8.27614 5 8 5ZM6.5 5.5C6.5 4.67157 7.17157 4 8 4C8.82843 4 9.5 4.67157 9.5 5.5C9.5 6.32843 8.82843 7 8 7C7.17157 7 6.5 6.32843 6.5 5.5ZM7 10C7 9.44772 7.44772 9 8 9C8.55228 9 9 9.44772 9 10C9 10.5523 8.55228 11 8 11C7.44772 11 7 10.5523 7 10ZM8 8C6.89543 8 6 8.89543 6 10C6 11.1046 6.89543 12 8 12C9.10457 12 10 11.1046 10 10C10 8.89543 9.10457 8 8 8Z" fill="black"/>
</svg>
