<svg width="16" height="16" viewBox="0 0 16 16" fill="none" xmlns="http://www.w3.org/2000/svg">
<path fill-rule="evenodd" clip-rule="evenodd" d="M0.5 5.5C0.5 4.39543 1.39543 3.5 2.5 3.5H13.5C14.6046 3.5 15.5 4.39543 15.5 5.5V10.5C15.5 11.6046 14.6046 12.5 13.5 12.5H2.5C1.39543 12.5 0.5 11.6046 0.5 10.5V5.5ZM4.63949 6.43328L5.39195 8.28419C5.39762 8.29813 5.41106 8.30723 5.42599 8.30723C5.44091 8.30723 5.45436 8.29813 5.46002 8.28419L6.21248 6.43328C6.34363 6.11067 6.65488 5.9 7.00035 5.9C7.47069 5.9 7.85197 6.28486 7.85197 6.75961V9.58555C7.85197 9.89729 7.60161 10.15 7.29276 10.15C6.98392 10.15 6.73355 9.89729 6.73355 9.58555V7.7127C6.73355 7.7018 6.7248 7.69297 6.71401 7.69297C6.70596 7.69297 6.69873 7.69795 6.6958 7.70552L5.88563 9.80016C5.81177 9.9911 5.62948 10.1168 5.4264 10.1168C5.22292 10.1168 5.04034 9.9906 4.96677 9.79909L4.15615 7.68895C4.15324 7.68137 4.146 7.67637 4.13795 7.67637C4.12716 7.67637 4.11842 7.68519 4.11842 7.69607V9.58555C4.11842 9.89729 3.86805 10.15 3.55921 10.15C3.25037 10.15 3 9.89729 3 9.58555V6.75961C3 6.28486 3.38128 5.9 3.85162 5.9C4.1971 5.9 4.50834 6.11067 4.63949 6.43328ZM10.8947 5.9C11.1854 5.9 11.4211 6.13785 11.4211 6.43125V8.3362L12.1015 7.64935C12.3071 7.44188 12.6403 7.44188 12.8458 7.64935C13.0514 7.85682 13.0514 8.19318 12.8458 8.40065L11.2669 9.9944C11.0614 10.2019 10.7281 10.2019 10.5226 9.9944L8.94363 8.40065C8.73809 8.19318 8.73809 7.85682 8.94363 7.64935C9.14917 7.44188 9.48241 7.44188 9.68795 7.64935L10.3684 8.3362V6.43125C10.3684 6.13785 10.6041 5.9 10.8947 5.9Z" fill="black"/>
</svg>
