<svg width="16" height="16" viewBox="0 0 16 16" fill="none" xmlns="http://www.w3.org/2000/svg">
<path fill-rule="evenodd" clip-rule="evenodd" d="M0.5 5.5C0.5 4.39543 1.39543 3.5 2.5 3.5H13.5C14.6046 3.5 15.5 4.39543 15.5 5.5V10.5C15.5 11.6046 14.6046 12.5 13.5 12.5H2.5C1.39543 12.5 0.5 11.6046 0.5 10.5V5.5ZM7.16547 5.52819C7.36585 5.59847 7.49997 5.78766 7.49997 6V10C7.49997 10.2761 7.27611 10.5 6.99997 10.5C6.72383 10.5 6.49997 10.2761 6.49997 10V7.42541L5.39044 8.81234C5.29555 8.93095 5.15189 9 5 9C4.84811 9 4.70445 8.93096 4.60957 8.81235L3.5 7.42539V10C3.5 10.2761 3.27614 10.5 3 10.5C2.72386 10.5 2.5 10.2761 2.5 10V6C2.5 5.78766 2.63412 5.59847 2.8345 5.52819C3.03487 5.4579 3.25778 5.52184 3.39043 5.68765L5 7.69961L6.60953 5.68766C6.74218 5.52184 6.9651 5.4579 7.16547 5.52819ZM10.1464 5.64645C10.2402 5.55268 10.3674 5.5 10.5 5.5H11.5C11.7761 5.5 12 5.72385 12 5.99999L12 7H13C13.1922 7 13.3674 7.11017 13.4507 7.28341C13.5339 7.45664 13.5105 7.66227 13.3905 7.81235L11.3904 10.3124C11.2955 10.431 11.1519 10.5 11 10.5C10.8481 10.5 10.7045 10.431 10.6096 10.3123L8.60957 7.81235C8.4895 7.66226 8.46609 7.45664 8.54935 7.28341C8.63261 7.11017 8.8078 7 9 7H10L10 6.00001C10 5.8674 10.0527 5.74022 10.1464 5.64645Z" fill="black"/>
</svg>
