<svg width="16" height="16" viewBox="0 0 16 16" fill="none" xmlns="http://www.w3.org/2000/svg">
<circle cx="6" cy="11" r="2" stroke="black"/>
<path fill-rule="evenodd" clip-rule="evenodd" d="M3.22781 10.2239L11.1955 12.6755C11.8856 12.8879 12.6578 12.9109 13.1478 12.3807C13.7748 11.7023 14.5 10.3102 14.5 7.49999C14.5 4.68976 13.7748 3.2977 13.1478 2.61931C12.6578 2.08906 11.8856 2.1121 11.1955 2.32444L3.22781 4.77605C2.74692 4.92401 2.28638 5.15431 1.97691 5.55102C1.63443 5.99005 1.25 6.66813 1.25 7.49999C1.25 8.33184 1.63443 9.00992 1.97691 9.44895C2.28638 9.84566 2.74692 10.076 3.22781 10.2239ZM12.25 11.75C12.9404 11.75 13.5 9.8472 13.5 7.49999C13.5 5.15278 12.9404 3.24999 12.25 3.24999C11.5596 3.24999 11 5.15278 11 7.49999C11 9.8472 11.5596 11.75 12.25 11.75Z" fill="black"/>
</svg>
