<svg width="16" height="16" viewBox="0 0 16 16" fill="none" xmlns="http://www.w3.org/2000/svg">
<path d="M3.5 6.5V7.25C3.5 9.73528 5.51472 11.75 8 11.75V11.75C10.4853 11.75 12.5 9.73528 12.5 7.25V6.5" stroke="black" stroke-linecap="round"/>
<path d="M6 13.75H8M10 13.75H8M8 13.75V12" stroke="black" stroke-linecap="round"/>
<path fill-rule="evenodd" clip-rule="evenodd" d="M9.48091 1.8904C9.04399 1.64192 8.53857 1.5 8 1.5C6.34315 1.5 5 2.84315 5 4.5V7.25C5 8.90685 6.34315 10.25 8 10.25C9.65685 10.25 11 8.90685 11 7.25V6.45418C10.79 6.45418 10.5801 6.40697 10.3864 6.31257C10.0397 6.14349 9.85936 5.85076 9.77962 5.71369C9.69415 5.56679 9.60779 5.38161 9.52758 5.20963L9.51388 5.18026L9.45211 5.04789L9.31975 4.98612L9.29036 4.97241L9.29035 4.97241C9.11838 4.89221 8.93321 4.80585 8.78631 4.72038C8.64924 4.64064 8.35651 4.46033 8.18743 4.11356C7.99862 3.72631 7.99862 3.27369 8.18743 2.88644C8.35651 2.53967 8.64924 2.35936 8.78631 2.27962C8.93321 2.19415 9.11839 2.10779 9.29036 2.02759L9.29037 2.02758L9.31974 2.01388L9.45211 1.95211L9.48091 1.8904ZM10.2777 2.54741C10.7279 3.07216 11 3.75431 11 4.5V5.45418C10.94 5.45418 10.88 5.44069 10.8247 5.41372C10.6974 5.35166 10.605 5.15355 10.4201 4.75735L10.3029 4.50637L10.3029 4.50636C10.2665 4.42827 10.2483 4.38923 10.223 4.35569C10.2005 4.32593 10.1741 4.29946 10.1443 4.27703C10.1108 4.25175 10.0717 4.23353 9.99363 4.19708L9.74266 4.07995C9.34645 3.89504 9.14834 3.80258 9.08628 3.6753C9.03234 3.56466 9.03234 3.43534 9.08628 3.3247C9.14834 3.19742 9.34645 3.10496 9.74266 2.92005L9.99363 2.80292L9.99364 2.80292C10.0717 2.76647 10.1108 2.74825 10.1443 2.72297C10.1741 2.70054 10.2005 2.67407 10.223 2.64431C10.2417 2.61953 10.2565 2.59174 10.2777 2.54741Z" fill="black"/>
<path d="M10.4201 2.24266C10.605 1.84645 10.6974 1.64834 10.8247 1.58628C10.9353 1.53234 11.0647 1.53234 11.1753 1.58628C11.3026 1.64834 11.395 1.84645 11.5799 2.24266L11.6971 2.49363C11.7335 2.57173 11.7517 2.61077 11.777 2.64431C11.7995 2.67407 11.8259 2.70054 11.8557 2.72297C11.8892 2.74825 11.9283 2.76647 12.0064 2.80292L12.2573 2.92005C12.6536 3.10496 12.8517 3.19742 12.9137 3.3247C12.9677 3.43534 12.9677 3.56466 12.9137 3.6753C12.8517 3.80258 12.6536 3.89504 12.2573 4.07995L12.0064 4.19708C11.9283 4.23353 11.8892 4.25175 11.8557 4.27703C11.8259 4.29946 11.7995 4.32593 11.777 4.35569C11.7517 4.38923 11.7335 4.42827 11.6971 4.50637L11.5799 4.75734C11.395 5.15355 11.3026 5.35166 11.1753 5.41372C11.0647 5.46766 10.9353 5.46766 10.8247 5.41372C10.6974 5.35166 10.605 5.15355 10.4201 4.75734L10.3029 4.50637C10.2665 4.42827 10.2483 4.38923 10.223 4.35569C10.2005 4.32593 10.1741 4.29946 10.1443 4.27703C10.1108 4.25175 10.0717 4.23353 9.99363 4.19708L9.74266 4.07995C9.34645 3.89504 9.14834 3.80258 9.08628 3.6753C9.03234 3.56466 9.03234 3.43534 9.08628 3.3247C9.14834 3.19742 9.34645 3.10496 9.74266 2.92005L9.99363 2.80292C10.0717 2.76647 10.1108 2.74825 10.1443 2.72297C10.1741 2.70054 10.2005 2.67407 10.223 2.64431C10.2483 2.61077 10.2665 2.57173 10.3029 2.49363L10.4201 2.24266Z" fill="black"/>
</svg>
