<svg width="16" height="16" viewBox="0 0 16 16" fill="none" xmlns="http://www.w3.org/2000/svg">
<path fill-rule="evenodd" clip-rule="evenodd" d="M5.24974 3.29974L10.5372 8.85156C10.8303 8.38815 11 7.83889 11 7.25V4.5C11 2.84315 9.65685 1.5 8 1.5C6.76991 1.5 5.71273 2.24034 5.24974 3.29974ZM8.39243 10.2246L5 6.66252V7.25C5 8.90685 6.34315 10.25 8 10.25C8.13301 10.25 8.264 10.2413 8.39243 10.2246ZM9.19587 11.0682L9.94692 11.8568C9.49475 12.0481 9.00859 12.1748 8.5 12.2253V13.25H10C10.2761 13.25 10.5 13.4739 10.5 13.75C10.5 14.0261 10.2761 14.25 10 14.25H8H6C5.72386 14.25 5.5 14.0261 5.5 13.75C5.5 13.4739 5.72386 13.25 6 13.25H7.5V12.2253C4.97334 11.9745 3 9.84267 3 7.25V6.5C3 6.22386 3.22386 6 3.5 6C3.77614 6 4 6.22386 4 6.5V7.25C4 9.45914 5.79086 11.25 8 11.25C8.41656 11.25 8.81825 11.1863 9.19587 11.0682ZM11.9418 10.3264L11.2428 9.59241C11.7192 8.93402 12 8.1248 12 7.25V6.5C12 6.22386 12.2239 6 12.5 6C12.7761 6 13 6.22386 13 6.5V7.25C13 8.41018 12.6049 9.47806 11.9418 10.3264Z" fill="black"/>
<path d="M3 2.75L13 13.25" stroke="black" stroke-linecap="round" stroke-linejoin="round"/>
</svg>
