<svg width="16" height="16" viewBox="0 0 16 16" fill="none" xmlns="http://www.w3.org/2000/svg">
<path d="M2.5 5.5V5.5C2.5 3.84315 3.84315 2.5 5.5 2.5V2.5M10.5 2.5V2.5C12.1569 2.5 13.5 3.84315 13.5 5.5V5.5M13.5 10.5V10.5C13.5 12.1569 12.1569 13.5 10.5 13.5V13.5M5.5 13.5V13.5C3.84315 13.5 2.5 12.1569 2.5 10.5V10.5" stroke="black" stroke-linecap="round" stroke-linejoin="round"/>
<path d="M7.5 2.5H8.5M2.5 7.5V8.5M7.5 13.5H8.5M13.5 7.5V8.5" stroke="black" stroke-linecap="round"/>
<path d="M7.32502 9.12819V9.03793C7.32502 8.70307 7.3538 8.44016 7.41135 8.24918C7.47152 8.05821 7.55785 7.90647 7.67034 7.79398C7.78284 7.68149 7.92018 7.57554 8.08238 7.47613C8.25766 7.36364 8.40546 7.23937 8.5258 7.10334C8.64614 6.9673 8.70631 6.80379 8.70631 6.61282C8.70631 6.47417 8.67361 6.35513 8.60821 6.25572C8.54281 6.15631 8.45517 6.07914 8.34529 6.0242C8.23803 5.96664 8.11769 5.93787 7.98427 5.93787C7.85609 5.93787 7.73444 5.96534 7.61933 6.02027C7.50684 6.07521 7.41397 6.15762 7.34072 6.2675C7.26747 6.37475 7.22822 6.50948 7.22299 6.67168H6.10461C6.10985 6.29496 6.19749 5.98365 6.36753 5.73774C6.54019 5.49182 6.76779 5.30739 7.05033 5.18443C7.33548 5.06148 7.64811 5 7.9882 5C8.3623 5 8.69193 5.06279 8.97708 5.18836C9.26485 5.31393 9.48983 5.49444 9.65203 5.72989C9.81423 5.96534 9.89533 6.24787 9.89533 6.5775C9.89533 6.90974 9.81684 7.18836 9.65988 7.41334C9.50291 7.63571 9.29101 7.82538 9.02417 7.98234C8.87244 8.0739 8.74686 8.16547 8.64745 8.25703C8.55066 8.34598 8.47871 8.45062 8.43163 8.57096C8.38454 8.6913 8.36099 8.84696 8.36099 9.03793V9.12819H7.32502ZM7.84693 11C7.64549 11 7.47937 10.9385 7.34856 10.8156C7.22038 10.6926 7.15628 10.5343 7.15628 10.3407C7.15628 10.1445 7.22038 9.98627 7.34856 9.86593C7.47937 9.74297 7.64549 9.68149 7.84693 9.68149C8.05098 9.68149 8.21711 9.74297 8.34529 9.86593C8.47348 9.98627 8.53758 10.1445 8.53758 10.3407C8.53758 10.5343 8.47348 10.6926 8.34529 10.8156C8.21711 10.9385 8.05098 11 7.84693 11Z" fill="black"/>
</svg>
