<svg width="16" height="16" viewBox="0 0 16 16" fill="none" xmlns="http://www.w3.org/2000/svg">
<path fill-rule="evenodd" clip-rule="evenodd" d="M2.32698 3.63803C2 4.27976 2 5.11984 2 6.8V9.2C2 10.8802 2 11.7202 2.32698 12.362C2.6146 12.9265 3.07354 13.3854 3.63803 13.673C4.27976 14 5.11984 14 6.8 14H9.2C10.8802 14 11.7202 14 12.362 13.673C12.9265 13.3854 13.3854 12.9265 13.673 12.362C14 11.7202 14 10.8802 14 9.2V6.8C14 5.11984 14 4.27976 13.673 3.63803C13.3854 3.07354 12.9265 2.6146 12.362 2.32698C11.7202 2 10.8802 2 9.2 2H6.8C5.11984 2 4.27976 2 3.63803 2.32698C3.07354 2.6146 2.6146 3.07354 2.32698 3.63803ZM9.85355 4.14645C9.65829 3.95118 9.34171 3.95118 9.14645 4.14645C8.95118 4.34171 8.95118 4.65829 9.14645 4.85355L9.79289 5.5L9.14645 6.14645C8.95118 6.34171 8.95118 6.65829 9.14645 6.85355C9.34171 7.04882 9.65829 7.04882 9.85355 6.85355L10.5 6.20711L11.1464 6.85355C11.3417 7.04882 11.6583 7.04882 11.8536 6.85355C12.0488 6.65829 12.0488 6.34171 11.8536 6.14645L11.2071 5.5L11.8536 4.85355C12.0488 4.65829 12.0488 4.34171 11.8536 4.14645C11.6583 3.95118 11.3417 3.95118 11.1464 4.14645L10.5 4.79289L9.85355 4.14645Z" fill="black"/>
</svg>
