<svg width="16" height="16" viewBox="0 0 16 16" fill="none" xmlns="http://www.w3.org/2000/svg">
<path fill-rule="evenodd" clip-rule="evenodd" d="M8 14.25C11.4518 14.25 14.25 11.4518 14.25 8C14.25 7.65012 13.669 7.63372 13.4991 7.93958C12.8165 9.16842 11.5054 10 10 10C7.79086 10 6 8.20914 6 6C6 4.49463 6.83158 3.18348 8.06042 2.50087C8.36628 2.33097 8.34988 1.75 8 1.75C4.54822 1.75 1.75 4.54822 1.75 8C1.75 11.4518 4.54822 14.25 8 14.25Z" fill="black"/>
<path d="M10.0479 3.54011C10.2785 3.04603 10.3938 2.79899 10.5287 2.68996C10.8037 2.46791 11.1963 2.46791 11.4713 2.68996C11.6062 2.79899 11.7215 3.04603 11.9521 3.54011C11.9978 3.63789 12.0206 3.68678 12.0492 3.73082C12.1063 3.81871 12.1813 3.89365 12.2692 3.9508C12.3132 3.97942 12.3621 4.00224 12.4599 4.04788C12.954 4.27846 13.201 4.39376 13.31 4.52875C13.5321 4.80368 13.5321 5.19632 13.31 5.47125C13.201 5.60624 12.954 5.72154 12.4599 5.95212C12.3621 5.99776 12.3132 6.02058 12.2692 6.0492C12.1813 6.10635 12.1063 6.18129 12.0492 6.26918C12.0206 6.31322 11.9978 6.36211 11.9521 6.45989C11.7215 6.95397 11.6062 7.20101 11.4713 7.31004C11.1963 7.53209 10.8037 7.53209 10.5287 7.31004C10.3938 7.20101 10.2785 6.95397 10.0479 6.45989C10.0022 6.36211 9.97942 6.31322 9.9508 6.26918C9.89365 6.18129 9.81871 6.10635 9.73082 6.0492C9.68678 6.02058 9.63789 5.99776 9.54011 5.95212C9.04603 5.72154 8.79899 5.60624 8.68996 5.47125C8.46791 5.19632 8.46791 4.80368 8.68996 4.52875C8.79899 4.39376 9.04603 4.27846 9.54011 4.04788C9.63789 4.00224 9.68678 3.97942 9.73082 3.9508C9.81871 3.89365 9.89365 3.81871 9.9508 3.73082C9.97942 3.68678 10.0022 3.63789 10.0479 3.54011Z" fill="black"/>
</svg>
