<svg width="16" height="16" viewBox="0 0 16 16" fill="none" xmlns="http://www.w3.org/2000/svg">
<path fill-rule="evenodd" clip-rule="evenodd" d="M3.53803 3.21733C3.25 3.82633 3.25 4.61338 3.25 6.1875V9.25C3.25 11.8734 5.37665 14 8 14C10.6234 14 12.75 11.8734 12.75 9.25V6.1875C12.75 4.61338 12.75 3.82633 12.462 3.21733C12.1652 2.58991 11.6601 2.08478 11.0327 1.78803C10.4237 1.5 9.63661 1.5 8.0625 1.5H7.9375C6.36338 1.5 5.57633 1.5 4.96733 1.78803C4.33991 2.08478 3.83478 2.58991 3.53803 3.21733ZM8.5 4C8.5 3.72386 8.27614 3.5 8 3.5C7.72386 3.5 7.5 3.72386 7.5 4V6C7.5 6.27614 7.72386 6.5 8 6.5C8.27614 6.5 8.5 6.27614 8.5 6V4Z" fill="black"/>
</svg>
