<svg width="16" height="16" viewBox="0 0 16 16" fill="none" xmlns="http://www.w3.org/2000/svg">
<path d="M6.27778 14.25H5.75C4.50736 14.25 3.5 13.2426 3.5 12C3.5 10.6639 4.65748 9.62218 5.98619 9.76243L6.51105 9.81783C7.64176 9.93719 8.5 10.8908 8.5 12.0278C8.5 13.2551 7.50508 14.25 6.27778 14.25Z" fill="black"/>
<path d="M8 12V3" stroke="black"/>
<path d="M11.8563 6.3069L7.5 5V2.17202C7.5 1.83708 7.82287 1.59686 8.14367 1.6931L11.0747 2.57241C11.9207 2.8262 12.5 3.60485 12.5 4.48806V5.82798C12.5 6.16292 12.1771 6.40314 11.8563 6.3069Z" fill="black"/>
</svg>
