<svg width="16" height="16" viewBox="0 0 16 16" fill="none" xmlns="http://www.w3.org/2000/svg">
<path d="M1.5 12V11.7345C1.5 10.5425 2.53613 9.61513 3.72086 9.74676L4.22086 9.80232C5.23373 9.91486 6 10.771 6 11.7901V12C6 13.1046 5.10457 14 4 14H3.5C2.39543 14 1.5 13.1046 1.5 12Z" fill="black"/>
<path d="M9.5 11V10.7345C9.5 9.54251 10.5361 8.61513 11.7209 8.74676L12.2209 8.80232C13.2337 8.91486 14 9.77099 14 10.7901V11C14 12.1046 13.1046 13 12 13H11.5C10.3954 13 9.5 12.1046 9.5 11Z" fill="black"/>
<path d="M13.5 11V3.5M5.5 4.5V12" stroke="black"/>
<path d="M14 5L5 6V4.29009C5 3.27099 5.76627 2.41486 6.77914 2.30232L11.7791 1.74676C12.9639 1.61513 14 2.54251 14 3.73453V5Z" fill="black"/>
</svg>
