<svg width="16" height="16" viewBox="0 0 16 16" fill="none" xmlns="http://www.w3.org/2000/svg">
<path d="M13.5 8H11.5M2.5 8L4.5 8M11.5 5.5H11C10.1716 5.5 9.5 4.82843 9.5 4V4C9.5 3.17157 10.1716 2.5 11 2.5H12C12.8284 2.5 13.5 3.17157 13.5 4V4C13.5 4.82843 12.8284 5.5 12 5.5H11.5ZM11.5 5.5V8M11.5 8L8 8M4.5 8L4.5 5.5M4.5 8H8M4.5 5.5H4C3.17157 5.5 2.5 4.82843 2.5 4V4C2.5 3.17157 3.17157 2.5 4 2.5H5C5.82843 2.5 6.5 3.17157 6.5 4V4C6.5 4.82843 5.82843 5.5 5 5.5H4.5ZM8 8V10.5M8 10.5H8.5C9.32843 10.5 10 11.1716 10 12V12C10 12.8284 9.32843 13.5 8.5 13.5H7.5C6.67157 13.5 6 12.8284 6 12V12C6 11.1716 6.67157 10.5 7.5 10.5H8Z" stroke="#0077FF" stroke-linecap="round"/>
</svg>
