<svg width="16" height="16" viewBox="0 0 16 16" fill="none" xmlns="http://www.w3.org/2000/svg">
<path fill-rule="evenodd" clip-rule="evenodd" d="M8.125 1.75C6.49257 1.75 5.0024 2.36423 3.87488 3.37339C2.57146 4.53998 1.75 6.23689 1.75 8.125C1.75 11.6458 4.60418 14.5 8.125 14.5C10.0131 14.5 11.71 13.6785 12.8766 12.3751C13.8858 11.2476 14.5 9.75743 14.5 8.125C14.5 4.60418 11.6458 1.75 8.125 1.75ZM5.7875 4.61802L4.954 3.78452C5.843 3.1338 6.93874 2.75 8.125 2.75C11.0935 2.75 13.5 5.15647 13.5 8.125C13.5 9.31126 13.1162 10.407 12.4655 11.296L11.5519 10.3824C11.3675 10.6644 11.1205 10.9 10.8363 11.081L11.8014 12.0461C10.8396 12.9483 9.54701 13.5 8.125 13.5C5.15647 13.5 2.75 11.0935 2.75 8.125C2.75 6.70299 3.3017 5.41036 4.20388 4.44862L4.84149 5.08622L5.70282 4.65557C5.73061 4.64168 5.75887 4.62916 5.7875 4.61802ZM7.15002 5.98054L7.15008 5.9806L7.15002 5.98075V5.98054Z" fill="black"/>
<path d="M6.15002 10.35V5.55L5.25 6" stroke="black" stroke-linecap="round" stroke-linejoin="round"/>
<ellipse cx="9.40002" cy="6.7" rx="1.375" ry="1.2" stroke="black"/>
<ellipse cx="9.40002" cy="9.19999" rx="1.5" ry="1.3" stroke="black"/>
</svg>
