<svg width="16" height="16" viewBox="0 0 16 16" fill="none" xmlns="http://www.w3.org/2000/svg">
<path d="M6.87629 5.09363V10.9064H5.72154V6.19766H5.71374L4.34833 7.06372V6.0104L5.78786 5.09363H6.87629Z" fill="black"/>
<path d="M9.43967 11C9.00274 11 8.61782 10.9311 8.28492 10.7932C7.95462 10.6528 7.69714 10.459 7.51249 10.212C7.32783 9.96229 7.23551 9.6736 7.23551 9.3459C7.23551 8.95319 7.36294 8.62549 7.61782 8.36281C7.8753 8.10013 8.2121 7.94018 8.62822 7.88296C8.26411 7.82315 7.97283 7.6788 7.75436 7.44993C7.5385 7.22107 7.43056 6.92978 7.43056 6.57607C7.43056 6.26918 7.51509 5.9974 7.68414 5.76073C7.85579 5.52146 8.09246 5.3355 8.39415 5.20286C8.69845 5.06762 9.04695 5 9.43967 5C9.84019 5 10.1913 5.06632 10.493 5.19896C10.7947 5.3316 11.03 5.51625 11.1991 5.75293C11.3681 5.9896 11.4527 6.26398 11.4527 6.57607C11.4527 6.92978 11.3447 7.22107 11.1289 7.44993C10.913 7.6788 10.623 7.82315 10.2589 7.88296C10.675 7.94018 11.0105 8.10013 11.2654 8.36281C11.5229 8.62549 11.6516 8.95319 11.6516 9.3459C11.6516 9.6736 11.558 9.96229 11.3707 10.212C11.1861 10.459 10.9273 10.6528 10.5944 10.7932C10.2641 10.9311 9.8792 11 9.43967 11ZM9.43967 10.1261C9.73876 10.1261 9.98063 10.0468 10.1653 9.88817C10.3525 9.72692 10.4462 9.51886 10.4462 9.26398C10.4462 9.0039 10.3512 8.78934 10.1614 8.62029C9.97413 8.45124 9.73356 8.36671 9.43967 8.36671C9.14838 8.36671 8.90781 8.45124 8.71795 8.62029C8.53069 8.78934 8.43707 9.0039 8.43707 9.26398C8.43707 9.52146 8.52939 9.72952 8.71405 9.88817C8.89871 10.0468 9.14058 10.1261 9.43967 10.1261ZM9.43967 7.47724C9.69975 7.47724 9.90911 7.40572 10.0678 7.26268C10.2264 7.11704 10.3057 6.92328 10.3057 6.6814C10.3057 6.44473 10.2264 6.25488 10.0678 6.11183C9.91171 5.96619 9.70235 5.89337 9.43967 5.89337C9.17959 5.89337 8.97023 5.96619 8.81158 6.11183C8.65553 6.25488 8.57751 6.44473 8.57751 6.6814C8.57751 6.92068 8.65683 7.11313 8.81548 7.25878C8.97413 7.40442 9.18219 7.47724 9.43967 7.47724Z" fill="black"/>
<path fill-rule="evenodd" clip-rule="evenodd" d="M3.87488 3.37339C5.0024 2.36423 6.49257 1.75 8.125 1.75C11.6458 1.75 14.5 4.60418 14.5 8.125C14.5 9.75743 13.8858 11.2476 12.8766 12.3751C11.71 13.6785 10.0131 14.5 8.125 14.5C4.60419 14.5 1.75 11.6458 1.75 8.125C1.75 6.23689 2.57146 4.53998 3.87488 3.37339ZM4.954 3.78452L5.76369 4.59421C5.67699 4.59841 5.59272 4.62511 5.51927 4.67189L4.85207 5.0968L4.20388 4.44862C3.3017 5.41036 2.75 6.70299 2.75 8.125C2.75 11.0935 5.15647 13.5 8.125 13.5C9.54701 13.5 10.8396 12.9483 11.8014 12.0461L10.9402 11.1849C11.2542 11.0305 11.5225 10.8249 11.7318 10.5624L12.4655 11.296C13.1162 10.407 13.5 9.31126 13.5 8.125C13.5 5.15647 11.0935 2.75 8.125 2.75C6.93874 2.75 5.843 3.1338 4.954 3.78452ZM11.3709 10.2121L11.4131 10.2436L11.4135 10.2441L11.3709 10.2121Z" fill="black"/>
</svg>
