<svg width="16" height="16" viewBox="0 0 16 16" fill="none" xmlns="http://www.w3.org/2000/svg">
<path d="M4.20833 3.74596C5.24773 2.81567 6.62031 2.25 8.125 2.25C11.3697 2.25 14 4.88033 14 8.125C14 9.62969 13.4343 11.0023 12.504 12.0417M4.20833 3.74596C3.00641 4.82171 2.25 6.38502 2.25 8.125C2.25 11.3697 4.88033 14 8.125 14C9.86498 14 11.4283 13.2436 12.504 12.0417M4.20833 3.74596L12.504 12.0417" stroke="black"/>
<path fill-rule="evenodd" clip-rule="evenodd" d="M5.5 6.41421V10.5C5.5 11.0523 5.94772 11.5 6.5 11.5H9.5C9.79797 11.5 10.0655 11.3697 10.2487 11.1629L5.5 6.41421ZM10.5 8.58579V5.5C10.5 4.94772 10.0523 4.5 9.5 4.5H6.5C6.47224 4.5 6.44475 4.50113 6.41756 4.50335L10.5 8.58579ZM7.25 10.5C7.25 10.3619 7.36193 10.25 7.5 10.25H8.5C8.63807 10.25 8.75 10.3619 8.75 10.5C8.75 10.6381 8.63807 10.75 8.5 10.75H7.5C7.36193 10.75 7.25 10.6381 7.25 10.5Z" fill="black"/>
</svg>
