<svg width="16" height="16" viewBox="0 0 16 16" fill="none" xmlns="http://www.w3.org/2000/svg">
<path d="M9 2.5H7.3C5.61984 2.5 4.77976 2.5 4.13803 2.82698C3.57354 3.1146 3.1146 3.57354 2.82698 4.13803C2.5 4.77976 2.5 5.61984 2.5 7.3V8.7C2.5 10.3802 2.5 11.2202 2.82698 11.862C3.1146 12.4265 3.57354 12.8854 4.13803 13.173C4.77976 13.5 5.61984 13.5 7.3 13.5H8.7C10.3802 13.5 11.2202 13.5 11.862 13.173C12.4265 12.8854 12.8854 12.4265 13.173 11.862C13.5 11.2202 13.5 10.3802 13.5 8.7V7" stroke="black" stroke-linecap="round" stroke-linejoin="round"/>
<path fill-rule="evenodd" clip-rule="evenodd" d="M5.94404 8.16796L5.31626 10.0513C5.18596 10.4422 5.55783 10.8141 5.94871 10.6838L7.83206 10.056C7.94252 10.0192 8.04289 9.95714 8.12522 9.8748L12.2348 5.76518L10.2348 3.76518L6.12522 7.8748C6.04289 7.95714 5.98086 8.05751 5.94404 8.16796ZM10.7652 3.23485L12.7652 5.23485L13.5 4.5C14.0523 3.94771 14.0523 3.05228 13.5 2.5C12.9477 1.94771 12.0523 1.94771 11.5 2.5L10.7652 3.23485Z" fill="black"/>
</svg>
