<svg width="16" height="16" viewBox="0 0 16 16" fill="none" xmlns="http://www.w3.org/2000/svg">
<path d="M2 9.2V6.8C2 5.11984 2 4.27976 2.32698 3.63803C2.6146 3.07354 3.07354 2.6146 3.63803 2.32698C4.27976 2 5.11984 2 6.8 2H9V4.1C9 4.94008 9 5.36012 9.16349 5.68099C9.3073 5.96323 9.53677 6.1927 9.81901 6.33651C10.1399 6.5 10.5599 6.5 11.4 6.5H14V9.2C14 10.8802 14 11.7202 13.673 12.362C13.3854 12.9265 12.9265 13.3854 12.362 13.673C11.7202 14 10.8802 14 9.2 14H6.8C5.11984 14 4.27976 14 3.63803 13.673C3.07354 13.3854 2.6146 12.9265 2.32698 12.362C2 11.7202 2 10.8802 2 9.2Z" fill="black"/>
<path d="M10 5V2.5L13.5 5.5H10.5C10.2239 5.5 10 5.27614 10 5Z" fill="black"/>
</svg>
