<svg width="16" height="16" viewBox="0 0 16 16" fill="none" xmlns="http://www.w3.org/2000/svg">
<path d="M11.375 6.625C11.5 5.75 12.171 5.375 12.875 5.375C13.579 5.375 14.25 5.875 14.25 6.625C14.25 7.5 13.5 7.75 13 7.875C13.375 7.875 14.375 8.125 14.375 9.125C14.375 9.75 13.875 10.5 12.875 10.5C12.25 10.5 11.5 10.125 11.25 9.25" stroke="black" stroke-linecap="round" stroke-linejoin="round"/>
<path d="M5.9375 6.625C6.0625 5.75 6.73347 5.375 7.4375 5.375C8.14153 5.375 8.8125 5.875 8.8125 6.625C8.8125 7.87501 6.98407 8.8129 5.8125 10.375L8.9375 10.375" stroke="black" stroke-linecap="round" stroke-linejoin="round"/>
<path d="M1.5 6.375C2.375 6.25 2.875 5.4375 2.875 5.4375V10.4375" stroke="black" stroke-linecap="round" stroke-linejoin="round"/>
</svg>
