<svg width="16" height="16" viewBox="0 0 16 16" fill="none" xmlns="http://www.w3.org/2000/svg">
<path d="M4.88751 2.48579C5.26258 2.11072 5.77129 1.9 6.30173 1.9L9.69828 1.9C10.2287 1.9 10.7374 2.11072 11.1125 2.48579L13.5142 4.88751C13.8893 5.26258 14.1 5.77129 14.1 6.30173V9.69828C14.1 10.2287 13.8893 10.7374 13.5142 11.1125L11.1125 13.5142C10.7374 13.8893 10.2287 14.1 9.69828 14.1H6.30173C5.77129 14.1 5.26259 13.8893 4.88751 13.5142L2.48579 11.1125C2.11072 10.7374 1.9 10.2287 1.9 9.69828L1.9 6.30173C1.9 5.77129 2.11072 5.26259 2.48579 4.88751L4.88751 2.48579Z" fill="black"/>
</svg>
