<svg width="16" height="16" viewBox="0 0 16 16" fill="none" xmlns="http://www.w3.org/2000/svg">
<path d="M7 2.5H6.5C5.09987 2.5 4.3998 2.5 3.86502 2.77248C3.39462 3.01217 3.01217 3.39462 2.77248 3.86502C2.5 4.3998 2.5 5.09987 2.5 6.5V9.5C2.5 10.9001 2.5 11.6002 2.77248 12.135C3.01217 12.6054 3.39462 12.9878 3.86502 13.2275C4.3998 13.5 5.09987 13.5 6.5 13.5H9.5C10.9001 13.5 11.6002 13.5 12.135 13.2275C12.6054 12.9878 12.9878 12.6054 13.2275 12.135C13.5 11.6002 13.5 10.9001 13.5 9.5V9M9.5 2.5H13.5M13.5 6.5V2.5M13.5 2.5L6.16667 9.83333" stroke="black" stroke-linecap="round"/>
</svg>
