<svg width="16" height="16" viewBox="0 0 16 16" fill="none" xmlns="http://www.w3.org/2000/svg">
<path fill-rule="evenodd" clip-rule="evenodd" d="M9 1.32734C8.3812 0.970071 7.6188 0.970071 7 1.32734L5.63129 2.11756L11.41 5.45389L13.7058 4.1284C13.5807 4.00099 13.4375 3.88933 13.2787 3.79764L9 1.32734ZM14.2058 4.99442L11.66 6.46425L8.49998 8.28866V14.8771C8.67287 14.8325 8.84117 14.7643 9 14.6726L13.2787 12.2023C13.8975 11.8451 14.2787 11.1848 14.2787 10.4703V5.52969C14.2787 5.34629 14.2536 5.16646 14.2058 4.99442ZM7.49998 14.8771V8.28866L1.79422 4.99443C1.74643 5.16647 1.72131 5.34629 1.72131 5.52969V10.4703C1.72131 11.1848 2.10251 11.8451 2.72131 12.2023L7 14.6726C7.15882 14.7643 7.3271 14.8325 7.49998 14.8771ZM2.29422 4.12841L7.99998 7.42264L10.41 6.03124L4.63129 2.69491L2.72131 3.79764C2.56249 3.88933 2.41931 4.00099 2.29422 4.12841Z" fill="black"/>
</svg>
