<svg width="16" height="16" viewBox="0 0 16 16" fill="none" xmlns="http://www.w3.org/2000/svg">
<path fill-rule="evenodd" clip-rule="evenodd" d="M14.25 8C14.25 11.4518 11.5 14 9.00003 14C7.56584 14 7.44806 13.0127 7.32511 11.9821C7.23374 11.2162 7.13952 10.4263 6.50005 10C5.87573 9.58378 5.11038 9.9622 4.38009 10.3233C3.35581 10.8297 2.40051 11.3021 2.00003 9.5C1.00001 5 4.54825 1.75 8.00003 1.75C11.4518 1.75 14.25 4.54822 14.25 8ZM11.0001 11C11.0001 11.5523 10.5523 12 10.0001 12C9.44777 12 9.00005 11.5523 9.00005 11C9.00005 10.4477 9.44777 10 10.0001 10C10.5523 10 11.0001 10.4477 11.0001 11ZM12 9C12.5523 9 13 8.55228 13 8C13 7.44772 12.5523 7 12 7C11.4478 7 11 7.44772 11 8C11 8.55228 11.4478 9 12 9ZM12 5C12 5.55228 11.5523 6 11 6C10.4478 6 10 5.55228 10 5C10 4.44772 10.4478 4 11 4C11.5523 4 12 4.44772 12 5ZM8.00005 5C8.55234 5 9.00005 4.55228 9.00005 4C9.00005 3.44772 8.55234 3 8.00005 3C7.44777 3 7.00005 3.44772 7.00005 4C7.00005 4.55228 7.44777 5 8.00005 5Z" fill="black"/>
</svg>
