<svg width="16" height="16" viewBox="0 0 16 16" fill="none" xmlns="http://www.w3.org/2000/svg">
<rect x="1.5" y="2.5" width="13" height="11" rx="3" stroke="black"/>
<path d="M3 9.75C3 9.51703 3 9.40054 3.03806 9.30866C3.08881 9.18614 3.18614 9.08881 3.30866 9.03806C3.40054 9 3.51703 9 3.75 9H12.25C12.483 9 12.5995 9 12.6913 9.03806C12.8139 9.08881 12.9112 9.18614 12.9619 9.30866C13 9.40054 13 9.51703 13 9.75C13 10.4489 13 10.7984 12.8858 11.074C12.7336 11.4416 12.4416 11.7336 12.074 11.8858C11.7984 12 11.4489 12 10.75 12H5.25C4.55109 12 4.20163 12 3.92597 11.8858C3.55843 11.7336 3.26642 11.4416 3.11418 11.074C3 10.7984 3 10.4489 3 9.75Z" fill="black"/>
</svg>
