<svg width="16" height="16" viewBox="0 0 16 16" fill="none" xmlns="http://www.w3.org/2000/svg">
<rect x="1.5" y="2.5" width="13" height="11" rx="3" stroke="black"/>
<path d="M3 6.4C3 5.55992 3 5.13988 3.16349 4.81901C3.3073 4.53677 3.53677 4.3073 3.81901 4.16349C4.13988 4 4.55992 4 5.4 4H7.2C7.48003 4 7.62004 4 7.727 4.0545C7.82108 4.10243 7.89757 4.17892 7.9455 4.273C8 4.37996 8 4.51997 8 4.8V11.2C8 11.48 8 11.62 7.9455 11.727C7.89757 11.8211 7.82108 11.8976 7.727 11.9455C7.62004 12 7.48003 12 7.2 12H5.4C4.55992 12 4.13988 12 3.81901 11.8365C3.53677 11.6927 3.3073 11.4632 3.16349 11.181C3 10.8601 3 10.4401 3 9.6V6.4Z" fill="black"/>
</svg>
