<svg width="16" height="16" viewBox="0 0 16 16" fill="none" xmlns="http://www.w3.org/2000/svg">
<rect x="1.5" y="2.5" width="13" height="11" rx="3" stroke="black"/>
<path d="M3 6.4C3 5.55992 3 5.13988 3.16349 4.81901C3.3073 4.53677 3.53677 4.3073 3.81901 4.16349C4.13988 4 4.55992 4 5.4 4H10.6C11.4401 4 11.8601 4 12.181 4.16349C12.4632 4.3073 12.6927 4.53677 12.8365 4.81901C13 5.13988 13 5.55992 13 6.4V7.2C13 7.48003 13 7.62004 12.9455 7.727C12.8976 7.82108 12.8211 7.89757 12.727 7.9455C12.62 8 12.48 8 12.2 8H3.8C3.51997 8 3.37996 8 3.273 7.9455C3.17892 7.89757 3.10243 7.82108 3.0545 7.727C3 7.62004 3 7.48003 3 7.2V6.4Z" fill="black"/>
</svg>
