<svg width="16" height="16" viewBox="0 0 16 16" fill="none" xmlns="http://www.w3.org/2000/svg">
<rect x="1.5" y="2.5" width="13" height="11" rx="3" stroke="black"/>
<path d="M3 8.8C3 8.51997 3 8.37996 3.0545 8.273C3.10243 8.17892 3.17892 8.10243 3.273 8.0545C3.37996 8 3.51997 8 3.8 8H12.2C12.48 8 12.62 8 12.727 8.0545C12.8211 8.10243 12.8976 8.17892 12.9455 8.273C13 8.37996 13 8.51997 13 8.8V9.6C13 10.4401 13 10.8601 12.8365 11.181C12.6927 11.4632 12.4632 11.6927 12.181 11.8365C11.8601 12 11.4401 12 10.6 12H5.4C4.55992 12 4.13988 12 3.81901 11.8365C3.53677 11.6927 3.3073 11.4632 3.16349 11.181C3 10.8601 3 10.4401 3 9.6V8.8Z" fill="black"/>
</svg>
