<svg width="16" height="16" viewBox="0 0 16 16" fill="none" xmlns="http://www.w3.org/2000/svg">
<rect x="1.5" y="2.5" width="13" height="11" rx="3" stroke="black"/>
<path d="M8 4.8C8 4.51997 8 4.37996 8.0545 4.273C8.10243 4.17892 8.17892 4.10243 8.273 4.0545C8.37996 4 8.51997 4 8.8 4H10.6C11.4401 4 11.8601 4 12.181 4.16349C12.4632 4.3073 12.6927 4.53677 12.8365 4.81901C13 5.13988 13 5.55992 13 6.4V9.6C13 10.4401 13 10.8601 12.8365 11.181C12.6927 11.4632 12.4632 11.6927 12.181 11.8365C11.8601 12 11.4401 12 10.6 12H8.8C8.51997 12 8.37996 12 8.273 11.9455C8.17892 11.8976 8.10243 11.8211 8.0545 11.727C8 11.62 8 11.48 8 11.2V4.8Z" fill="black"/>
</svg>
