<svg width="16" height="16" viewBox="0 0 16 16" fill="none" xmlns="http://www.w3.org/2000/svg">
<rect x="1.5" y="2.5" width="13" height="11" rx="3" stroke="black"/>
<path d="M10 4.75C10 4.51703 10 4.40054 10.0381 4.30866C10.0888 4.18614 10.1861 4.08881 10.3087 4.03806C10.4005 4 10.517 4 10.75 4C11.4489 4 11.7984 4 12.074 4.11418C12.4416 4.26642 12.7336 4.55843 12.8858 4.92597C13 5.20163 13 5.55109 13 6.25V9.75C13 10.4489 13 10.7984 12.8858 11.074C12.7336 11.4416 12.4416 11.7336 12.074 11.8858C11.7984 12 11.4489 12 10.75 12C10.517 12 10.4005 12 10.3087 11.9619C10.1861 11.9112 10.0888 11.8139 10.0381 11.6913C10 11.5995 10 11.483 10 11.25V4.75Z" fill="black"/>
</svg>
