<svg width="16" height="16" viewBox="0 0 16 16" fill="none" xmlns="http://www.w3.org/2000/svg">
<rect x="1.5" y="2.5" width="13" height="11" rx="3" stroke="black"/>
<path d="M3 6.25C3 5.55109 3 5.20163 3.11418 4.92597C3.26642 4.55843 3.55843 4.26642 3.92597 4.11418C4.20163 4 4.55109 4 5.25 4H10.75C11.4489 4 11.7984 4 12.074 4.11418C12.4416 4.26642 12.7336 4.55843 12.8858 4.92597C13 5.20163 13 5.55109 13 6.25C13 6.48297 13 6.59946 12.9619 6.69134C12.9112 6.81386 12.8139 6.91119 12.6913 6.96194C12.5995 7 12.483 7 12.25 7H3.75C3.51703 7 3.40054 7 3.30866 6.96194C3.18614 6.91119 3.08881 6.81386 3.03806 6.69134C3 6.59946 3 6.48297 3 6.25Z" fill="black"/>
</svg>
