<svg width="16" height="16" viewBox="0 0 16 16" fill="none" xmlns="http://www.w3.org/2000/svg">
<rect x="1.5" y="2.5" width="13" height="11" rx="3" stroke="black"/>
<path d="M3 6.25C3 5.55109 3 5.20163 3.11418 4.92597C3.26642 4.55843 3.55843 4.26642 3.92597 4.11418C4.20163 4 4.55109 4 5.25 4C5.48297 4 5.59946 4 5.69134 4.03806C5.81386 4.08881 5.91119 4.18614 5.96194 4.30866C6 4.40054 6 4.51703 6 4.75V11.25C6 11.483 6 11.5995 5.96194 11.6913C5.91119 11.8139 5.81386 11.9112 5.69134 11.9619C5.59946 12 5.48297 12 5.25 12C4.55109 12 4.20163 12 3.92597 11.8858C3.55843 11.7336 3.26642 11.4416 3.11418 11.074C3 10.7984 3 10.4489 3 9.75V6.25Z" fill="black"/>
</svg>
