<svg width="16" height="16" viewBox="0 0 16 16" fill="none" xmlns="http://www.w3.org/2000/svg">
<path fill-rule="evenodd" clip-rule="evenodd" d="M14.2678 12.0533C13.6134 12.7076 12.6867 12.9234 11.8526 12.7007L11.5339 13.0194C11.4748 13.0785 11.3901 13.1041 11.3081 13.0877L10.7025 12.9666C10.6326 12.9526 10.5709 13.0143 10.5849 13.0843L10.706 13.6899C10.7224 13.7718 10.6967 13.8566 10.6376 13.9157L10.4733 14.08C10.4142 14.1391 10.3294 14.1648 10.2475 14.1484L9.64188 14.0273C9.57191 14.0133 9.51022 14.075 9.52421 14.1449L9.64533 14.7505C9.66173 14.8325 9.63607 14.9172 9.57697 14.9763L9.57471 14.9786C9.52391 15.0294 9.45371 15.0559 9.38201 15.0513L8.05265 14.9665C7.92712 14.9584 7.82709 14.8584 7.81908 14.7329L7.73423 13.4035C7.72965 13.3318 7.75614 13.2616 7.80694 13.2108L10.0848 10.9329C9.86211 10.0989 10.0779 9.17209 10.7322 8.51777C11.7085 7.54146 13.2915 7.54146 14.2678 8.51777C15.2441 9.49408 15.2441 11.077 14.2678 12.0533ZM12.5 10.2855C12.7929 10.5784 13.2678 10.5784 13.5607 10.2855C13.8536 9.99264 13.8536 9.51777 13.5607 9.22487C13.2678 8.93198 12.7929 8.93198 12.5 9.22487C12.2071 9.51777 12.2071 9.99264 12.5 10.2855Z" fill="black"/>
<path fill-rule="evenodd" clip-rule="evenodd" d="M2.32698 3.63803C2 4.27976 2 5.11984 2 6.8V9.2C2 10.8802 2 11.7202 2.32698 12.362C2.6146 12.9265 3.07354 13.3854 3.63803 13.673C4.27597 13.9981 5.10991 14 6.77027 14L6.73626 13.4672L6.73626 13.4672C6.71338 13.1087 6.84583 12.7577 7.09984 12.5037L9.01332 10.5902C8.92711 9.59734 9.26345 8.57233 10.0251 7.81066C11.1002 6.73559 12.7006 6.50611 14 7.1222V6.8C14 5.11984 14 4.27976 13.673 3.63803C13.3854 3.07354 12.9265 2.6146 12.362 2.32698C11.7202 2 10.8802 2 9.2 2H6.8C5.11984 2 4.27976 2 3.63803 2.32698C3.07354 2.6146 2.6146 3.07354 2.32698 3.63803ZM10.7322 8.51777C11.5439 7.70608 12.7749 7.56922 13.728 8.10717C12.9899 8.01614 12.219 8.25392 11.6525 8.8205C10.6761 9.79681 10.6761 11.3797 11.6525 12.356C11.8171 12.5207 11.999 12.6575 12.1923 12.7666C12.078 12.7525 11.9645 12.7306 11.8526 12.7007L11.5821 12.9712L11.5786 12.9747L11.5339 13.0194C11.4748 13.0785 11.3901 13.1041 11.3081 13.0877L10.9379 13.0137L10.7025 12.9666C10.6326 12.9526 10.5709 13.0143 10.5849 13.0843L10.6319 13.3196L10.706 13.6899C10.7224 13.7718 10.6967 13.8566 10.6376 13.9157L10.593 13.9603L10.5895 13.9638L10.5637 13.9896C10.1798 14 9.73199 14 9.2 14H7.7723L7.73423 13.4035C7.72965 13.3318 7.75614 13.2616 7.80694 13.2108L10.0848 10.9329C9.86211 10.0989 10.0779 9.17209 10.7322 8.51777ZM5 5C4.72386 5 4.5 5.22386 4.5 5.5C4.5 5.77614 4.72386 6 5 6H11C11.2761 6 11.5 5.77614 11.5 5.5C11.5 5.22386 11.2761 5 11 5H5ZM5 7.5C4.72386 7.5 4.5 7.72386 4.5 8C4.5 8.27614 4.72386 8.5 5 8.5H8C8.27614 8.5 8.5 8.27614 8.5 8C8.5 7.72386 8.27614 7.5 8 7.5H5Z" fill="black"/>
</svg>
