<svg width="16" height="16" viewBox="0 0 16 16" fill="none" xmlns="http://www.w3.org/2000/svg">
<path fill-rule="evenodd" clip-rule="evenodd" d="M15 7.5C15 8.42535 14.4973 9.23328 13.75 9.66554V10.1162C13.75 10.1998 13.7082 10.2779 13.6387 10.3242L13.1248 10.6668C13.0654 10.7064 13.0654 10.7936 13.1248 10.8332L13.6387 11.1758C13.7082 11.2221 13.75 11.3002 13.75 11.3838V11.6162C13.75 11.6998 13.7082 11.7779 13.6387 11.8242L13.1248 12.1668C13.0654 12.2064 13.0654 12.2936 13.1248 12.3332L13.6387 12.6758C13.7082 12.7221 13.75 12.8002 13.75 12.8838V12.887C13.75 12.9588 13.7191 13.0272 13.6652 13.0747L12.6652 13.9547C12.5707 14.0378 12.4293 14.0378 12.3348 13.9547L11.3348 13.0747C11.2809 13.0272 11.25 12.9588 11.25 12.887V9.66554C10.5027 9.23328 10 8.42535 10 7.5C10 6.11929 11.1193 5 12.5 5C13.8807 5 15 6.11929 15 7.5ZM12.5 7.5C12.9142 7.5 13.25 7.16421 13.25 6.75C13.25 6.33579 12.9142 6 12.5 6C12.0858 6 11.75 6.33579 11.75 6.75C11.75 7.16421 12.0858 7.5 12.5 7.5Z" fill="black"/>
<path fill-rule="evenodd" clip-rule="evenodd" d="M9.25 4.75C9.25 6.40685 7.90685 7.75 6.25 7.75C4.59315 7.75 3.25 6.40685 3.25 4.75C3.25 3.09315 4.59315 1.75 6.25 1.75C7.90685 1.75 9.25 3.09315 9.25 4.75ZM11.4216 13.151C11.4723 13.0125 11.5 12.8628 11.5 12.7067C11.5 12.4031 11.4708 12.0986 11.3591 11.8162C11.3288 11.7395 11.2926 11.6548 11.25 11.5639V12.887C11.25 12.9588 11.2809 13.0272 11.3348 13.0747L11.4216 13.151ZM10.7415 13.8846L10.6742 13.8254C10.4045 13.5881 10.25 13.2462 10.25 12.887V10.1696C9.46532 9.41756 8.21528 8.75 6.25 8.75C2.74013 8.75 1.51159 10.8792 1.14088 11.8162C1.02919 12.0986 1 12.4031 1 12.7067C1 13.421 1.57903 14 2.29329 14H10.2067C10.3974 14 10.5785 13.9587 10.7415 13.8846Z" fill="black"/>
</svg>
