<svg width="16" height="16" viewBox="0 0 16 16" fill="none" xmlns="http://www.w3.org/2000/svg">
<path d="M14 11.6V4.4C14 3.55992 14 3.13988 13.8365 2.81901C13.6927 2.53677 13.4632 2.3073 13.181 2.16349C12.8601 2 12.4401 2 11.6 2H11.4C10.5599 2 10.1399 2 9.81901 2.16349C9.53677 2.3073 9.3073 2.53677 9.16349 2.81901C9 3.13988 9 3.55992 9 4.4V11.6C9 12.4401 9 12.8601 9.16349 13.181C9.3073 13.4632 9.53677 13.6927 9.81901 13.8365C10.1399 14 10.5599 14 11.4 14H11.6C12.4401 14 12.8601 14 13.181 13.8365C13.4632 13.6927 13.6927 13.4632 13.8365 13.181C14 12.8601 14 12.4401 14 11.6Z" fill="black"/>
<path d="M2 4.4V11.6C2 12.4401 2 12.8601 2.16349 13.181C2.3073 13.4632 2.53677 13.6927 2.81901 13.8365C3.13988 14 3.55992 14 4.4 14H4.6C5.44008 14 5.86012 14 6.18099 13.8365C6.46323 13.6927 6.6927 13.4632 6.83651 13.181C7 12.8601 7 12.4401 7 11.6V4.4C7 3.55992 7 3.13988 6.83651 2.81901C6.6927 2.53677 6.46323 2.3073 6.18099 2.16349C5.86012 2 5.44008 2 4.6 2H4.4C3.55992 2 3.13988 2 2.81901 2.16349C2.53677 2.3073 2.3073 2.53677 2.16349 2.81901C2 3.13988 2 3.55992 2 4.4Z" fill="black"/>
</svg>
