<svg width="16" height="16" viewBox="0 0 16 16" fill="none" xmlns="http://www.w3.org/2000/svg">
<path fill-rule="evenodd" clip-rule="evenodd" d="M11 1.25033C11.9701 1.49286 12 2.7503 11 3.2503C10.1314 3.68462 9.26274 4.11893 8.39416 5.30649C8.46706 5.70376 8.5 6.10184 8.5 6.50037H7.5C7.5 5.13448 7.05375 3.76122 5.64645 2.35392C5.45118 2.15866 5.45118 1.84207 5.64645 1.64681C5.84171 1.45155 6.15829 1.45155 6.35355 1.64681C7.22156 2.51482 7.78098 3.39294 8.11036 4.27685C8.54621 1.37764 10.1653 1.04167 11 1.25033Z" fill="black"/>
<path fill-rule="evenodd" clip-rule="evenodd" d="M10.5933 7.2044C10.5335 7.15352 10.5 7.07845 10.5 7C10.5 5.61929 9.38071 4.5 8 4.5C6.61929 4.5 5.5 5.61929 5.5 7C5.5 7.07845 5.46645 7.15352 5.40675 7.2044C4.54592 7.93808 4 9.03029 4 10.25C4 12.4591 5.79086 14.25 8 14.25C10.2091 14.25 12 12.4591 12 10.25C12 9.03029 11.4541 7.93808 10.5933 7.2044Z" fill="black"/>
</svg>
