<svg width="16" height="16" viewBox="0 0 16 16" fill="none" xmlns="http://www.w3.org/2000/svg">
<path fill-rule="evenodd" clip-rule="evenodd" d="M6 8C7.38071 8 8.5 6.88071 8.5 5.5C8.5 4.11929 7.38071 3 6 3C4.61929 3 3.5 4.11929 3.5 5.5C3.5 6.88071 4.61929 8 6 8ZM10.5 12.8352C10.5 13.6166 9.86656 14.25 9.08516 14.25H2.91484C2.13344 14.25 1.5 13.6166 1.5 12.8352C1.5 12.612 1.51419 12.3885 1.5735 12.1734C1.81315 11.3042 2.7545 9 6 9C9.2455 9 10.1868 11.3042 10.4265 12.1734C10.4858 12.3885 10.5 12.612 10.5 12.8352Z" fill="black"/>
<path fill-rule="evenodd" clip-rule="evenodd" d="M12.75 4C12.75 5.38071 11.6307 6.5 10.25 6.5C9.95006 6.5 9.66246 6.44718 9.39599 6.35033C9.46393 6.07811 9.5 5.79327 9.5 5.5C9.5 4.35934 8.95434 3.34613 8.10982 2.70715C8.54785 1.98359 9.34245 1.5 10.25 1.5C11.6307 1.5 12.75 2.61929 12.75 4ZM7.76452 3.72899C8.21884 4.18166 8.5 4.80799 8.5 5.5C8.5 5.59157 8.49508 5.68199 8.48548 5.77101C8.03116 5.31834 7.75 4.69201 7.75 4C7.75 3.90843 7.75492 3.81801 7.76452 3.72899ZM10.4992 12.75H7.16484C6.38344 12.75 5.75 12.1166 5.75 11.3352C5.75 11.112 5.76419 10.8885 5.8235 10.6734C5.92763 10.2957 6.16424 9.64711 6.66478 9.03433C9.37721 9.32385 10.2041 11.3666 10.4265 12.1734C10.4783 12.3612 10.4957 12.5553 10.4992 12.75ZM11.4994 12.75C11.4959 12.5066 11.4747 12.213 11.3905 11.9076C11.2458 11.3825 10.8881 10.4112 10.0547 9.56082C9.55354 9.04945 8.90166 8.60425 8.07124 8.32163C8.31437 8.14286 8.53356 7.93341 8.72309 7.699C9.16471 7.57342 9.67064 7.5 10.25 7.5C13.4955 7.5 14.4368 9.80416 14.6765 10.6734C14.7358 10.8885 14.75 11.112 14.75 11.3352C14.75 12.1166 14.1166 12.75 13.3352 12.75H11.4994Z" fill="black"/>
</svg>
