<svg width="16" height="16" viewBox="0 0 16 16" fill="none" xmlns="http://www.w3.org/2000/svg">
<path fill-rule="evenodd" clip-rule="evenodd" d="M8 13.25C10.8995 13.25 13.25 10.8995 13.25 8C13.25 5.10051 10.8995 2.75 8 2.75C5.10051 2.75 2.75 5.10051 2.75 8C2.75 10.8995 5.10051 13.25 8 13.25ZM8 14.25C11.4518 14.25 14.25 11.4518 14.25 8C14.25 4.54822 11.4518 1.75 8 1.75C4.54822 1.75 1.75 4.54822 1.75 8C1.75 11.4518 4.54822 14.25 8 14.25Z" fill="black"/>
<path fill-rule="evenodd" clip-rule="evenodd" d="M14.25 8C14.25 9.94082 13.3654 11.675 11.9773 12.8214C11.7634 10.8138 10.0643 9.25 8 9.25C5.93566 9.25 4.23656 10.8138 4.0227 12.8214C2.63464 11.675 1.75 9.94082 1.75 8C1.75 4.54822 4.54822 1.75 8 1.75C11.4518 1.75 14.25 4.54822 14.25 8ZM8 8.25C9.10457 8.25 10 7.35457 10 6.25C10 5.14543 9.10457 4.25 8 4.25C6.89543 4.25 6 5.14543 6 6.25C6 7.35457 6.89543 8.25 8 8.25Z" fill="black"/>
</svg>
