<svg width="16" height="16" viewBox="0 0 16 16" fill="none" xmlns="http://www.w3.org/2000/svg">
<path fill-rule="evenodd" clip-rule="evenodd" d="M4.02271 12.8214C4.23657 10.8138 5.93567 9.25 8.00001 9.25C10.0643 9.25 11.7634 10.8138 11.9773 12.8214C10.8967 13.7138 9.51097 14.25 8.00001 14.25C6.48905 14.25 5.10332 13.7138 4.02271 12.8214ZM10 6.25C10 7.35457 9.10458 8.25 8.00001 8.25C6.89544 8.25 6.00001 7.35457 6.00001 6.25C6.00001 5.14543 6.89544 4.25 8.00001 4.25C9.10458 4.25 10 5.14543 10 6.25Z" fill="black"/>
<path fill-rule="evenodd" clip-rule="evenodd" d="M8 13.75C11.1756 13.75 13.75 11.1756 13.75 8C13.75 4.82436 11.1756 2.25 8 2.25C4.82436 2.25 2.25 4.82436 2.25 8C2.25 11.1756 4.82436 13.75 8 13.75Z" stroke="black" stroke-linecap="round" stroke-dasharray="1 2"/>
</svg>
