<svg width="16" height="16" viewBox="0 0 16 16" fill="none" xmlns="http://www.w3.org/2000/svg">
<g clip-path="url(#clip0_6424_1069)">
<path fill-rule="evenodd" clip-rule="evenodd" d="M5.90985 2.55699C6.78527 0.857789 9.21474 0.857789 10.0902 2.55699C10.1428 2.65909 10.2614 2.70825 10.3708 2.67324C12.1914 2.09075 13.9093 3.80864 13.3268 5.62917C13.2918 5.73857 13.3409 5.85724 13.443 5.90984C15.1422 6.78527 15.1422 9.21473 13.443 10.0902C13.3409 10.1428 13.2918 10.2614 13.3268 10.3708C13.7248 11.6147 13.0488 12.8107 12 13.2577L12 13.25C12 11.0409 10.2091 9.25 8 9.25C5.79086 9.25 4 11.0409 4 13.25L4.00002 13.2577C2.95119 12.8107 2.27525 11.6147 2.67325 10.3708C2.70825 10.2614 2.65909 10.1428 2.55699 10.0902C0.857793 9.21473 0.857793 6.78527 2.55699 5.90984C2.65909 5.85724 2.70825 5.73857 2.67325 5.62917C2.09075 3.80864 3.80864 2.09075 5.62918 2.67324C5.73857 2.70825 5.85724 2.65909 5.90985 2.55699ZM8 8.25C9.10457 8.25 10 7.35457 10 6.25C10 5.14543 9.10457 4.25 8 4.25C6.89543 4.25 6 5.14543 6 6.25C6 7.35457 6.89543 8.25 8 8.25Z" fill="black"/>
<path d="M6.35432 2.78598C7.04358 1.44812 8.95642 1.44812 9.64568 2.78598C9.81014 3.10521 10.1812 3.25889 10.5232 3.14946C11.9566 2.69084 13.3092 4.04341 12.8505 5.4768C12.7411 5.81883 12.8948 6.18985 13.214 6.35432C14.5519 7.04358 14.5519 8.95642 13.214 9.64568C12.8948 9.81014 12.7411 10.1812 12.8505 10.5232C13.3092 11.9566 11.9566 13.3092 10.5232 12.8505C10.1812 12.7411 9.81015 12.8948 9.64568 13.214L10.0902 13.443L9.64568 13.214C8.95642 14.5519 7.04358 14.5519 6.35432 13.214C6.18985 12.8948 5.81883 12.7411 5.47681 12.8505C4.04341 13.3092 2.69084 11.9566 3.14946 10.5232C3.25889 10.1812 3.10521 9.81015 2.78599 9.64568L2.55699 10.0902L2.78598 9.64568C1.44813 8.95642 1.44812 7.04358 2.78598 6.35432C3.10521 6.18985 3.25889 5.81883 3.14946 5.4768C2.69084 4.04341 4.04341 2.69084 5.4768 3.14946C5.81883 3.25889 6.18985 3.10521 6.35432 2.78598Z" stroke="black"/>
</g>
<defs>
<clipPath id="clip0_6424_1069">
<rect width="16" height="16" fill="white"/>
</clipPath>
</defs>
</svg>
