<svg width="16" height="16" viewBox="0 0 16 16" fill="none" xmlns="http://www.w3.org/2000/svg">
<path fill-rule="evenodd" clip-rule="evenodd" d="M8 7.75C9.65685 7.75 11 6.40685 11 4.75C11 3.09315 9.65685 1.75 8 1.75C6.34315 1.75 5 3.09315 5 4.75C5 6.40685 6.34315 7.75 8 7.75ZM13.25 12.7067C13.25 13.421 12.671 14 11.9567 14H4.04329C3.32903 14 2.75 13.421 2.75 12.7067C2.75 12.4031 2.77919 12.0986 2.89088 11.8162C3.26159 10.8792 4.49013 8.75 8 8.75C11.5099 8.75 12.7384 10.8792 13.1091 11.8162C13.2208 12.0986 13.25 12.4031 13.25 12.7067Z" fill="black"/>
</svg>
