<svg width="16" height="16" viewBox="0 0 16 16" fill="none" xmlns="http://www.w3.org/2000/svg">
<path fill-rule="evenodd" clip-rule="evenodd" d="M2.31612 10.0492L1.71341 4.47418C1.59529 3.38158 2.38086 2.39836 3.47258 2.27239L7.65612 1.78968C7.88461 1.76331 8.11537 1.76331 8.34386 1.78968L12.5274 2.27239C13.6191 2.39836 14.4047 3.38158 14.2866 4.47418L13.6839 10.0492C13.5699 11.1034 12.9079 12.0191 11.9426 12.4579L11.9233 12.4667C11.5592 10.6326 9.94104 9.25 7.99999 9.25C6.05894 9.25 4.4408 10.6326 4.07666 12.4667L4.05733 12.4579C3.09206 12.0191 2.43009 11.1034 2.31612 10.0492ZM7.99999 8.25C9.10456 8.25 9.99999 7.35457 9.99999 6.25C9.99999 5.14543 9.10456 4.25 7.99999 4.25C6.89542 4.25 5.99999 5.14543 5.99999 6.25C5.99999 7.35457 6.89542 8.25 7.99999 8.25Z" fill="black"/>
<path d="M2.81324 9.99549L2.21053 4.42043C2.12194 3.60099 2.71112 2.86357 3.5299 2.7691L7.71344 2.28638C7.90385 2.26441 8.09615 2.26441 8.28656 2.28638L12.4701 2.7691C13.2889 2.86357 13.8781 3.60099 13.7895 4.42043L13.1868 9.99549C13.0918 10.874 12.5401 11.6371 11.7358 12.0027L8.82761 13.3246C8.30176 13.5636 7.69824 13.5636 7.17239 13.3246L4.26425 12.0027C3.45985 11.6371 2.90821 10.874 2.81324 9.99549Z" stroke="black"/>
</svg>
