<svg width="16" height="16" viewBox="0 0 16 16" fill="none" xmlns="http://www.w3.org/2000/svg">
<path fill-rule="evenodd" clip-rule="evenodd" d="M15.5 8C15.5 10.4853 12.1421 12.5 8 12.5C3.85786 12.5 0.5 10.4853 0.5 8C0.5 5.51472 3.85786 3.5 8 3.5C12.1421 3.5 15.5 5.51472 15.5 8ZM3.63082 6.7256L3.07989 10.0056C3.03809 10.2544 3.22994 10.4812 3.48228 10.4812C3.68187 10.4812 3.85217 10.3368 3.88482 10.1399L4.08954 8.90534C4.09089 8.89725 4.09788 8.89132 4.10608 8.89132C4.11346 8.89132 4.11995 8.89615 4.12222 8.90317C4.14734 8.98089 4.18694 9.0586 4.241 9.13632C4.29782 9.21622 4.37771 9.28279 4.48068 9.33606C4.58365 9.38932 4.71503 9.41595 4.87482 9.41595C5.10207 9.41595 5.31601 9.35736 5.51663 9.24019C5.71902 9.12301 5.89212 8.9508 6.03593 8.72354C6.18151 8.49452 6.28182 8.21489 6.33686 7.88467C6.39367 7.54379 6.38568 7.25973 6.31289 7.03248C6.2401 6.80523 6.12204 6.63568 5.9587 6.52383C5.79714 6.4102 5.60717 6.35339 5.3888 6.35339C5.22369 6.35339 5.07988 6.38179 4.95738 6.43861C4.83487 6.49364 4.7319 6.56289 4.64846 6.64633C4.56996 6.72653 4.50623 6.80591 4.45725 6.88448C4.45358 6.89037 4.44715 6.894 4.4402 6.894C4.42792 6.894 4.41857 6.88299 4.42056 6.87087L4.45805 6.64233C4.47967 6.51047 4.37792 6.39067 4.2443 6.39067H4.0267C3.83066 6.39067 3.6633 6.53227 3.63082 6.7256ZM7.39681 9.02697L7.62314 7.64765C7.64622 7.51982 7.68971 7.41064 7.75363 7.32009C7.81754 7.22955 7.89655 7.16031 7.99064 7.11237C8.08474 7.06266 8.18771 7.0378 8.29956 7.0378C8.46645 7.03958 8.58807 7.09195 8.66441 7.19493C8.74075 7.29612 8.76383 7.43816 8.73365 7.62102L8.52216 8.89384C8.48091 9.1421 8.67238 9.36801 8.92405 9.36801C9.1231 9.36801 9.293 9.22418 9.32586 9.02786L9.58584 7.47455C9.6249 7.2402 9.61513 7.03958 9.55654 6.87269C9.49796 6.70581 9.39853 6.57798 9.25828 6.48921C9.1198 6.39866 8.94758 6.35339 8.74164 6.35339C8.51439 6.35339 8.31732 6.40399 8.15043 6.50519C7.98878 6.60252 7.86116 6.7373 7.76758 6.90951C7.76388 6.91633 7.75677 6.92063 7.74901 6.92063C7.73608 6.92063 7.72624 6.90903 7.72834 6.89628L7.89895 5.85993C7.93861 5.619 7.75272 5.4 7.50854 5.4C7.315 5.4 7.14986 5.54002 7.11821 5.73095L6.59378 8.89452C6.55268 9.14246 6.74392 9.36801 6.99524 9.36801C7.19455 9.36801 7.36454 9.22365 7.39681 9.02697ZM10.2566 6.7256L9.70567 10.0056C9.66387 10.2544 9.85572 10.4812 10.1081 10.4812C10.3077 10.4812 10.4779 10.3368 10.5106 10.1399L10.7153 8.90534C10.7167 8.89725 10.7237 8.89132 10.7319 8.89132C10.7392 8.89132 10.7457 8.89615 10.748 8.90317C10.7731 8.98089 10.8127 9.0586 10.8668 9.13632C10.9236 9.21622 11.0035 9.28279 11.1065 9.33606C11.2094 9.38932 11.3408 9.41595 11.5006 9.41595C11.7279 9.41595 11.9418 9.35736 12.1424 9.24019C12.3448 9.12301 12.5179 8.9508 12.6617 8.72354C12.8073 8.49452 12.9076 8.21489 12.9626 7.88467C13.0195 7.54379 13.0115 7.25973 12.9387 7.03248C12.8659 6.80523 12.7478 6.63568 12.5845 6.52383C12.4229 6.4102 12.233 6.35339 12.0146 6.35339C11.8495 6.35339 11.7057 6.38179 11.5832 6.43861C11.4607 6.49364 11.3577 6.56289 11.2742 6.64633C11.1957 6.72653 11.132 6.80591 11.083 6.88448C11.0794 6.89037 11.0729 6.894 11.066 6.894C11.0537 6.894 11.0444 6.88299 11.0463 6.87087L11.0838 6.64233C11.1055 6.51047 11.0037 6.39067 10.8701 6.39067H10.6525C10.4564 6.39067 10.2891 6.53227 10.2566 6.7256Z" fill="black"/>
<path d="M11.3515 8.76083C11.4864 8.75905 11.6054 8.72177 11.7083 8.64898C11.8131 8.57441 11.9001 8.47144 11.9693 8.34006C12.0403 8.2069 12.0909 8.05422 12.1211 7.88201C12.1477 7.70979 12.1477 7.55888 12.1211 7.42928C12.0962 7.2979 12.0439 7.19493 11.964 7.12036C11.8841 7.04579 11.7758 7.00851 11.6391 7.00851C11.5059 7.00851 11.3861 7.04491 11.2796 7.1177C11.1748 7.18871 11.0869 7.28991 11.0159 7.42129C10.9467 7.55089 10.8979 7.70447 10.8695 7.88201C10.841 8.05777 10.8402 8.21134 10.8668 8.34272C10.8952 8.4741 10.9493 8.57619 11.0292 8.64898C11.1109 8.72177 11.2183 8.75905 11.3515 8.76083Z" fill="black"/>
<path d="M4.72569 8.76083C4.86062 8.75905 4.97957 8.72177 5.08254 8.64898C5.18729 8.57441 5.27428 8.47144 5.34352 8.34006C5.41454 8.2069 5.46514 8.05422 5.49532 7.88201C5.52195 7.70979 5.52195 7.55888 5.49532 7.42928C5.47047 7.2979 5.41809 7.19493 5.3382 7.12036C5.25831 7.04579 5.15001 7.00851 5.0133 7.00851C4.88015 7.00851 4.76031 7.04491 4.65378 7.1177C4.54903 7.18871 4.46115 7.28991 4.39014 7.42129C4.3209 7.55089 4.27207 7.70447 4.24367 7.88201C4.21526 8.05777 4.21437 8.21134 4.241 8.34272C4.26941 8.4741 4.32356 8.57619 4.40345 8.64898C4.48512 8.72177 4.59253 8.75905 4.72569 8.76083Z" fill="black"/>
</svg>
