<svg width="16" height="16" viewBox="0 0 16 16" fill="none" xmlns="http://www.w3.org/2000/svg">
<path fill-rule="evenodd" clip-rule="evenodd" d="M8 12.5C12.1421 12.5 15.5 10.4853 15.5 8C15.5 5.51472 12.1421 3.5 8 3.5C3.85786 3.5 0.5 5.51472 0.5 8C0.5 10.4853 3.85786 12.5 8 12.5ZM7.74997 5.5C7.74997 5.22386 7.52611 5 7.24997 5C6.97383 5 6.74997 5.22386 6.74997 5.5V7V9C6.74997 9.27614 6.97383 9.5 7.24997 9.5C7.52611 9.5 7.74997 9.27614 7.74997 9V7.5H8.24997C8.52611 7.5 8.74997 7.72386 8.74997 8V9C8.74997 9.27614 8.97383 9.5 9.24997 9.5C9.52611 9.5 9.74997 9.27614 9.74997 9V8C9.74997 7.17157 9.0784 6.5 8.24997 6.5H7.74997V5.5ZM3.74997 6.5C3.47383 6.5 3.24997 6.72386 3.24997 7V9V10C3.24997 10.2761 3.47383 10.5 3.74997 10.5C4.02611 10.5 4.24997 10.2761 4.24997 10V9.5H4.74997C5.57839 9.5 6.24997 8.82843 6.24997 8C6.24997 7.17157 5.57839 6.5 4.74997 6.5H3.74997ZM4.74997 8.5H4.24997V7.5H4.74997C5.02611 7.5 5.24997 7.72386 5.24997 8C5.24997 8.27614 5.02611 8.5 4.74997 8.5ZM10.75 6.5C10.4738 6.5 10.25 6.72386 10.25 7V9V10C10.25 10.2761 10.4738 10.5 10.75 10.5C11.0261 10.5 11.25 10.2761 11.25 10V9.5H11.75C12.5784 9.5 13.25 8.82843 13.25 8C13.25 7.17157 12.5784 6.5 11.75 6.5H10.75ZM11.75 8.5H11.25V7.5H11.75C12.0261 7.5 12.25 7.72386 12.25 8C12.25 8.27614 12.0261 8.5 11.75 8.5Z" fill="black"/>
</svg>
