<svg width="16" height="16" viewBox="0 0 16 16" fill="none" xmlns="http://www.w3.org/2000/svg">
<path fill-rule="evenodd" clip-rule="evenodd" d="M2.32698 3.63803C2 4.27976 2 5.11984 2 6.8V9.2C2 10.8802 2 11.7202 2.32698 12.362C2.6146 12.9265 3.07354 13.3854 3.63803 13.673C4.27976 14 5.11984 14 6.8 14H9.2C10.8802 14 11.7202 14 12.362 13.673C12.9265 13.3854 13.3854 12.9265 13.673 12.362C14 11.7202 14 10.8802 14 9.2V6.8C14 5.11984 14 4.27976 13.673 3.63803C13.3854 3.07354 12.9265 2.6146 12.362 2.32698C11.7202 2 10.8802 2 9.2 2H6.8C5.11984 2 4.27976 2 3.63803 2.32698C3.07354 2.6146 2.6146 3.07354 2.32698 3.63803ZM3 5V13H4.95C5.23003 13 5.37004 13 5.477 12.9455C5.57108 12.8976 5.64757 12.8211 5.6955 12.727C5.75 12.62 5.75 12.48 5.75 12.2V9H6.75V12.2C6.75 12.48 6.75 12.62 6.8045 12.727C6.85243 12.8211 6.92892 12.8976 7.023 12.9455C7.12996 13 7.26997 13 7.55 13H8.45C8.73003 13 8.87004 13 8.977 12.9455C9.07108 12.8976 9.14757 12.8211 9.1955 12.727C9.25 12.62 9.25 12.48 9.25 12.2V9H10.25V12.2C10.25 12.48 10.25 12.62 10.3045 12.727C10.3524 12.8211 10.4289 12.8976 10.523 12.9455C10.63 13 10.77 13 11.05 13H13V5H3Z" fill="black"/>
<rect x="2.5" y="2.5" width="11" height="11" rx="2.5" stroke="black"/>
<path d="M6.23999 13.5V9M9.75 13.5V9" stroke="black"/>
<rect x="5" y="4" width="2.5" height="6" rx="0.5" fill="black"/>
<rect x="8.5" y="4" width="2.5" height="6" rx="0.5" fill="black"/>
</svg>
