<svg width="16" height="16" viewBox="0 0 16 16" fill="none" xmlns="http://www.w3.org/2000/svg">
<path fill-rule="evenodd" clip-rule="evenodd" d="M14 8.25V6.8C14 5.11984 14 4.27976 13.673 3.63803C13.3854 3.07354 12.9265 2.6146 12.362 2.32698C11.7202 2 10.8802 2 9.2 2H6.8C5.11984 2 4.27976 2 3.63803 2.32698C3.07354 2.6146 2.6146 3.07354 2.32698 3.63803C2 4.27976 2 5.11984 2 6.8V8.25C2 9.17997 2 9.64496 2.10222 10.0265C2.37962 11.0617 3.18827 11.8704 4.22354 12.1478C4.60504 12.25 5.07003 12.25 6 12.25L6.70602 13.2208C7.14338 13.8221 7.36205 14.1228 7.63205 14.2297C7.86843 14.3232 8.13157 14.3232 8.36795 14.2297C8.63795 14.1228 8.85662 13.8221 9.29398 13.2208L10 12.25C10.93 12.25 11.395 12.25 11.7765 12.1478C12.8117 11.8704 13.6204 11.0617 13.8978 10.0265C14 9.64496 14 9.17997 14 8.25ZM4.5 5.5C4.22386 5.5 4 5.72386 4 6C4 6.27614 4.22386 6.5 4.5 6.5H11.5C11.7761 6.5 12 6.27614 12 6C12 5.72386 11.7761 5.5 11.5 5.5H4.5ZM4.5 7.5C4.22386 7.5 4 7.72386 4 8C4 8.27614 4.22386 8.5 4.5 8.5H8.5C8.77614 8.5 9 8.27614 9 8C9 7.72386 8.77614 7.5 8.5 7.5H4.5Z" fill="black"/>
</svg>
