<svg width="16" height="16" viewBox="0 0 16 16" fill="none" xmlns="http://www.w3.org/2000/svg">
<path fill-rule="evenodd" clip-rule="evenodd" d="M2 5V10.1716C2 10.702 2.21071 11.2107 2.58579 11.5858L4.12132 13.1213C4.68393 13.6839 5.44699 14 6.24264 14H9.75736C10.553 14 11.3161 13.6839 11.8787 13.1213L13.4142 11.5858C13.7893 11.2107 14 10.702 14 10.1716V5C14 3.34315 12.6569 2 11 2H5C3.34315 2 2 3.34315 2 5ZM5.08175 5.40951C5 5.56994 5 5.77996 5 6.2V8.8C5 9.22004 5 9.43006 5.08175 9.59049C5.15365 9.73161 5.26839 9.84635 5.40951 9.91825C5.56994 10 5.77996 10 6.2 10H9.8C10.22 10 10.4301 10 10.5905 9.91825C10.7316 9.84635 10.8463 9.73161 10.9183 9.59049C11 9.43006 11 9.22004 11 8.8V6.2C11 5.77996 11 5.56994 10.9183 5.40951C10.8463 5.26839 10.7316 5.15365 10.5905 5.08175C10.4301 5 10.22 5 9.8 5H6.2C5.77996 5 5.56994 5 5.40951 5.08175C5.26839 5.15365 5.15365 5.26839 5.08175 5.40951Z" fill="black"/>
</svg>
