<svg width="16" height="16" viewBox="0 0 16 16" fill="none" xmlns="http://www.w3.org/2000/svg">
<path fill-rule="evenodd" clip-rule="evenodd" d="M1.65224 6.23463C1.5 6.60218 1.5 7.06812 1.5 8C1.5 8.93188 1.5 9.39782 1.65224 9.76537C1.85523 10.2554 2.24458 10.6448 2.73463 10.8478C3.10218 11 3.56812 11 4.5 11H11.5C12.4319 11 12.8978 11 13.2654 10.8478C13.7554 10.6448 14.1448 10.2554 14.3478 9.76537C14.5 9.39782 14.5 8.93188 14.5 8C14.5 7.06812 14.5 6.60218 14.3478 6.23463C14.1448 5.74458 13.7554 5.35523 13.2654 5.15224C12.8978 5 12.4319 5 11.5 5H4.5C3.56812 5 3.10218 5 2.73463 5.15224C2.24458 5.35523 1.85523 5.74458 1.65224 6.23463ZM3.02556 7.05589C3 7.15126 3 7.26751 3 7.5C3 7.73249 3 7.84874 3.02556 7.94411C3.09491 8.20293 3.29707 8.40509 3.55589 8.47444C3.65126 8.5 3.76751 8.5 4 8.5H12C12.2325 8.5 12.3487 8.5 12.4441 8.47444C12.7029 8.40509 12.9051 8.20293 12.9744 7.94411C13 7.84874 13 7.73249 13 7.5C13 7.26751 13 7.15126 12.9744 7.05589C12.9051 6.79707 12.7029 6.59491 12.4441 6.52556C12.3487 6.5 12.2325 6.5 12 6.5H4C3.76751 6.5 3.65126 6.5 3.55589 6.52556C3.29707 6.59491 3.09491 6.79707 3.02556 7.05589Z" fill="black"/>
</svg>
