<svg width="16" height="16" viewBox="0 0 16 16" fill="none" xmlns="http://www.w3.org/2000/svg">
<path fill-rule="evenodd" clip-rule="evenodd" d="M1.85899 6.04601C1.75 6.25992 1.75 6.53995 1.75 7.1V8.66312C1.75 8.97642 1.75 9.13307 1.7848 9.26151C1.87771 9.60442 2.14558 9.87229 2.48849 9.9652C2.61693 10 2.77358 10 3.08688 10C3.18745 10 3.23774 10 3.28369 10.0087C3.4053 10.0316 3.51408 10.0988 3.58898 10.1974C3.61729 10.2346 3.63977 10.2795 3.68475 10.3695L3.77889 10.5578C3.85915 10.7183 3.89928 10.7986 3.95916 10.8572C4.01211 10.9091 4.07592 10.9485 4.14598 10.9727C4.22521 11 4.31495 11 4.49443 11H11.5056C11.6851 11 11.7748 11 11.854 10.9727C11.9241 10.9485 11.9879 10.9091 12.0408 10.8572C12.1007 10.7986 12.1408 10.7183 12.2211 10.5578L12.3152 10.3695L12.3153 10.3695C12.3602 10.2795 12.3827 10.2346 12.411 10.1974C12.4859 10.0988 12.5947 10.0316 12.7163 10.0087C12.7623 10 12.8125 10 12.9131 10C13.2264 10 13.3831 10 13.5115 9.9652C13.8544 9.87229 14.1223 9.60442 14.2152 9.26151C14.25 9.13307 14.25 8.97642 14.25 8.66312V7.1C14.25 6.53995 14.25 6.25992 14.141 6.04601C14.0451 5.85785 13.8922 5.70487 13.704 5.60899C13.4901 5.5 13.2101 5.5 12.65 5.5H3.35C2.78995 5.5 2.50992 5.5 2.29601 5.60899C2.10785 5.70487 1.95487 5.85785 1.85899 6.04601ZM4.5 7.25C4.22386 7.25 4 7.47386 4 7.75C4 8.02614 4.22386 8.25 4.5 8.25H11.5C11.7761 8.25 12 8.02614 12 7.75C12 7.47386 11.7761 7.25 11.5 7.25H4.5Z" fill="black"/>
</svg>
