<svg width="16" height="16" viewBox="0 0 16 16" fill="none" xmlns="http://www.w3.org/2000/svg">
<path d="M1.75 7.1C1.75 6.53995 1.75 6.25992 1.85899 6.04601C1.95487 5.85785 2.10785 5.70487 2.29601 5.60899C2.50992 5.5 2.78995 5.5 3.35 5.5H12.65C13.2101 5.5 13.4901 5.5 13.704 5.60899C13.8922 5.70487 14.0451 5.85785 14.141 6.04601C14.25 6.25992 14.25 6.53995 14.25 7.1V8.66312C14.25 8.97642 14.25 9.13307 14.2152 9.26151C14.1223 9.60442 13.8544 9.87229 13.5115 9.9652C13.3831 10 13.2264 10 12.9131 10C12.8125 10 12.7623 10 12.7163 10.0087C12.5947 10.0316 12.4859 10.0988 12.411 10.1974C12.3827 10.2346 12.3602 10.2795 12.3152 10.3695L12.2211 10.5578C12.1408 10.7183 12.1007 10.7986 12.0408 10.8572C11.9879 10.9091 11.9241 10.9485 11.854 10.9727C11.7748 11 11.6851 11 11.5056 11H4.49443C4.31495 11 4.22521 11 4.14598 10.9727C4.07592 10.9485 4.01211 10.9091 3.95916 10.8572C3.89928 10.7986 3.85915 10.7183 3.77889 10.5578L3.68475 10.3695C3.63977 10.2795 3.61729 10.2346 3.58898 10.1974C3.51408 10.0988 3.4053 10.0316 3.28369 10.0087C3.23774 10 3.18745 10 3.08688 10C2.77358 10 2.61693 10 2.48849 9.9652C2.14558 9.87229 1.87771 9.60442 1.7848 9.26151C1.75 9.13307 1.75 8.97642 1.75 8.66312V7.1Z" fill="black"/>
<path d="M4.5 7.75H11.5" stroke="white" stroke-linecap="round"/>
</svg>
