<svg width="16" height="16" viewBox="0 0 16 16" fill="none" xmlns="http://www.w3.org/2000/svg">
<path d="M6 4.75V3.75C6 2.64543 6.89543 1.75 8 1.75V1.75C9.10457 1.75 10 2.64543 10 3.75V4.75" stroke="black" stroke-linejoin="round"/>
<path fill-rule="evenodd" clip-rule="evenodd" d="M1.84805 7.29019C1.90151 6.22097 1.92824 5.68636 2.15338 5.28026C2.35156 4.92281 2.65448 4.63465 3.02139 4.45458C3.43823 4.25 3.9735 4.25 5.04405 4.25H10.956C12.0266 4.25 12.5619 4.25 12.9787 4.45458C13.3456 4.63466 13.6486 4.92282 13.8467 5.28028C14.0719 5.68639 14.0986 6.221 14.152 7.29023L14.248 9.21035C14.3358 10.9657 14.3797 11.8433 14.0652 12.5177C13.7889 13.1105 13.3264 13.5967 12.7481 13.9023C12.0903 14.25 11.2115 14.25 9.45402 14.25H6.54604C4.7885 14.25 3.90973 14.25 3.2519 13.9023C2.67367 13.5967 2.21115 13.1105 1.93478 12.5177C1.62037 11.8433 1.66426 10.9656 1.75203 9.21028L1.84805 7.29019ZM6.75001 6.25C6.75001 6.66421 6.41422 7 6.00001 7C5.58579 7 5.25001 6.66421 5.25001 6.25C5.25001 5.83579 5.58579 5.5 6.00001 5.5C6.41422 5.5 6.75001 5.83579 6.75001 6.25ZM10 7C10.4142 7 10.75 6.66421 10.75 6.25C10.75 5.83579 10.4142 5.5 10 5.5C9.58579 5.5 9.25001 5.83579 9.25001 6.25C9.25001 6.66421 9.58579 7 10 7Z" fill="black"/>
</svg>
