<svg width="16" height="16" viewBox="0 0 16 16" fill="none" xmlns="http://www.w3.org/2000/svg">
<path fill-rule="evenodd" clip-rule="evenodd" d="M10.5 3V3.00005C11.4883 3.00082 12.0064 3.01338 12.408 3.21799C12.7843 3.40973 13.0903 3.71569 13.282 4.09202C13.4866 4.49359 13.4992 5.01165 13.4999 6C12.3954 6.00003 11.5 6.89545 11.5 8C11.5 9.10455 12.3954 9.99997 13.4999 10C13.4992 10.9883 13.4866 11.5064 13.282 11.908C13.0903 12.2843 12.7843 12.5903 12.408 12.782C12.0064 12.9866 11.4883 12.9992 10.5 12.9999V13C10.5 14.1046 9.60457 15 8.5 15C7.39543 15 6.5 14.1046 6.5 13V12.9999C5.51165 12.9992 4.99359 12.9866 4.59202 12.782C4.21569 12.5903 3.90973 12.2843 3.71799 11.908C3.51338 11.5064 3.50082 10.9883 3.50005 10H3.5C2.39543 10 1.5 9.10457 1.5 8C1.5 6.89543 2.39543 6 3.5 6H3.50005C3.50082 5.01165 3.51338 4.49359 3.71799 4.09202C3.90973 3.71569 4.21569 3.40973 4.59202 3.21799C4.99359 3.01338 5.51165 3.00082 6.5 3.00005V3C6.5 1.89543 7.39543 1 8.5 1C9.60457 1 10.5 1.89543 10.5 3Z" fill="black"/>
</svg>
