<svg width="16" height="16" viewBox="0 0 16 16" fill="none" xmlns="http://www.w3.org/2000/svg">
<path fill-rule="evenodd" clip-rule="evenodd" d="M1.5 8V9C1.5 10.1046 2.39543 11 3.5 11H4V9C4 8.17157 4.67157 7.5 5.5 7.5H10.5C10.7761 7.5 11 7.27614 11 7V4.5V3.5C11 2.39543 10.1046 1.5 9 1.5H6.5C5.39543 1.5 4.5 2.39543 4.5 3.5V4.5C4.5 4.77614 4.72386 5 5 5H7C7.27614 5 7.5 5.22386 7.5 5.5C7.5 5.77614 7.27614 6 7 6H3.5C2.39543 6 1.5 6.89543 1.5 8ZM12 7C12 7.82843 11.3284 8.5 10.5 8.5H5.5C5.22386 8.5 5 8.72386 5 9V11.5V12.5C5 13.6046 5.89543 14.5 7 14.5H9.5C10.6046 14.5 11.5 13.6046 11.5 12.5V11.5C11.5 11.2239 11.2761 11 11 11H9C8.72386 11 8.5 10.7761 8.5 10.5C8.5 10.2239 8.72386 10 9 10H12.5C13.6046 10 14.5 9.10457 14.5 8V7C14.5 5.89543 13.6046 5 12.5 5H12V7ZM7.5 3.25C7.5 3.66421 7.16421 4 6.75 4C6.33579 4 6 3.66421 6 3.25C6 2.83579 6.33579 2.5 6.75 2.5C7.16421 2.5 7.5 2.83579 7.5 3.25ZM9.25 13.5C9.66421 13.5 10 13.1642 10 12.75C10 12.3358 9.66421 12 9.25 12C8.83579 12 8.5 12.3358 8.5 12.75C8.5 13.1642 8.83579 13.5 9.25 13.5Z" fill="black"/>
</svg>
