<svg width="16" height="16" viewBox="0 0 16 16" fill="none" xmlns="http://www.w3.org/2000/svg">
<path d="M6.07403 9.11418C5.79837 9 5.44891 9 4.75 9C4.05109 9 3.70163 9 3.42597 9.11418C3.05843 9.26642 2.76642 9.55843 2.61418 9.92597C2.5 10.2016 2.5 10.5511 2.5 11.25C2.5 11.9489 2.5 12.2984 2.61418 12.574C2.76642 12.9416 3.05843 13.2336 3.42597 13.3858C3.70163 13.5 4.05109 13.5 4.75 13.5C5.44891 13.5 5.79837 13.5 6.07403 13.3858C6.44157 13.2336 6.73358 12.9416 6.88582 12.574C7 12.2984 7 11.9489 7 11.25C7 10.5511 7 10.2016 6.88582 9.92597C6.73358 9.55843 6.44157 9.26642 6.07403 9.11418Z" stroke="black" stroke-linecap="round"/>
<path d="M9.11418 6.07403C9 5.79837 9 5.44891 9 4.75C9 4.05109 9 3.70163 9.11418 3.42597C9.26642 3.05843 9.55843 2.76642 9.92597 2.61418C10.2016 2.5 10.5511 2.5 11.25 2.5C11.9489 2.5 12.2984 2.5 12.574 2.61418C12.9416 2.76642 13.2336 3.05843 13.3858 3.42597C13.5 3.70163 13.5 4.05109 13.5 4.75C13.5 5.44891 13.5 5.79837 13.3858 6.07403C13.2336 6.44157 12.9416 6.73358 12.574 6.88582C12.2984 7 11.9489 7 11.25 7C10.5511 7 10.2016 7 9.92597 6.88582C9.55843 6.73358 9.26642 6.44157 9.11418 6.07403Z" stroke="black" stroke-linecap="round"/>
<path d="M6.88582 6.07403C7 5.79837 7 5.44891 7 4.75C7 4.05109 7 3.70163 6.88582 3.42597C6.73358 3.05843 6.44157 2.76642 6.07403 2.61418C5.79837 2.5 5.44891 2.5 4.75 2.5C4.05109 2.5 3.70163 2.5 3.42597 2.61418C3.05843 2.76642 2.76642 3.05843 2.61418 3.42597C2.5 3.70163 2.5 4.05109 2.5 4.75C2.5 5.44891 2.5 5.79837 2.61418 6.07403C2.76642 6.44157 3.05843 6.73358 3.42597 6.88582C3.70163 7 4.05109 7 4.75 7C5.44891 7 5.79837 7 6.07403 6.88582C6.44157 6.73358 6.73358 6.44157 6.88582 6.07403Z" stroke="black" stroke-linecap="round"/>
<path d="M5.46194 4.30866C5.5 4.40054 5.5 4.51703 5.5 4.75C5.5 4.98297 5.5 5.09946 5.46194 5.19134C5.41119 5.31386 5.31386 5.41119 5.19134 5.46194C5.09946 5.5 4.98297 5.5 4.75 5.5C4.51703 5.5 4.40054 5.5 4.30866 5.46194C4.18614 5.41119 4.08881 5.31386 4.03806 5.19134C4 5.09946 4 4.98297 4 4.75C4 4.51703 4 4.40054 4.03806 4.30866C4.08881 4.18614 4.18614 4.08881 4.30866 4.03806C4.40054 4 4.51703 4 4.75 4C4.98297 4 5.09946 4 5.19134 4.03806C5.31386 4.08881 5.41119 4.18614 5.46194 4.30866Z" fill="black"/>
<path d="M11.9619 4.30866C12 4.40054 12 4.51703 12 4.75C12 4.98297 12 5.09946 11.9619 5.19134C11.9112 5.31386 11.8139 5.41119 11.6913 5.46194C11.5995 5.5 11.483 5.5 11.25 5.5C11.017 5.5 10.9005 5.5 10.8087 5.46194C10.6861 5.41119 10.5888 5.31386 10.5381 5.19134C10.5 5.09946 10.5 4.98297 10.5 4.75C10.5 4.51703 10.5 4.40054 10.5381 4.30866C10.5888 4.18614 10.6861 4.08881 10.8087 4.03806C10.9005 4 11.017 4 11.25 4C11.483 4 11.5995 4 11.6913 4.03806C11.8139 4.08881 11.9112 4.18614 11.9619 4.30866Z" fill="black"/>
<path d="M5.46194 10.8087C5.5 10.9005 5.5 11.017 5.5 11.25C5.5 11.483 5.5 11.5995 5.46194 11.6913C5.41119 11.8139 5.31386 11.9112 5.19134 11.9619C5.09946 12 4.98297 12 4.75 12C4.51703 12 4.40054 12 4.30866 11.9619C4.18614 11.9112 4.08881 11.8139 4.03806 11.6913C4 11.5995 4 11.483 4 11.25C4 11.017 4 10.9005 4.03806 10.8087C4.08881 10.6861 4.18614 10.5888 4.30866 10.5381C4.40054 10.5 4.51703 10.5 4.75 10.5C4.98297 10.5 5.09946 10.5 5.19134 10.5381C5.31386 10.5888 5.41119 10.6861 5.46194 10.8087Z" fill="black"/>
<path d="M8.75 9.61667V9.55C8.75 9.26997 8.75 9.12996 8.8045 9.023C8.85243 8.92892 8.92892 8.85243 9.023 8.8045C9.12996 8.75 9.26997 8.75 9.55 8.75H9.61667C9.89669 8.75 10.0367 8.75 10.1437 8.8045C10.2377 8.85243 10.3142 8.92892 10.3622 9.023C10.4167 9.12996 10.4167 9.26997 10.4167 9.55V9.61667C10.4167 9.89669 10.4167 10.0367 10.3622 10.1437C10.3142 10.2377 10.2377 10.3142 10.1437 10.3622C10.0367 10.4167 9.89669 10.4167 9.61667 10.4167H9.55C9.26997 10.4167 9.12996 10.4167 9.023 10.3622C8.92892 10.3142 8.85243 10.2377 8.8045 10.1437C8.75 10.0367 8.75 9.89669 8.75 9.61667Z" fill="black"/>
<path d="M12.0833 9.61667V9.55C12.0833 9.26997 12.0833 9.12996 12.1378 9.023C12.1858 8.92892 12.2623 8.85243 12.3563 8.8045C12.4633 8.75 12.6033 8.75 12.8833 8.75H12.95C13.23 8.75 13.37 8.75 13.477 8.8045C13.5711 8.85243 13.6476 8.92892 13.6955 9.023C13.75 9.12996 13.75 9.26997 13.75 9.55V9.61667C13.75 9.89669 13.75 10.0367 13.6955 10.1437C13.6476 10.2377 13.5711 10.3142 13.477 10.3622C13.37 10.4167 13.23 10.4167 12.95 10.4167H12.8833C12.6033 10.4167 12.4633 10.4167 12.3563 10.3622C12.2623 10.3142 12.1858 10.2377 12.1378 10.1437C12.0833 10.0367 12.0833 9.89669 12.0833 9.61667Z" fill="black"/>
<path d="M8.75 12.8833V12.95C8.75 13.23 8.75 13.37 8.8045 13.477C8.85243 13.5711 8.92892 13.6476 9.023 13.6955C9.12996 13.75 9.26997 13.75 9.55 13.75H9.61667C9.89669 13.75 10.0367 13.75 10.1437 13.6955C10.2377 13.6476 10.3142 13.5711 10.3622 13.477C10.4167 13.37 10.4167 13.23 10.4167 12.95V12.8833C10.4167 12.6033 10.4167 12.4633 10.3622 12.3563C10.3142 12.2623 10.2377 12.1858 10.1437 12.1378C10.0367 12.0833 9.89669 12.0833 9.61667 12.0833H9.55C9.26997 12.0833 9.12996 12.0833 9.023 12.1378C8.92892 12.1858 8.85243 12.2623 8.8045 12.3563C8.75 12.4633 8.75 12.6033 8.75 12.8833Z" fill="black"/>
<path d="M12.0833 12.95V12.8833C12.0833 12.6033 12.0833 12.4633 12.1378 12.3563C12.1858 12.2623 12.2623 12.1858 12.3563 12.1378C12.4633 12.0833 12.6033 12.0833 12.8833 12.0833H12.95C13.23 12.0833 13.37 12.0833 13.477 12.1378C13.5711 12.1858 13.6476 12.2623 13.6955 12.3563C13.75 12.4633 13.75 12.6033 13.75 12.8833V12.95C13.75 13.23 13.75 13.37 13.6955 13.477C13.6476 13.5711 13.5711 13.6476 13.477 13.6955C13.37 13.75 13.23 13.75 12.95 13.75H12.8833C12.6033 13.75 12.4633 13.75 12.3563 13.6955C12.2623 13.6476 12.1858 13.5711 12.1378 13.477C12.0833 13.37 12.0833 13.23 12.0833 12.95Z" fill="black"/>
<path d="M10.4167 10.9167V11.5833C10.4167 11.8595 10.6405 12.0833 10.9167 12.0833H11.5833C11.8595 12.0833 12.0833 11.8595 12.0833 11.5833V10.9167C12.0833 10.6405 11.8595 10.4167 11.5833 10.4167H10.9167C10.6405 10.4167 10.4167 10.6405 10.4167 10.9167Z" fill="black"/>
</svg>
