<svg width="16" height="16" viewBox="0 0 16 16" fill="none" xmlns="http://www.w3.org/2000/svg">
<path fill-rule="evenodd" clip-rule="evenodd" d="M14.25 8C14.25 11.4518 11.4518 14.25 8 14.25C4.54822 14.25 1.75 11.4518 1.75 8C1.75 4.54822 4.54822 1.75 8 1.75C11.4518 1.75 14.25 4.54822 14.25 8ZM7.29727 5.64778C7.13051 5.79684 7 6.03295 7 6.39999C7 6.67614 6.77614 6.89999 6.5 6.89999C6.22386 6.89999 6 6.67614 6 6.39999C6 5.76704 6.23823 5.25315 6.63084 4.90221C7.01462 4.55917 7.51358 4.39999 8 4.39999C8.48642 4.39999 8.98538 4.55917 9.36916 4.90221C9.76177 5.25315 10 5.76704 10 6.39999C10 6.85408 9.79591 7.23886 9.56783 7.5296C9.33815 7.82239 9.0535 8.05959 8.81677 8.2302C8.60824 8.38049 8.5 8.58538 8.5 8.76803V8.89999C8.5 9.17614 8.27614 9.39999 8 9.39999C7.72386 9.39999 7.5 9.17614 7.5 8.89999V8.76803C7.5 8.19313 7.82606 7.71156 8.23209 7.41894C8.42795 7.27778 8.63109 7.10353 8.78104 6.91238C8.9326 6.71918 9 6.54756 9 6.39999C9 6.03295 8.86949 5.79684 8.70273 5.64778C8.52714 5.49082 8.2761 5.39999 8 5.39999C7.7239 5.39999 7.47286 5.49082 7.29727 5.64778ZM8 11.75C8.41421 11.75 8.75 11.4142 8.75 11C8.75 10.5858 8.41421 10.25 8 10.25C7.58579 10.25 7.25 10.5858 7.25 11C7.25 11.4142 7.58579 11.75 8 11.75Z" fill="black"/>
</svg>
