<svg width="16" height="16" viewBox="0 0 16 16" fill="none" xmlns="http://www.w3.org/2000/svg">
<path fill-rule="evenodd" clip-rule="evenodd" d="M1.82698 4.13803C1.5 4.77976 1.5 5.61984 1.5 7.3V8.7C1.5 10.3802 1.5 11.2202 1.82698 11.862C2.1146 12.4265 2.57354 12.8854 3.13803 13.173C3.77976 13.5 4.61984 13.5 6.3 13.5H9.7C11.3802 13.5 12.2202 13.5 12.862 13.173C13.4265 12.8854 13.8854 12.4265 14.173 11.862C14.5 11.2202 14.5 10.3802 14.5 8.7V7.3C14.5 5.61984 14.5 4.77976 14.173 4.13803C13.8854 3.57354 13.4265 3.1146 12.862 2.82698C12.2202 2.5 11.3802 2.5 9.7 2.5H6.3C4.61984 2.5 3.77976 2.5 3.13803 2.82698C2.57354 3.1146 2.1146 3.57354 1.82698 4.13803ZM4 5C3.72386 5 3.5 5.22386 3.5 5.5C3.5 5.77614 3.72386 6 4 6H7C7.27614 6 7.5 5.77614 7.5 5.5C7.5 5.22386 7.27614 5 7 5H4ZM9 5C8.72386 5 8.5 5.22386 8.5 5.5C8.5 5.77614 8.72386 6 9 6H12C12.2761 6 12.5 5.77614 12.5 5.5C12.5 5.22386 12.2761 5 12 5H9ZM4 7.5C3.72386 7.5 3.5 7.72386 3.5 8C3.5 8.27614 3.72386 8.5 4 8.5H7C7.27614 8.5 7.5 8.27614 7.5 8C7.5 7.72386 7.27614 7.5 7 7.5H4ZM9 7.5C8.72386 7.5 8.5 7.72386 8.5 8C8.5 8.27614 8.72386 8.5 9 8.5H12C12.2761 8.5 12.5 8.27614 12.5 8C12.5 7.72386 12.2761 7.5 12 7.5H9ZM4 10C3.72386 10 3.5 10.2239 3.5 10.5C3.5 10.7761 3.72386 11 4 11H7C7.27614 11 7.5 10.7761 7.5 10.5C7.5 10.2239 7.27614 10 7 10H4ZM9 10C8.72386 10 8.5 10.2239 8.5 10.5C8.5 10.7761 8.72386 11 9 11H12C12.2761 11 12.5 10.7761 12.5 10.5C12.5 10.2239 12.2761 10 12 10H9Z" fill="black"/>
</svg>
