<svg width="16" height="16" viewBox="0 0 16 16" fill="none" xmlns="http://www.w3.org/2000/svg">
<path fill-rule="evenodd" clip-rule="evenodd" d="M4.48067 2.07937C4.14894 2.12724 3.87945 2.20397 3.63803 2.32698C3.07354 2.6146 2.6146 3.07354 2.32698 3.63803C2.20159 3.88412 2.12429 4.15938 2.07663 4.49999H5.69098L4.48067 2.07937ZM2.00877 5.49999C2 5.86955 2 6.29715 2 6.8V9.2C2 10.8802 2 11.7202 2.32698 12.362C2.6146 12.9265 3.07354 13.3854 3.63803 13.673C4.27976 14 5.11984 14 6.8 14H9.2C10.8802 14 11.7202 14 12.362 13.673C12.9265 13.3854 13.3854 12.9265 13.673 12.362C14 11.7202 14 10.8802 14 9.2V6.8C14 6.29715 14 5.86955 13.9912 5.49999H10.75H6.5H2.00877ZM13.9234 4.49999C13.8757 4.15938 13.7984 3.88412 13.673 3.63803C13.3854 3.07354 12.9265 2.6146 12.362 2.32698C11.7749 2.02787 11.0219 2.00238 9.61171 2.0002L11.0402 4.49999H13.9234ZM8.45985 2L9.88841 4.49999H6.80902L5.56271 2.00737C5.91774 2 6.32535 2 6.8 2H8.45985ZM9.4 8.80717L9.40001 8.80717L9.40001 8.80718C9.7938 9.03453 9.99069 9.14821 10.0568 9.29662C10.1144 9.42607 10.1144 9.5739 10.0568 9.70336C9.99069 9.85177 9.7938 9.96544 9.40002 10.1928L9.40001 10.1928L9.4 10.1928L7.3 11.4052C6.9062 11.6326 6.7093 11.7463 6.54773 11.7293C6.40681 11.7145 6.27878 11.6406 6.19549 11.5259C6.1 11.3945 6.1 11.1671 6.1 10.7124V8.28755C6.1 7.83284 6.1 7.60548 6.19549 7.47404C6.27878 7.3594 6.40681 7.28549 6.54773 7.27068C6.7093 7.25369 6.9062 7.36737 7.29999 7.59473L7.3 7.59473L9.4 8.80717Z" fill="black"/>
</svg>
