<svg width="16" height="16" viewBox="0 0 16 16" fill="none" xmlns="http://www.w3.org/2000/svg">
<path fill-rule="evenodd" clip-rule="evenodd" d="M1.30938 4.92313C1 5.5505 1 6.367 1 8C1 9.633 1 10.4495 1.30938 11.0769C1.60147 11.6692 2.08084 12.1485 2.67313 12.4406C3.3005 12.75 4.117 12.75 5.75 12.75H10.25C11.883 12.75 12.6995 12.75 13.3269 12.4406C13.9192 12.1485 14.3985 11.6692 14.6906 11.0769C15 10.4495 15 9.633 15 8C15 6.367 15 5.5505 14.6906 4.92313C14.3985 4.33084 13.9192 3.85147 13.3269 3.55938C12.6995 3.25 11.883 3.25 10.25 3.25H5.75C4.117 3.25 3.3005 3.25 2.67313 3.55938C2.08084 3.85147 1.60147 4.33084 1.30938 4.92313ZM9.5 5C9.22386 5 9 5.22386 9 5.5C9 5.77614 9.22386 6 9.5 6H10V10H9.5C9.22386 10 9 10.2239 9 10.5C9 10.7761 9.22386 11 9.5 11H10.5H11.5C11.7761 11 12 10.7761 12 10.5C12 10.2239 11.7761 10 11.5 10H11V6H11.5C11.7761 6 12 5.77614 12 5.5C12 5.22386 11.7761 5 11.5 5H10.5H9.5Z" fill="black"/>
</svg>
