<svg width="16" height="16" viewBox="0 0 16 16" fill="none" xmlns="http://www.w3.org/2000/svg">
<path d="M1.75623 6.76427L6.87113 12.6099C7.46875 13.2929 8.53125 13.2929 9.12886 12.6099L14.2438 6.76427C14.69 6.25425 14.7389 5.50835 14.363 4.94446L13.4453 3.56795C13.1671 3.15065 12.6988 2.9 12.1972 2.9H3.80278C3.30125 2.9 2.8329 3.15065 2.5547 3.56795L1.63703 4.94446C1.2611 5.50835 1.30996 6.25425 1.75623 6.76427Z" stroke="black"/>
<path d="M1.5 5.9H5.5M14.5 5.9H10.5M3.5 2.9L5.5 5.9M5.5 5.9H10.5M5.5 5.9L8 2.9L10.5 5.9M5.5 5.9L8 13L10.5 5.9M12.5 2.9L10.5 5.9" stroke="black" stroke-linejoin="round"/>
</svg>
