<svg width="16" height="16" viewBox="0 0 16 16" fill="none" xmlns="http://www.w3.org/2000/svg">
<path fill-rule="evenodd" clip-rule="evenodd" d="M1.67847 10.9161C1.82685 11.3728 2.22286 11.7688 3.0149 12.5608L3.43916 12.9851C4.23119 13.7771 4.62721 14.1732 5.08387 14.3215C5.48555 14.452 5.91825 14.452 6.31994 14.3215C6.77659 14.1732 7.17261 13.7771 7.96464 12.9851L12.9851 7.96464C13.7771 7.17261 14.1732 6.77659 14.3215 6.31994C14.452 5.91825 14.452 5.48556 14.3215 5.08387C14.1732 4.62721 13.7771 4.2312 12.9851 3.43916L12.5608 3.0149C11.7688 2.22286 11.3728 1.82685 10.9161 1.67847C10.5144 1.54795 10.0817 1.54795 9.68006 1.67847C9.37576 1.77734 9.09839 1.98617 8.71283 2.34887L10.1213 3.75736C10.3166 3.95262 10.3166 4.2692 10.1213 4.46447C9.92606 4.65973 9.60947 4.65973 9.41421 4.46447L8 3.05025L7.29289 3.75736L8.70711 5.17157C8.90237 5.36683 8.90237 5.68342 8.70711 5.87868C8.51184 6.07394 8.19526 6.07394 8 5.87868L6.58579 4.46447L5.87868 5.17157L7.29289 6.58579C7.48815 6.78105 7.48815 7.09763 7.29289 7.29289C7.09763 7.48816 6.78105 7.48816 6.58579 7.29289L5.17157 5.87868L4.46446 6.58579L5.87868 8C6.07394 8.19526 6.07394 8.51184 5.87868 8.70711C5.68342 8.90237 5.36683 8.90237 5.17157 8.70711L3.75736 7.29289L3.05025 8L4.46446 9.41421C4.65973 9.60948 4.65973 9.92606 4.46446 10.1213C4.2692 10.3166 3.95262 10.3166 3.75736 10.1213L2.34887 8.71283C1.98617 9.09839 1.77734 9.37577 1.67847 9.68006C1.54795 10.0817 1.54795 10.5144 1.67847 10.9161Z" fill="black"/>
</svg>
