<svg width="16" height="16" viewBox="0 0 16 16" fill="none" xmlns="http://www.w3.org/2000/svg">
<path fill-rule="evenodd" clip-rule="evenodd" d="M2.32698 3.63803C2 4.27976 2 5.11984 2 6.8V9.2C2 10.8802 2 11.7202 2.32698 12.362C2.6146 12.9265 3.07354 13.3854 3.63803 13.673C4.27976 14 5.11984 14 6.8 14H9.2C10.8802 14 11.7202 14 12.362 13.673C12.9265 13.3854 13.3854 12.9265 13.673 12.362C14 11.7202 14 10.8802 14 9.2V6.8C14 5.11984 14 4.27976 13.673 3.63803C13.3854 3.07354 12.9265 2.6146 12.362 2.32698C11.7202 2 10.8802 2 9.2 2H6.8C5.11984 2 4.27976 2 3.63803 2.32698C3.07354 2.6146 2.6146 3.07354 2.32698 3.63803ZM8.35355 11.3536L11.3536 8.35355C11.5488 8.15829 11.5488 7.84171 11.3536 7.64645L8.35355 4.64645C8.15829 4.45118 7.84171 4.45118 7.64645 4.64645C7.45118 4.84171 7.45118 5.15829 7.64645 5.35355L9.79289 7.5H5C4.72386 7.5 4.5 7.72386 4.5 8C4.5 8.27614 4.72386 8.5 5 8.5H9.79289L7.64645 10.6464C7.45118 10.8417 7.45118 11.1583 7.64645 11.3536C7.84171 11.5488 8.15829 11.5488 8.35355 11.3536Z" fill="black"/>
</svg>
