<svg width="16" height="16" viewBox="0 0 16 16" fill="none" xmlns="http://www.w3.org/2000/svg">
<path fill-rule="evenodd" clip-rule="evenodd" d="M5 2.02878C4.41168 2.06471 3.99429 2.14546 3.63803 2.32698C3.07354 2.6146 2.6146 3.07354 2.32698 3.63803C2 4.27976 2 5.11984 2 6.8V9.2C2 10.8802 2 11.7202 2.32698 12.362C2.6146 12.9265 3.07354 13.3854 3.63803 13.673C3.75133 13.7307 3.87081 13.7783 4 13.8174V10.4L4 10.3793C3.99999 9.97686 3.99999 9.64468 4.0221 9.37409C4.04506 9.09304 4.09434 8.83469 4.21799 8.59202C4.40973 8.21569 4.71569 7.90973 5.09202 7.71799C5.33469 7.59434 5.59304 7.54506 5.87409 7.5221C6.14469 7.49999 6.47687 7.49999 6.87936 7.5H6.9H9.1H9.12064C9.52313 7.49999 9.85531 7.49999 10.1259 7.5221C10.407 7.54506 10.6653 7.59434 10.908 7.71799C11.2843 7.90973 11.5903 8.21569 11.782 8.59202C11.9057 8.83469 11.9549 9.09304 11.9779 9.37409C12 9.64469 12 9.97687 12 10.3794V10.4V13.8174C12.1292 13.7783 12.2487 13.7307 12.362 13.673C12.9265 13.3854 13.3854 12.9265 13.673 12.362C14 11.7202 14 10.8802 14 9.2V7.67809C14 6.87657 14 6.47582 13.9025 6.10286C13.8162 5.77234 13.674 5.459 13.4821 5.17636C13.2656 4.85742 12.964 4.59352 12.3608 4.06572L11.3573 3.18763C11.2894 3.12822 11.2261 3.07283 11.1667 3.02106V3.15556V3.17619V3.1762C11.1667 3.57869 11.1667 3.91087 11.1446 4.18147C11.1216 4.46252 11.0723 4.72087 10.9487 4.96354C10.7569 5.33986 10.451 5.64582 10.0746 5.83757C9.83198 5.96121 9.57363 6.0105 9.29258 6.03346C9.02198 6.05557 8.6898 6.05556 8.28731 6.05556H8.26667H7.9H7.87936C7.47687 6.05556 7.14469 6.05557 6.87409 6.03346C6.59304 6.0105 6.33469 5.96121 6.09202 5.83757C5.71569 5.64582 5.40973 5.33986 5.21799 4.96354C5.09434 4.72087 5.04506 4.46252 5.0221 4.18147C4.99999 3.91087 4.99999 3.57869 5 3.17621L5 3.15556V2.02878ZM10.1667 2.29336C9.95885 2.19402 9.74011 2.11886 9.51474 2.06949C9.19753 2 8.86384 2 8.19647 2H6.8C6.50929 2 6.24373 2 6 2.00169V3.15556C6 3.58385 6.00039 3.87499 6.01878 4.10004C6.03669 4.31924 6.06915 4.43135 6.10899 4.50955C6.20487 4.69771 6.35785 4.85069 6.54601 4.94656C6.62421 4.98641 6.73631 5.01887 6.95552 5.03678C7.18056 5.05517 7.47171 5.05556 7.9 5.05556H8.26667C8.69496 5.05556 8.9861 5.05517 9.21115 5.03678C9.43036 5.01887 9.54246 4.98641 9.62066 4.94656C9.80882 4.85069 9.9618 4.69771 10.0577 4.50955C10.0975 4.43135 10.13 4.31924 10.1479 4.10004C10.1663 3.87499 10.1667 3.58385 10.1667 3.15556V2.29336ZM11 13.9712V10.4C11 9.97171 10.9996 9.68056 10.9812 9.45552C10.9633 9.23631 10.9309 9.12421 10.891 9.04601C10.7951 8.85785 10.6422 8.70487 10.454 8.60899C10.3758 8.56915 10.2637 8.53669 10.0445 8.51878C9.81944 8.50039 9.52829 8.5 9.1 8.5H6.9C6.47171 8.5 6.18056 8.50039 5.95552 8.51878C5.73631 8.53669 5.62421 8.56915 5.54601 8.60899C5.35785 8.70487 5.20487 8.85785 5.10899 9.04601C5.06915 9.12421 5.03669 9.23631 5.01878 9.45552C5.00039 9.68056 5 9.97171 5 10.4V13.9712C5.47142 14 6.05259 14 6.8 14H9.2C9.94741 14 10.5286 14 11 13.9712Z" fill="black"/>
</svg>
