<svg width="16" height="16" viewBox="0 0 16 16" fill="none" xmlns="http://www.w3.org/2000/svg">
<path fill-rule="evenodd" clip-rule="evenodd" d="M2.32698 3.63803C2 4.27976 2 5.11984 2 6.8V9.2C2 10.8802 2 11.7202 2.32698 12.362C2.6146 12.9265 3.07354 13.3854 3.63803 13.673C4.27976 14 5.11984 14 6.8 14H9.2C10.8802 14 11.7202 14 12.362 13.673C12.9265 13.3854 13.3854 12.9265 13.673 12.362C14 11.7202 14 10.8802 14 9.2V6.8C14 5.11984 14 4.27976 13.673 3.63803C13.3854 3.07354 12.9265 2.6146 12.362 2.32698C11.7202 2 10.8802 2 9.2 2H6.8C5.11984 2 4.27976 2 3.63803 2.32698C3.07354 2.6146 2.6146 3.07354 2.32698 3.63803ZM3.7117 5.96575L4.36382 7.4004C4.56214 7.83671 5.13744 8.00815 5.59131 7.85422C6.12298 7.6739 6.91658 7.5 8 7.5C9.08342 7.5 9.87702 7.6739 10.4087 7.85422C10.8626 8.00815 11.4379 7.83671 11.6362 7.40041L12.2883 5.96575C12.4212 5.67328 12.4035 5.33304 12.1748 5.1074C11.6519 4.59145 10.427 3.75 8 3.75C5.57303 3.75 4.34814 4.59146 3.8252 5.1074C3.5965 5.33304 3.57876 5.67328 3.7117 5.96575Z" fill="black"/>
<path d="M8.47201 5.34725L6.83952 8.58347C6.80858 8.64482 6.79061 8.71188 6.78673 8.78048L6.5824 12.3994C6.55184 12.9406 7.28387 13.1367 7.52802 12.6528L9.16051 9.41653C9.19145 9.35518 9.20942 9.28812 9.21329 9.21952L9.41763 5.60063C9.44819 5.0594 8.71616 4.86325 8.47201 5.34725Z" fill="black"/>
</svg>
