<svg width="16" height="16" viewBox="0 0 16 16" fill="none" xmlns="http://www.w3.org/2000/svg">
<path fill-rule="evenodd" clip-rule="evenodd" d="M10.5 8.5C11.6046 8.5 12.5 7.60457 12.5 6.5C12.5 5.39543 11.6046 4.5 10.5 4.5C9.39543 4.5 8.5 5.39543 8.5 6.5C8.5 7.60457 9.39543 8.5 10.5 8.5ZM14.5 12.6849C14.5 13.1351 14.1351 13.5 13.6849 13.5H7.31509C6.86493 13.5 6.5 13.1351 6.5 12.6849C6.5 12.5618 6.50757 12.4403 6.53492 12.3203C6.69027 11.6384 7.45196 9.25 10.5 9.25C13.548 9.25 14.3097 11.6384 14.4651 12.3203C14.4924 12.4403 14.5 12.5618 14.5 12.6849Z" fill="black"/>
<path fill-rule="evenodd" clip-rule="evenodd" d="M9.7 3.5H6.3C5.44342 3.5 4.86113 3.50078 4.41104 3.53755C3.97262 3.57337 3.74842 3.6383 3.59202 3.71799C3.21569 3.90973 2.90973 4.21569 2.71799 4.59202C2.6383 4.74842 2.57337 4.97262 2.53755 5.41104C2.50078 5.86113 2.5 6.44342 2.5 7.3V8.7C2.5 9.55658 2.50078 10.1389 2.53755 10.589C2.57337 11.0274 2.6383 11.2516 2.71799 11.408C2.90973 11.7843 3.21569 12.0903 3.59202 12.282C3.74842 12.3617 3.97262 12.4266 4.41104 12.4624C4.70572 12.4865 5.05707 12.4952 5.50497 12.4983C5.50118 12.5652 5.5 12.6278 5.5 12.6849C5.5 12.9777 5.56935 13.2544 5.69252 13.4993C4.4072 13.4946 3.6973 13.458 3.13803 13.173C2.57354 12.8854 2.1146 12.4265 1.82698 11.862C1.5 11.2202 1.5 10.3802 1.5 8.7V7.3C1.5 5.61984 1.5 4.77976 1.82698 4.13803C2.1146 3.57354 2.57354 3.1146 3.13803 2.82698C3.77976 2.5 4.61984 2.5 6.3 2.5H9.7C11.3802 2.5 12.2202 2.5 12.862 2.82698C13.4265 3.1146 13.8854 3.57354 14.173 4.13803C14.5 4.77976 14.5 5.61984 14.5 7.3V8.7C14.5 9.23841 14.5 9.69055 14.4892 10.0775C14.4367 10.0096 14.3814 9.94194 14.3233 9.87483C14.0909 9.6065 13.8178 9.35266 13.4997 9.12885C13.5 8.99393 13.5 8.85124 13.5 8.7V7.3C13.5 7.03789 13.4999 6.80147 13.4988 6.58665C13.4996 6.55787 13.5 6.52898 13.5 6.5C13.5 6.45539 13.499 6.41101 13.4971 6.36687C13.4932 5.98383 13.484 5.67474 13.4624 5.41104C13.4266 4.97262 13.3617 4.74842 13.282 4.59202C13.0903 4.21569 12.7843 3.90973 12.408 3.71799C12.2516 3.6383 12.0274 3.57337 11.589 3.53755C11.3253 3.51601 11.0162 3.50682 10.6331 3.5029C10.589 3.50097 10.5446 3.5 10.5 3.5C10.471 3.5 10.4421 3.50041 10.4133 3.50123C10.1985 3.50007 9.96211 3.5 9.7 3.5ZM8.26389 4.5H5.1C4.53995 4.5 4.25992 4.5 4.04601 4.60899C3.85785 4.70487 3.70487 4.85785 3.60899 5.04601C3.5 5.25992 3.5 5.53995 3.5 6.1V9.9C3.5 10.4601 3.5 10.7401 3.60899 10.954C3.70487 11.1422 3.85785 11.2951 4.04601 11.391C4.25992 11.5 4.53995 11.5 5.1 11.5H5.73621C5.90371 11.0349 6.19115 10.4356 6.67673 9.87483C7.10369 9.38176 7.66842 8.9376 8.39628 8.63878C7.84305 8.09456 7.5 7.33734 7.5 6.5C7.5 5.73165 7.78885 5.03076 8.26389 4.5ZM6.50733 12.5C6.50192 12.5612 6.5 12.6229 6.5 12.6849C6.5 13.1351 6.86493 13.5 7.31509 13.5H9.7C11.3802 13.5 12.2202 13.5 12.862 13.173C13.4265 12.8854 13.8854 12.4265 14.173 11.862C14.2045 11.8003 14.2329 11.7367 14.2586 11.6708C14.1049 11.2927 13.8595 10.8382 13.4739 10.4256C13.4705 10.482 13.4667 10.5364 13.4624 10.589C13.4266 11.0274 13.3617 11.2516 13.282 11.408C13.0903 11.7843 12.7843 12.0903 12.408 12.282C12.2516 12.3617 12.0274 12.4266 11.589 12.4624C11.1389 12.4992 10.5566 12.5 9.7 12.5H6.50733ZM12.5 9.69075V9.9C12.5 10.4601 12.5 10.7401 12.391 10.954C12.2951 11.1422 12.1422 11.2951 11.954 11.391C11.7401 11.5 11.4601 11.5 10.9 11.5H6.81508C7.18235 10.6952 7.95362 9.64902 9.53019 9.33978C9.82452 9.28205 10.1469 9.25 10.5 9.25C10.8531 9.25 11.1755 9.28205 11.4698 9.33978C11.8607 9.41645 12.202 9.5384 12.5 9.69075ZM10.5 4.5C11.6046 4.5 12.5 5.39543 12.5 6.5C12.5 7.29779 12.0329 7.98648 11.3572 8.30749C11.0974 8.43093 10.8068 8.5 10.5 8.5C10.1932 8.5 9.90258 8.43093 9.64277 8.30749C8.96712 7.98648 8.5 7.29779 8.5 6.5C8.5 5.39543 9.39543 4.5 10.5 4.5Z" fill="black"/>
</svg>
