<svg width="16" height="16" viewBox="0 0 16 16" fill="none" xmlns="http://www.w3.org/2000/svg">
<path fill-rule="evenodd" clip-rule="evenodd" d="M2.32698 3.63803C2 4.27976 2 5.11984 2 6.8V9.2C2 10.8802 2 11.7202 2.32698 12.362C2.6146 12.9265 3.07354 13.3854 3.63803 13.673C4.27976 14 5.11984 14 6.8 14H9.2C10.8802 14 11.7202 14 12.362 13.673C12.9265 13.3854 13.3854 12.9265 13.673 12.362C14 11.7202 14 10.8802 14 9.2V6.8C14 5.11984 14 4.27976 13.673 3.63803C13.3854 3.07354 12.9265 2.6146 12.362 2.32698C11.7202 2 10.8802 2 9.2 2H6.8C5.11984 2 4.27976 2 3.63803 2.32698C3.07354 2.6146 2.6146 3.07354 2.32698 3.63803ZM11.3536 3.64645C11.1583 3.45118 10.8417 3.45118 10.6464 3.64645L9.64645 4.64645C9.45118 4.84171 9.45118 5.15829 9.64645 5.35355C9.84171 5.54882 10.1583 5.54882 10.3536 5.35355L11 4.70711L11.6464 5.35355C11.8417 5.54882 12.1583 5.54882 12.3536 5.35355C12.5488 5.15829 12.5488 4.84171 12.3536 4.64645L11.3536 3.64645ZM10.3536 10.6464C10.1583 10.4512 9.84171 10.4512 9.64645 10.6464C9.45118 10.8417 9.45118 11.1583 9.64645 11.3536L10.6464 12.3536C10.8417 12.5488 11.1583 12.5488 11.3536 12.3536L12.3536 11.3536C12.5488 11.1583 12.5488 10.8417 12.3536 10.6464C12.1583 10.4512 11.8417 10.4512 11.6464 10.6464L11 11.2929L10.3536 10.6464Z" fill="black"/>
</svg>
