<svg width="16" height="16" viewBox="0 0 16 16" fill="none" xmlns="http://www.w3.org/2000/svg">
<path d="M4.5 9.1V6.9C4.5 6.05992 4.5 5.63988 4.66349 5.31901C4.8073 5.03677 5.03677 4.8073 5.31901 4.66349C5.63988 4.5 6.05992 4.5 6.9 4.5H9.1C9.94008 4.5 10.3601 4.5 10.681 4.66349C10.9632 4.8073 11.1927 5.03677 11.3365 5.31901C11.5 5.63988 11.5 6.05992 11.5 6.9V9.1C11.5 9.94008 11.5 10.3601 11.3365 10.681C11.1927 10.9632 10.9632 11.1927 10.681 11.3365C10.3601 11.5 9.94008 11.5 9.1 11.5H6.9C6.05992 11.5 5.63988 11.5 5.31901 11.3365C5.03677 11.1927 4.8073 10.9632 4.66349 10.681C4.5 10.3601 4.5 9.94008 4.5 9.1Z" fill="black"/>
<path d="M7.5 2.5H8.5M2.5 7.5V8.5M7.5 13.5H8.5M13.5 7.5V8.5" stroke="black" stroke-linecap="round"/>
<path d="M2.5 5.5V5C2.5 3.61929 3.61929 2.5 5 2.5H5.5M10.5 2.5H11C12.3807 2.5 13.5 3.61929 13.5 5V5.5M13.5 10.5V11C13.5 12.3807 12.3807 13.5 11 13.5H10.5M5.5 13.5H5C3.61929 13.5 2.5 12.3807 2.5 11V10.5" stroke="black" stroke-linecap="round"/>
</svg>
