<svg width="16" height="16" viewBox="0 0 16 16" fill="none" xmlns="http://www.w3.org/2000/svg">
<path d="M6.23929 3.02666L11.5629 5.88561C12.8424 6.57278 13.4822 6.91636 13.6923 7.37308C13.8754 7.77098 13.8754 8.22902 13.6923 8.62692C13.4822 9.08364 12.8424 9.42722 11.5629 10.1144L6.23928 12.9733C4.87529 13.7059 4.1933 14.0721 3.68306 13.9835C3.23906 13.9063 2.85327 13.6336 2.63239 13.2408C2.37856 12.7894 2.49627 12.0243 2.73169 10.494L2.95321 9.05412C2.96996 8.94526 2.97833 8.89083 3.00421 8.84826C3.02704 8.81068 3.05938 8.7798 3.09796 8.75871C3.14168 8.73482 3.19643 8.72895 3.30595 8.71722L6.28791 8.39772C7.29379 8.28995 7.79673 8.23606 7.86165 8.13818C7.9172 8.05443 7.9172 7.94557 7.86165 7.86182C7.79673 7.76394 7.29379 7.71005 6.28791 7.60228L3.30595 7.28278C3.19643 7.27105 3.14168 7.26518 3.09796 7.24129C3.05938 7.2202 3.02704 7.18932 3.00421 7.15174C2.97833 7.10917 2.96996 7.05474 2.95321 6.94588L2.73169 5.50598C2.49627 3.97574 2.37856 3.21062 2.63239 2.75921C2.85327 2.36639 3.23906 2.0937 3.68306 2.01655C4.1933 1.92788 4.8753 2.29414 6.23929 3.02666Z" fill="black"/>
</svg>
