<svg width="16" height="16" viewBox="0 0 16 16" fill="none" xmlns="http://www.w3.org/2000/svg">
<path fill-rule="evenodd" clip-rule="evenodd" d="M3.61811 4.30809C3.66922 4.49884 3.78547 4.70019 4.01796 5.10288L4.01797 5.10288C4.09177 5.23072 4.12868 5.29464 4.1448 5.34359C4.23816 5.62703 4.06404 5.92862 3.77189 5.98949C3.72143 6 3.64762 6 3.5 6C3.03501 6 2.80252 6 2.61177 6.05112C2.09413 6.18982 1.68981 6.59414 1.55111 7.11178C1.5 7.30253 1.5 7.53502 1.5 8C1.5 8.46499 1.5 8.69748 1.55111 8.88823C1.68981 9.40587 2.09413 9.81019 2.61177 9.94889C2.80252 10 3.03501 10 3.5 10C3.64761 10 3.72141 10 3.77186 10.0105C4.06402 10.0714 4.23814 10.373 4.14478 10.6564C4.12865 10.7054 4.09175 10.7693 4.01795 10.8971C3.78546 11.2998 3.66921 11.5012 3.6181 11.6919C3.4794 12.2095 3.62739 12.7619 4.00633 13.1408C4.14597 13.2804 4.34731 13.3967 4.75 13.6292C5.15269 13.8617 5.35404 13.9779 5.54479 14.029C6.06242 14.1677 6.61474 14.0197 6.99367 13.6408C7.13331 13.5012 7.24956 13.2998 7.48205 12.8971C7.55586 12.7693 7.59277 12.7054 7.6271 12.6669C7.82589 12.4443 8.17413 12.4443 8.37293 12.6669C8.40726 12.7054 8.44416 12.7693 8.51796 12.8971C8.75046 13.2998 8.8667 13.5011 9.00634 13.6408C9.38528 14.0197 9.93759 14.1677 10.4552 14.029C10.646 13.9779 10.8473 13.8616 11.25 13.6292C11.6527 13.3967 11.854 13.2804 11.9937 13.1408C12.3726 12.7618 12.5206 12.2095 12.3819 11.6919C12.3308 11.5011 12.2146 11.2998 11.9821 10.8971C11.9083 10.7693 11.8714 10.7054 11.8553 10.6564C11.7619 10.373 11.936 10.0714 12.2282 10.0105C12.2786 10 12.3524 10 12.5 10C12.965 10 13.1975 10 13.3882 9.94889C13.9059 9.81019 14.3102 9.40587 14.4489 8.88823C14.5 8.69748 14.5 8.46499 14.5 8C14.5 7.53502 14.5 7.30253 14.4489 7.11178C14.3102 6.59414 13.9059 6.18982 13.3882 6.05112C13.1975 6.00001 12.965 6 12.5 6C12.3524 6 12.2786 6 12.2281 5.98949C11.936 5.92862 11.7619 5.62703 11.8552 5.34358C11.8714 5.29463 11.9083 5.23072 11.9821 5.10289C12.2145 4.7002 12.3308 4.49886 12.3819 4.30811C12.5206 3.79047 12.3726 3.23816 11.9937 2.85922C11.854 2.71958 11.6527 2.60333 11.25 2.37084C10.8473 2.13835 10.646 2.0221 10.4552 1.97099C9.93758 1.83229 9.38527 1.98028 9.00633 2.35922C8.86669 2.49886 8.75044 2.7002 8.51795 3.10289C8.44416 3.2307 8.40726 3.29461 8.37294 3.33304C8.17414 3.55563 7.82588 3.55563 7.62709 3.33304C7.59276 3.29461 7.55586 3.2307 7.48207 3.10288L7.48206 3.10287C7.24957 2.70019 7.13333 2.49884 6.99369 2.3592C6.61475 1.98027 6.06244 1.83227 5.5448 1.97098C5.35405 2.02209 5.1527 2.13833 4.75001 2.37083C4.34733 2.60332 4.14598 2.71957 4.00634 2.8592C3.6274 3.23814 3.47941 3.79045 3.61811 4.30809ZM7.99999 10.5C9.3807 10.5 10.5 9.38071 10.5 8C10.5 6.61929 9.3807 5.5 7.99999 5.5C6.61928 5.5 5.49999 6.61929 5.49999 8C5.49999 9.38071 6.61928 10.5 7.99999 10.5Z" fill="black"/>
</svg>
