<svg width="16" height="16" viewBox="0 0 16 16" fill="none" xmlns="http://www.w3.org/2000/svg">
<path d="M6 5.5V5.5C5.53534 5.5 5.30302 5.5 5.10982 5.53843C4.31644 5.69624 3.69624 6.31644 3.53843 7.10982C3.5 7.30302 3.5 7.53534 3.5 8V10.8C3.5 11.9201 3.5 12.4802 3.71799 12.908C3.90973 13.2843 4.21569 13.5903 4.59202 13.782C5.01984 14 5.5799 14 6.7 14H9.3C10.4201 14 10.9802 14 11.408 13.782C11.7843 13.5903 12.0903 13.2843 12.282 12.908C12.5 12.4802 12.5 11.9201 12.5 10.8V8C12.5 7.53534 12.5 7.30302 12.4616 7.10982C12.3038 6.31644 11.6836 5.69624 10.8902 5.53843C10.697 5.5 10.4647 5.5 10 5.5V5.5" stroke="black" stroke-linecap="round"/>
<path d="M6 3.5L8 1.5M8 1.5L10 3.5M8 1.5V9.5" stroke="black" stroke-linecap="round" stroke-linejoin="round"/>
</svg>
