<svg width="16" height="16" viewBox="0 0 16 16" fill="none" xmlns="http://www.w3.org/2000/svg">
<path d="M2.81324 9.99549L2.21053 4.42043C2.12194 3.60099 2.71112 2.86357 3.5299 2.7691L7.71344 2.28638C7.90385 2.26441 8.09615 2.26441 8.28656 2.28638L12.4701 2.7691C13.2889 2.86357 13.8781 3.60099 13.7895 4.42043L13.1868 9.99549C13.0918 10.874 12.5401 11.6371 11.7358 12.0027L8.82761 13.3246C8.30176 13.5636 7.69824 13.5636 7.17239 13.3246L4.26425 12.0027C3.45985 11.6371 2.90821 10.874 2.81324 9.99549Z" stroke="black"/>
<path d="M8 2L2.5 3.5V7.75H8V2Z" fill="black"/>
<path d="M13 11.5L13.5 7.75H8V13.5L13 11.5Z" fill="black"/>
</svg>
