<svg width="16" height="16" viewBox="0 0 16 16" fill="none" xmlns="http://www.w3.org/2000/svg">
<mask id="path-1-inside-1_5592_1116" fill="white">
<path fill-rule="evenodd" clip-rule="evenodd" d="M2.21916 7.50347L6.8789 2.26127C7.47558 1.58999 8.52444 1.58999 9.12112 2.26127L13.7809 7.50347C14.6407 8.47082 13.954 10 12.6597 10H11V11C11 11.9319 11 12.3978 10.8478 12.7654C10.6448 13.2554 10.2554 13.6448 9.76538 13.8478C9.39783 14 8.93189 14 8.00001 14C7.06813 14 6.60218 14 6.23464 13.8478C5.74459 13.6448 5.35524 13.2554 5.15225 12.7654C5.00001 12.3978 5.00001 11.9319 5.00001 11V10H3.34027C2.046 10 1.35929 8.47082 2.21916 7.50347Z"/>
</mask>
<path d="M6.8789 2.26127L7.6263 2.92563V2.92563L6.8789 2.26127ZM2.21916 7.50347L2.96657 8.16783H2.96657L2.21916 7.50347ZM9.12112 2.26127L8.37371 2.92563V2.92563L9.12112 2.26127ZM13.7809 7.50347L13.0334 8.16783L13.0334 8.16783L13.7809 7.50347ZM11 10V9.00001H10V10H11ZM10.8478 12.7654L9.92389 12.3827L9.92389 12.3827L10.8478 12.7654ZM9.76538 13.8478L10.1481 14.7717L9.76538 13.8478ZM6.23464 13.8478L5.85196 14.7717H5.85196L6.23464 13.8478ZM5.15225 12.7654L4.22837 13.1481H4.22837L5.15225 12.7654ZM5.00001 10H6.00001V9.00001H5.00001V10ZM6.13149 1.5969L1.47175 6.8391L2.96657 8.16783L7.6263 2.92563L6.13149 1.5969ZM9.86853 1.5969C8.87405 0.478116 7.12596 0.478115 6.13149 1.5969L7.6263 2.92563C7.8252 2.70187 8.17482 2.70187 8.37371 2.92563L9.86853 1.5969ZM14.5283 6.8391L9.86853 1.5969L8.37371 2.92563L13.0334 8.16783L14.5283 6.8391ZM12.6597 11C14.8169 11 15.9614 8.45136 14.5283 6.8391L13.0334 8.16783C13.3201 8.49028 13.0912 9.00001 12.6597 9.00001V11ZM11 11H12.6597V9.00001H11V11ZM10 10V11H12V10H10ZM10 11C10 11.4796 9.99947 11.7893 9.9833 12.0263C9.96774 12.2543 9.94113 12.3411 9.92389 12.3827L11.7716 13.1481C11.9067 12.8221 11.9562 12.4922 11.9787 12.1624C12.0006 11.8415 12 11.4523 12 11H10ZM9.92389 12.3827C9.82239 12.6277 9.62772 12.8224 9.38269 12.9239L10.1481 14.7717C10.8831 14.4672 11.4672 13.8831 11.7716 13.1481L9.92389 12.3827ZM9.38269 12.9239C9.34108 12.9411 9.25425 12.9677 9.02625 12.9833C8.78927 12.9995 8.47963 13 8.00001 13V15C8.45227 15 8.84154 15.0006 9.16239 14.9787C9.49222 14.9562 9.82213 14.9067 10.1481 14.7717L9.38269 12.9239ZM8.00001 13C7.52039 13 7.21075 12.9995 6.97377 12.9833C6.74577 12.9677 6.65894 12.9411 6.61732 12.9239L5.85196 14.7717C6.17789 14.9067 6.5078 14.9562 6.83763 14.9787C7.15847 15.0006 7.54775 15 8.00001 15V13ZM6.61733 12.9239C6.3723 12.8224 6.17762 12.6277 6.07613 12.3827L4.22837 13.1481C4.53285 13.8831 5.11687 14.4672 5.85196 14.7717L6.61733 12.9239ZM6.07613 12.3827C6.05889 12.3411 6.03228 12.2543 6.01672 12.0263C6.00055 11.7893 6.00001 11.4796 6.00001 11H4.00001C4.00001 11.4523 3.99947 11.8415 4.02136 12.1624C4.04386 12.4922 4.09337 12.8221 4.22837 13.1481L6.07613 12.3827ZM6.00001 11V10H4.00001V11H6.00001ZM3.34027 11H5.00001V9.00001H3.34027V11ZM1.47175 6.8391C0.0386373 8.45136 1.18315 11 3.34027 11V9.00001C2.90885 9.00001 2.67995 8.49028 2.96657 8.16783L1.47175 6.8391Z" fill="black" mask="url(#path-1-inside-1_5592_1116)"/>
</svg>
