<svg width="16" height="16" viewBox="0 0 16 16" fill="none" xmlns="http://www.w3.org/2000/svg">
<path fill-rule="evenodd" clip-rule="evenodd" d="M2.21916 7.50347L6.8789 2.26127C7.47558 1.58999 8.52444 1.58999 9.12112 2.26127L13.7809 7.50347C14.6407 8.47082 13.954 10 12.6597 10H11V11C11 11.9319 11 12.3978 10.8478 12.7654C10.6448 13.2554 10.2554 13.6448 9.76538 13.8478C9.39783 14 8.93189 14 8.00001 14C7.06813 14 6.60218 14 6.23464 13.8478C5.74459 13.6448 5.35524 13.2554 5.15225 12.7654C5.00001 12.3978 5.00001 11.9319 5.00001 11V10H3.34027C2.046 10 1.35929 8.47082 2.21916 7.50347Z" fill="black"/>
</svg>
