<svg width="16" height="16" viewBox="0 0 16 16" fill="none" xmlns="http://www.w3.org/2000/svg">
<path fill-rule="evenodd" clip-rule="evenodd" d="M4.5 2.52878C3.91168 2.56471 3.49429 2.64546 3.13803 2.82698C2.57354 3.1146 2.1146 3.57354 1.82698 4.13803C1.5 4.77976 1.5 5.61984 1.5 7.3V8.7C1.5 10.3802 1.5 11.2202 1.82698 11.862C2.1146 12.4265 2.57354 12.8854 3.13803 13.173C3.49429 13.3545 3.91168 13.4353 4.5 13.4712V2.52878ZM5.5 13.4983C5.74373 13.5 6.00929 13.5 6.3 13.5H9.7C11.3802 13.5 12.2202 13.5 12.862 13.173C13.4265 12.8854 13.8854 12.4265 14.173 11.862C14.5 11.2202 14.5 10.3802 14.5 8.7V7.3C14.5 5.61984 14.5 4.77976 14.173 4.13803C13.8854 3.57354 13.4265 3.1146 12.862 2.82698C12.2202 2.5 11.3802 2.5 9.7 2.5H6.3C6.00929 2.5 5.74373 2.5 5.5 2.50169V13.4983Z" fill="black"/>
</svg>
