<svg width="16" height="16" viewBox="0 0 16 16" fill="none" xmlns="http://www.w3.org/2000/svg">
<path fill-rule="evenodd" clip-rule="evenodd" d="M11.5 2.52878C12.0883 2.56471 12.5057 2.64546 12.862 2.82698C13.4265 3.1146 13.8854 3.57354 14.173 4.13803C14.5 4.77976 14.5 5.61984 14.5 7.3V8.7C14.5 10.3802 14.5 11.2202 14.173 11.862C13.8854 12.4265 13.4265 12.8854 12.862 13.173C12.5057 13.3545 12.0883 13.4353 11.5 13.4712V2.52878ZM10.5 13.4983C10.2563 13.5 9.99071 13.5 9.7 13.5H6.3C4.61984 13.5 3.77976 13.5 3.13803 13.173C2.57354 12.8854 2.1146 12.4265 1.82698 11.862C1.5 11.2202 1.5 10.3802 1.5 8.7V7.3C1.5 5.61984 1.5 4.77976 1.82698 4.13803C2.1146 3.57354 2.57354 3.1146 3.13803 2.82698C3.77976 2.5 4.61984 2.5 6.3 2.5H9.7C9.99071 2.5 10.2563 2.5 10.5 2.50169V13.4983Z" fill="black"/>
</svg>
