<svg width="16" height="16" viewBox="0 0 16 16" fill="none" xmlns="http://www.w3.org/2000/svg">
<circle cx="8" cy="8" r="3" fill="black"/>
<path fill-rule="evenodd" clip-rule="evenodd" d="M11.874 9C11.9562 8.68038 12 8.3453 12 8C12 7.6547 11.9562 7.31962 11.874 7H14.5C15.0523 7 15.5 7.44772 15.5 8C15.5 8.55228 15.0523 9 14.5 9H11.874ZM4.12602 9H1.5C0.947715 9 0.5 8.55228 0.5 8C0.5 7.44772 0.947715 7 1.5 7H4.12602C4.04375 7.31962 4 7.6547 4 8C4 8.3453 4.04375 8.68038 4.12602 9ZM5.17071 9C5.06015 8.68722 5 8.35064 5 8C5 7.64936 5.06015 7.31278 5.17071 7H10.8293C10.9398 7.31278 11 7.64936 11 8C11 8.35064 10.9398 8.68722 10.8293 9H5.17071Z" fill="black"/>
</svg>
