<svg width="16" height="16" viewBox="0 0 16 16" fill="none" xmlns="http://www.w3.org/2000/svg">
<path d="M4.55013 3.10664C5.0124 2.11612 5.24354 1.62086 5.56175 1.46571C5.83835 1.33084 6.16165 1.33084 6.43825 1.46571C6.75646 1.62086 6.9876 2.11612 7.44987 3.10664L7.5836 3.39318C7.67472 3.58841 7.72027 3.68603 7.78348 3.76988C7.83955 3.84427 7.90573 3.91045 7.98012 3.96652C8.06397 4.02973 8.16159 4.07528 8.35682 4.1664L8.64336 4.30013C9.63388 4.7624 10.1291 4.99354 10.2843 5.31175C10.4192 5.58835 10.4192 5.91165 10.2843 6.18825C10.1291 6.50646 9.63388 6.7376 8.64336 7.19987L8.35682 7.3336C8.16159 7.42472 8.06397 7.47027 7.98012 7.53348C7.90573 7.58955 7.83955 7.65573 7.78348 7.73012C7.72027 7.81397 7.67472 7.91159 7.5836 8.10682L7.44987 8.39336C6.9876 9.38388 6.75646 9.87914 6.43825 10.0343C6.16165 10.1692 5.83835 10.1692 5.56175 10.0343C5.24354 9.87914 5.0124 9.38388 4.55013 8.39336L4.4164 8.10682C4.32528 7.91159 4.27973 7.81397 4.21652 7.73012C4.16045 7.65573 4.09427 7.58955 4.01988 7.53348C3.93603 7.47027 3.83841 7.42472 3.64318 7.3336L3.35664 7.19987C2.36612 6.7376 1.87086 6.50646 1.71571 6.18825C1.58084 5.91165 1.58084 5.58835 1.71571 5.31175C1.87086 4.99354 2.36612 4.7624 3.35664 4.30013L3.64318 4.1664C3.83841 4.07528 3.93603 4.02973 4.01988 3.96652C4.09427 3.91045 4.16045 3.84427 4.21652 3.76988C4.27973 3.68603 4.32528 3.58841 4.4164 3.39318L4.55013 3.10664Z" fill="black"/>
<path d="M10.1626 9.07998C10.5093 8.33709 10.6827 7.96564 10.9213 7.84928C11.1288 7.74813 11.3712 7.74813 11.5787 7.84928C11.8173 7.96564 11.9907 8.33709 12.3374 9.07998L12.4178 9.25227C12.4862 9.3987 12.5203 9.47191 12.5677 9.5348C12.6098 9.59059 12.6594 9.64023 12.7152 9.68228C12.7781 9.72968 12.8513 9.76385 12.9977 9.83219L13.17 9.91259C13.9129 10.2593 14.2844 10.4327 14.4007 10.6713C14.5019 10.8788 14.5019 11.1212 14.4007 11.3287C14.2844 11.5673 13.9129 11.7407 13.17 12.0874L12.9977 12.1678C12.8513 12.2362 12.7781 12.2703 12.7152 12.3177C12.6594 12.3598 12.6098 12.4094 12.5677 12.4652C12.5203 12.5281 12.4862 12.6013 12.4178 12.7477L12.3374 12.92C11.9907 13.6629 11.8173 14.0344 11.5787 14.1507C11.3712 14.2519 11.1288 14.2519 10.9213 14.1507C10.6827 14.0344 10.5093 13.6629 10.1626 12.92L10.0822 12.7477C10.0138 12.6013 9.97968 12.5281 9.93228 12.4652C9.89023 12.4094 9.84059 12.3598 9.7848 12.3177C9.72191 12.2703 9.6487 12.2362 9.50227 12.1678L9.32998 12.0874C8.58709 11.7407 8.21564 11.5673 8.09928 11.3287C7.99813 11.1212 7.99813 10.8788 8.09928 10.6713C8.21564 10.4327 8.58709 10.2593 9.32998 9.91259L9.50227 9.83219C9.6487 9.76385 9.72191 9.72968 9.7848 9.68228C9.84059 9.64023 9.89023 9.59059 9.93228 9.5348C9.97968 9.47191 10.0138 9.3987 10.0822 9.25227L10.1626 9.07998Z" fill="black"/>
</svg>
