<svg width="16" height="16" viewBox="0 0 16 16" fill="none" xmlns="http://www.w3.org/2000/svg">
<path d="M8.75 4.63718V11.3628C8.75 12.5131 8.75 13.0883 8.51881 13.3662C8.31802 13.6076 8.01551 13.7407 7.70189 13.7256C7.34078 13.7082 6.9168 13.3196 6.06884 12.5423L3.26884 9.9756C3.07771 9.80041 2.98215 9.71281 2.91364 9.60828C2.85292 9.51564 2.80802 9.41356 2.78076 9.3062C2.75 9.18507 2.75 9.05543 2.75 8.79616V7.20384C2.75 6.94457 2.75 6.81493 2.78076 6.6938C2.80802 6.58644 2.85292 6.48436 2.91364 6.39172C2.98215 6.28719 3.07771 6.19959 3.26884 6.0244L6.06884 3.45773C6.9168 2.68043 7.34078 2.29178 7.70189 2.27439C8.01551 2.25929 8.31802 2.39236 8.51881 2.63375C8.75 2.9117 8.75 3.48686 8.75 4.63718Z" fill="black"/>
<path d="M1.5 7.15C1.5 6.30992 1.5 5.88988 1.66349 5.56901C1.8073 5.28677 2.03677 5.0573 2.31901 4.91349C2.63988 4.75 3.05992 4.75 3.9 4.75H4.1C4.94008 4.75 5.36012 4.75 5.68099 4.91349C5.96323 5.0573 6.1927 5.28677 6.33651 5.56901C6.5 5.88988 6.5 6.30992 6.5 7.15V8.85C6.5 9.69008 6.5 10.1101 6.33651 10.431C6.1927 10.7132 5.96323 10.9427 5.68099 11.0865C5.36012 11.25 4.94008 11.25 4.1 11.25H3.9C3.05992 11.25 2.63988 11.25 2.31901 11.0865C2.03677 10.9427 1.8073 10.7132 1.66349 10.431C1.5 10.1101 1.5 9.69008 1.5 8.85V7.15Z" fill="black"/>
<path d="M10.2678 6.23223C10.7366 6.70107 11 7.33696 11 8C11 8.66304 10.7366 9.29893 10.2678 9.76777" stroke="black" stroke-opacity="0.25" stroke-linecap="round"/>
<path d="M11.8284 5.17157C12.5786 5.92172 13 6.93913 13 8C13 9.06087 12.5786 10.0783 11.8284 10.8284" stroke="black" stroke-opacity="0.25" stroke-linecap="round"/>
<path d="M13.3891 4.11091C14.4205 5.14236 15 6.54131 15 8C15 9.45869 14.4205 10.8576 13.3891 11.8891" stroke="black" stroke-opacity="0.25" stroke-linecap="round"/>
</svg>
