<svg width="16" height="16" viewBox="0 0 16 16" fill="none" xmlns="http://www.w3.org/2000/svg">
<path fill-rule="evenodd" clip-rule="evenodd" d="M5 2.02878V5H2.02878C2.06471 4.41168 2.14546 3.99429 2.32698 3.63803C2.6146 3.07354 3.07354 2.6146 3.63803 2.32698C3.99429 2.14546 4.41168 2.06471 5 2.02878ZM6 2.00169V5H13.9712C13.9353 4.41168 13.8545 3.99429 13.673 3.63803C13.3854 3.07354 12.9265 2.6146 12.362 2.32698C11.7202 2 10.8802 2 9.2 2H6.8C6.50929 2 6.24373 2 6 2.00169ZM13.9983 6H6V13.9983C6.24373 14 6.50929 14 6.8 14H9.2C10.8802 14 11.7202 14 12.362 13.673C12.9265 13.3854 13.3854 12.9265 13.673 12.362C14 11.7202 14 10.8802 14 9.2V6.8C14 6.50929 14 6.24373 13.9983 6ZM5 13.9712V6H2.00169C2 6.24373 2 6.50929 2 6.8V9.2C2 10.8802 2 11.7202 2.32698 12.362C2.6146 12.9265 3.07354 13.3854 3.63803 13.673C3.99429 13.8545 4.41168 13.9353 5 13.9712Z" fill="black"/>
</svg>
