<svg width="16" height="16" viewBox="0 0 16 16" fill="none" xmlns="http://www.w3.org/2000/svg">
<g clip-path="url(#clip0_7339_1121)">
<path d="M7.11104 1.72546C7.48337 1.00278 8.51663 1.00278 8.88896 1.72546L9.83688 3.56538L11.8082 2.93464C12.5825 2.68691 13.3131 3.41754 13.0654 4.19182L12.4346 6.16312L14.2745 7.11104C14.9972 7.48337 14.9972 8.51663 14.2745 8.88896L12.4346 9.83688L13.0654 11.8082C13.3131 12.5825 12.5825 13.3131 11.8082 13.0654L9.83688 12.4346L8.88896 14.2745C8.51663 14.9972 7.48337 14.9972 7.11104 14.2745L6.16312 12.4346L4.19182 13.0654C3.41754 13.3131 2.68691 12.5825 2.93464 11.8082L3.56538 9.83688L1.72546 8.88896C1.00278 8.51663 1.00278 7.48337 1.72546 7.11104L3.56538 6.16312L2.93464 4.19182C2.68691 3.41754 3.41754 2.68691 4.19182 2.93464L6.16312 3.56538L7.11104 1.72546Z" fill="black"/>
</g>
<defs>
<clipPath id="clip0_7339_1121">
<rect width="16" height="16" fill="white"/>
</clipPath>
</defs>
</svg>
