<svg width="16" height="16" viewBox="0 0 16 16" fill="none" xmlns="http://www.w3.org/2000/svg">
<path fill-rule="evenodd" clip-rule="evenodd" d="M8 1.33361C7.58047 1.33361 7.16095 1.54057 6.91986 1.95449L5.41375 4.54032L2.48905 5.17366C1.55274 5.37641 1.18317 6.51382 1.82149 7.22821L3.81535 9.45967L3.51391 12.4369C3.4174 13.3901 4.38494 14.093 5.26161 13.7067L8 12.5V1.33361Z" fill="black"/>
<path d="M10.1542 4.79197C10.2249 4.91327 10.3432 4.99929 10.4804 5.029L13.4051 5.66233C13.9669 5.78398 14.1887 6.46643 13.8057 6.89506L11.8118 9.12653C11.7183 9.2312 11.6731 9.37038 11.6872 9.51004L11.9886 12.4873C12.0465 13.0592 11.466 13.481 10.94 13.2492L8.20162 12.0425C8.07317 11.9858 7.92683 11.9858 7.79838 12.0425L5.05999 13.2492C4.53398 13.481 3.95346 13.0592 4.01136 12.4873L4.31281 9.51004C4.32695 9.37038 4.28173 9.2312 4.1882 9.12653L2.19433 6.89506C1.81134 6.46643 2.03308 5.78398 2.59487 5.66233L5.51957 5.029C5.65676 4.99929 5.77515 4.91327 5.8458 4.79197L7.35192 2.20614C7.64122 1.70943 8.35878 1.70943 8.64808 2.20613L10.1542 4.79197Z" stroke="black" stroke-linejoin="round"/>
</svg>
