<svg width="16" height="16" viewBox="0 0 16 16" fill="none" xmlns="http://www.w3.org/2000/svg">
<path fill-rule="evenodd" clip-rule="evenodd" d="M2 6.8V9.2C2 10.8802 2 11.7202 2.32698 12.362C2.6146 12.9265 3.07354 13.3854 3.63803 13.673C4.27976 14 5.11984 14 6.8 14H9.5V11.9C9.5 11.0599 9.5 10.6399 9.66349 10.319C9.8073 10.0368 10.0368 9.8073 10.319 9.66349C10.6399 9.5 11.0599 9.5 11.9 9.5H14V6.8C14 5.11984 14 4.27976 13.673 3.63803C13.3854 3.07354 12.9265 2.6146 12.362 2.32698C11.7202 2 10.8802 2 9.2 2H6.8C5.11984 2 4.27976 2 3.63803 2.32698C3.07354 2.6146 2.6146 3.07354 2.32698 3.63803C2 4.27976 2 5.11984 2 6.8ZM10.5 11L10.5 13.5L13.5 10.5L11 10.5C10.7239 10.5 10.5 10.7239 10.5 11ZM5.25 6C5.66421 6 6 5.66421 6 5.25C6 4.83579 5.66421 4.5 5.25 4.5C4.83579 4.5 4.5 4.83579 4.5 5.25C4.5 5.66421 4.83579 6 5.25 6ZM11.5 5.25C11.5 5.66421 11.1642 6 10.75 6C10.3358 6 10 5.66421 10 5.25C10 4.83579 10.3358 4.5 10.75 4.5C11.1642 4.5 11.5 4.83579 11.5 5.25ZM5.77639 6.55279C6.02144 6.43026 6.319 6.52784 6.44427 6.77059C6.44519 6.77226 6.44768 6.77668 6.45181 6.78348C6.46071 6.79814 6.47704 6.82355 6.50156 6.85625C6.55078 6.92188 6.63156 7.01493 6.74985 7.10957C6.98008 7.29375 7.37146 7.5 8 7.5C8.62854 7.5 9.01992 7.29375 9.25015 7.10957C9.36844 7.01493 9.44922 6.92188 9.49844 6.85625C9.52296 6.82355 9.53929 6.79814 9.54819 6.78348C9.55232 6.77668 9.55481 6.77226 9.55573 6.7706C9.681 6.52784 9.97856 6.43026 10.2236 6.55279C10.4706 6.67628 10.5707 6.97662 10.4472 7.22361L10 7C10.4472 7.22361 10.4471 7.22387 10.4469 7.22414L10.4467 7.2247L10.4461 7.22589L10.4447 7.22856L10.4414 7.23501L10.4321 7.25219C10.4248 7.26549 10.4151 7.28242 10.403 7.30246C10.3787 7.34249 10.3442 7.3952 10.2984 7.45625C10.207 7.57812 10.0691 7.73507 9.87485 7.89043C9.48008 8.20625 8.87146 8.5 8 8.5C7.12854 8.5 6.51992 8.20625 6.12515 7.89043C5.93094 7.73507 5.79297 7.57812 5.70156 7.45625C5.65578 7.3952 5.62133 7.34249 5.59702 7.30246C5.58485 7.28242 5.57519 7.26549 5.56787 7.25219L5.55863 7.23501L5.55529 7.22856L5.55394 7.22589L5.55334 7.2247L5.55305 7.22414C5.55292 7.22387 5.55279 7.22361 6 7L5.55279 7.22361C5.42929 6.97662 5.5294 6.67628 5.77639 6.55279Z" fill="black"/>
</svg>
