<svg width="16" height="16" viewBox="0 0 16 16" fill="none" xmlns="http://www.w3.org/2000/svg">
<path fill-rule="evenodd" clip-rule="evenodd" d="M8.00001 2.25C6.6716 2.25 5.66265 2.58229 4.98033 3.1888C4.29148 3.80111 4.00002 4.6357 4.00002 5.5C4.00002 5.9301 4.07176 6.32401 4.24812 6.67673C4.26051 6.70152 4.27334 6.72594 4.2866 6.75H5.65391C5.63195 6.73647 5.6106 6.7228 5.58987 6.70897C5.36843 6.56135 5.23019 6.40481 5.14255 6.22952C5.05328 6.05099 5.00002 5.8199 5.00002 5.5C5.00002 4.8643 5.20855 4.32389 5.6447 3.9362C6.08738 3.54271 6.82843 3.25 8.00001 3.25C9.16251 3.25 9.87055 3.53901 10.3054 3.84598C10.7426 4.15456 10.9466 4.51125 11.0528 4.7236C11.1763 4.97059 11.4766 5.07071 11.7236 4.94722C11.9706 4.82372 12.0707 4.52339 11.9472 4.2764C11.8034 3.98875 11.5075 3.47044 10.8821 3.02902C10.2545 2.58599 9.33752 2.25 8.00001 2.25ZM11.7134 9.25H10.3461C10.3681 9.26353 10.3894 9.2772 10.4102 9.29102C10.6316 9.43865 10.7698 9.59519 10.8575 9.77048C10.9467 9.94901 11 10.1801 11 10.5C11 11.1357 10.7915 11.6761 10.3553 12.0638C9.91265 12.4573 9.1716 12.75 8.00002 12.75C6.83752 12.75 6.12949 12.461 5.69461 12.154C5.25745 11.8454 5.05341 11.4888 4.94723 11.2764C4.82374 11.0294 4.5234 10.9293 4.27641 11.0528C4.02942 11.1763 3.92931 11.4766 4.0528 11.7236C4.19663 12.0112 4.49258 12.5296 5.11793 12.971C5.74555 13.414 6.66251 13.75 8.00002 13.75C9.32843 13.75 10.3374 13.4177 11.0197 12.8112C11.7085 12.1989 12 11.3643 12 10.5C12 10.0699 11.9283 9.67599 11.7519 9.32327C11.7395 9.29848 11.7267 9.27406 11.7134 9.25Z" fill="black"/>
<path fill-rule="evenodd" clip-rule="evenodd" d="M2.5 8C2.5 7.72386 2.72386 7.5 3 7.5H13C13.2761 7.5 13.5 7.72386 13.5 8C13.5 8.27614 13.2761 8.5 13 8.5H3C2.72386 8.5 2.5 8.27614 2.5 8Z" fill="black"/>
</svg>
