<svg width="16" height="16" viewBox="0 0 16 16" fill="none" xmlns="http://www.w3.org/2000/svg">
<path fill-rule="evenodd" clip-rule="evenodd" d="M1.82698 4.13803C1.5 4.77976 1.5 5.61984 1.5 7.3V8.7C1.5 10.3802 1.5 11.2202 1.82698 11.862C2.1146 12.4265 2.57354 12.8854 3.13803 13.173C3.77976 13.5 4.61984 13.5 6.3 13.5H9.7C11.3802 13.5 12.2202 13.5 12.862 13.173C13.4265 12.8854 13.8854 12.4265 14.173 11.862C14.5 11.2202 14.5 10.3802 14.5 8.7V7.3C14.5 5.61984 14.5 4.77976 14.173 4.13803C13.8854 3.57354 13.4265 3.1146 12.862 2.82698C12.2202 2.5 11.3802 2.5 9.7 2.5H6.3C4.61984 2.5 3.77976 2.5 3.13803 2.82698C2.57354 3.1146 2.1146 3.57354 1.82698 4.13803ZM4 8.5C3.72386 8.5 3.5 8.72386 3.5 9C3.5 9.27614 3.72386 9.5 4 9.5H12C12.2761 9.5 12.5 9.27614 12.5 9C12.5 8.72386 12.2761 8.5 12 8.5H4ZM4 10.5C3.72386 10.5 3.5 10.7239 3.5 11C3.5 11.2761 3.72386 11.5 4 11.5H8.5C8.77614 11.5 9 11.2761 9 11C9 10.7239 8.77614 10.5 8.5 10.5H4ZM10.5 10.5C10.2239 10.5 10 10.7239 10 11C10 11.2761 10.2239 11.5 10.5 11.5H12C12.2761 11.5 12.5 11.2761 12.5 11C12.5 10.7239 12.2761 10.5 12 10.5H10.5Z" fill="black"/>
</svg>
