<svg width="16" height="16" viewBox="0 0 16 16" fill="none" xmlns="http://www.w3.org/2000/svg">
<path fill-rule="evenodd" clip-rule="evenodd" d="M7.04883 14.25C7.04881 14.25 7.0488 14.25 7.04878 14.25C5.91727 14.25 5 13.3327 5 12.2012C5 11.3038 5.577 10.5411 6.38025 10.264C6.37073 10.1712 6.36584 10.077 6.36584 9.98171C6.36584 8.47303 7.58887 7.25 9.09755 7.25C10.1828 7.25 11.1202 7.88283 11.5609 8.79959C11.6492 8.79099 11.7387 8.78658 11.8292 8.78658C13.3379 8.78658 14.5609 10.0096 14.5609 11.5183C14.5609 13.0269 13.338 14.25 11.8293 14.25V14.25H7.04883V14.25Z" fill="black"/>
<path fill-rule="evenodd" clip-rule="evenodd" d="M12.4686 7.84114C12.4894 7.64694 12.5 7.44971 12.5 7.25C12.5 4.21243 10.0376 1.75 7 1.75C3.96243 1.75 1.5 4.21243 1.5 7.25C1.5 9.18828 2.50264 10.8924 4.01757 11.8719C4.11749 10.9411 4.63622 10.1367 5.38045 9.64929C5.54863 7.74405 7.14861 6.25 9.09755 6.25C10.3442 6.25 11.4467 6.86138 12.1238 7.79804C12.2403 7.80713 12.3553 7.82158 12.4686 7.84114ZM12.272 8.82228C12.1279 8.7988 11.98 8.78658 11.8292 8.78658C11.7387 8.78658 11.6492 8.79099 11.5609 8.79959C11.1202 7.88283 10.1828 7.25 9.09755 7.25C7.58887 7.25 6.36584 8.47303 6.36584 9.98171C6.36584 10.077 6.37073 10.1712 6.38025 10.264C5.577 10.5411 5 11.3038 5 12.2012C5 12.2608 5.00254 12.3197 5.00752 12.378C5.62532 12.6182 6.29727 12.75 7 12.75C9.4912 12.75 11.5956 11.0937 12.272 8.82228Z" fill="black"/>
</svg>
