<svg width="16" height="16" viewBox="0 0 16 16" fill="none" xmlns="http://www.w3.org/2000/svg">
<path fill-rule="evenodd" clip-rule="evenodd" d="M1.77248 3.86502C1.5 4.3998 1.5 5.09987 1.5 6.5V9.5C1.5 10.9001 1.5 11.6002 1.77248 12.135C2.01217 12.6054 2.39462 12.9878 2.86502 13.2275C3.3998 13.5 4.09987 13.5 5.5 13.5H10.5C11.9001 13.5 12.6002 13.5 13.135 13.2275C13.6054 12.9878 13.9878 12.6054 14.2275 12.135C14.5 11.6002 14.5 10.9001 14.5 9.5V6.5C14.5 5.09987 14.5 4.3998 14.2275 3.86502C13.9878 3.39462 13.6054 3.01217 13.135 2.77248C12.6002 2.5 11.9001 2.5 10.5 2.5H5.5C4.09987 2.5 3.3998 2.5 2.86502 2.77248C2.39462 3.01217 2.01217 3.39462 1.77248 3.86502ZM4.5 10.5C4.22386 10.5 4 10.7239 4 11C4 11.2761 4.22386 11.5 4.5 11.5H11.5C11.7761 11.5 12 11.2761 12 11C12 10.7239 11.7761 10.5 11.5 10.5H4.5Z" fill="black"/>
</svg>
