<svg width="16" height="16" viewBox="0 0 16 16" fill="none" xmlns="http://www.w3.org/2000/svg">
<path fill-rule="evenodd" clip-rule="evenodd" d="M5.5 2.00877V5.5H2.00877C2.02929 4.63476 2.09786 4.0877 2.32698 3.63803C2.6146 3.07354 3.07354 2.6146 3.63803 2.32698C4.0877 2.09786 4.63476 2.02929 5.5 2.00877ZM6.5 2.00008V5.5H9.5V2.00008C9.40307 2 9.30311 2 9.2 2H6.8C6.69689 2 6.59693 2 6.5 2.00008ZM10.5 2.00877V5.5H13.9912C13.9707 4.63476 13.9021 4.0877 13.673 3.63803C13.3854 3.07354 12.9265 2.6146 12.362 2.32698C11.9123 2.09786 11.3652 2.02929 10.5 2.00877ZM13.9999 6.5H10.5V9.5H13.9999C14 9.40307 14 9.30311 14 9.2V6.8C14 6.69689 14 6.59693 13.9999 6.5ZM13.9912 10.5H10.5V13.9912C11.3652 13.9707 11.9123 13.9021 12.362 13.673C12.9265 13.3854 13.3854 12.9265 13.673 12.362C13.9021 11.9123 13.9707 11.3652 13.9912 10.5ZM9.5 13.9999V10.5H6.5V13.9999C6.59693 14 6.69689 14 6.8 14H9.2C9.30311 14 9.40307 14 9.5 13.9999ZM5.5 13.9912V10.5H2.00877C2.02929 11.3652 2.09786 11.9123 2.32698 12.362C2.6146 12.9265 3.07354 13.3854 3.63803 13.673C4.0877 13.9021 4.63476 13.9707 5.5 13.9912ZM2.00008 9.5H5.5V6.5H2.00008C2 6.59693 2 6.69689 2 6.8V9.2C2 9.30311 2 9.40307 2.00008 9.5ZM6.5 9.5V6.5H9.5V9.5H6.5Z" fill="black"/>
</svg>
