<svg width="16" height="16" viewBox="0 0 16 16" fill="none" xmlns="http://www.w3.org/2000/svg">
<path fill-rule="evenodd" clip-rule="evenodd" d="M13.5858 7.58579L8.58579 2.58579C8.21071 2.21071 7.70201 2 7.17157 2H3.5C2.67157 2 2 2.67157 2 3.5V7.17157C2 7.70201 2.21071 8.21071 2.58579 8.58579L7.58579 13.5858C8.36684 14.3668 9.63316 14.3668 10.4142 13.5858L13.5858 10.4142C14.3668 9.63317 14.3668 8.36684 13.5858 7.58579ZM4.5 5.5C5.05228 5.5 5.5 5.05228 5.5 4.5C5.5 3.94772 5.05228 3.5 4.5 3.5C3.94772 3.5 3.5 3.94772 3.5 4.5C3.5 5.05228 3.94772 5.5 4.5 5.5Z" fill="black"/>
</svg>
