<svg width="16" height="16" viewBox="0 0 16 16" fill="none" xmlns="http://www.w3.org/2000/svg">
<path d="M1.5 13.25L3.21429 9.25M10.5 13.25L8.78571 9.25M3.21429 9.25L6 2.75L8.78571 9.25M3.21429 9.25H8.78571" stroke="black" stroke-linecap="round" stroke-linejoin="round"/>
<path fill-rule="evenodd" clip-rule="evenodd" d="M7.32924 10.75L6.52708 13.0877C6.43746 13.3489 6.57654 13.6333 6.83773 13.7229C7.09893 13.8126 7.38332 13.6735 7.47295 13.4123L8.1242 11.5143L7.79663 10.75H7.32924ZM11.0605 10.75H12.9825L14.0345 13.4325C14.1353 13.6896 14.4255 13.8163 14.6826 13.7155C14.9396 13.6147 15.0663 13.3245 14.9655 13.0675L13.789 10.0675C13.785 10.0572 13.7806 10.0471 13.776 10.0371L10.9524 4.0371C10.8681 3.85782 10.6858 3.74528 10.4877 3.75015C10.2896 3.75503 10.1131 3.87641 10.0377 4.05963L9.1339 6.25451L9.68544 7.54145L10.5305 5.4891L12.5357 9.75H10.632L11.0605 10.75Z" fill="black"/>
</svg>
