<svg width="16" height="16" viewBox="0 0 16 16" fill="none" xmlns="http://www.w3.org/2000/svg">
<path d="M5 13H5.75M6.5 13H5.75M5.75 13L6.75 10.4286M9.25 4H8.5M9.25 4H10M9.25 4L6.75 10.4286M9.25 4L11.75 10.4286M12.75 13H12M12.75 13H13.5M12.75 13L11.75 10.4286M6.75 10.4286H11.75" stroke="black" stroke-linecap="round" stroke-linejoin="round"/>
<path fill-rule="evenodd" clip-rule="evenodd" d="M5.50001 2C5.70446 2 5.88832 2.12448 5.96425 2.3143L7.28262 5.61022L6.75169 6.97548L5.50001 3.84629L4.23853 7H6.74215L6.35326 8H3.83853L2.96425 10.1857C2.86169 10.4421 2.57071 10.5668 2.31432 10.4642C2.05792 10.3617 1.93322 10.0707 2.03577 9.8143L5.03577 2.3143C5.1117 2.12448 5.29556 2 5.50001 2ZM8.57732 9.17857L8.6427 9.01044L8.70996 9.17857H8.57732Z" fill="black"/>
</svg>
