<svg width="16" height="16" viewBox="0 0 16 16" fill="none" xmlns="http://www.w3.org/2000/svg">
<path d="M7.73486 1.54761C8.07657 1.2059 8.63059 1.2059 8.9723 1.54761L14.364 6.9393C14.7545 7.32983 14.7545 7.96299 14.364 8.35352L14.2701 8.44735C13.9183 8.79924 13.3612 8.83884 12.963 8.54024L7.04701 4.10322C6.80359 3.92066 6.77831 3.56483 6.99346 3.34967L7.64647 2.69666C7.35358 2.40377 7.35358 1.92889 7.64647 1.636L7.73486 1.54761Z" fill="black"/>
<path d="M8.2652 14.4523C7.92349 14.794 7.36947 14.794 7.02777 14.4523L1.63608 9.06064C1.24555 8.67011 1.24555 8.03695 1.63608 7.64642L1.72991 7.55259C2.08181 7.2007 2.6389 7.1611 3.03702 7.45969L8.95305 11.8967C9.19647 12.0793 9.22176 12.4351 9.0066 12.6503L8.35359 13.3033C8.64648 13.5962 8.64648 14.071 8.35359 14.3639L8.2652 14.4523Z" fill="black"/>
<path d="M5.87871 5.17152L11.5356 9.41416" stroke="black" stroke-linecap="round"/>
<path d="M4.46446 6.58577L10.1213 10.8284" stroke="black" stroke-linecap="round"/>
</svg>
