<svg width="16" height="16" viewBox="0 0 16 16" fill="none" xmlns="http://www.w3.org/2000/svg">
<path fill-rule="evenodd" clip-rule="evenodd" d="M6.5 3.25C5.84678 3.25 5.29108 3.66755 5.08524 4.25031C5.21632 4.25 5.35438 4.25 5.5 4.25H10.5C10.6456 4.25 10.7837 4.25 10.9148 4.25031C10.7089 3.66755 10.1532 3.25 9.5 3.25H6.5ZM6.5 2.25C5.283 2.25 4.2691 3.1196 4.04578 4.27132C3.53124 4.29985 3.17107 4.36655 2.86502 4.52248C2.39462 4.76217 2.01217 5.14462 1.77248 5.61502C1.5967 5.96003 1.53431 6.37382 1.51218 7H5V6.5C5 6.22386 5.22386 6 5.5 6C5.77614 6 6 6.22386 6 6.5V7H10V6.5C10 6.22386 10.2239 6 10.5 6C10.7761 6 11 6.22386 11 6.5V7H14.4878C14.4657 6.37382 14.4033 5.96003 14.2275 5.61502C13.9878 5.14462 13.6054 4.76217 13.135 4.52248C12.8289 4.36655 12.4688 4.29985 11.9542 4.27132C11.7309 3.1196 10.717 2.25 9.5 2.25H6.5ZM14.4999 8H11V8.5C11 8.77614 10.7761 9 10.5 9C10.2239 9 10 8.77614 10 8.5V8H6V8.5C6 8.77614 5.77614 9 5.5 9C5.22386 9 5 8.77614 5 8.5V8H1.50006C1.5 8.08078 1.5 8.16407 1.5 8.25V9.5C1.5 10.9001 1.5 11.6002 1.77248 12.135C2.01217 12.6054 2.39462 12.9878 2.86502 13.2275C3.3998 13.5 4.09987 13.5 5.5 13.5H10.5C11.9001 13.5 12.6002 13.5 13.135 13.2275C13.6054 12.9878 13.9878 12.6054 14.2275 12.135C14.5 11.6002 14.5 10.9001 14.5 9.5V8.25C14.5 8.16407 14.5 8.08078 14.4999 8Z" fill="black"/>
</svg>
