<svg width="16" height="16" viewBox="0 0 16 16" fill="none" xmlns="http://www.w3.org/2000/svg">
<path d="M14.5 13.5L13.5769 11.5M8.5 13.5L9.42308 11.5M9.42308 11.5L11.5 7L13.5769 11.5M9.42308 11.5H13.5769" stroke="black" stroke-linecap="round" stroke-linejoin="round"/>
<path d="M1.7746 3.45697H8.25002M4.041 2L4.041 9.60862" stroke="black" stroke-linecap="round" stroke-linejoin="round"/>
<path d="M2.09833 8.96108C4.27895 10.5187 6.78794 4.75 6.78794 4.75" stroke="black" stroke-linecap="round" stroke-linejoin="round"/>
<path d="M4.04097 5.3996C2.12989 6.16403 1.19181 8.31354 2.09835 8.96108" stroke="black" stroke-linecap="round" stroke-linejoin="round"/>
<path d="M8.24998 7.01845C8.24998 5.3996 5.65981 4.75206 4.04095 5.3996" stroke="black" stroke-linecap="round" stroke-linejoin="round"/>
<path d="M8.24998 7.01845C8.24998 7.89248 7.91359 8.4775 7.5 8.86647" stroke="black" stroke-linecap="round" stroke-linejoin="round"/>
<path d="M8.24998 7.01845C8.24998 7.89248 7.91359 8.4775 7.5 8.86647C7.17214 9.17481 6.79576 9.35996 6.5 9.46821" stroke="black" stroke-linecap="round" stroke-linejoin="round"/>
<path d="M5.98358 9.60861C5.98358 9.60861 6.20044 9.57785 6.5 9.46821" stroke="black" stroke-linecap="round" stroke-linejoin="round"/>
</svg>
