<svg width="16" height="16" viewBox="0 0 16 16" fill="none" xmlns="http://www.w3.org/2000/svg">
<path fill-rule="evenodd" clip-rule="evenodd" d="M3.07724 6.19268C3.02541 6.30643 3.03465 6.45426 3.05313 6.7499L3.31248 10.8996C3.37851 11.956 3.41152 12.4843 3.63826 12.885C3.83786 13.2377 4.13994 13.5215 4.50445 13.6987C4.91851 13.9 5.44776 13.9 6.50625 13.9H9.49376C10.5523 13.9 11.0815 13.9 11.4956 13.6987C11.8601 13.5215 12.1621 13.2377 12.3618 12.885C12.5885 12.4843 12.6215 11.956 12.6875 10.8996L12.9469 6.7499C12.9654 6.45426 12.9746 6.30643 12.9228 6.19268C12.8772 6.09271 12.8 6.01053 12.7031 5.95883C12.5928 5.9 12.4447 5.9 12.1484 5.9H3.85157C3.55534 5.9 3.40723 5.9 3.29693 5.95883C3.2 6.01053 3.12279 6.09271 3.07724 6.19268ZM7 8.25C7 7.97386 6.77614 7.75 6.5 7.75C6.22386 7.75 6 7.97386 6 8.25V11.25C6 11.5261 6.22386 11.75 6.5 11.75C6.77614 11.75 7 11.5261 7 11.25V8.25ZM10 8.25C10 7.97386 9.77614 7.75 9.5 7.75C9.22386 7.75 9 7.97386 9 8.25V11.25C9 11.5261 9.22386 11.75 9.5 11.75C9.77614 11.75 10 11.5261 10 11.25V8.25Z" fill="black"/>
<path fill-rule="evenodd" clip-rule="evenodd" d="M7.5 1.4C6.67157 1.4 6 2.07157 6 2.9L3.25 2.9C2.69772 2.9 2.25 3.34772 2.25 3.9C2.25 4.45228 2.69772 4.9 3.25 4.9H12.75C13.3023 4.9 13.75 4.45228 13.75 3.9C13.75 3.34772 13.3023 2.9 12.75 2.9L10 2.9C10 2.07157 9.32843 1.4 8.5 1.4H7.5Z" fill="black"/>
</svg>
