<svg width="16" height="16" viewBox="0 0 16 16" fill="none" xmlns="http://www.w3.org/2000/svg">
<path fill-rule="evenodd" clip-rule="evenodd" d="M2 6.8C2 5.11984 2 4.27976 2.32698 3.63803C2.6146 3.07354 3.07354 2.6146 3.63803 2.32698C4.27976 2 5.11984 2 6.8 2H9.2C10.8802 2 11.7202 2 12.362 2.32698C12.9265 2.6146 13.3854 3.07354 13.673 3.63803C14 4.27976 14 5.11984 14 6.8V9.2C14 10.8802 14 11.7202 13.673 12.362C13.3854 12.9265 12.9265 13.3854 12.362 13.673C11.7202 14 10.8802 14 9.2 14H6.8C5.11984 14 4.27976 14 3.63803 13.673C3.07354 13.3854 2.6146 12.9265 2.32698 12.362C2 11.7202 2 10.8802 2 9.2V6.8ZM10.5 9.00422C10.5009 9.14879 10.5461 9.21123 10.6229 9.27204C10.7371 9.36245 10.9065 9.43094 11.1756 9.53184L11.2045 9.54267C11.4335 9.62836 11.7478 9.74592 11.9979 9.94391C12.2953 10.1794 12.5 10.5226 12.5 11C12.5 11.2463 12.3881 11.5973 12.1765 11.888C11.9489 12.2007 11.5621 12.5 11.0001 12.5C10.5036 12.5 10.145 12.3313 9.90644 12.1404C9.79035 12.0476 9.70706 11.9531 9.65081 11.8781C9.6226 11.8405 9.60084 11.8073 9.58484 11.781C9.57682 11.7678 9.5702 11.7562 9.56491 11.7466L9.55792 11.7336L9.55513 11.7282L9.55391 11.7258L9.55335 11.7247L9.55307 11.7241C9.55294 11.7239 9.55281 11.7236 10 11.5L9.55281 11.7236C9.42931 11.4766 9.52943 11.1763 9.77641 11.0528C10.019 10.9315 10.3132 11.0259 10.4405 11.2634C10.4421 11.2659 10.4455 11.271 10.4508 11.2781C10.4649 11.2969 10.491 11.3274 10.5311 11.3596C10.6051 11.4187 10.7465 11.5 11.0001 11.5C11.1639 11.5 11.2771 11.4243 11.368 11.2995C11.4154 11.2344 11.451 11.1617 11.4741 11.0961C11.4927 11.0431 11.4979 11.0099 11.4994 11.0005C11.5 10.997 11.5 10.9968 11.5 11C11.5 10.8524 11.4547 10.7894 11.3772 10.728C11.263 10.6376 11.0935 10.5691 10.8245 10.4682L10.7955 10.4573L10.7955 10.4573C10.5665 10.3716 10.2523 10.2541 10.0022 10.0561C9.70472 9.82061 9.50002 9.47742 9.50002 9V8.99997L9.99966 9C9.50002 8.99997 9.50002 8.99972 9.50002 8.99947L9.50002 8.99894L9.50003 8.99782L9.50004 8.99528L9.50012 8.98904L9.50055 8.97208C9.50099 8.95886 9.50179 8.94178 9.50325 8.92138C9.50616 8.88074 9.51172 8.82595 9.52246 8.76152C9.54355 8.63503 9.58666 8.45872 9.67785 8.27637C9.77002 8.09206 9.91611 7.89254 10.1446 7.74022C10.3762 7.58581 10.6626 7.5 11.0001 7.5C11.4965 7.5 11.8552 7.66876 12.0937 7.85958C12.2097 7.95245 12.293 8.0469 12.3493 8.12191C12.3775 8.15952 12.3992 8.1927 12.4152 8.21906C12.4232 8.23227 12.4299 8.24383 12.4352 8.25347L12.4422 8.26647L12.4449 8.27185L12.4462 8.27424L12.4467 8.27536L12.447 8.27591C12.4471 8.27617 12.4473 8.27644 12 8.5L12.4473 8.27644C12.5707 8.52344 12.4706 8.82377 12.2236 8.94724C11.9809 9.06853 11.6868 8.97403 11.5595 8.73651C11.5579 8.73408 11.5546 8.72896 11.5492 8.72184C11.5352 8.7031 11.5091 8.67255 11.4689 8.64042C11.395 8.58124 11.2536 8.5 11.0001 8.5C10.8376 8.5 10.7489 8.53919 10.6993 8.57228C10.6465 8.60746 10.6051 8.65794 10.5723 8.72363C10.5384 8.79128 10.519 8.86497 10.5088 8.92598C10.504 8.9553 10.5017 8.97863 10.5007 8.99269L10.5 9.00422ZM6.25 7.5C5.97386 7.5 5.75 7.72386 5.75 8C5.75 8.27614 5.97386 8.5 6.25 8.5H7.00002L7 12C7 12.2761 7.22386 12.5 7.5 12.5C7.77614 12.5 8 12.2761 8 12L8.00002 8.5H8.75C9.02614 8.5 9.25 8.27614 9.25 8C9.25 7.72386 9.02614 7.5 8.75 7.5H7.50002H6.25Z" fill="black"/>
</svg>
