<svg width="16" height="16" viewBox="0 0 16 16" fill="none" xmlns="http://www.w3.org/2000/svg">
<path fill-rule="evenodd" clip-rule="evenodd" d="M2.82612 3.24265C2.76128 3.26801 2.69877 3.29603 2.63803 3.32698C2.07354 3.6146 1.6146 4.07354 1.32698 4.63803C1 5.27976 1 6.11984 1 7.8V8.2C1 9.88016 1 10.7202 1.32698 11.362C1.6146 11.9265 2.07354 12.3854 2.63803 12.673C3.27976 13 4.11984 13 5.8 13H6.7C7.90207 13 8.67413 13 9.25119 12.8803L2.82612 3.24265ZM11.2029 11.3009C11.3261 11.0378 11.3982 10.7395 11.4404 10.3643L12.5768 11.0461C13.3699 11.522 13.7665 11.7599 14.0928 11.7295C14.3773 11.703 14.6369 11.556 14.806 11.3257C15 11.0615 15 10.599 15 9.6741V6.3259C15 5.40095 15 4.93848 14.806 4.67433C14.6369 4.444 14.3773 4.29703 14.0928 4.27051C13.7665 4.24009 13.3699 4.47803 12.5768 4.95392L11.4404 5.63573C11.3949 5.23118 11.3147 4.916 11.173 4.63803C10.8854 4.07354 10.4265 3.6146 9.86197 3.32698C9.22024 3 8.38016 3 6.7 3H5.8C5.75575 3 5.71208 3 5.66898 3.00001L11.2029 11.3009Z" fill="black"/>
<path d="M3.5 2L11.5 14" stroke="black" stroke-linecap="round" stroke-linejoin="round"/>
</svg>
