<svg width="16" height="16" viewBox="0 0 16 16" fill="none" xmlns="http://www.w3.org/2000/svg">
<path fill-rule="evenodd" clip-rule="evenodd" d="M1 7.8C1 6.11984 1 5.27976 1.32698 4.63803C1.6146 4.07354 2.07354 3.6146 2.63803 3.32698C3.27976 3 4.11984 3 5.8 3H6.7C8.38016 3 9.22024 3 9.86197 3.32698C10.4265 3.6146 10.8854 4.07354 11.173 4.63803C11.3147 4.916 11.3949 5.23118 11.4404 5.63573L12.5768 4.95392C13.3699 4.47803 13.7665 4.24009 14.0928 4.27051C14.3773 4.29703 14.6369 4.444 14.806 4.67433C15 4.93848 15 5.40095 15 6.3259V9.6741C15 10.599 15 11.0615 14.806 11.3257C14.6369 11.556 14.3773 11.703 14.0928 11.7295C13.7665 11.7599 13.3699 11.522 12.5768 11.0461L11.4404 10.3643C11.3949 10.7688 11.3147 11.084 11.173 11.362C10.8854 11.9265 10.4265 12.3854 9.86197 12.673C9.74622 12.732 9.62401 12.7803 9.49159 12.82C9.43868 12.1043 9.05354 9.5 6.25003 9.5C3.44652 9.5 3.06136 12.1044 3.00844 12.82C2.87601 12.7803 2.75379 12.732 2.63803 12.673C2.07354 12.3854 1.6146 11.9265 1.32698 11.362C1 10.7202 1 9.88016 1 8.2V7.8ZM8.25 6.5C8.25 7.60457 7.35457 8.5 6.25 8.5C5.14543 8.5 4.25 7.60457 4.25 6.5C4.25 5.39543 5.14543 4.5 6.25 4.5C7.35457 4.5 8.25 5.39543 8.25 6.5Z" fill="black"/>
<rect x="1.5" y="3.5" width="9.5" height="9" rx="2.5" stroke="black"/>
</svg>
