<svg width="16" height="16" viewBox="0 0 16 16" fill="none" xmlns="http://www.w3.org/2000/svg">
<path d="M15 6.3259V9.6741C15 10.599 15 11.0615 14.806 11.3257C14.6369 11.556 14.3773 11.703 14.0928 11.7295C13.7665 11.7599 13.3699 11.522 12.5768 11.0461L10.7768 9.96608C10.4935 9.79612 10.3519 9.71114 10.249 9.59414C10.158 9.49061 10.0893 9.36936 10.0474 9.23802C10 9.08961 10 8.92444 10 8.5941V7.4059C10 7.07556 10 6.91039 10.0474 6.76198C10.0893 6.63064 10.158 6.50939 10.249 6.40586C10.3519 6.28886 10.4935 6.20388 10.7768 6.03392L10.7768 6.03392L12.5768 4.95392C13.3699 4.47803 13.7665 4.24009 14.0928 4.27051C14.3773 4.29703 14.6369 4.444 14.806 4.67433C15 4.93848 15 5.40095 15 6.3259Z" fill="black"/>
<rect x="1" y="3" width="10.5" height="10" rx="3" fill="black"/>
</svg>
