<svg width="16" height="16" viewBox="0 0 16 16" fill="none" xmlns="http://www.w3.org/2000/svg">
<path fill-rule="evenodd" clip-rule="evenodd" d="M2.07698 4.13803C1.75 4.77976 1.75 5.61984 1.75 7.3V8.7C1.75 10.3802 1.75 11.2202 2.07698 11.862C2.3646 12.4265 2.82354 12.8854 3.38803 13.173C4.02976 13.5 4.86984 13.5 6.55 13.5H9.45C11.1302 13.5 11.9702 13.5 12.612 13.173C13.1765 12.8854 13.6354 12.4265 13.923 11.862C14.25 11.2202 14.25 10.3802 14.25 8.7V7.3C14.25 5.61984 14.25 4.77976 13.923 4.13803C13.6354 3.57354 13.1765 3.1146 12.612 2.82698C11.9702 2.5 11.1302 2.5 9.45 2.5H6.55C4.86984 2.5 4.02976 2.5 3.38803 2.82698C2.82354 3.1146 2.3646 3.57354 2.07698 4.13803ZM11 9C11.5523 9 12 8.55228 12 8C12 7.44772 11.5523 7 11 7C10.4477 7 10 7.44772 10 8C10 8.55228 10.4477 9 11 9Z" fill="black"/>
</svg>
