<svg width="16" height="16" viewBox="0 0 16 16" fill="none" xmlns="http://www.w3.org/2000/svg">
<path fill-rule="evenodd" clip-rule="evenodd" d="M2.32698 3.63803C2 4.27976 2 5.11984 2 6.8V9.2C2 10.8802 2 11.7202 2.32698 12.362C2.6146 12.9265 3.07354 13.3854 3.63803 13.673C4.27976 14 5.11984 14 6.8 14H9.2C10.8802 14 11.7202 14 12.362 13.673C12.9265 13.3854 13.3854 12.9265 13.673 12.362C14 11.7202 14 10.8802 14 9.2V6.8C14 5.11984 14 4.27976 13.673 3.63803C13.3854 3.07354 12.9265 2.6146 12.362 2.32698C11.7202 2 10.8802 2 9.2 2H6.8C5.11984 2 4.27976 2 3.63803 2.32698C3.07354 2.6146 2.6146 3.07354 2.32698 3.63803ZM9.53275 9.63676C9.79101 9.78688 10.0848 9.86194 10.4141 9.86194C10.6255 9.86194 10.8209 9.83127 11 9.76993C11.1792 9.70698 11.3382 9.6182 11.477 9.5036C11.6174 9.38738 11.732 9.24856 11.8208 9.08714C11.9112 8.92411 11.9709 8.74171 12 8.53994H11.2591C11.2365 8.64647 11.2002 8.74171 11.1501 8.82565C11.1001 8.90797 11.0388 8.97818 10.9661 9.03629C10.8951 9.0944 10.8136 9.13879 10.7216 9.16946C10.6312 9.19852 10.5319 9.21305 10.4238 9.21305C10.2172 9.21305 10.0404 9.16381 9.89351 9.06535C9.74662 8.96527 9.63444 8.82484 9.55696 8.64405C9.47948 8.46327 9.44074 8.24939 9.44074 8.00242C9.44074 7.75384 9.47948 7.53916 9.55696 7.35837C9.63605 7.17597 9.74824 7.03554 9.89351 6.93707C10.0404 6.83699 10.2172 6.78695 10.4238 6.78695C10.5319 6.78695 10.632 6.80229 10.724 6.83296C10.816 6.86201 10.8975 6.9056 10.9685 6.96371C11.0412 7.02182 11.1017 7.09284 11.1501 7.17678C11.2002 7.26071 11.2365 7.35675 11.2591 7.4649H12C11.9709 7.26313 11.9112 7.08073 11.8208 6.9177C11.732 6.75467 11.6182 6.61505 11.4794 6.49883C11.3406 6.38261 11.1808 6.29383 11 6.23249C10.8209 6.16954 10.6255 6.13806 10.4141 6.13806C10.0848 6.13806 9.79021 6.21393 9.53033 6.36566C9.27206 6.51577 9.06948 6.73046 8.92259 7.00971C8.7757 7.28735 8.70226 7.61825 8.70226 8.00242C8.70226 8.38336 8.7757 8.71346 8.92259 8.99271C9.0711 9.27035 9.27448 9.48503 9.53275 9.63676ZM4 6.19617L4.9685 9.80383H5.7893L6.30503 7.82083C6.34215 7.67717 6.37847 7.51817 6.41399 7.34384C6.42249 7.30169 6.43137 7.25834 6.44062 7.21378C6.44987 7.25834 6.45875 7.30169 6.46725 7.34384C6.50438 7.51817 6.5415 7.67717 6.57863 7.82083L7.09436 9.80383H7.91516L8.88608 6.19617H8.10402L7.67303 8.00484C7.64075 8.15173 7.60847 8.29943 7.57618 8.44793C7.54552 8.59482 7.51565 8.74252 7.4866 8.89102L7.47629 8.9462L7.46481 8.89102C7.43414 8.74252 7.40266 8.59482 7.37038 8.44793C7.3381 8.29943 7.3042 8.15173 7.26869 8.00484L6.81833 6.19617H6.06775L5.61497 8.00484C5.57946 8.15173 5.54556 8.29943 5.51328 8.44793C5.481 8.59482 5.44952 8.74252 5.41885 8.89102L5.40545 8.95849L5.39222 8.89102C5.36478 8.74252 5.33572 8.59482 5.30505 8.44793C5.276 8.29943 5.24452 8.15173 5.21062 8.00484L4.77964 6.19617H4Z" fill="black"/>
</svg>
