<svg width="16" height="16" viewBox="0 0 16 16" fill="none" xmlns="http://www.w3.org/2000/svg">
<path fill-rule="evenodd" clip-rule="evenodd" d="M2 6.8C2 5.11984 2 4.27976 2.32698 3.63803C2.6146 3.07354 3.07354 2.6146 3.63803 2.32698C4.27976 2 5.11984 2 6.8 2H9.2C10.8802 2 11.7202 2 12.362 2.32698C12.9265 2.6146 13.3854 3.07354 13.673 3.63803C14 4.27976 14 5.11984 14 6.8V9.2C14 10.8802 14 11.7202 13.673 12.362C13.3854 12.9265 12.9265 13.3854 12.362 13.673C11.7202 14 10.8802 14 9.2 14H6.8C5.11984 14 4.27976 14 3.63803 13.673C3.07354 13.3854 2.6146 12.9265 2.32698 12.362C2 11.7202 2 10.8802 2 9.2V6.8ZM3.787 6.07733C4.04806 5.98731 4.33267 6.12596 4.42269 6.38702L4.95 7.91622L5.47731 6.38702C5.54685 6.18536 5.73668 6.05002 5.95 6.05002C6.16332 6.05002 6.35315 6.18536 6.42269 6.38702L6.95 7.91622L7.47731 6.38702C7.56733 6.12596 7.85194 5.98731 8.113 6.07733C8.37405 6.16735 8.51271 6.45196 8.42269 6.71301L7.42269 9.613C7.35315 9.81466 7.16332 9.95 6.95 9.95C6.73668 9.95 6.54685 9.81466 6.47731 9.613L5.95 8.0838L5.42269 9.613C5.35315 9.81466 5.16332 9.95 4.95 9.95C4.73668 9.95 4.54685 9.81466 4.47731 9.613L3.47731 6.71301C3.38729 6.45196 3.52595 6.16735 3.787 6.07733ZM11.1402 6.03843C10.7522 5.96126 10.3501 6.00087 9.98463 6.15224C9.61918 6.30362 9.30682 6.55996 9.08706 6.88886C8.8673 7.21776 8.75 7.60444 8.75 8C8.75 8.39556 8.8673 8.78224 9.08706 9.11114C9.30682 9.44004 9.61918 9.69638 9.98463 9.84776C10.3501 9.99913 10.7522 10.0387 11.1402 9.96157C11.5281 9.8844 11.8845 9.69392 12.1642 9.41421C12.3595 9.21895 12.3595 8.90237 12.1642 8.70711C11.969 8.51184 11.6524 8.51184 11.4571 8.70711C11.3173 8.84696 11.1391 8.9422 10.9451 8.98079C10.7511 9.01937 10.55 8.99957 10.3673 8.92388C10.1846 8.84819 10.0284 8.72002 9.91853 8.55557C9.80865 8.39112 9.75 8.19778 9.75 8C9.75 7.80222 9.80865 7.60888 9.91853 7.44443C10.0284 7.27998 10.1846 7.15181 10.3673 7.07612C10.55 7.00043 10.7511 6.98063 10.9451 7.01921C11.1391 7.0578 11.3173 7.15304 11.4571 7.29289C11.6524 7.48816 11.969 7.48816 12.1642 7.29289C12.3595 7.09763 12.3595 6.78105 12.1642 6.58579C11.8845 6.30608 11.5281 6.1156 11.1402 6.03843Z" fill="black"/>
</svg>
