<svg width="16" height="16" viewBox="0 0 16 16" fill="none" xmlns="http://www.w3.org/2000/svg">
<path fill-rule="evenodd" clip-rule="evenodd" d="M9.00005 9.72951V10.2213C9.00005 10.4057 9.09344 10.5807 9.26079 10.7377C9.26078 10.7377 9.26078 10.7377 9.26077 10.7377C9.70958 11.1588 10.6903 11.4508 11.8279 11.4508C11.8279 11.4508 11.8279 11.4508 11.8279 11.4508C11.953 11.4508 12.0761 11.4473 12.1969 11.4404C13.5844 11.3618 14.6558 10.846 14.6558 10.2213V9.73708L14.6558 9.72951C14.6558 9.05047 13.3898 8.5 11.828 8.5C10.2662 8.5 9.0001 9.05047 9.0001 9.72951L9.00005 9.72951ZM14.6557 11.2458L14.6557 11.2541L14.6557 11.2541V11.7459C14.6557 11.9303 14.5623 12.1053 14.395 12.2623L14.395 12.2623C14.0893 12.5491 13.5369 12.776 12.8562 12.8916C12.6233 12.9311 12.3753 12.9577 12.117 12.9691C12.0219 12.9733 11.9255 12.9754 11.8279 12.9754L11.8279 12.9754C11.4374 12.9754 11.0655 12.941 10.7271 12.8788C9.71218 12.6921 9.00001 12.2552 9.00001 11.7459V11.2572L9 11.2541L9.00006 11.2457C9.17832 11.3873 9.38661 11.5044 9.60679 11.6001C9.77304 11.6724 9.95395 11.7359 10.1466 11.79L10.1466 11.79C10.6455 11.93 11.2229 12.0063 11.8279 12.0063C12.4329 12.0063 13.0103 11.93 13.5092 11.79L13.5092 11.79C13.7018 11.736 13.8827 11.6724 14.049 11.6001C14.2691 11.5044 14.4774 11.3873 14.6557 11.2458ZM14.049 13.1247C14.2691 13.029 14.4774 12.9119 14.6557 12.7703L14.6557 12.7787L14.6557 12.7787V13.2705C14.6557 13.9495 13.3897 14.5 11.8279 14.5C10.2661 14.5 9.00002 13.9495 9.00002 13.2705V12.7818L9.00001 12.7787L9.00007 12.7703C9.17833 12.9119 9.38662 13.029 9.6068 13.1247C10.2036 13.3842 10.9893 13.5309 11.8279 13.5309C12.6665 13.5309 13.4522 13.3842 14.049 13.1247Z" fill="black"/>
<path fill-rule="evenodd" clip-rule="evenodd" d="M3.00176 6H12.9982C12.9999 6.23749 13 6.50216 13 6.8V7.59396C13.3569 7.65317 13.6943 7.73985 14 7.85243V6.8C14 6.50929 14 6.24373 13.9983 6H14C14 5.07003 14 4.60504 13.8978 4.22354C13.7775 3.77484 13.5575 3.36871 13.2625 3.02996C13.1786 2.93364 13.0887 2.84278 12.9933 2.75793C12.6499 2.45263 12.2355 2.22521 11.7765 2.10222C11.395 2 10.93 2 10 2H9.2H6.8H6C5.07003 2 4.60504 2 4.22354 2.10222C3.18827 2.37962 2.37962 3.18827 2.10222 4.22354C2 4.60504 2 5.07003 2 6H2.00169C2 6.24373 2 6.50929 2 6.8V9.2C2 10.8802 2 11.7202 2.32698 12.362C2.6146 12.9265 3.07354 13.3854 3.63803 13.673C4.27976 14 5.11984 14 6.8 14H8.18035C8.07166 13.7903 8.00002 13.546 8.00002 13.2705V13H6.8C5.94342 13 5.36113 12.9992 4.91104 12.9624C4.47262 12.9266 4.24842 12.8617 4.09202 12.782C3.71569 12.5903 3.40973 12.2843 3.21799 11.908C3.1383 11.7516 3.07337 11.5274 3.03755 11.089C3.00078 10.6389 3 10.0566 3 9.2V6.8C3 6.50216 3.00009 6.23749 3.00176 6ZM9.00002 13V13.2705C9.00002 13.2843 9.00054 13.298 9.00158 13.3117C9.01552 13.4957 9.12245 13.6695 9.30258 13.8244C9.37426 13.8861 9.45752 13.9447 9.55114 13.9999C11.0005 13.9983 11.7666 13.9764 12.362 13.673C12.4765 13.6147 12.5867 13.5492 12.692 13.4773C12.5132 13.5 12.3292 13.5157 12.1415 13.524C12.038 13.5286 11.9334 13.5309 11.8279 13.5309H11.8279H11.8279L11.8127 13.5309H11.8127C11.3988 13.53 10.998 13.4934 10.6267 13.4251C10.4057 13.3845 10.1953 13.3327 9.99867 13.2705C9.86082 13.2269 9.7298 13.1782 9.6068 13.1247C9.5191 13.0866 9.4333 13.0451 9.35052 13C9.3013 13 9.25114 13 9.2 13H9.00002ZM11.2364 12.9485C11.4272 12.9661 11.625 12.9754 11.8279 12.9754H11.8279L11.8279 12.9754C11.9255 12.9754 12.0219 12.9733 12.117 12.9691C12.3753 12.9577 12.6233 12.9311 12.8562 12.8916C13.0342 12.8614 13.2033 12.8236 13.3616 12.779C13.3847 12.7726 13.4075 12.7659 13.4301 12.7592C13.5208 12.6338 13.6021 12.5011 13.673 12.362C13.7779 12.1561 13.8491 11.9299 13.8975 11.662C13.8815 11.6682 13.8653 11.6743 13.849 11.6803L13.849 11.6803C13.8215 11.6904 13.7938 11.7003 13.7657 11.71C13.73 11.7223 13.6938 11.7343 13.6571 11.7459C13.6103 11.7607 13.5627 11.7749 13.5143 11.7886L13.5092 11.79L13.5092 11.79C13.2761 11.8554 13.0258 11.9069 12.7636 11.9432C12.571 12.3034 12.2725 12.5963 11.908 12.782C11.7702 12.8522 11.5797 12.911 11.2364 12.9485ZM12.9341 11.3532C13.0827 11.3257 13.2248 11.2928 13.3591 11.2552L13.3591 11.2552C13.4886 11.2188 13.6108 11.178 13.7247 11.1332L13.7247 11.1332C13.7598 11.1194 13.794 11.1053 13.8275 11.0907C13.8767 11.0693 13.9242 11.0471 13.9697 11.0242C14 10.5485 14 9.96023 14 9.2V8.94214C13.7297 8.80136 13.3884 8.68725 13 8.61024V9.2C13 10.0566 12.9992 10.6389 12.9624 11.089C12.9544 11.1873 12.9449 11.2748 12.9341 11.3532Z" fill="black"/>
</svg>
